%TF.GenerationSoftware,KiCad,Pcbnew,(6.0.9)*%
%TF.CreationDate,2022-12-09T22:08:28+01:00*%
%TF.ProjectId,PartoDos,50617274-6f44-46f7-932e-6b696361645f,rev?*%
%TF.SameCoordinates,Original*%
%TF.FileFunction,Drillmap*%
%TF.FilePolarity,Positive*%
%FSLAX45Y45*%
G04 Gerber Fmt 4.5, Leading zero omitted, Abs format (unit mm)*
G04 Created by KiCad (PCBNEW (6.0.9)) date 2022-12-09 22:08:28*
%MOMM*%
%LPD*%
G01*
G04 APERTURE LIST*
%ADD10C,0.038100*%
%ADD11C,0.200000*%
G04 APERTURE END LIST*
D10*
X13975000Y-15300000D02*
X13975000Y-10300000D01*
X13050000Y-14300000D02*
X10050000Y-14300000D01*
X10050000Y-14300000D02*
X11800000Y-11300000D01*
X13050000Y-15300000D02*
X13050000Y-14300000D01*
X14050000Y-5275000D02*
X17050000Y-8300000D01*
X11050000Y-8300000D02*
X12300000Y-8300000D01*
X11800000Y-11300000D02*
X10550000Y-11300000D01*
X11050000Y-8300000D02*
X14050000Y-5275000D01*
X13975000Y-15300000D02*
X13050000Y-15300000D01*
X14125000Y-12875000D02*
X14550000Y-12875000D01*
X14125000Y-10300000D02*
X14125000Y-12875000D01*
X18050000Y-14300000D02*
X15050000Y-14300000D01*
X14550000Y-15300000D02*
X15050000Y-15300000D01*
X13975000Y-10300000D02*
X14125000Y-10300000D01*
X15800000Y-8300000D02*
X17550000Y-11300000D01*
X15800000Y-8300000D02*
X17050000Y-8300000D01*
X14550000Y-12875000D02*
X14550000Y-15300000D01*
X17550000Y-11300000D02*
X16300000Y-11300000D01*
X10550000Y-11300000D02*
X12300000Y-8300000D01*
X16300000Y-11300000D02*
X18050000Y-14300000D01*
X15050000Y-14300000D02*
X15050000Y-15300000D01*
D11*
X10305714Y-15612381D02*
X10305714Y-15412381D01*
X10353333Y-15412381D01*
X10381905Y-15421905D01*
X10400952Y-15440953D01*
X10410476Y-15460000D01*
X10420000Y-15498095D01*
X10420000Y-15526667D01*
X10410476Y-15564762D01*
X10400952Y-15583810D01*
X10381905Y-15602857D01*
X10353333Y-15612381D01*
X10305714Y-15612381D01*
X10505714Y-15612381D02*
X10505714Y-15479048D01*
X10505714Y-15517143D02*
X10515238Y-15498095D01*
X10524762Y-15488572D01*
X10543809Y-15479048D01*
X10562857Y-15479048D01*
X10629524Y-15612381D02*
X10629524Y-15479048D01*
X10629524Y-15412381D02*
X10620000Y-15421905D01*
X10629524Y-15431429D01*
X10639047Y-15421905D01*
X10629524Y-15412381D01*
X10629524Y-15431429D01*
X10753333Y-15612381D02*
X10734285Y-15602857D01*
X10724762Y-15583810D01*
X10724762Y-15412381D01*
X10858095Y-15612381D02*
X10839047Y-15602857D01*
X10829524Y-15583810D01*
X10829524Y-15412381D01*
X11086666Y-15612381D02*
X11086666Y-15412381D01*
X11153333Y-15555238D01*
X11220000Y-15412381D01*
X11220000Y-15612381D01*
X11400952Y-15612381D02*
X11400952Y-15507619D01*
X11391428Y-15488572D01*
X11372381Y-15479048D01*
X11334285Y-15479048D01*
X11315238Y-15488572D01*
X11400952Y-15602857D02*
X11381904Y-15612381D01*
X11334285Y-15612381D01*
X11315238Y-15602857D01*
X11305714Y-15583810D01*
X11305714Y-15564762D01*
X11315238Y-15545714D01*
X11334285Y-15536191D01*
X11381904Y-15536191D01*
X11400952Y-15526667D01*
X11496190Y-15479048D02*
X11496190Y-15679048D01*
X11496190Y-15488572D02*
X11515238Y-15479048D01*
X11553333Y-15479048D01*
X11572381Y-15488572D01*
X11581904Y-15498095D01*
X11591428Y-15517143D01*
X11591428Y-15574286D01*
X11581904Y-15593333D01*
X11572381Y-15602857D01*
X11553333Y-15612381D01*
X11515238Y-15612381D01*
X11496190Y-15602857D01*
X11677143Y-15593333D02*
X11686666Y-15602857D01*
X11677143Y-15612381D01*
X11667619Y-15602857D01*
X11677143Y-15593333D01*
X11677143Y-15612381D01*
X11677143Y-15488572D02*
X11686666Y-15498095D01*
X11677143Y-15507619D01*
X11667619Y-15498095D01*
X11677143Y-15488572D01*
X11677143Y-15507619D01*
M02*
