%TF.GenerationSoftware,KiCad,Pcbnew,(6.0.9)*%
%TF.CreationDate,2022-12-10T13:43:41+01:00*%
%TF.ProjectId,PartoDos,50617274-6f44-46f7-932e-6b696361645f,rev?*%
%TF.SameCoordinates,Original*%
%TF.FileFunction,Copper,L1,Top*%
%TF.FilePolarity,Positive*%
%FSLAX46Y46*%
G04 Gerber Fmt 4.6, Leading zero omitted, Abs format (unit mm)*
G04 Created by KiCad (PCBNEW (6.0.9)) date 2022-12-10 13:43:41*
%MOMM*%
%LPD*%
G01*
G04 APERTURE LIST*
G04 Aperture macros list*
%AMRoundRect*
0 Rectangle with rounded corners*
0 $1 Rounding radius*
0 $2 $3 $4 $5 $6 $7 $8 $9 X,Y pos of 4 corners*
0 Add a 4 corners polygon primitive as box body*
4,1,4,$2,$3,$4,$5,$6,$7,$8,$9,$2,$3,0*
0 Add four circle primitives for the rounded corners*
1,1,$1+$1,$2,$3*
1,1,$1+$1,$4,$5*
1,1,$1+$1,$6,$7*
1,1,$1+$1,$8,$9*
0 Add four rect primitives between the rounded corners*
20,1,$1+$1,$2,$3,$4,$5,0*
20,1,$1+$1,$4,$5,$6,$7,0*
20,1,$1+$1,$6,$7,$8,$9,0*
20,1,$1+$1,$8,$9,$2,$3,0*%
G04 Aperture macros list end*
%TA.AperFunction,SMDPad,CuDef*%
%ADD10RoundRect,0.250000X0.312500X0.625000X-0.312500X0.625000X-0.312500X-0.625000X0.312500X-0.625000X0*%
%TD*%
%TA.AperFunction,SMDPad,CuDef*%
%ADD11RoundRect,0.250000X-0.312500X-0.625000X0.312500X-0.625000X0.312500X0.625000X-0.312500X0.625000X0*%
%TD*%
%TA.AperFunction,SMDPad,CuDef*%
%ADD12RoundRect,0.250000X-0.250000X-0.750000X0.250000X-0.750000X0.250000X0.750000X-0.250000X0.750000X0*%
%TD*%
%TA.AperFunction,SMDPad,CuDef*%
%ADD13RoundRect,0.243750X-0.243750X-0.456250X0.243750X-0.456250X0.243750X0.456250X-0.243750X0.456250X0*%
%TD*%
%TA.AperFunction,SMDPad,CuDef*%
%ADD14RoundRect,0.243750X0.243750X0.456250X-0.243750X0.456250X-0.243750X-0.456250X0.243750X-0.456250X0*%
%TD*%
%TA.AperFunction,SMDPad,CuDef*%
%ADD15RoundRect,0.250000X0.250000X0.750000X-0.250000X0.750000X-0.250000X-0.750000X0.250000X-0.750000X0*%
%TD*%
%TA.AperFunction,ViaPad*%
%ADD16C,0.600000*%
%TD*%
%TA.AperFunction,Conductor*%
%ADD17C,0.254000*%
%TD*%
G04 APERTURE END LIST*
D10*
%TO.P,R6,1*%
%TO.N,Net-(D6-Pad2)*%
X168721500Y-138430000D03*
%TO.P,R6,2*%
%TO.N,/WHI3*%
X165796500Y-138430000D03*
%TD*%
%TO.P,R5,1*%
%TO.N,Net-(D5-Pad2)*%
X160339500Y-107442000D03*
%TO.P,R5,2*%
%TO.N,/GRE1*%
X157414500Y-107442000D03*
%TD*%
%TO.P,R4,1*%
%TO.N,Net-(D4-Pad2)*%
X156148500Y-78994000D03*
%TO.P,R4,2*%
%TO.N,/YEL3*%
X153223500Y-78994000D03*
%TD*%
D11*
%TO.P,R3,1*%
%TO.N,Net-(D3-Pad2)*%
X112202500Y-138430000D03*
%TO.P,R3,2*%
%TO.N,/BLU1*%
X115127500Y-138430000D03*
%TD*%
%TO.P,R2,1*%
%TO.N,Net-(D2-Pad2)*%
X120711500Y-107442000D03*
%TO.P,R2,2*%
%TO.N,/YEL4*%
X123636500Y-107442000D03*
%TD*%
%TO.P,R1,1*%
%TO.N,Net-(D1-Pad2)*%
X122870500Y-78994000D03*
%TO.P,R1,2*%
%TO.N,/RED4*%
X125795500Y-78994000D03*
%TD*%
D12*
%TO.P,J7,1,Pin_1*%
%TO.N,/GRE2*%
X138938000Y-76327000D03*
%TD*%
%TO.P,J8,1,Pin_1*%
%TO.N,/BLU2*%
X138938000Y-83947000D03*
%TD*%
D13*
%TO.P,D2,1,K*%
%TO.N,GND*%
X117045500Y-107442000D03*
%TO.P,D2,2,A*%
%TO.N,Net-(D2-Pad2)*%
X118920500Y-107442000D03*
%TD*%
D14*
%TO.P,D6,1,K*%
%TO.N,GND*%
X172387500Y-138430000D03*
%TO.P,D6,2,A*%
%TO.N,Net-(D6-Pad2)*%
X170512500Y-138430000D03*
%TD*%
D12*
%TO.P,J20,1,Pin_1*%
%TO.N,GND*%
X142113000Y-83947000D03*
%TD*%
%TO.P,J16,1,Pin_1*%
%TO.N,GND*%
X138938000Y-61087000D03*
%TD*%
D14*
%TO.P,D4,1,K*%
%TO.N,GND*%
X159863000Y-78994000D03*
%TO.P,D4,2,A*%
%TO.N,Net-(D4-Pad2)*%
X157988000Y-78994000D03*
%TD*%
D12*
%TO.P,J18,1,Pin_1*%
%TO.N,GND*%
X142113000Y-68707000D03*
%TD*%
%TO.P,J19,1,Pin_1*%
%TO.N,GND*%
X142113000Y-76327000D03*
%TD*%
%TO.P,J2,1,Pin_1*%
%TO.N,/YEL4*%
X138938000Y-80137000D03*
%TD*%
%TO.P,J31,1,Pin_1*%
%TO.N,GND*%
X142113000Y-123952000D03*
%TD*%
D13*
%TO.P,D1,1,K*%
%TO.N,GND*%
X119204500Y-78994000D03*
%TO.P,D1,2,A*%
%TO.N,Net-(D1-Pad2)*%
X121079500Y-78994000D03*
%TD*%
D14*
%TO.P,D5,1,K*%
%TO.N,GND*%
X164005500Y-107442000D03*
%TO.P,D5,2,A*%
%TO.N,Net-(D5-Pad2)*%
X162130500Y-107442000D03*
%TD*%
D12*
%TO.P,J30,1,Pin_1*%
%TO.N,GND*%
X142113000Y-117094000D03*
%TD*%
%TO.P,J6,1,Pin_1*%
%TO.N,/WHI3*%
X138938000Y-95377000D03*
%TD*%
%TO.P,J3,1,Pin_1*%
%TO.N,/BLU1*%
X138938000Y-87757000D03*
%TD*%
%TO.P,J17,1,Pin_1*%
%TO.N,GND*%
X142113000Y-61087000D03*
%TD*%
%TO.P,J28,1,Pin_1*%
%TO.N,GND*%
X138938000Y-117094000D03*
%TD*%
%TO.P,J12,1,Pin_1*%
%TO.N,/GRE3*%
X138938000Y-99187000D03*
%TD*%
D13*
%TO.P,D3,1,K*%
%TO.N,GND*%
X108536500Y-138430000D03*
%TO.P,D3,2,A*%
%TO.N,Net-(D3-Pad2)*%
X110411500Y-138430000D03*
%TD*%
D12*
%TO.P,J14,1,Pin_1*%
%TO.N,GND*%
X138938000Y-68707000D03*
%TD*%
%TO.P,J9,1,Pin_1*%
%TO.N,/YEL5*%
X138938000Y-91567000D03*
%TD*%
D15*
%TO.P,J1,1,Pin_1*%
%TO.N,/RED4*%
X138938000Y-72517000D03*
%TD*%
D12*
%TO.P,J29,1,Pin_1*%
%TO.N,GND*%
X138938000Y-123952000D03*
%TD*%
%TO.P,J15,1,Pin_1*%
%TO.N,GND*%
X138938000Y-64897000D03*
%TD*%
D16*
%TO.N,GND*%
X143129000Y-61087000D03*
X134620000Y-98679000D03*
X137033000Y-81661000D03*
X135382000Y-77978000D03*
X142240000Y-114173000D03*
X134620000Y-96139000D03*
X135636000Y-129413000D03*
X145288000Y-90805000D03*
X122428000Y-139573000D03*
X130302000Y-136652000D03*
X152527000Y-109093000D03*
X137922000Y-64897000D03*
X137922000Y-68707000D03*
X138684000Y-109093000D03*
X134620000Y-91059000D03*
X135382000Y-80645000D03*
X143256000Y-78613000D03*
X134620000Y-106299000D03*
X129540000Y-109093000D03*
X149987000Y-106299000D03*
X119888000Y-139573000D03*
X155067000Y-109093000D03*
X135636000Y-131953000D03*
X145288000Y-88265000D03*
X135636000Y-126873000D03*
X135636000Y-109093000D03*
X147955000Y-139573000D03*
X146431000Y-125857000D03*
X124968000Y-136652000D03*
X138684000Y-114173000D03*
X144907000Y-124333000D03*
X137922000Y-61087000D03*
X127000000Y-109093000D03*
X149987000Y-109093000D03*
X127762000Y-136652000D03*
X115824000Y-107442000D03*
X150495000Y-136652000D03*
X150368000Y-80645000D03*
X161211500Y-78994000D03*
X147955000Y-136652000D03*
X144907000Y-119253000D03*
X127762000Y-139573000D03*
X117094000Y-139573000D03*
X138684000Y-111633000D03*
X127762000Y-77978000D03*
X173673000Y-138430000D03*
X119888000Y-136652000D03*
X150495000Y-139573000D03*
X135636000Y-136652000D03*
X135636000Y-139573000D03*
X138684000Y-119253000D03*
X132080000Y-106299000D03*
X135636000Y-134493000D03*
X142240000Y-106553000D03*
X130302000Y-139573000D03*
X163195000Y-136652000D03*
X147447000Y-109093000D03*
X158115000Y-139573000D03*
X134620000Y-93599000D03*
X134620000Y-85979000D03*
X124968000Y-139573000D03*
X130302000Y-77978000D03*
X132842000Y-77978000D03*
X142240000Y-104013000D03*
X132842000Y-136652000D03*
X153035000Y-139573000D03*
X135636000Y-111633000D03*
X127762000Y-80645000D03*
X145288000Y-80645000D03*
X132842000Y-80645000D03*
X142240000Y-121793000D03*
X155067000Y-106299000D03*
X152527000Y-106299000D03*
X142240000Y-111633000D03*
X134620000Y-101219000D03*
X155575000Y-136652000D03*
X144907000Y-111633000D03*
X147955000Y-127381000D03*
X147447000Y-106299000D03*
X135636000Y-114173000D03*
X135255000Y-83439000D03*
X135636000Y-124333000D03*
X132080000Y-109093000D03*
X142240000Y-109093000D03*
X127000000Y-106299000D03*
X142748000Y-80645000D03*
X144907000Y-109093000D03*
X135636000Y-116713000D03*
X155575000Y-139573000D03*
X142240000Y-119253000D03*
X160655000Y-139573000D03*
X134620000Y-103759000D03*
X153035000Y-136652000D03*
X145288000Y-83185000D03*
X138684000Y-104013000D03*
X165354000Y-107442000D03*
X147828000Y-80645000D03*
X138684000Y-106553000D03*
X132842000Y-139573000D03*
X135636000Y-119253000D03*
X107188000Y-138430000D03*
X130302000Y-80645000D03*
X160655000Y-136652000D03*
X143129000Y-76327000D03*
X107188000Y-138430000D03*
X145288000Y-85725000D03*
X158115000Y-136652000D03*
X134620000Y-88519000D03*
X138684000Y-121793000D03*
X143129000Y-83947000D03*
X142240000Y-126746000D03*
X145288000Y-77978000D03*
X150368000Y-77978000D03*
X144907000Y-121793000D03*
X144907000Y-116713000D03*
X143129000Y-68707000D03*
X144907000Y-114173000D03*
X138684000Y-126746000D03*
X117919000Y-78994000D03*
X117094000Y-136652000D03*
X129540000Y-106299000D03*
X142748000Y-85725000D03*
X163195000Y-139573000D03*
X122428000Y-136652000D03*
X135636000Y-121793000D03*
X147828000Y-77978000D03*
%TO.N,/YEL3*%
X143002000Y-87757000D03*
%TO.N,/GRE1*%
X143002000Y-95377000D03*
%TO.N,/GRE2*%
X127381000Y-79629000D03*
%TO.N,/BLU2*%
X125095000Y-108077000D03*
%TO.N,/YEL5*%
X116967000Y-138430000D03*
%TO.N,/WHI4*%
X151638000Y-79629000D03*
X143002000Y-91567000D03*
%TO.N,/RED5*%
X155575000Y-108077000D03*
X143129000Y-99187000D03*
%TO.N,/GRE3*%
X163957000Y-137795000D03*
%TD*%
D17*
%TO.N,/GRE2*%
X136906000Y-79629000D02*
X138938000Y-77597000D01*
X138938000Y-77597000D02*
X138938000Y-76327000D01*
X127381000Y-79629000D02*
X136906000Y-79629000D01*
%TO.N,/RED4*%
X138938000Y-73787000D02*
X138938000Y-72517000D01*
X136652000Y-78994000D02*
X137795000Y-77851000D01*
X137795000Y-74930000D02*
X138938000Y-73787000D01*
X125795500Y-78994000D02*
X136652000Y-78994000D01*
X137795000Y-77851000D02*
X137795000Y-74930000D01*
%TO.N,/YEL4*%
X138938000Y-81407000D02*
X138938000Y-80137000D01*
X135763000Y-84582000D02*
X138938000Y-81407000D01*
X135763000Y-106553000D02*
X135763000Y-84582000D01*
X134874000Y-107442000D02*
X135763000Y-106553000D01*
X123636500Y-107442000D02*
X134874000Y-107442000D01*
%TO.N,/BLU2*%
X138938000Y-85217000D02*
X138938000Y-83947000D01*
X135001000Y-108077000D02*
X136271000Y-106807000D01*
X125095000Y-108077000D02*
X135001000Y-108077000D01*
X136271000Y-106807000D02*
X136271000Y-87884000D01*
X136271000Y-87884000D02*
X138938000Y-85217000D01*
%TO.N,/WHI4*%
X144526000Y-79629000D02*
X144272000Y-79883000D01*
X151638000Y-79629000D02*
X144526000Y-79629000D01*
X144272000Y-90297000D02*
X143002000Y-91567000D01*
X144272000Y-79883000D02*
X144272000Y-90297000D01*
%TO.N,/YEL3*%
X144399000Y-78994000D02*
X153223500Y-78994000D01*
X143764000Y-79629000D02*
X144399000Y-78994000D01*
X143764000Y-86995000D02*
X143764000Y-79629000D01*
X143002000Y-87757000D02*
X143764000Y-86995000D01*
%TO.N,/GRE1*%
X145288000Y-107442000D02*
X157414500Y-107442000D01*
X144907000Y-107061000D02*
X145288000Y-107442000D01*
X144907000Y-99949000D02*
X144907000Y-107061000D01*
X143002000Y-98044000D02*
X144907000Y-99949000D01*
X143002000Y-95377000D02*
X143002000Y-98044000D01*
%TO.N,/RED5*%
X144399000Y-100457000D02*
X143129000Y-99187000D01*
X145161000Y-108077000D02*
X144399000Y-107315000D01*
X155575000Y-108077000D02*
X145161000Y-108077000D01*
X144399000Y-107315000D02*
X144399000Y-100457000D01*
%TO.N,/GRE3*%
X138938000Y-100647500D02*
X138938000Y-99187000D01*
X139890500Y-101600000D02*
X138938000Y-100647500D01*
X142367000Y-101600000D02*
X139890500Y-101600000D01*
X143891000Y-103124000D02*
X142367000Y-101600000D01*
X146812000Y-128079500D02*
X143891000Y-125158500D01*
X146812000Y-137160000D02*
X146812000Y-128079500D01*
X143891000Y-125158500D02*
X143891000Y-103124000D01*
X163957000Y-137795000D02*
X147447000Y-137795000D01*
X147447000Y-137795000D02*
X146812000Y-137160000D01*
%TO.N,/WHI3*%
X147320000Y-138430000D02*
X165796500Y-138430000D01*
X146304000Y-137414000D02*
X147320000Y-138430000D01*
X146304000Y-128397000D02*
X146304000Y-137414000D01*
X139700000Y-102108000D02*
X141986000Y-102108000D01*
X137795000Y-100203000D02*
X139700000Y-102108000D01*
X141986000Y-102108000D02*
X143383000Y-103505000D01*
X138938000Y-96647000D02*
X137795000Y-97790000D01*
X137795000Y-97790000D02*
X137795000Y-100203000D01*
X138938000Y-95377000D02*
X138938000Y-96647000D01*
X143383000Y-103505000D02*
X143383000Y-125476000D01*
X143383000Y-125476000D02*
X146304000Y-128397000D01*
%TO.N,/BLU1*%
X138938000Y-89027000D02*
X138938000Y-87757000D01*
X136779000Y-91186000D02*
X138938000Y-89027000D01*
X116586000Y-137795000D02*
X136017000Y-137795000D01*
X136017000Y-137795000D02*
X136779000Y-137033000D01*
X115127500Y-138430000D02*
X115951000Y-138430000D01*
X115951000Y-138430000D02*
X116586000Y-137795000D01*
X136779000Y-137033000D02*
X136779000Y-91186000D01*
%TO.N,/YEL5*%
X137287000Y-94488000D02*
X138938000Y-92837000D01*
X137287000Y-137414000D02*
X137287000Y-94488000D01*
X138938000Y-92837000D02*
X138938000Y-91567000D01*
X116967000Y-138430000D02*
X136271000Y-138430000D01*
X136271000Y-138430000D02*
X137287000Y-137414000D01*
%TO.N,GND*%
X107188000Y-138430000D02*
X108536500Y-138430000D01*
X142113000Y-76327000D02*
X143129000Y-76327000D01*
X159863000Y-78994000D02*
X161211500Y-78994000D01*
X116918500Y-107442000D02*
X115824000Y-107442000D01*
X142113000Y-68707000D02*
X143129000Y-68707000D01*
X172451500Y-138430000D02*
X173800000Y-138430000D01*
X138938000Y-64897000D02*
X137922000Y-64897000D01*
X119267500Y-78994000D02*
X117919000Y-78994000D01*
X138938000Y-61087000D02*
X137922000Y-61087000D01*
X138938000Y-68707000D02*
X137922000Y-68707000D01*
X142113000Y-83947000D02*
X143129000Y-83947000D01*
X142113000Y-61087000D02*
X143129000Y-61087000D01*
X165354000Y-107442000D02*
X164005500Y-107442000D01*
%TO.N,Net-(D4-Pad2)*%
X156194500Y-78994000D02*
X157988000Y-78994000D01*
%TO.N,Net-(D5-Pad2)*%
X160337000Y-107442000D02*
X162130500Y-107442000D01*
%TO.N,Net-(D6-Pad2)*%
X168783000Y-138430000D02*
X170576500Y-138430000D01*
%TO.N,Net-(D1-Pad2)*%
X121079500Y-78994000D02*
X122936000Y-78994000D01*
%TO.N,Net-(D2-Pad2)*%
X118920500Y-107442000D02*
X120587000Y-107442000D01*
%TO.N,Net-(D3-Pad2)*%
X112205000Y-138430000D02*
X110411500Y-138430000D01*
%TD*%
%TA.AperFunction,Conductor*%
%TO.N,GND*%
G36*
X140543542Y-53532828D02*
G01*
X140589464Y-53562340D01*
X154811989Y-67903386D01*
X169020190Y-82229988D01*
X169066590Y-82276775D01*
X169100357Y-82339228D01*
X169094998Y-82410022D01*
X169052216Y-82466681D01*
X168985593Y-82491215D01*
X168977126Y-82491500D01*
X158015794Y-82491500D01*
X158009872Y-82491361D01*
X158006769Y-82491215D01*
X157951150Y-82488598D01*
X157942429Y-82490709D01*
X157942427Y-82490709D01*
X157909744Y-82498620D01*
X157897969Y-82500882D01*
X157855813Y-82506920D01*
X157844572Y-82512031D01*
X157844336Y-82512138D01*
X157821834Y-82519899D01*
X157809580Y-82522865D01*
X157801802Y-82527339D01*
X157801799Y-82527340D01*
X157772656Y-82544102D01*
X157761989Y-82549579D01*
X157731393Y-82563491D01*
X157723218Y-82567208D01*
X157713668Y-82575437D01*
X157694244Y-82589204D01*
X157683318Y-82595488D01*
X157653832Y-82626242D01*
X157645143Y-82634482D01*
X157612873Y-82662287D01*
X157607993Y-82669816D01*
X157607990Y-82669819D01*
X157606012Y-82672870D01*
X157591238Y-82691529D01*
X157582514Y-82700629D01*
X157562848Y-82738417D01*
X157556817Y-82748771D01*
X157533648Y-82784515D01*
X157530035Y-82796596D01*
X157521089Y-82818658D01*
X157515271Y-82829837D01*
X157507000Y-82871633D01*
X157504122Y-82883245D01*
X157491914Y-82924066D01*
X157491859Y-82933041D01*
X157491859Y-82933042D01*
X157491837Y-82936673D01*
X157489442Y-82960361D01*
X157486996Y-82972723D01*
X157487795Y-82981663D01*
X157490786Y-83015141D01*
X157491284Y-83027124D01*
X157491185Y-83043324D01*
X157491024Y-83069721D01*
X157493490Y-83078350D01*
X157493491Y-83078355D01*
X157494488Y-83081844D01*
X157498838Y-83105247D01*
X157499960Y-83117803D01*
X157503236Y-83126159D01*
X157503236Y-83126160D01*
X157515508Y-83157463D01*
X157519349Y-83168827D01*
X157528584Y-83201141D01*
X157528585Y-83201144D01*
X157531051Y-83209771D01*
X157535839Y-83217360D01*
X157535841Y-83217364D01*
X157564634Y-83262999D01*
X157566908Y-83266745D01*
X174504147Y-112302012D01*
X174521194Y-112370932D01*
X174498274Y-112438127D01*
X174442664Y-112482264D01*
X174395311Y-112491500D01*
X163015794Y-112491500D01*
X163009872Y-112491361D01*
X163007864Y-112491267D01*
X162951150Y-112488598D01*
X162942429Y-112490709D01*
X162942427Y-112490709D01*
X162909744Y-112498620D01*
X162897969Y-112500882D01*
X162855813Y-112506920D01*
X162844572Y-112512031D01*
X162844336Y-112512138D01*
X162821834Y-112519899D01*
X162809580Y-112522865D01*
X162801802Y-112527339D01*
X162801799Y-112527340D01*
X162772656Y-112544102D01*
X162761989Y-112549579D01*
X162731393Y-112563491D01*
X162723218Y-112567208D01*
X162713668Y-112575437D01*
X162694244Y-112589204D01*
X162683318Y-112595488D01*
X162653832Y-112626242D01*
X162645143Y-112634482D01*
X162612873Y-112662287D01*
X162607993Y-112669816D01*
X162607990Y-112669819D01*
X162606012Y-112672870D01*
X162591238Y-112691529D01*
X162582514Y-112700629D01*
X162562848Y-112738417D01*
X162556817Y-112748771D01*
X162533648Y-112784515D01*
X162530035Y-112796596D01*
X162521089Y-112818658D01*
X162515271Y-112829837D01*
X162507000Y-112871633D01*
X162504122Y-112883245D01*
X162491914Y-112924066D01*
X162491859Y-112933041D01*
X162491859Y-112933042D01*
X162491837Y-112936673D01*
X162489442Y-112960361D01*
X162486996Y-112972723D01*
X162487795Y-112981663D01*
X162490786Y-113015141D01*
X162491284Y-113027124D01*
X162491024Y-113069721D01*
X162493490Y-113078350D01*
X162493491Y-113078355D01*
X162494488Y-113081844D01*
X162498838Y-113105247D01*
X162499960Y-113117803D01*
X162503236Y-113126159D01*
X162503236Y-113126160D01*
X162515508Y-113157463D01*
X162519349Y-113168827D01*
X162528584Y-113201141D01*
X162528585Y-113201144D01*
X162531051Y-113209771D01*
X162535839Y-113217360D01*
X162535841Y-113217364D01*
X162564634Y-113262999D01*
X162566908Y-113266745D01*
X179504147Y-142302012D01*
X179521194Y-142370932D01*
X179498274Y-142438127D01*
X179442664Y-142482264D01*
X179395311Y-142491500D01*
X150508623Y-142491500D01*
X150507853Y-142491498D01*
X150507037Y-142491493D01*
X150430279Y-142491024D01*
X150407918Y-142497415D01*
X150401847Y-142499150D01*
X150385085Y-142502728D01*
X150355813Y-142506920D01*
X150347645Y-142510634D01*
X150347644Y-142510634D01*
X150332438Y-142517548D01*
X150314914Y-142523996D01*
X150290229Y-142531051D01*
X150282635Y-142535843D01*
X150282632Y-142535844D01*
X150265220Y-142546830D01*
X150250137Y-142554969D01*
X150223218Y-142567208D01*
X150216416Y-142573069D01*
X150203765Y-142583970D01*
X150188761Y-142595073D01*
X150167042Y-142608776D01*
X150161103Y-142615501D01*
X150161099Y-142615504D01*
X150147468Y-142630938D01*
X150135276Y-142642982D01*
X150119673Y-142656427D01*
X150119671Y-142656430D01*
X150112873Y-142662287D01*
X150107993Y-142669816D01*
X150107992Y-142669817D01*
X150098906Y-142683835D01*
X150087615Y-142698709D01*
X150076569Y-142711217D01*
X150070622Y-142717951D01*
X150062548Y-142735148D01*
X150058058Y-142744711D01*
X150049737Y-142759691D01*
X150038529Y-142776983D01*
X150038527Y-142776988D01*
X150033648Y-142784515D01*
X150031078Y-142793108D01*
X150031076Y-142793113D01*
X150026289Y-142809120D01*
X150019628Y-142826564D01*
X150014752Y-142836950D01*
X150008719Y-142849800D01*
X150007338Y-142858667D01*
X150007338Y-142858668D01*
X150004170Y-142879015D01*
X150000387Y-142895732D01*
X149994485Y-142915466D01*
X149994484Y-142915472D01*
X149991914Y-142924066D01*
X149991859Y-142933037D01*
X149991859Y-142933038D01*
X149991704Y-142958497D01*
X149991671Y-142959289D01*
X149991500Y-142960386D01*
X149991500Y-142991377D01*
X149991498Y-142992147D01*
X149991024Y-143069721D01*
X149991408Y-143071065D01*
X149991500Y-143072410D01*
X149991500Y-152365500D01*
X149971498Y-152433621D01*
X149917842Y-152480114D01*
X149865500Y-152491500D01*
X146134500Y-152491500D01*
X146066379Y-152471498D01*
X146019886Y-152417842D01*
X146008500Y-152365500D01*
X146008500Y-138321423D01*
X146028502Y-138253302D01*
X146082158Y-138206809D01*
X146152432Y-138196705D01*
X146217012Y-138226199D01*
X146223596Y-138232328D01*
X146814755Y-138823488D01*
X146822325Y-138831807D01*
X146826447Y-138838303D01*
X146832225Y-138843729D01*
X146832226Y-138843730D01*
X146876265Y-138885085D01*
X146879107Y-138887840D01*
X146898906Y-138907639D01*
X146902031Y-138910063D01*
X146902040Y-138910071D01*
X146902126Y-138910137D01*
X146911151Y-138917845D01*
X146943494Y-138948217D01*
X146950438Y-138952035D01*
X146950440Y-138952036D01*
X146961329Y-138958022D01*
X146977847Y-138968873D01*
X146993933Y-138981350D01*
X147034666Y-138998976D01*
X147045314Y-139004193D01*
X147056942Y-139010585D01*
X147084197Y-139025569D01*
X147091872Y-139027540D01*
X147091878Y-139027542D01*
X147103911Y-139030631D01*
X147122613Y-139037034D01*
X147141292Y-139045117D01*
X147174818Y-139050427D01*
X147185127Y-139052060D01*
X147196740Y-139054465D01*
X147239718Y-139065500D01*
X147260065Y-139065500D01*
X147279777Y-139067051D01*
X147299879Y-139070235D01*
X147307771Y-139069489D01*
X147344056Y-139066059D01*
X147355914Y-139065500D01*
X164607757Y-139065500D01*
X164675878Y-139085502D01*
X164722371Y-139139158D01*
X164733084Y-139178495D01*
X164736474Y-139211166D01*
X164792450Y-139378946D01*
X164885522Y-139529348D01*
X165010697Y-139654305D01*
X165016927Y-139658145D01*
X165016928Y-139658146D01*
X165154090Y-139742694D01*
X165161262Y-139747115D01*
X165241005Y-139773564D01*
X165322611Y-139800632D01*
X165322613Y-139800632D01*
X165329139Y-139802797D01*
X165335975Y-139803497D01*
X165335978Y-139803498D01*
X165379031Y-139807909D01*
X165433600Y-139813500D01*
X166159400Y-139813500D01*
X166162646Y-139813163D01*
X166162650Y-139813163D01*
X166258308Y-139803238D01*
X166258312Y-139803237D01*
X166265166Y-139802526D01*
X166271702Y-139800345D01*
X166271704Y-139800345D01*
X166403806Y-139756272D01*
X166432946Y-139746550D01*
X166583348Y-139653478D01*
X166616884Y-139619884D01*
X166703134Y-139533483D01*
X166708305Y-139528303D01*
X166712146Y-139522072D01*
X166797275Y-139383968D01*
X166797276Y-139383966D01*
X166801115Y-139377738D01*
X166851113Y-139226998D01*
X166854632Y-139216389D01*
X166854632Y-139216387D01*
X166856797Y-139209861D01*
X166867500Y-139105400D01*
X167650500Y-139105400D01*
X167650837Y-139108646D01*
X167650837Y-139108650D01*
X167660762Y-139204308D01*
X167660763Y-139204312D01*
X167661474Y-139211166D01*
X167717450Y-139378946D01*
X167810522Y-139529348D01*
X167935697Y-139654305D01*
X167941927Y-139658145D01*
X167941928Y-139658146D01*
X168079090Y-139742694D01*
X168086262Y-139747115D01*
X168166005Y-139773564D01*
X168247611Y-139800632D01*
X168247613Y-139800632D01*
X168254139Y-139802797D01*
X168260975Y-139803497D01*
X168260978Y-139803498D01*
X168304031Y-139807909D01*
X168358600Y-139813500D01*
X169084400Y-139813500D01*
X169087646Y-139813163D01*
X169087650Y-139813163D01*
X169183308Y-139803238D01*
X169183312Y-139803237D01*
X169190166Y-139802526D01*
X169196702Y-139800345D01*
X169196704Y-139800345D01*
X169328806Y-139756272D01*
X169357946Y-139746550D01*
X169508348Y-139653478D01*
X169541884Y-139619884D01*
X169628134Y-139533483D01*
X169633305Y-139528303D01*
X169637146Y-139522072D01*
X169641683Y-139516327D01*
X169643923Y-139518096D01*
X169686978Y-139479346D01*
X169757049Y-139467921D01*
X169807583Y-139485694D01*
X169948671Y-139572661D01*
X169955619Y-139574966D01*
X169955620Y-139574966D01*
X170108634Y-139625719D01*
X170108636Y-139625719D01*
X170115165Y-139627885D01*
X170218769Y-139638500D01*
X170510234Y-139638500D01*
X170806230Y-139638499D01*
X170911129Y-139627616D01*
X170917660Y-139625437D01*
X170917665Y-139625436D01*
X171070578Y-139574420D01*
X171077526Y-139572102D01*
X171226689Y-139479797D01*
X171350617Y-139355653D01*
X171352614Y-139352413D01*
X171409352Y-139312186D01*
X171480275Y-139308953D01*
X171541687Y-139344578D01*
X171549066Y-139353078D01*
X171555782Y-139361552D01*
X171669479Y-139475051D01*
X171680890Y-139484063D01*
X171817654Y-139568365D01*
X171830832Y-139574509D01*
X171983740Y-139625227D01*
X171997106Y-139628093D01*
X172090601Y-139637672D01*
X172097016Y-139638000D01*
X172115385Y-139638000D01*
X172130624Y-139633525D01*
X172131829Y-139632135D01*
X172133500Y-139624452D01*
X172133500Y-139619884D01*
X172641500Y-139619884D01*
X172645975Y-139635123D01*
X172647365Y-139636328D01*
X172655048Y-139637999D01*
X172677933Y-139637999D01*
X172684452Y-139637662D01*
X172779170Y-139627834D01*
X172792564Y-139624942D01*
X172945365Y-139573964D01*
X172958543Y-139567790D01*
X173095149Y-139483256D01*
X173106550Y-139474220D01*
X173220051Y-139360521D01*
X173229063Y-139349110D01*
X173313365Y-139212346D01*
X173319509Y-139199168D01*
X173370227Y-139046260D01*
X173373093Y-139032894D01*
X173382672Y-138939399D01*
X173383000Y-138932984D01*
X173383000Y-138702115D01*
X173378525Y-138686876D01*
X173377135Y-138685671D01*
X173369452Y-138684000D01*
X172659615Y-138684000D01*
X172644376Y-138688475D01*
X172643171Y-138689865D01*
X172641500Y-138697548D01*
X172641500Y-139619884D01*
X172133500Y-139619884D01*
X172133500Y-138157885D01*
X172641500Y-138157885D01*
X172645975Y-138173124D01*
X172647365Y-138174329D01*
X172655048Y-138176000D01*
X173364884Y-138176000D01*
X173380123Y-138171525D01*
X173381328Y-138170135D01*
X173382999Y-138162452D01*
X173382999Y-137927067D01*
X173382662Y-137920548D01*
X173372834Y-137825830D01*
X173369942Y-137812436D01*
X173318964Y-137659635D01*
X173312790Y-137646457D01*
X173228256Y-137509851D01*
X173219220Y-137498450D01*
X173105521Y-137384949D01*
X173094110Y-137375937D01*
X172957346Y-137291635D01*
X172944168Y-137285491D01*
X172791260Y-137234773D01*
X172777894Y-137231907D01*
X172684399Y-137222328D01*
X172677984Y-137222000D01*
X172659615Y-137222000D01*
X172644376Y-137226475D01*
X172643171Y-137227865D01*
X172641500Y-137235548D01*
X172641500Y-138157885D01*
X172133500Y-138157885D01*
X172133500Y-137240116D01*
X172129025Y-137224877D01*
X172127635Y-137223672D01*
X172119952Y-137222001D01*
X172097067Y-137222001D01*
X172090548Y-137222338D01*
X171995830Y-137232166D01*
X171982436Y-137235058D01*
X171829635Y-137286036D01*
X171816457Y-137292210D01*
X171679851Y-137376744D01*
X171668450Y-137385780D01*
X171554949Y-137499479D01*
X171549206Y-137506751D01*
X171491289Y-137547814D01*
X171420366Y-137551046D01*
X171358954Y-137515421D01*
X171353160Y-137508746D01*
X171349797Y-137503311D01*
X171225653Y-137379383D01*
X171213775Y-137372061D01*
X171164850Y-137341904D01*
X171076329Y-137287339D01*
X171012833Y-137266278D01*
X170916366Y-137234281D01*
X170916364Y-137234281D01*
X170909835Y-137232115D01*
X170806231Y-137221500D01*
X170514766Y-137221500D01*
X170218770Y-137221501D01*
X170113871Y-137232384D01*
X170107340Y-137234563D01*
X170107335Y-137234564D01*
X169959189Y-137283990D01*
X169947474Y-137287898D01*
X169941242Y-137291754D01*
X169941243Y-137291754D01*
X169807714Y-137374384D01*
X169739262Y-137393222D01*
X169671492Y-137372061D01*
X169642096Y-137341644D01*
X169640875Y-137342612D01*
X169636332Y-137336880D01*
X169632478Y-137330652D01*
X169507303Y-137205695D01*
X169489550Y-137194752D01*
X169362968Y-137116725D01*
X169362966Y-137116724D01*
X169356738Y-137112885D01*
X169219924Y-137067506D01*
X169195389Y-137059368D01*
X169195387Y-137059368D01*
X169188861Y-137057203D01*
X169182025Y-137056503D01*
X169182022Y-137056502D01*
X169138969Y-137052091D01*
X169084400Y-137046500D01*
X168358600Y-137046500D01*
X168355354Y-137046837D01*
X168355350Y-137046837D01*
X168259692Y-137056762D01*
X168259688Y-137056763D01*
X168252834Y-137057474D01*
X168246298Y-137059655D01*
X168246296Y-137059655D01*
X168114194Y-137103728D01*
X168085054Y-137113450D01*
X167934652Y-137206522D01*
X167929479Y-137211704D01*
X167881505Y-137259762D01*
X167809695Y-137331697D01*
X167805855Y-137337927D01*
X167805854Y-137337928D01*
X167728247Y-137463830D01*
X167716885Y-137482262D01*
X167694070Y-137551047D01*
X167677841Y-137599978D01*
X167661203Y-137650139D01*
X167660503Y-137656975D01*
X167660502Y-137656978D01*
X167656161Y-137699349D01*
X167650500Y-137754600D01*
X167650500Y-139105400D01*
X166867500Y-139105400D01*
X166867500Y-137754600D01*
X166865237Y-137732791D01*
X166857238Y-137655692D01*
X166857237Y-137655688D01*
X166856526Y-137648834D01*
X166800550Y-137481054D01*
X166707478Y-137330652D01*
X166582303Y-137205695D01*
X166564550Y-137194752D01*
X166437968Y-137116725D01*
X166437966Y-137116724D01*
X166431738Y-137112885D01*
X166294924Y-137067506D01*
X166270389Y-137059368D01*
X166270387Y-137059368D01*
X166263861Y-137057203D01*
X166257025Y-137056503D01*
X166257022Y-137056502D01*
X166213969Y-137052091D01*
X166159400Y-137046500D01*
X165433600Y-137046500D01*
X165430354Y-137046837D01*
X165430350Y-137046837D01*
X165334692Y-137056762D01*
X165334688Y-137056763D01*
X165327834Y-137057474D01*
X165321298Y-137059655D01*
X165321296Y-137059655D01*
X165189194Y-137103728D01*
X165160054Y-137113450D01*
X165009652Y-137206522D01*
X165004479Y-137211704D01*
X164956505Y-137259762D01*
X164884695Y-137331697D01*
X164880855Y-137337927D01*
X164880854Y-137337928D01*
X164860234Y-137371380D01*
X164807462Y-137418873D01*
X164737390Y-137430297D01*
X164672266Y-137402023D01*
X164646124Y-137372039D01*
X164594626Y-137289624D01*
X164589664Y-137284627D01*
X164471778Y-137165915D01*
X164471774Y-137165912D01*
X164466815Y-137160918D01*
X164455697Y-137153862D01*
X164391127Y-137112885D01*
X164313666Y-137063727D01*
X164265287Y-137046500D01*
X164149425Y-137005243D01*
X164149420Y-137005242D01*
X164142790Y-137002881D01*
X164135802Y-137002048D01*
X164135799Y-137002047D01*
X164012698Y-136987368D01*
X163962680Y-136981404D01*
X163955677Y-136982140D01*
X163955676Y-136982140D01*
X163789288Y-136999628D01*
X163789286Y-136999629D01*
X163782288Y-137000364D01*
X163610579Y-137058818D01*
X163604575Y-137062512D01*
X163477292Y-137140817D01*
X163411270Y-137159500D01*
X147762423Y-137159500D01*
X147694302Y-137139498D01*
X147673328Y-137122595D01*
X147484405Y-136933672D01*
X147450379Y-136871360D01*
X147447500Y-136844577D01*
X147447500Y-128158532D01*
X147448030Y-128147293D01*
X147449709Y-128139781D01*
X147447562Y-128071469D01*
X147447500Y-128067512D01*
X147447500Y-128039517D01*
X147446992Y-128035494D01*
X147446059Y-128023652D01*
X147444914Y-127987220D01*
X147444665Y-127979295D01*
X147438987Y-127959751D01*
X147434977Y-127940388D01*
X147433420Y-127928060D01*
X147433420Y-127928058D01*
X147432427Y-127920201D01*
X147429511Y-127912837D01*
X147429510Y-127912832D01*
X147416093Y-127878944D01*
X147412248Y-127867715D01*
X147402081Y-127832722D01*
X147399869Y-127825107D01*
X147395830Y-127818277D01*
X147389512Y-127807594D01*
X147380812Y-127789836D01*
X147376239Y-127778285D01*
X147376235Y-127778279D01*
X147373319Y-127770912D01*
X147347234Y-127735009D01*
X147340719Y-127725090D01*
X147322174Y-127693732D01*
X147322171Y-127693728D01*
X147318134Y-127686902D01*
X147303750Y-127672518D01*
X147290909Y-127657484D01*
X147283602Y-127647427D01*
X147278942Y-127641013D01*
X147244744Y-127612722D01*
X147235965Y-127604733D01*
X144563405Y-124932172D01*
X144529379Y-124869860D01*
X144526500Y-124843077D01*
X144526500Y-108645223D01*
X144546502Y-108577102D01*
X144600158Y-108530609D01*
X144670432Y-108520505D01*
X144735831Y-108550714D01*
X144737099Y-108551832D01*
X144739906Y-108554639D01*
X144743040Y-108557070D01*
X144743126Y-108557137D01*
X144752151Y-108564845D01*
X144784494Y-108595217D01*
X144802000Y-108604841D01*
X144802329Y-108605022D01*
X144818847Y-108615873D01*
X144834933Y-108628350D01*
X144875666Y-108645976D01*
X144886314Y-108651193D01*
X144893581Y-108655188D01*
X144925197Y-108672569D01*
X144932872Y-108674540D01*
X144932878Y-108674542D01*
X144944911Y-108677631D01*
X144963613Y-108684034D01*
X144982292Y-108692117D01*
X145015818Y-108697427D01*
X145026127Y-108699060D01*
X145037740Y-108701465D01*
X145080718Y-108712500D01*
X145101065Y-108712500D01*
X145120777Y-108714051D01*
X145140879Y-108717235D01*
X145148771Y-108716489D01*
X145185056Y-108713059D01*
X145196914Y-108712500D01*
X155031959Y-108712500D01*
X155100952Y-108733068D01*
X155208159Y-108803222D01*
X155214763Y-108805678D01*
X155214765Y-108805679D01*
X155371558Y-108863990D01*
X155371560Y-108863990D01*
X155378168Y-108866448D01*
X155461995Y-108877633D01*
X155550980Y-108889507D01*
X155550984Y-108889507D01*
X155557961Y-108890438D01*
X155564972Y-108889800D01*
X155564976Y-108889800D01*
X155707459Y-108876832D01*
X155738600Y-108873998D01*
X155745302Y-108871820D01*
X155745304Y-108871820D01*
X155904409Y-108820124D01*
X155904412Y-108820123D01*
X155911108Y-108817947D01*
X156066912Y-108725069D01*
X156198266Y-108599982D01*
X156207218Y-108586509D01*
X156266386Y-108497453D01*
X156320743Y-108451782D01*
X156391163Y-108442750D01*
X156455287Y-108473223D01*
X156478474Y-108500871D01*
X156503522Y-108541348D01*
X156628697Y-108666305D01*
X156634927Y-108670145D01*
X156634928Y-108670146D01*
X156772090Y-108754694D01*
X156779262Y-108759115D01*
X156859005Y-108785564D01*
X156940611Y-108812632D01*
X156940613Y-108812632D01*
X156947139Y-108814797D01*
X156953975Y-108815497D01*
X156953978Y-108815498D01*
X156997031Y-108819909D01*
X157051600Y-108825500D01*
X157777400Y-108825500D01*
X157780646Y-108825163D01*
X157780650Y-108825163D01*
X157876308Y-108815238D01*
X157876312Y-108815237D01*
X157883166Y-108814526D01*
X157889702Y-108812345D01*
X157889704Y-108812345D01*
X158021806Y-108768272D01*
X158050946Y-108758550D01*
X158201348Y-108665478D01*
X158234884Y-108631884D01*
X158321134Y-108545483D01*
X158326305Y-108540303D01*
X158330544Y-108533426D01*
X158415275Y-108395968D01*
X158415276Y-108395966D01*
X158419115Y-108389738D01*
X158455733Y-108279338D01*
X158472632Y-108228389D01*
X158472632Y-108228387D01*
X158474797Y-108221861D01*
X158485500Y-108117400D01*
X159268500Y-108117400D01*
X159279474Y-108223166D01*
X159281655Y-108229702D01*
X159281655Y-108229704D01*
X159312098Y-108320953D01*
X159335450Y-108390946D01*
X159428522Y-108541348D01*
X159553697Y-108666305D01*
X159559927Y-108670145D01*
X159559928Y-108670146D01*
X159697090Y-108754694D01*
X159704262Y-108759115D01*
X159784005Y-108785564D01*
X159865611Y-108812632D01*
X159865613Y-108812632D01*
X159872139Y-108814797D01*
X159878975Y-108815497D01*
X159878978Y-108815498D01*
X159922031Y-108819909D01*
X159976600Y-108825500D01*
X160702400Y-108825500D01*
X160705646Y-108825163D01*
X160705650Y-108825163D01*
X160801308Y-108815238D01*
X160801312Y-108815237D01*
X160808166Y-108814526D01*
X160814702Y-108812345D01*
X160814704Y-108812345D01*
X160946806Y-108768272D01*
X160975946Y-108758550D01*
X161126348Y-108665478D01*
X161159884Y-108631884D01*
X161246134Y-108545483D01*
X161251305Y-108540303D01*
X161255146Y-108534072D01*
X161259683Y-108528327D01*
X161261923Y-108530096D01*
X161304978Y-108491346D01*
X161375049Y-108479921D01*
X161425583Y-108497694D01*
X161566671Y-108584661D01*
X161573619Y-108586966D01*
X161573620Y-108586966D01*
X161726634Y-108637719D01*
X161726636Y-108637719D01*
X161733165Y-108639885D01*
X161836769Y-108650500D01*
X162128234Y-108650500D01*
X162424230Y-108650499D01*
X162529129Y-108639616D01*
X162535660Y-108637437D01*
X162535665Y-108637436D01*
X162688578Y-108586420D01*
X162695526Y-108584102D01*
X162844689Y-108491797D01*
X162968617Y-108367653D01*
X162970614Y-108364413D01*
X163027352Y-108324186D01*
X163098275Y-108320953D01*
X163159687Y-108356578D01*
X163167066Y-108365078D01*
X163173782Y-108373552D01*
X163287479Y-108487051D01*
X163298890Y-108496063D01*
X163435654Y-108580365D01*
X163448832Y-108586509D01*
X163601740Y-108637227D01*
X163615106Y-108640093D01*
X163708601Y-108649672D01*
X163715016Y-108650000D01*
X163733385Y-108650000D01*
X163748624Y-108645525D01*
X163749829Y-108644135D01*
X163751500Y-108636452D01*
X163751500Y-108631884D01*
X164259500Y-108631884D01*
X164263975Y-108647123D01*
X164265365Y-108648328D01*
X164273048Y-108649999D01*
X164295933Y-108649999D01*
X164302452Y-108649662D01*
X164397170Y-108639834D01*
X164410564Y-108636942D01*
X164563365Y-108585964D01*
X164576543Y-108579790D01*
X164713149Y-108495256D01*
X164724550Y-108486220D01*
X164838051Y-108372521D01*
X164847063Y-108361110D01*
X164931365Y-108224346D01*
X164937509Y-108211168D01*
X164988227Y-108058260D01*
X164991093Y-108044894D01*
X165000672Y-107951399D01*
X165001000Y-107944984D01*
X165001000Y-107714115D01*
X164996525Y-107698876D01*
X164995135Y-107697671D01*
X164987452Y-107696000D01*
X164277615Y-107696000D01*
X164262376Y-107700475D01*
X164261171Y-107701865D01*
X164259500Y-107709548D01*
X164259500Y-108631884D01*
X163751500Y-108631884D01*
X163751500Y-107169885D01*
X164259500Y-107169885D01*
X164263975Y-107185124D01*
X164265365Y-107186329D01*
X164273048Y-107188000D01*
X164982884Y-107188000D01*
X164998123Y-107183525D01*
X164999328Y-107182135D01*
X165000999Y-107174452D01*
X165000999Y-106939067D01*
X165000662Y-106932548D01*
X164990834Y-106837830D01*
X164987942Y-106824436D01*
X164936964Y-106671635D01*
X164930790Y-106658457D01*
X164846256Y-106521851D01*
X164837220Y-106510450D01*
X164723521Y-106396949D01*
X164712110Y-106387937D01*
X164575346Y-106303635D01*
X164562168Y-106297491D01*
X164409260Y-106246773D01*
X164395894Y-106243907D01*
X164302399Y-106234328D01*
X164295984Y-106234000D01*
X164277615Y-106234000D01*
X164262376Y-106238475D01*
X164261171Y-106239865D01*
X164259500Y-106247548D01*
X164259500Y-107169885D01*
X163751500Y-107169885D01*
X163751500Y-106252116D01*
X163747025Y-106236877D01*
X163745635Y-106235672D01*
X163737952Y-106234001D01*
X163715067Y-106234001D01*
X163708548Y-106234338D01*
X163613830Y-106244166D01*
X163600436Y-106247058D01*
X163447635Y-106298036D01*
X163434457Y-106304210D01*
X163297851Y-106388744D01*
X163286450Y-106397780D01*
X163172949Y-106511479D01*
X163167206Y-106518751D01*
X163109289Y-106559814D01*
X163038366Y-106563046D01*
X162976954Y-106527421D01*
X162971160Y-106520746D01*
X162967797Y-106515311D01*
X162843653Y-106391383D01*
X162831775Y-106384061D01*
X162782850Y-106353904D01*
X162694329Y-106299339D01*
X162665474Y-106289768D01*
X162534366Y-106246281D01*
X162534364Y-106246281D01*
X162527835Y-106244115D01*
X162424231Y-106233500D01*
X162132766Y-106233500D01*
X161836770Y-106233501D01*
X161731871Y-106244384D01*
X161725340Y-106246563D01*
X161725335Y-106246564D01*
X161577189Y-106295990D01*
X161565474Y-106299898D01*
X161522206Y-106326673D01*
X161425714Y-106386384D01*
X161357262Y-106405222D01*
X161289492Y-106384061D01*
X161260096Y-106353644D01*
X161258875Y-106354612D01*
X161254332Y-106348880D01*
X161250478Y-106342652D01*
X161125303Y-106217695D01*
X161119072Y-106213854D01*
X160980968Y-106128725D01*
X160980966Y-106128724D01*
X160974738Y-106124885D01*
X160814254Y-106071655D01*
X160813389Y-106071368D01*
X160813387Y-106071368D01*
X160806861Y-106069203D01*
X160800025Y-106068503D01*
X160800022Y-106068502D01*
X160756969Y-106064091D01*
X160702400Y-106058500D01*
X159976600Y-106058500D01*
X159973354Y-106058837D01*
X159973350Y-106058837D01*
X159877692Y-106068762D01*
X159877688Y-106068763D01*
X159870834Y-106069474D01*
X159864298Y-106071655D01*
X159864296Y-106071655D01*
X159732194Y-106115728D01*
X159703054Y-106125450D01*
X159552652Y-106218522D01*
X159547479Y-106223704D01*
X159485839Y-106285451D01*
X159427695Y-106343697D01*
X159423855Y-106349927D01*
X159423854Y-106349928D01*
X159346247Y-106475830D01*
X159334885Y-106494262D01*
X159279203Y-106662139D01*
X159268500Y-106766600D01*
X159268500Y-108117400D01*
X158485500Y-108117400D01*
X158485500Y-106766600D01*
X158484719Y-106759069D01*
X158475238Y-106667692D01*
X158475237Y-106667688D01*
X158474526Y-106660834D01*
X158418550Y-106493054D01*
X158325478Y-106342652D01*
X158200303Y-106217695D01*
X158194072Y-106213854D01*
X158055968Y-106128725D01*
X158055966Y-106128724D01*
X158049738Y-106124885D01*
X157889254Y-106071655D01*
X157888389Y-106071368D01*
X157888387Y-106071368D01*
X157881861Y-106069203D01*
X157875025Y-106068503D01*
X157875022Y-106068502D01*
X157831969Y-106064091D01*
X157777400Y-106058500D01*
X157051600Y-106058500D01*
X157048354Y-106058837D01*
X157048350Y-106058837D01*
X156952692Y-106068762D01*
X156952688Y-106068763D01*
X156945834Y-106069474D01*
X156939298Y-106071655D01*
X156939296Y-106071655D01*
X156807194Y-106115728D01*
X156778054Y-106125450D01*
X156627652Y-106218522D01*
X156622479Y-106223704D01*
X156560839Y-106285451D01*
X156502695Y-106343697D01*
X156498855Y-106349927D01*
X156498854Y-106349928D01*
X156421247Y-106475830D01*
X156409885Y-106494262D01*
X156354203Y-106662139D01*
X156353502Y-106668977D01*
X156353502Y-106668979D01*
X156351006Y-106693342D01*
X156324165Y-106759069D01*
X156266050Y-106799852D01*
X156225662Y-106806500D01*
X145668500Y-106806500D01*
X145600379Y-106786498D01*
X145553886Y-106732842D01*
X145542500Y-106680500D01*
X145542500Y-100028032D01*
X145543030Y-100016793D01*
X145544709Y-100009281D01*
X145543924Y-99984288D01*
X145542562Y-99940970D01*
X145542500Y-99937012D01*
X145542500Y-99909017D01*
X145541992Y-99904994D01*
X145541059Y-99893152D01*
X145539914Y-99856720D01*
X145539665Y-99848795D01*
X145533987Y-99829251D01*
X145529977Y-99809888D01*
X145528420Y-99797560D01*
X145528420Y-99797558D01*
X145527427Y-99789701D01*
X145524511Y-99782337D01*
X145524510Y-99782332D01*
X145511093Y-99748444D01*
X145507248Y-99737215D01*
X145497081Y-99702222D01*
X145494869Y-99694607D01*
X145490830Y-99687777D01*
X145484512Y-99677094D01*
X145475812Y-99659336D01*
X145471239Y-99647785D01*
X145471235Y-99647779D01*
X145468319Y-99640412D01*
X145442234Y-99604509D01*
X145435719Y-99594590D01*
X145417174Y-99563232D01*
X145417171Y-99563228D01*
X145413134Y-99556402D01*
X145398750Y-99542018D01*
X145385909Y-99526984D01*
X145378602Y-99516927D01*
X145373942Y-99510513D01*
X145339744Y-99482222D01*
X145330965Y-99474233D01*
X143674405Y-97817672D01*
X143640379Y-97755360D01*
X143637500Y-97728577D01*
X143637500Y-95919609D01*
X143658552Y-95849882D01*
X143721742Y-95754773D01*
X143725643Y-95748902D01*
X143790055Y-95579338D01*
X143791035Y-95572366D01*
X143814748Y-95403639D01*
X143814748Y-95403636D01*
X143815299Y-95399717D01*
X143815616Y-95377000D01*
X143795397Y-95196745D01*
X143793080Y-95190091D01*
X143738064Y-95032106D01*
X143738062Y-95032103D01*
X143735745Y-95025448D01*
X143639626Y-94871624D01*
X143625941Y-94857843D01*
X143516778Y-94747915D01*
X143516774Y-94747912D01*
X143511815Y-94742918D01*
X143500697Y-94735862D01*
X143452538Y-94705300D01*
X143358666Y-94645727D01*
X143329463Y-94635328D01*
X143194425Y-94587243D01*
X143194420Y-94587242D01*
X143187790Y-94584881D01*
X143180802Y-94584048D01*
X143180799Y-94584047D01*
X143057698Y-94569368D01*
X143007680Y-94563404D01*
X143000677Y-94564140D01*
X143000676Y-94564140D01*
X142834288Y-94581628D01*
X142834286Y-94581629D01*
X142827288Y-94582364D01*
X142655579Y-94640818D01*
X142649575Y-94644512D01*
X142507095Y-94732166D01*
X142507092Y-94732168D01*
X142501088Y-94735862D01*
X142496053Y-94740793D01*
X142496050Y-94740795D01*
X142376525Y-94857843D01*
X142371493Y-94862771D01*
X142273235Y-95015238D01*
X142270826Y-95021858D01*
X142270824Y-95021861D01*
X142213606Y-95179066D01*
X142211197Y-95185685D01*
X142188463Y-95365640D01*
X142206163Y-95546160D01*
X142263418Y-95718273D01*
X142267065Y-95724295D01*
X142267066Y-95724297D01*
X142348276Y-95858391D01*
X142366500Y-95923662D01*
X142366500Y-97964980D01*
X142365970Y-97976214D01*
X142364292Y-97983719D01*
X142364541Y-97991638D01*
X142366438Y-98052012D01*
X142366500Y-98055969D01*
X142366500Y-98083983D01*
X142366996Y-98087908D01*
X142366996Y-98087909D01*
X142367008Y-98088004D01*
X142367941Y-98099849D01*
X142369335Y-98144205D01*
X142371547Y-98151817D01*
X142375013Y-98163748D01*
X142379023Y-98183112D01*
X142381573Y-98203299D01*
X142384489Y-98210663D01*
X142384490Y-98210668D01*
X142397907Y-98244556D01*
X142401752Y-98255785D01*
X142414131Y-98298393D01*
X142418169Y-98305220D01*
X142418170Y-98305223D01*
X142424488Y-98315906D01*
X142433188Y-98333664D01*
X142437761Y-98345215D01*
X142437765Y-98345221D01*
X142440681Y-98352588D01*
X142445339Y-98358999D01*
X142445340Y-98359001D01*
X142466764Y-98388488D01*
X142473281Y-98398410D01*
X142491826Y-98429768D01*
X142491829Y-98429772D01*
X142495866Y-98436598D01*
X142510250Y-98450982D01*
X142523091Y-98466016D01*
X142535058Y-98482487D01*
X142532833Y-98484104D01*
X142558922Y-98535658D01*
X142551642Y-98606281D01*
X142523180Y-98648595D01*
X142498493Y-98672771D01*
X142400235Y-98825238D01*
X142338197Y-98995685D01*
X142315463Y-99175640D01*
X142333163Y-99356160D01*
X142390418Y-99528273D01*
X142394065Y-99534295D01*
X142394066Y-99534297D01*
X142436590Y-99604512D01*
X142484380Y-99683424D01*
X142489269Y-99688487D01*
X142489270Y-99688488D01*
X142566121Y-99768068D01*
X142610382Y-99813902D01*
X142762159Y-99913222D01*
X142768763Y-99915678D01*
X142768765Y-99915679D01*
X142826128Y-99937012D01*
X142932168Y-99976448D01*
X142939151Y-99977380D01*
X142939152Y-99977380D01*
X142990924Y-99984288D01*
X143055801Y-100013124D01*
X143063354Y-100020086D01*
X143726595Y-100683327D01*
X143760621Y-100745639D01*
X143763500Y-100772422D01*
X143763500Y-101793577D01*
X143743498Y-101861698D01*
X143689842Y-101908191D01*
X143619568Y-101918295D01*
X143554988Y-101888801D01*
X143548405Y-101882672D01*
X142872250Y-101206517D01*
X142864674Y-101198191D01*
X142860553Y-101191697D01*
X142810734Y-101144914D01*
X142807893Y-101142160D01*
X142788094Y-101122361D01*
X142784969Y-101119937D01*
X142784960Y-101119929D01*
X142784874Y-101119863D01*
X142775849Y-101112155D01*
X142749285Y-101087210D01*
X142743506Y-101081783D01*
X142725669Y-101071977D01*
X142709153Y-101061127D01*
X142693067Y-101048650D01*
X142652334Y-101031024D01*
X142641686Y-101025807D01*
X142630058Y-101019415D01*
X142602803Y-101004431D01*
X142595128Y-101002460D01*
X142595122Y-101002458D01*
X142583089Y-100999369D01*
X142564387Y-100992966D01*
X142545708Y-100984883D01*
X142511872Y-100979524D01*
X142501873Y-100977940D01*
X142490260Y-100975535D01*
X142447282Y-100964500D01*
X142426935Y-100964500D01*
X142407224Y-100962949D01*
X142394950Y-100961005D01*
X142387121Y-100959765D01*
X142379229Y-100960511D01*
X142342944Y-100963941D01*
X142331086Y-100964500D01*
X140205923Y-100964500D01*
X140137802Y-100944498D01*
X140116828Y-100927595D01*
X139782520Y-100593287D01*
X139748494Y-100530975D01*
X139753559Y-100460160D01*
X139778233Y-100421732D01*
X139777596Y-100421229D01*
X139782134Y-100415483D01*
X139787305Y-100410303D01*
X139880115Y-100259738D01*
X139935797Y-100091861D01*
X139946500Y-99987400D01*
X139946500Y-98386600D01*
X139946163Y-98383350D01*
X139936238Y-98287692D01*
X139936237Y-98287688D01*
X139935526Y-98280834D01*
X139879550Y-98113054D01*
X139786478Y-97962652D01*
X139661303Y-97837695D01*
X139510738Y-97744885D01*
X139430995Y-97718436D01*
X139349389Y-97691368D01*
X139349387Y-97691368D01*
X139342861Y-97689203D01*
X139336025Y-97688503D01*
X139336022Y-97688502D01*
X139292969Y-97684091D01*
X139238400Y-97678500D01*
X139109423Y-97678500D01*
X139041302Y-97658498D01*
X138994809Y-97604842D01*
X138984705Y-97534568D01*
X139014199Y-97469988D01*
X139020328Y-97463405D01*
X139331483Y-97152250D01*
X139339809Y-97144674D01*
X139346303Y-97140553D01*
X139393086Y-97090734D01*
X139395840Y-97087893D01*
X139415639Y-97068094D01*
X139418068Y-97064963D01*
X139418072Y-97064958D01*
X139418139Y-97064872D01*
X139425847Y-97055847D01*
X139450791Y-97029285D01*
X139450794Y-97029281D01*
X139456217Y-97023506D01*
X139460036Y-97016560D01*
X139460039Y-97016555D01*
X139466022Y-97005672D01*
X139476878Y-96989144D01*
X139484492Y-96979329D01*
X139484494Y-96979326D01*
X139489349Y-96973067D01*
X139492495Y-96965797D01*
X139492498Y-96965792D01*
X139506969Y-96932350D01*
X139512192Y-96921689D01*
X139529749Y-96889753D01*
X139529751Y-96889748D01*
X139533569Y-96882803D01*
X139535539Y-96875129D01*
X139535542Y-96875122D01*
X139538632Y-96863087D01*
X139545036Y-96844382D01*
X139553116Y-96825710D01*
X139554348Y-96826243D01*
X139588125Y-96773363D01*
X139604598Y-96761215D01*
X139656120Y-96729332D01*
X139662348Y-96725478D01*
X139787305Y-96600303D01*
X139880115Y-96449738D01*
X139935797Y-96281861D01*
X139946500Y-96177400D01*
X139946500Y-94576600D01*
X139946163Y-94573350D01*
X139936238Y-94477692D01*
X139936237Y-94477688D01*
X139935526Y-94470834D01*
X139879550Y-94303054D01*
X139786478Y-94152652D01*
X139661303Y-94027695D01*
X139510738Y-93934885D01*
X139430995Y-93908436D01*
X139349389Y-93881368D01*
X139349387Y-93881368D01*
X139342861Y-93879203D01*
X139336025Y-93878503D01*
X139336022Y-93878502D01*
X139292969Y-93874091D01*
X139238400Y-93868500D01*
X139109423Y-93868500D01*
X139041302Y-93848498D01*
X138994809Y-93794842D01*
X138984705Y-93724568D01*
X139014199Y-93659988D01*
X139020328Y-93653405D01*
X139331483Y-93342250D01*
X139339809Y-93334674D01*
X139346303Y-93330553D01*
X139393086Y-93280734D01*
X139395840Y-93277893D01*
X139415639Y-93258094D01*
X139418068Y-93254963D01*
X139418072Y-93254958D01*
X139418139Y-93254872D01*
X139425847Y-93245847D01*
X139450792Y-93219283D01*
X139456217Y-93213506D01*
X139460035Y-93206561D01*
X139460038Y-93206557D01*
X139466026Y-93195666D01*
X139476878Y-93179145D01*
X139478847Y-93176606D01*
X139489350Y-93163066D01*
X139506971Y-93122345D01*
X139512192Y-93111689D01*
X139529748Y-93079755D01*
X139529750Y-93079749D01*
X139533569Y-93072803D01*
X139535540Y-93065128D01*
X139535542Y-93065122D01*
X139538631Y-93053089D01*
X139545034Y-93034387D01*
X139553117Y-93015708D01*
X139553117Y-93015707D01*
X139553118Y-93015705D01*
X139554352Y-93016239D01*
X139588120Y-92963368D01*
X139604598Y-92951215D01*
X139656120Y-92919332D01*
X139662348Y-92915478D01*
X139787305Y-92790303D01*
X139840712Y-92703661D01*
X139876275Y-92645968D01*
X139876276Y-92645966D01*
X139880115Y-92639738D01*
X139935797Y-92471861D01*
X139946500Y-92367400D01*
X139946500Y-91555640D01*
X142188463Y-91555640D01*
X142206163Y-91736160D01*
X142263418Y-91908273D01*
X142267065Y-91914295D01*
X142267066Y-91914297D01*
X142277978Y-91932314D01*
X142357380Y-92063424D01*
X142483382Y-92193902D01*
X142635159Y-92293222D01*
X142641763Y-92295678D01*
X142641765Y-92295679D01*
X142798558Y-92353990D01*
X142798560Y-92353990D01*
X142805168Y-92356448D01*
X142887248Y-92367400D01*
X142977980Y-92379507D01*
X142977984Y-92379507D01*
X142984961Y-92380438D01*
X142991972Y-92379800D01*
X142991976Y-92379800D01*
X143134459Y-92366832D01*
X143165600Y-92363998D01*
X143172302Y-92361820D01*
X143172304Y-92361820D01*
X143331409Y-92310124D01*
X143331412Y-92310123D01*
X143338108Y-92307947D01*
X143493912Y-92215069D01*
X143625266Y-92089982D01*
X143725643Y-91938902D01*
X143790055Y-91769338D01*
X143799177Y-91704434D01*
X143828466Y-91639760D01*
X143834856Y-91632876D01*
X144665477Y-90802255D01*
X144673803Y-90794678D01*
X144680303Y-90790553D01*
X144727101Y-90740718D01*
X144729855Y-90737877D01*
X144749638Y-90718094D01*
X144752129Y-90714883D01*
X144759838Y-90705856D01*
X144784789Y-90679286D01*
X144790217Y-90673506D01*
X144800022Y-90655671D01*
X144810876Y-90639147D01*
X144818491Y-90629330D01*
X144818492Y-90629329D01*
X144823349Y-90623067D01*
X144840969Y-90582350D01*
X144846192Y-90571689D01*
X144863749Y-90539753D01*
X144863751Y-90539748D01*
X144867569Y-90532803D01*
X144869539Y-90525129D01*
X144869542Y-90525122D01*
X144872632Y-90513087D01*
X144879036Y-90494382D01*
X144883967Y-90482987D01*
X144887117Y-90475708D01*
X144894060Y-90431873D01*
X144896467Y-90420251D01*
X144907500Y-90377282D01*
X144907500Y-90356935D01*
X144909051Y-90337224D01*
X144910995Y-90324950D01*
X144912235Y-90317121D01*
X144908059Y-90272944D01*
X144907500Y-90261086D01*
X144907500Y-80390500D01*
X144927502Y-80322379D01*
X144981158Y-80275886D01*
X145033500Y-80264500D01*
X151094959Y-80264500D01*
X151163952Y-80285068D01*
X151220970Y-80322379D01*
X151271159Y-80355222D01*
X151277763Y-80357678D01*
X151277765Y-80357679D01*
X151434558Y-80415990D01*
X151434560Y-80415990D01*
X151441168Y-80418448D01*
X151524995Y-80429633D01*
X151613980Y-80441507D01*
X151613984Y-80441507D01*
X151620961Y-80442438D01*
X151627972Y-80441800D01*
X151627976Y-80441800D01*
X151770459Y-80428832D01*
X151801600Y-80425998D01*
X151808302Y-80423820D01*
X151808304Y-80423820D01*
X151967409Y-80372124D01*
X151967412Y-80372123D01*
X151974108Y-80369947D01*
X152129912Y-80277069D01*
X152135018Y-80272207D01*
X152228593Y-80183097D01*
X152291718Y-80150604D01*
X152362388Y-80157397D01*
X152404503Y-80185169D01*
X152432516Y-80213134D01*
X152432521Y-80213138D01*
X152437697Y-80218305D01*
X152443927Y-80222145D01*
X152443928Y-80222146D01*
X152581090Y-80306694D01*
X152588262Y-80311115D01*
X152622222Y-80322379D01*
X152749611Y-80364632D01*
X152749613Y-80364632D01*
X152756139Y-80366797D01*
X152762975Y-80367497D01*
X152762978Y-80367498D01*
X152806031Y-80371909D01*
X152860600Y-80377500D01*
X153586400Y-80377500D01*
X153589646Y-80377163D01*
X153589650Y-80377163D01*
X153685308Y-80367238D01*
X153685312Y-80367237D01*
X153692166Y-80366526D01*
X153698702Y-80364345D01*
X153698704Y-80364345D01*
X153830806Y-80320272D01*
X153859946Y-80310550D01*
X154010348Y-80217478D01*
X154043884Y-80183884D01*
X154130134Y-80097483D01*
X154135305Y-80092303D01*
X154140569Y-80083763D01*
X154224275Y-79947968D01*
X154224276Y-79947966D01*
X154228115Y-79941738D01*
X154283797Y-79773861D01*
X154294500Y-79669400D01*
X155077500Y-79669400D01*
X155088474Y-79775166D01*
X155144450Y-79942946D01*
X155237522Y-80093348D01*
X155362697Y-80218305D01*
X155368927Y-80222145D01*
X155368928Y-80222146D01*
X155506090Y-80306694D01*
X155513262Y-80311115D01*
X155547222Y-80322379D01*
X155674611Y-80364632D01*
X155674613Y-80364632D01*
X155681139Y-80366797D01*
X155687975Y-80367497D01*
X155687978Y-80367498D01*
X155731031Y-80371909D01*
X155785600Y-80377500D01*
X156511400Y-80377500D01*
X156514646Y-80377163D01*
X156514650Y-80377163D01*
X156610308Y-80367238D01*
X156610312Y-80367237D01*
X156617166Y-80366526D01*
X156623702Y-80364345D01*
X156623704Y-80364345D01*
X156755806Y-80320272D01*
X156784946Y-80310550D01*
X156935348Y-80217478D01*
X156968884Y-80183884D01*
X157055134Y-80097483D01*
X157060305Y-80092303D01*
X157076662Y-80065767D01*
X157129434Y-80018275D01*
X157199506Y-80006853D01*
X157264629Y-80035127D01*
X157267393Y-80037650D01*
X157269667Y-80039446D01*
X157274847Y-80044617D01*
X157281077Y-80048457D01*
X157281078Y-80048458D01*
X157314486Y-80069051D01*
X157424171Y-80136661D01*
X157431119Y-80138966D01*
X157431120Y-80138966D01*
X157584134Y-80189719D01*
X157584136Y-80189719D01*
X157590665Y-80191885D01*
X157694269Y-80202500D01*
X157985734Y-80202500D01*
X158281730Y-80202499D01*
X158386629Y-80191616D01*
X158393160Y-80189437D01*
X158393165Y-80189436D01*
X158546078Y-80138420D01*
X158553026Y-80136102D01*
X158702189Y-80043797D01*
X158826117Y-79919653D01*
X158828114Y-79916413D01*
X158884852Y-79876186D01*
X158955775Y-79872953D01*
X159017187Y-79908578D01*
X159024566Y-79917078D01*
X159031282Y-79925552D01*
X159144979Y-80039051D01*
X159156390Y-80048063D01*
X159293154Y-80132365D01*
X159306332Y-80138509D01*
X159459240Y-80189227D01*
X159472606Y-80192093D01*
X159566101Y-80201672D01*
X159572516Y-80202000D01*
X159590885Y-80202000D01*
X159606124Y-80197525D01*
X159607329Y-80196135D01*
X159609000Y-80188452D01*
X159609000Y-80183884D01*
X160117000Y-80183884D01*
X160121475Y-80199123D01*
X160122865Y-80200328D01*
X160130548Y-80201999D01*
X160153433Y-80201999D01*
X160159952Y-80201662D01*
X160254670Y-80191834D01*
X160268064Y-80188942D01*
X160420865Y-80137964D01*
X160434043Y-80131790D01*
X160570649Y-80047256D01*
X160582050Y-80038220D01*
X160695551Y-79924521D01*
X160704563Y-79913110D01*
X160788865Y-79776346D01*
X160795009Y-79763168D01*
X160845727Y-79610260D01*
X160848593Y-79596894D01*
X160858172Y-79503399D01*
X160858500Y-79496984D01*
X160858500Y-79266115D01*
X160854025Y-79250876D01*
X160852635Y-79249671D01*
X160844952Y-79248000D01*
X160135115Y-79248000D01*
X160119876Y-79252475D01*
X160118671Y-79253865D01*
X160117000Y-79261548D01*
X160117000Y-80183884D01*
X159609000Y-80183884D01*
X159609000Y-78721885D01*
X160117000Y-78721885D01*
X160121475Y-78737124D01*
X160122865Y-78738329D01*
X160130548Y-78740000D01*
X160840384Y-78740000D01*
X160855623Y-78735525D01*
X160856828Y-78734135D01*
X160858499Y-78726452D01*
X160858499Y-78491067D01*
X160858162Y-78484548D01*
X160848334Y-78389830D01*
X160845442Y-78376436D01*
X160794464Y-78223635D01*
X160788290Y-78210457D01*
X160703756Y-78073851D01*
X160694720Y-78062450D01*
X160581021Y-77948949D01*
X160569610Y-77939937D01*
X160432846Y-77855635D01*
X160419668Y-77849491D01*
X160266760Y-77798773D01*
X160253394Y-77795907D01*
X160159899Y-77786328D01*
X160153484Y-77786000D01*
X160135115Y-77786000D01*
X160119876Y-77790475D01*
X160118671Y-77791865D01*
X160117000Y-77799548D01*
X160117000Y-78721885D01*
X159609000Y-78721885D01*
X159609000Y-77804116D01*
X159604525Y-77788877D01*
X159603135Y-77787672D01*
X159595452Y-77786001D01*
X159572567Y-77786001D01*
X159566048Y-77786338D01*
X159471330Y-77796166D01*
X159457936Y-77799058D01*
X159305135Y-77850036D01*
X159291957Y-77856210D01*
X159155351Y-77940744D01*
X159143950Y-77949780D01*
X159030449Y-78063479D01*
X159024706Y-78070751D01*
X158966789Y-78111814D01*
X158895866Y-78115046D01*
X158834454Y-78079421D01*
X158828660Y-78072746D01*
X158825297Y-78067311D01*
X158701153Y-77943383D01*
X158682171Y-77931682D01*
X158622096Y-77894652D01*
X158551829Y-77851339D01*
X158497528Y-77833328D01*
X158391866Y-77798281D01*
X158391864Y-77798281D01*
X158385335Y-77796115D01*
X158281731Y-77785500D01*
X157990266Y-77785500D01*
X157694270Y-77785501D01*
X157589371Y-77796384D01*
X157582840Y-77798563D01*
X157582835Y-77798564D01*
X157459383Y-77839751D01*
X157422974Y-77851898D01*
X157273811Y-77944203D01*
X157268638Y-77949385D01*
X157262901Y-77953932D01*
X157261038Y-77951581D01*
X157210693Y-77979147D01*
X157139871Y-77974163D01*
X157082987Y-77931682D01*
X157076630Y-77922370D01*
X157059478Y-77894652D01*
X156934303Y-77769695D01*
X156859147Y-77723368D01*
X156789968Y-77680725D01*
X156789966Y-77680724D01*
X156783738Y-77676885D01*
X156623254Y-77623655D01*
X156622389Y-77623368D01*
X156622387Y-77623368D01*
X156615861Y-77621203D01*
X156609025Y-77620503D01*
X156609022Y-77620502D01*
X156565969Y-77616091D01*
X156511400Y-77610500D01*
X155785600Y-77610500D01*
X155782354Y-77610837D01*
X155782350Y-77610837D01*
X155686692Y-77620762D01*
X155686688Y-77620763D01*
X155679834Y-77621474D01*
X155673298Y-77623655D01*
X155673296Y-77623655D01*
X155670245Y-77624673D01*
X155512054Y-77677450D01*
X155361652Y-77770522D01*
X155356479Y-77775704D01*
X155319159Y-77813089D01*
X155236695Y-77895697D01*
X155232855Y-77901927D01*
X155232854Y-77901928D01*
X155155247Y-78027830D01*
X155143885Y-78046262D01*
X155088203Y-78214139D01*
X155077500Y-78318600D01*
X155077500Y-79669400D01*
X154294500Y-79669400D01*
X154294500Y-78318600D01*
X154293719Y-78311069D01*
X154284238Y-78219692D01*
X154284237Y-78219688D01*
X154283526Y-78212834D01*
X154243967Y-78094260D01*
X154229868Y-78052002D01*
X154227550Y-78045054D01*
X154134478Y-77894652D01*
X154009303Y-77769695D01*
X153934147Y-77723368D01*
X153864968Y-77680725D01*
X153864966Y-77680724D01*
X153858738Y-77676885D01*
X153698254Y-77623655D01*
X153697389Y-77623368D01*
X153697387Y-77623368D01*
X153690861Y-77621203D01*
X153684025Y-77620503D01*
X153684022Y-77620502D01*
X153640969Y-77616091D01*
X153586400Y-77610500D01*
X152860600Y-77610500D01*
X152857354Y-77610837D01*
X152857350Y-77610837D01*
X152761692Y-77620762D01*
X152761688Y-77620763D01*
X152754834Y-77621474D01*
X152748298Y-77623655D01*
X152748296Y-77623655D01*
X152745245Y-77624673D01*
X152587054Y-77677450D01*
X152436652Y-77770522D01*
X152431479Y-77775704D01*
X152394159Y-77813089D01*
X152311695Y-77895697D01*
X152307855Y-77901927D01*
X152307854Y-77901928D01*
X152230247Y-78027830D01*
X152218885Y-78046262D01*
X152163203Y-78214139D01*
X152162502Y-78220977D01*
X152162502Y-78220979D01*
X152160006Y-78245342D01*
X152133165Y-78311069D01*
X152075050Y-78351852D01*
X152034662Y-78358500D01*
X144478032Y-78358500D01*
X144466793Y-78357970D01*
X144459281Y-78356291D01*
X144451356Y-78356540D01*
X144451355Y-78356540D01*
X144390970Y-78358438D01*
X144387012Y-78358500D01*
X144359017Y-78358500D01*
X144355083Y-78358997D01*
X144355081Y-78358997D01*
X144354994Y-78359008D01*
X144343160Y-78359940D01*
X144298795Y-78361335D01*
X144291182Y-78363547D01*
X144291181Y-78363547D01*
X144279252Y-78367013D01*
X144259888Y-78371023D01*
X144247560Y-78372580D01*
X144247558Y-78372580D01*
X144239701Y-78373573D01*
X144232337Y-78376489D01*
X144232332Y-78376490D01*
X144198444Y-78389907D01*
X144187215Y-78393752D01*
X144173241Y-78397812D01*
X144144607Y-78406131D01*
X144137781Y-78410168D01*
X144127091Y-78416490D01*
X144109341Y-78425187D01*
X144090412Y-78432681D01*
X144083998Y-78437341D01*
X144054514Y-78458762D01*
X144044594Y-78465278D01*
X144013229Y-78483827D01*
X144013226Y-78483829D01*
X144006402Y-78487865D01*
X143992014Y-78502253D01*
X143976980Y-78515094D01*
X143960513Y-78527058D01*
X143955460Y-78533166D01*
X143932228Y-78561249D01*
X143924238Y-78570029D01*
X143370517Y-79123750D01*
X143362191Y-79131326D01*
X143355697Y-79135447D01*
X143350274Y-79141222D01*
X143308915Y-79185265D01*
X143306160Y-79188107D01*
X143286361Y-79207906D01*
X143283937Y-79211031D01*
X143283929Y-79211040D01*
X143283863Y-79211126D01*
X143276155Y-79220151D01*
X143245783Y-79252494D01*
X143241965Y-79259438D01*
X143241964Y-79259440D01*
X143235978Y-79270329D01*
X143225127Y-79286847D01*
X143212650Y-79302933D01*
X143195024Y-79343666D01*
X143189807Y-79354314D01*
X143168431Y-79393197D01*
X143166460Y-79400872D01*
X143166458Y-79400878D01*
X143163369Y-79412911D01*
X143156966Y-79431613D01*
X143148883Y-79450292D01*
X143147644Y-79458117D01*
X143141940Y-79494127D01*
X143139535Y-79505740D01*
X143128500Y-79548718D01*
X143128500Y-79569065D01*
X143126949Y-79588776D01*
X143123765Y-79608879D01*
X143124511Y-79616771D01*
X143127941Y-79653056D01*
X143128500Y-79664914D01*
X143128500Y-82586274D01*
X143108498Y-82654395D01*
X143054842Y-82700888D01*
X142984568Y-82710992D01*
X142919988Y-82681498D01*
X142913482Y-82675447D01*
X142841171Y-82603261D01*
X142829760Y-82594249D01*
X142691757Y-82509184D01*
X142678576Y-82503037D01*
X142524290Y-82451862D01*
X142510914Y-82448995D01*
X142416562Y-82439328D01*
X142410145Y-82439000D01*
X142385115Y-82439000D01*
X142369876Y-82443475D01*
X142368671Y-82444865D01*
X142367000Y-82452548D01*
X142367000Y-85436884D01*
X142371475Y-85452123D01*
X142372865Y-85453328D01*
X142380548Y-85454999D01*
X142410095Y-85454999D01*
X142416614Y-85454662D01*
X142512206Y-85444743D01*
X142525600Y-85441851D01*
X142679784Y-85390412D01*
X142692962Y-85384239D01*
X142830807Y-85298937D01*
X142842208Y-85289901D01*
X142913327Y-85218658D01*
X142975610Y-85184579D01*
X143046430Y-85189582D01*
X143103302Y-85232079D01*
X143128171Y-85298578D01*
X143128500Y-85307676D01*
X143128500Y-86679577D01*
X143108498Y-86747698D01*
X143091596Y-86768672D01*
X143009433Y-86850834D01*
X142937747Y-86922520D01*
X142875435Y-86956545D01*
X142861823Y-86958734D01*
X142834288Y-86961628D01*
X142834286Y-86961628D01*
X142827288Y-86962364D01*
X142655579Y-87020818D01*
X142649575Y-87024512D01*
X142507095Y-87112166D01*
X142507092Y-87112168D01*
X142501088Y-87115862D01*
X142496053Y-87120793D01*
X142496050Y-87120795D01*
X142376525Y-87237843D01*
X142371493Y-87242771D01*
X142273235Y-87395238D01*
X142270826Y-87401858D01*
X142270824Y-87401861D01*
X142261157Y-87428422D01*
X142211197Y-87565685D01*
X142188463Y-87745640D01*
X142206163Y-87926160D01*
X142263418Y-88098273D01*
X142357380Y-88253424D01*
X142483382Y-88383902D01*
X142635159Y-88483222D01*
X142641763Y-88485678D01*
X142641765Y-88485679D01*
X142798558Y-88543990D01*
X142798560Y-88543990D01*
X142805168Y-88546448D01*
X142887248Y-88557400D01*
X142977980Y-88569507D01*
X142977984Y-88569507D01*
X142984961Y-88570438D01*
X142991972Y-88569800D01*
X142991976Y-88569800D01*
X143134459Y-88556832D01*
X143165600Y-88553998D01*
X143172302Y-88551820D01*
X143172304Y-88551820D01*
X143331409Y-88500124D01*
X143331412Y-88500123D01*
X143338108Y-88497947D01*
X143445985Y-88433639D01*
X143514737Y-88415940D01*
X143582147Y-88438222D01*
X143626809Y-88493410D01*
X143636500Y-88541869D01*
X143636500Y-89981577D01*
X143616498Y-90049698D01*
X143599595Y-90070672D01*
X142937748Y-90732519D01*
X142875436Y-90766545D01*
X142861824Y-90768734D01*
X142834288Y-90771628D01*
X142834286Y-90771628D01*
X142827288Y-90772364D01*
X142655579Y-90830818D01*
X142649575Y-90834512D01*
X142507095Y-90922166D01*
X142507092Y-90922168D01*
X142501088Y-90925862D01*
X142496053Y-90930793D01*
X142496050Y-90930795D01*
X142376525Y-91047843D01*
X142371493Y-91052771D01*
X142273235Y-91205238D01*
X142270826Y-91211858D01*
X142270824Y-91211861D01*
X142261157Y-91238422D01*
X142211197Y-91375685D01*
X142188463Y-91555640D01*
X139946500Y-91555640D01*
X139946500Y-90766600D01*
X139943815Y-90740719D01*
X139936238Y-90667692D01*
X139936237Y-90667688D01*
X139935526Y-90660834D01*
X139930905Y-90646981D01*
X139881868Y-90500002D01*
X139879550Y-90493054D01*
X139786478Y-90342652D01*
X139661303Y-90217695D01*
X139510738Y-90124885D01*
X139430995Y-90098436D01*
X139349389Y-90071368D01*
X139349387Y-90071368D01*
X139342861Y-90069203D01*
X139336025Y-90068503D01*
X139336022Y-90068502D01*
X139292969Y-90064091D01*
X139238400Y-90058500D01*
X139109423Y-90058500D01*
X139041302Y-90038498D01*
X138994809Y-89984842D01*
X138984705Y-89914568D01*
X139014199Y-89849988D01*
X139020328Y-89843405D01*
X139331483Y-89532250D01*
X139339809Y-89524674D01*
X139346303Y-89520553D01*
X139393086Y-89470734D01*
X139395840Y-89467893D01*
X139415639Y-89448094D01*
X139418068Y-89444963D01*
X139418072Y-89444958D01*
X139418139Y-89444872D01*
X139425847Y-89435847D01*
X139450791Y-89409285D01*
X139450794Y-89409281D01*
X139456217Y-89403506D01*
X139460036Y-89396560D01*
X139460039Y-89396555D01*
X139466022Y-89385672D01*
X139476878Y-89369144D01*
X139484492Y-89359329D01*
X139484494Y-89359326D01*
X139489349Y-89353067D01*
X139492495Y-89345797D01*
X139492498Y-89345792D01*
X139506969Y-89312350D01*
X139512192Y-89301689D01*
X139529749Y-89269753D01*
X139529751Y-89269748D01*
X139533569Y-89262803D01*
X139535539Y-89255129D01*
X139535542Y-89255122D01*
X139538632Y-89243087D01*
X139545036Y-89224382D01*
X139553116Y-89205710D01*
X139554348Y-89206243D01*
X139588125Y-89153363D01*
X139604598Y-89141215D01*
X139656120Y-89109332D01*
X139662348Y-89105478D01*
X139787305Y-88980303D01*
X139880115Y-88829738D01*
X139935797Y-88661861D01*
X139946500Y-88557400D01*
X139946500Y-86956600D01*
X139942964Y-86922520D01*
X139936238Y-86857692D01*
X139936237Y-86857688D01*
X139935526Y-86850834D01*
X139879550Y-86683054D01*
X139786478Y-86532652D01*
X139661303Y-86407695D01*
X139510738Y-86314885D01*
X139430995Y-86288436D01*
X139349389Y-86261368D01*
X139349387Y-86261368D01*
X139342861Y-86259203D01*
X139336025Y-86258503D01*
X139336022Y-86258502D01*
X139292969Y-86254091D01*
X139238400Y-86248500D01*
X139109423Y-86248500D01*
X139041302Y-86228498D01*
X138994809Y-86174842D01*
X138984705Y-86104568D01*
X139014199Y-86039988D01*
X139020328Y-86033405D01*
X139331483Y-85722250D01*
X139339809Y-85714674D01*
X139346303Y-85710553D01*
X139393086Y-85660734D01*
X139395840Y-85657893D01*
X139415639Y-85638094D01*
X139418068Y-85634963D01*
X139418072Y-85634958D01*
X139418139Y-85634872D01*
X139425847Y-85625847D01*
X139450792Y-85599283D01*
X139456217Y-85593506D01*
X139460035Y-85586561D01*
X139460038Y-85586557D01*
X139466026Y-85575666D01*
X139476878Y-85559145D01*
X139478847Y-85556606D01*
X139489350Y-85543066D01*
X139506971Y-85502345D01*
X139512192Y-85491689D01*
X139529748Y-85459755D01*
X139529750Y-85459749D01*
X139533569Y-85452803D01*
X139535540Y-85445128D01*
X139535542Y-85445122D01*
X139538631Y-85433089D01*
X139545034Y-85414387D01*
X139553117Y-85395708D01*
X139553117Y-85395707D01*
X139553118Y-85395705D01*
X139554352Y-85396239D01*
X139588120Y-85343368D01*
X139604598Y-85331215D01*
X139656120Y-85299332D01*
X139662348Y-85295478D01*
X139787305Y-85170303D01*
X139840712Y-85083661D01*
X139876275Y-85025968D01*
X139876276Y-85025966D01*
X139880115Y-85019738D01*
X139935797Y-84851861D01*
X139938109Y-84829301D01*
X139946167Y-84750650D01*
X139946500Y-84747400D01*
X139946500Y-84744095D01*
X141105001Y-84744095D01*
X141105338Y-84750614D01*
X141115257Y-84846206D01*
X141118149Y-84859600D01*
X141169588Y-85013784D01*
X141175761Y-85026962D01*
X141261063Y-85164807D01*
X141270099Y-85176208D01*
X141384829Y-85290739D01*
X141396240Y-85299751D01*
X141534243Y-85384816D01*
X141547424Y-85390963D01*
X141701710Y-85442138D01*
X141715086Y-85445005D01*
X141809438Y-85454672D01*
X141815854Y-85455000D01*
X141840885Y-85455000D01*
X141856124Y-85450525D01*
X141857329Y-85449135D01*
X141859000Y-85441452D01*
X141859000Y-84219115D01*
X141854525Y-84203876D01*
X141853135Y-84202671D01*
X141845452Y-84201000D01*
X141123116Y-84201000D01*
X141107877Y-84205475D01*
X141106672Y-84206865D01*
X141105001Y-84214548D01*
X141105001Y-84744095D01*
X139946500Y-84744095D01*
X139946500Y-83674885D01*
X141105000Y-83674885D01*
X141109475Y-83690124D01*
X141110865Y-83691329D01*
X141118548Y-83693000D01*
X141840885Y-83693000D01*
X141856124Y-83688525D01*
X141857329Y-83687135D01*
X141859000Y-83679452D01*
X141859000Y-82457116D01*
X141854525Y-82441877D01*
X141853135Y-82440672D01*
X141845452Y-82439001D01*
X141815905Y-82439001D01*
X141809386Y-82439338D01*
X141713794Y-82449257D01*
X141700400Y-82452149D01*
X141546216Y-82503588D01*
X141533038Y-82509761D01*
X141395193Y-82595063D01*
X141383792Y-82604099D01*
X141269261Y-82718829D01*
X141260249Y-82730240D01*
X141175184Y-82868243D01*
X141169037Y-82881424D01*
X141117862Y-83035710D01*
X141114995Y-83049086D01*
X141105328Y-83143438D01*
X141105000Y-83149855D01*
X141105000Y-83674885D01*
X139946500Y-83674885D01*
X139946500Y-83146600D01*
X139942844Y-83111364D01*
X139936238Y-83047692D01*
X139936237Y-83047688D01*
X139935526Y-83040834D01*
X139917874Y-82987923D01*
X139881868Y-82880002D01*
X139879550Y-82873054D01*
X139786478Y-82722652D01*
X139777576Y-82713765D01*
X139666483Y-82602866D01*
X139661303Y-82597695D01*
X139642775Y-82586274D01*
X139516968Y-82508725D01*
X139516966Y-82508724D01*
X139510738Y-82504885D01*
X139395556Y-82466681D01*
X139349389Y-82451368D01*
X139349387Y-82451368D01*
X139342861Y-82449203D01*
X139336025Y-82448503D01*
X139336022Y-82448502D01*
X139292969Y-82444091D01*
X139238400Y-82438500D01*
X139109423Y-82438500D01*
X139041302Y-82418498D01*
X138994809Y-82364842D01*
X138984705Y-82294568D01*
X139014199Y-82229988D01*
X139020328Y-82223405D01*
X139331483Y-81912250D01*
X139339809Y-81904674D01*
X139346303Y-81900553D01*
X139393086Y-81850734D01*
X139395840Y-81847893D01*
X139415639Y-81828094D01*
X139418068Y-81824963D01*
X139418072Y-81824958D01*
X139418139Y-81824872D01*
X139425847Y-81815847D01*
X139450791Y-81789285D01*
X139450794Y-81789281D01*
X139456217Y-81783506D01*
X139460036Y-81776560D01*
X139460039Y-81776555D01*
X139466022Y-81765672D01*
X139476878Y-81749144D01*
X139484492Y-81739329D01*
X139484494Y-81739326D01*
X139489349Y-81733067D01*
X139492495Y-81725797D01*
X139492498Y-81725792D01*
X139506969Y-81692350D01*
X139512192Y-81681689D01*
X139529749Y-81649753D01*
X139529751Y-81649748D01*
X139533569Y-81642803D01*
X139535539Y-81635129D01*
X139535542Y-81635122D01*
X139538632Y-81623087D01*
X139545036Y-81604382D01*
X139553116Y-81585710D01*
X139554348Y-81586243D01*
X139588125Y-81533363D01*
X139604598Y-81521215D01*
X139656120Y-81489332D01*
X139662348Y-81485478D01*
X139787305Y-81360303D01*
X139880115Y-81209738D01*
X139935797Y-81041861D01*
X139946500Y-80937400D01*
X139946500Y-79336600D01*
X139937916Y-79253865D01*
X139936238Y-79237692D01*
X139936237Y-79237688D01*
X139935526Y-79230834D01*
X139926941Y-79205100D01*
X139881868Y-79070002D01*
X139879550Y-79063054D01*
X139786478Y-78912652D01*
X139661303Y-78787695D01*
X139510738Y-78694885D01*
X139430995Y-78668436D01*
X139349389Y-78641368D01*
X139349387Y-78641368D01*
X139342861Y-78639203D01*
X139336025Y-78638503D01*
X139336022Y-78638502D01*
X139292969Y-78634091D01*
X139238400Y-78628500D01*
X139109423Y-78628500D01*
X139041302Y-78608498D01*
X138994809Y-78554842D01*
X138984705Y-78484568D01*
X139014199Y-78419988D01*
X139020328Y-78413405D01*
X139331483Y-78102250D01*
X139339809Y-78094674D01*
X139346303Y-78090553D01*
X139393086Y-78040734D01*
X139395840Y-78037893D01*
X139415639Y-78018094D01*
X139418063Y-78014969D01*
X139418071Y-78014960D01*
X139418137Y-78014874D01*
X139425845Y-78005849D01*
X139450790Y-77979285D01*
X139456217Y-77973506D01*
X139466023Y-77955669D01*
X139476873Y-77939153D01*
X139489350Y-77923067D01*
X139506976Y-77882334D01*
X139512193Y-77871686D01*
X139520701Y-77856210D01*
X139533569Y-77832803D01*
X139535540Y-77825128D01*
X139535542Y-77825122D01*
X139538631Y-77813089D01*
X139545034Y-77794387D01*
X139553117Y-77775708D01*
X139553117Y-77775707D01*
X139553118Y-77775705D01*
X139554352Y-77776239D01*
X139588120Y-77723368D01*
X139604598Y-77711215D01*
X139656120Y-77679332D01*
X139662348Y-77675478D01*
X139787305Y-77550303D01*
X139880115Y-77399738D01*
X139935797Y-77231861D01*
X139946500Y-77127400D01*
X139946500Y-77124095D01*
X141105001Y-77124095D01*
X141105338Y-77130614D01*
X141115257Y-77226206D01*
X141118149Y-77239600D01*
X141169588Y-77393784D01*
X141175761Y-77406962D01*
X141261063Y-77544807D01*
X141270099Y-77556208D01*
X141384829Y-77670739D01*
X141396240Y-77679751D01*
X141534243Y-77764816D01*
X141547424Y-77770963D01*
X141701710Y-77822138D01*
X141715086Y-77825005D01*
X141809438Y-77834672D01*
X141815854Y-77835000D01*
X141840885Y-77835000D01*
X141856124Y-77830525D01*
X141857329Y-77829135D01*
X141859000Y-77821452D01*
X141859000Y-77816884D01*
X142367000Y-77816884D01*
X142371475Y-77832123D01*
X142372865Y-77833328D01*
X142380548Y-77834999D01*
X142410095Y-77834999D01*
X142416614Y-77834662D01*
X142512206Y-77824743D01*
X142525600Y-77821851D01*
X142679784Y-77770412D01*
X142692962Y-77764239D01*
X142830807Y-77678937D01*
X142842208Y-77669901D01*
X142956739Y-77555171D01*
X142965751Y-77543760D01*
X143050816Y-77405757D01*
X143056963Y-77392576D01*
X143108138Y-77238290D01*
X143111005Y-77224914D01*
X143120672Y-77130562D01*
X143121000Y-77124146D01*
X143121000Y-76599115D01*
X143116525Y-76583876D01*
X143115135Y-76582671D01*
X143107452Y-76581000D01*
X142385115Y-76581000D01*
X142369876Y-76585475D01*
X142368671Y-76586865D01*
X142367000Y-76594548D01*
X142367000Y-77816884D01*
X141859000Y-77816884D01*
X141859000Y-76599115D01*
X141854525Y-76583876D01*
X141853135Y-76582671D01*
X141845452Y-76581000D01*
X141123116Y-76581000D01*
X141107877Y-76585475D01*
X141106672Y-76586865D01*
X141105001Y-76594548D01*
X141105001Y-77124095D01*
X139946500Y-77124095D01*
X139946500Y-76054885D01*
X141105000Y-76054885D01*
X141109475Y-76070124D01*
X141110865Y-76071329D01*
X141118548Y-76073000D01*
X141840885Y-76073000D01*
X141856124Y-76068525D01*
X141857329Y-76067135D01*
X141859000Y-76059452D01*
X141859000Y-76054885D01*
X142367000Y-76054885D01*
X142371475Y-76070124D01*
X142372865Y-76071329D01*
X142380548Y-76073000D01*
X143102884Y-76073000D01*
X143118123Y-76068525D01*
X143119328Y-76067135D01*
X143120999Y-76059452D01*
X143120999Y-75529905D01*
X143120662Y-75523386D01*
X143110743Y-75427794D01*
X143107851Y-75414400D01*
X143056412Y-75260216D01*
X143050239Y-75247038D01*
X142964937Y-75109193D01*
X142955901Y-75097792D01*
X142841171Y-74983261D01*
X142829760Y-74974249D01*
X142691757Y-74889184D01*
X142678576Y-74883037D01*
X142524290Y-74831862D01*
X142510914Y-74828995D01*
X142416562Y-74819328D01*
X142410145Y-74819000D01*
X142385115Y-74819000D01*
X142369876Y-74823475D01*
X142368671Y-74824865D01*
X142367000Y-74832548D01*
X142367000Y-76054885D01*
X141859000Y-76054885D01*
X141859000Y-74837116D01*
X141854525Y-74821877D01*
X141853135Y-74820672D01*
X141845452Y-74819001D01*
X141815905Y-74819001D01*
X141809386Y-74819338D01*
X141713794Y-74829257D01*
X141700400Y-74832149D01*
X141546216Y-74883588D01*
X141533038Y-74889761D01*
X141395193Y-74975063D01*
X141383792Y-74984099D01*
X141269261Y-75098829D01*
X141260249Y-75110240D01*
X141175184Y-75248243D01*
X141169037Y-75261424D01*
X141117862Y-75415710D01*
X141114995Y-75429086D01*
X141105328Y-75523438D01*
X141105000Y-75529855D01*
X141105000Y-76054885D01*
X139946500Y-76054885D01*
X139946500Y-75526600D01*
X139946163Y-75523350D01*
X139936238Y-75427692D01*
X139936237Y-75427688D01*
X139935526Y-75420834D01*
X139879550Y-75253054D01*
X139786478Y-75102652D01*
X139661303Y-74977695D01*
X139518673Y-74889776D01*
X139516968Y-74888725D01*
X139516966Y-74888724D01*
X139510738Y-74884885D01*
X139381576Y-74842044D01*
X139349389Y-74831368D01*
X139349387Y-74831368D01*
X139342861Y-74829203D01*
X139336025Y-74828503D01*
X139336022Y-74828502D01*
X139292969Y-74824091D01*
X139238400Y-74818500D01*
X139109423Y-74818500D01*
X139041302Y-74798498D01*
X138994809Y-74744842D01*
X138984705Y-74674568D01*
X139014199Y-74609988D01*
X139020328Y-74603405D01*
X139331483Y-74292250D01*
X139339809Y-74284674D01*
X139346303Y-74280553D01*
X139393086Y-74230734D01*
X139395840Y-74227893D01*
X139415639Y-74208094D01*
X139418068Y-74204963D01*
X139418072Y-74204958D01*
X139418139Y-74204872D01*
X139425847Y-74195847D01*
X139450791Y-74169285D01*
X139450794Y-74169281D01*
X139456217Y-74163506D01*
X139460036Y-74156560D01*
X139460039Y-74156555D01*
X139466022Y-74145672D01*
X139476878Y-74129144D01*
X139484492Y-74119329D01*
X139484494Y-74119326D01*
X139489349Y-74113067D01*
X139492495Y-74105797D01*
X139492498Y-74105792D01*
X139506969Y-74072350D01*
X139512192Y-74061689D01*
X139529749Y-74029753D01*
X139529751Y-74029748D01*
X139533569Y-74022803D01*
X139535539Y-74015129D01*
X139535542Y-74015122D01*
X139538632Y-74003087D01*
X139545036Y-73984382D01*
X139553116Y-73965710D01*
X139554348Y-73966243D01*
X139588125Y-73913363D01*
X139604598Y-73901215D01*
X139656120Y-73869332D01*
X139662348Y-73865478D01*
X139787305Y-73740303D01*
X139791146Y-73734072D01*
X139876275Y-73595968D01*
X139876276Y-73595966D01*
X139880115Y-73589738D01*
X139935797Y-73421861D01*
X139946500Y-73317400D01*
X139946500Y-71716600D01*
X139935526Y-71610834D01*
X139879550Y-71443054D01*
X139786478Y-71292652D01*
X139661303Y-71167695D01*
X139655072Y-71163854D01*
X139516968Y-71078725D01*
X139516966Y-71078724D01*
X139510738Y-71074885D01*
X139350254Y-71021655D01*
X139349389Y-71021368D01*
X139349387Y-71021368D01*
X139342861Y-71019203D01*
X139336025Y-71018503D01*
X139336022Y-71018502D01*
X139292969Y-71014091D01*
X139238400Y-71008500D01*
X138637600Y-71008500D01*
X138634354Y-71008837D01*
X138634350Y-71008837D01*
X138538692Y-71018762D01*
X138538688Y-71018763D01*
X138531834Y-71019474D01*
X138525298Y-71021655D01*
X138525296Y-71021655D01*
X138393194Y-71065728D01*
X138364054Y-71075450D01*
X138213652Y-71168522D01*
X138088695Y-71293697D01*
X137995885Y-71444262D01*
X137940203Y-71612139D01*
X137929500Y-71716600D01*
X137929500Y-73317400D01*
X137940474Y-73423166D01*
X137996450Y-73590946D01*
X138035260Y-73653662D01*
X138054097Y-73722110D01*
X138032936Y-73789879D01*
X138017210Y-73809057D01*
X137401512Y-74424755D01*
X137393193Y-74432325D01*
X137386697Y-74436447D01*
X137381271Y-74442225D01*
X137381270Y-74442226D01*
X137339915Y-74486265D01*
X137337160Y-74489107D01*
X137317361Y-74508906D01*
X137314937Y-74512031D01*
X137314929Y-74512040D01*
X137314863Y-74512126D01*
X137307155Y-74521151D01*
X137276783Y-74553494D01*
X137272965Y-74560438D01*
X137272964Y-74560440D01*
X137266978Y-74571329D01*
X137256127Y-74587847D01*
X137243650Y-74603933D01*
X137226024Y-74644666D01*
X137220807Y-74655314D01*
X137199431Y-74694197D01*
X137197460Y-74701872D01*
X137197458Y-74701878D01*
X137194369Y-74713911D01*
X137187966Y-74732613D01*
X137179883Y-74751292D01*
X137178644Y-74759117D01*
X137172940Y-74795127D01*
X137170535Y-74806740D01*
X137159500Y-74849718D01*
X137159500Y-74870065D01*
X137157949Y-74889776D01*
X137154765Y-74909879D01*
X137155511Y-74917771D01*
X137158941Y-74954056D01*
X137159500Y-74965914D01*
X137159500Y-77535577D01*
X137139498Y-77603698D01*
X137122595Y-77624673D01*
X136425671Y-78321596D01*
X136363359Y-78355621D01*
X136336576Y-78358500D01*
X126984243Y-78358500D01*
X126916122Y-78338498D01*
X126869629Y-78284842D01*
X126858916Y-78245505D01*
X126856771Y-78224832D01*
X126855526Y-78212834D01*
X126815967Y-78094260D01*
X126801868Y-78052002D01*
X126799550Y-78045054D01*
X126706478Y-77894652D01*
X126581303Y-77769695D01*
X126506147Y-77723368D01*
X126436968Y-77680725D01*
X126436966Y-77680724D01*
X126430738Y-77676885D01*
X126270254Y-77623655D01*
X126269389Y-77623368D01*
X126269387Y-77623368D01*
X126262861Y-77621203D01*
X126256025Y-77620503D01*
X126256022Y-77620502D01*
X126212969Y-77616091D01*
X126158400Y-77610500D01*
X125432600Y-77610500D01*
X125429354Y-77610837D01*
X125429350Y-77610837D01*
X125333692Y-77620762D01*
X125333688Y-77620763D01*
X125326834Y-77621474D01*
X125320298Y-77623655D01*
X125320296Y-77623655D01*
X125317245Y-77624673D01*
X125159054Y-77677450D01*
X125008652Y-77770522D01*
X125003479Y-77775704D01*
X124966159Y-77813089D01*
X124883695Y-77895697D01*
X124879855Y-77901927D01*
X124879854Y-77901928D01*
X124802247Y-78027830D01*
X124790885Y-78046262D01*
X124735203Y-78214139D01*
X124724500Y-78318600D01*
X124724500Y-79669400D01*
X124735474Y-79775166D01*
X124791450Y-79942946D01*
X124884522Y-80093348D01*
X125009697Y-80218305D01*
X125015927Y-80222145D01*
X125015928Y-80222146D01*
X125153090Y-80306694D01*
X125160262Y-80311115D01*
X125194222Y-80322379D01*
X125321611Y-80364632D01*
X125321613Y-80364632D01*
X125328139Y-80366797D01*
X125334975Y-80367497D01*
X125334978Y-80367498D01*
X125378031Y-80371909D01*
X125432600Y-80377500D01*
X126158400Y-80377500D01*
X126161646Y-80377163D01*
X126161650Y-80377163D01*
X126257308Y-80367238D01*
X126257312Y-80367237D01*
X126264166Y-80366526D01*
X126270702Y-80364345D01*
X126270704Y-80364345D01*
X126402806Y-80320272D01*
X126431946Y-80310550D01*
X126582348Y-80217478D01*
X126597800Y-80201999D01*
X126615162Y-80184607D01*
X126677445Y-80150528D01*
X126748265Y-80155531D01*
X126794971Y-80186097D01*
X126821081Y-80213134D01*
X126862382Y-80255902D01*
X126938270Y-80305562D01*
X126963970Y-80322379D01*
X127014159Y-80355222D01*
X127020763Y-80357678D01*
X127020765Y-80357679D01*
X127177558Y-80415990D01*
X127177560Y-80415990D01*
X127184168Y-80418448D01*
X127267995Y-80429633D01*
X127356980Y-80441507D01*
X127356984Y-80441507D01*
X127363961Y-80442438D01*
X127370972Y-80441800D01*
X127370976Y-80441800D01*
X127513459Y-80428832D01*
X127544600Y-80425998D01*
X127551302Y-80423820D01*
X127551304Y-80423820D01*
X127710409Y-80372124D01*
X127710412Y-80372123D01*
X127717108Y-80369947D01*
X127864185Y-80282271D01*
X127928703Y-80264500D01*
X136826980Y-80264500D01*
X136838214Y-80265030D01*
X136845719Y-80266708D01*
X136914012Y-80264562D01*
X136917969Y-80264500D01*
X136945983Y-80264500D01*
X136949908Y-80264004D01*
X136949909Y-80264004D01*
X136950004Y-80263992D01*
X136961849Y-80263059D01*
X136991670Y-80262122D01*
X136998282Y-80261914D01*
X136998283Y-80261914D01*
X137006205Y-80261665D01*
X137025749Y-80255987D01*
X137045112Y-80251977D01*
X137057440Y-80250420D01*
X137057442Y-80250420D01*
X137065299Y-80249427D01*
X137072663Y-80246511D01*
X137072668Y-80246510D01*
X137106556Y-80233093D01*
X137117785Y-80229248D01*
X137142229Y-80222146D01*
X137160393Y-80216869D01*
X137167220Y-80212831D01*
X137167223Y-80212830D01*
X137177906Y-80206512D01*
X137195664Y-80197812D01*
X137207215Y-80193239D01*
X137207221Y-80193235D01*
X137214588Y-80190319D01*
X137221677Y-80185169D01*
X137250488Y-80164236D01*
X137260410Y-80157719D01*
X137291768Y-80139174D01*
X137291772Y-80139171D01*
X137298598Y-80135134D01*
X137312982Y-80120750D01*
X137328016Y-80107909D01*
X137338073Y-80100602D01*
X137344487Y-80095942D01*
X137372778Y-80061744D01*
X137380767Y-80052965D01*
X137714405Y-79719327D01*
X137776717Y-79685301D01*
X137847532Y-79690366D01*
X137904368Y-79732913D01*
X137929179Y-79799433D01*
X137929500Y-79808422D01*
X137929500Y-80937400D01*
X137940474Y-81043166D01*
X137996450Y-81210946D01*
X138000304Y-81217174D01*
X138000305Y-81217176D01*
X138035259Y-81273660D01*
X138054097Y-81342111D01*
X138032936Y-81409881D01*
X138017210Y-81429058D01*
X136692060Y-82754207D01*
X135369517Y-84076750D01*
X135361191Y-84084326D01*
X135354697Y-84088447D01*
X135349274Y-84094222D01*
X135307915Y-84138265D01*
X135305160Y-84141107D01*
X135285361Y-84160906D01*
X135282937Y-84164031D01*
X135282929Y-84164040D01*
X135282863Y-84164126D01*
X135275155Y-84173151D01*
X135244783Y-84205494D01*
X135240965Y-84212438D01*
X135240964Y-84212440D01*
X135234978Y-84223329D01*
X135224127Y-84239847D01*
X135211650Y-84255933D01*
X135194024Y-84296666D01*
X135188807Y-84307314D01*
X135167431Y-84346197D01*
X135165460Y-84353872D01*
X135165458Y-84353878D01*
X135162369Y-84365911D01*
X135155966Y-84384613D01*
X135147883Y-84403292D01*
X135146644Y-84411117D01*
X135140940Y-84447127D01*
X135138535Y-84458740D01*
X135127500Y-84501718D01*
X135127500Y-84522065D01*
X135125949Y-84541776D01*
X135122765Y-84561879D01*
X135123511Y-84569771D01*
X135126941Y-84606056D01*
X135127500Y-84617914D01*
X135127500Y-106237577D01*
X135107498Y-106305698D01*
X135090595Y-106326673D01*
X134647671Y-106769596D01*
X134585359Y-106803621D01*
X134558576Y-106806500D01*
X124825243Y-106806500D01*
X124757122Y-106786498D01*
X124710629Y-106732842D01*
X124699916Y-106693505D01*
X124697771Y-106672832D01*
X124696526Y-106660834D01*
X124640550Y-106493054D01*
X124547478Y-106342652D01*
X124422303Y-106217695D01*
X124416072Y-106213854D01*
X124277968Y-106128725D01*
X124277966Y-106128724D01*
X124271738Y-106124885D01*
X124111254Y-106071655D01*
X124110389Y-106071368D01*
X124110387Y-106071368D01*
X124103861Y-106069203D01*
X124097025Y-106068503D01*
X124097022Y-106068502D01*
X124053969Y-106064091D01*
X123999400Y-106058500D01*
X123273600Y-106058500D01*
X123270354Y-106058837D01*
X123270350Y-106058837D01*
X123174692Y-106068762D01*
X123174688Y-106068763D01*
X123167834Y-106069474D01*
X123161298Y-106071655D01*
X123161296Y-106071655D01*
X123029194Y-106115728D01*
X123000054Y-106125450D01*
X122849652Y-106218522D01*
X122844479Y-106223704D01*
X122782839Y-106285451D01*
X122724695Y-106343697D01*
X122720855Y-106349927D01*
X122720854Y-106349928D01*
X122643247Y-106475830D01*
X122631885Y-106494262D01*
X122576203Y-106662139D01*
X122565500Y-106766600D01*
X122565500Y-108117400D01*
X122576474Y-108223166D01*
X122578655Y-108229702D01*
X122578655Y-108229704D01*
X122609098Y-108320953D01*
X122632450Y-108390946D01*
X122725522Y-108541348D01*
X122850697Y-108666305D01*
X122856927Y-108670145D01*
X122856928Y-108670146D01*
X122994090Y-108754694D01*
X123001262Y-108759115D01*
X123081005Y-108785564D01*
X123162611Y-108812632D01*
X123162613Y-108812632D01*
X123169139Y-108814797D01*
X123175975Y-108815497D01*
X123175978Y-108815498D01*
X123219031Y-108819909D01*
X123273600Y-108825500D01*
X123999400Y-108825500D01*
X124002646Y-108825163D01*
X124002650Y-108825163D01*
X124098308Y-108815238D01*
X124098312Y-108815237D01*
X124105166Y-108814526D01*
X124111702Y-108812345D01*
X124111704Y-108812345D01*
X124243806Y-108768272D01*
X124272946Y-108758550D01*
X124346458Y-108713059D01*
X124409535Y-108674026D01*
X124477987Y-108655188D01*
X124545757Y-108676349D01*
X124566470Y-108693638D01*
X124576382Y-108703902D01*
X124728159Y-108803222D01*
X124734763Y-108805678D01*
X124734765Y-108805679D01*
X124891558Y-108863990D01*
X124891560Y-108863990D01*
X124898168Y-108866448D01*
X124981995Y-108877633D01*
X125070980Y-108889507D01*
X125070984Y-108889507D01*
X125077961Y-108890438D01*
X125084972Y-108889800D01*
X125084976Y-108889800D01*
X125227459Y-108876832D01*
X125258600Y-108873998D01*
X125265302Y-108871820D01*
X125265304Y-108871820D01*
X125424409Y-108820124D01*
X125424412Y-108820123D01*
X125431108Y-108817947D01*
X125578185Y-108730271D01*
X125642703Y-108712500D01*
X134921980Y-108712500D01*
X134933214Y-108713030D01*
X134940719Y-108714708D01*
X135009012Y-108712562D01*
X135012969Y-108712500D01*
X135040983Y-108712500D01*
X135044908Y-108712004D01*
X135044909Y-108712004D01*
X135045004Y-108711992D01*
X135056849Y-108711059D01*
X135086670Y-108710122D01*
X135093282Y-108709914D01*
X135093283Y-108709914D01*
X135101205Y-108709665D01*
X135120749Y-108703987D01*
X135140112Y-108699977D01*
X135152440Y-108698420D01*
X135152442Y-108698420D01*
X135160299Y-108697427D01*
X135167663Y-108694511D01*
X135167668Y-108694510D01*
X135201556Y-108681093D01*
X135212785Y-108677248D01*
X135237229Y-108670146D01*
X135255393Y-108664869D01*
X135262220Y-108660831D01*
X135262223Y-108660830D01*
X135272906Y-108654512D01*
X135290664Y-108645812D01*
X135302215Y-108641239D01*
X135302221Y-108641235D01*
X135309588Y-108638319D01*
X135318977Y-108631498D01*
X135345488Y-108612236D01*
X135355410Y-108605719D01*
X135386768Y-108587174D01*
X135386772Y-108587171D01*
X135393598Y-108583134D01*
X135407982Y-108568750D01*
X135423016Y-108555909D01*
X135433073Y-108548602D01*
X135439487Y-108543942D01*
X135467778Y-108509744D01*
X135475767Y-108500965D01*
X135928405Y-108048327D01*
X135990717Y-108014301D01*
X136061532Y-108019366D01*
X136118368Y-108061913D01*
X136143179Y-108128433D01*
X136143500Y-108137422D01*
X136143500Y-136717577D01*
X136123498Y-136785698D01*
X136106595Y-136806673D01*
X135790671Y-137122596D01*
X135728359Y-137156621D01*
X135701576Y-137159500D01*
X116665032Y-137159500D01*
X116653793Y-137158970D01*
X116646281Y-137157291D01*
X116638356Y-137157540D01*
X116638355Y-137157540D01*
X116577970Y-137159438D01*
X116574012Y-137159500D01*
X116546017Y-137159500D01*
X116542083Y-137159997D01*
X116542081Y-137159997D01*
X116541994Y-137160008D01*
X116530160Y-137160940D01*
X116485795Y-137162335D01*
X116478182Y-137164547D01*
X116478181Y-137164547D01*
X116466252Y-137168013D01*
X116446888Y-137172023D01*
X116434560Y-137173580D01*
X116434558Y-137173580D01*
X116426701Y-137174573D01*
X116419337Y-137177489D01*
X116419332Y-137177490D01*
X116385444Y-137190907D01*
X116374215Y-137194752D01*
X116360241Y-137198812D01*
X116331607Y-137207131D01*
X116324781Y-137211168D01*
X116314091Y-137217490D01*
X116296341Y-137226187D01*
X116277412Y-137233681D01*
X116270998Y-137238341D01*
X116241514Y-137259762D01*
X116231594Y-137266278D01*
X116200229Y-137284827D01*
X116200226Y-137284829D01*
X116193402Y-137288865D01*
X116184114Y-137298153D01*
X116121802Y-137332179D01*
X116050987Y-137327114D01*
X116006001Y-137298231D01*
X115918484Y-137210866D01*
X115918479Y-137210862D01*
X115913303Y-137205695D01*
X115895550Y-137194752D01*
X115768968Y-137116725D01*
X115768966Y-137116724D01*
X115762738Y-137112885D01*
X115625924Y-137067506D01*
X115601389Y-137059368D01*
X115601387Y-137059368D01*
X115594861Y-137057203D01*
X115588025Y-137056503D01*
X115588022Y-137056502D01*
X115544969Y-137052091D01*
X115490400Y-137046500D01*
X114764600Y-137046500D01*
X114761354Y-137046837D01*
X114761350Y-137046837D01*
X114665692Y-137056762D01*
X114665688Y-137056763D01*
X114658834Y-137057474D01*
X114652298Y-137059655D01*
X114652296Y-137059655D01*
X114520194Y-137103728D01*
X114491054Y-137113450D01*
X114340652Y-137206522D01*
X114335479Y-137211704D01*
X114287505Y-137259762D01*
X114215695Y-137331697D01*
X114211855Y-137337927D01*
X114211854Y-137337928D01*
X114134247Y-137463830D01*
X114122885Y-137482262D01*
X114100070Y-137551047D01*
X114083841Y-137599978D01*
X114067203Y-137650139D01*
X114066503Y-137656975D01*
X114066502Y-137656978D01*
X114062161Y-137699349D01*
X114056500Y-137754600D01*
X114056500Y-139105400D01*
X114056837Y-139108646D01*
X114056837Y-139108650D01*
X114066762Y-139204308D01*
X114066763Y-139204312D01*
X114067474Y-139211166D01*
X114123450Y-139378946D01*
X114216522Y-139529348D01*
X114341697Y-139654305D01*
X114347927Y-139658145D01*
X114347928Y-139658146D01*
X114485090Y-139742694D01*
X114492262Y-139747115D01*
X114572005Y-139773564D01*
X114653611Y-139800632D01*
X114653613Y-139800632D01*
X114660139Y-139802797D01*
X114666975Y-139803497D01*
X114666978Y-139803498D01*
X114710031Y-139807909D01*
X114764600Y-139813500D01*
X115490400Y-139813500D01*
X115493646Y-139813163D01*
X115493650Y-139813163D01*
X115589308Y-139803238D01*
X115589312Y-139803237D01*
X115596166Y-139802526D01*
X115602702Y-139800345D01*
X115602704Y-139800345D01*
X115734806Y-139756272D01*
X115763946Y-139746550D01*
X115914348Y-139653478D01*
X115947884Y-139619884D01*
X116034134Y-139533483D01*
X116039305Y-139528303D01*
X116043146Y-139522072D01*
X116128275Y-139383968D01*
X116128276Y-139383966D01*
X116132115Y-139377738D01*
X116182113Y-139226998D01*
X116185632Y-139216389D01*
X116185632Y-139216387D01*
X116187797Y-139209861D01*
X116198500Y-139105400D01*
X116198500Y-139103171D01*
X116221895Y-139036329D01*
X116277854Y-138992636D01*
X116348552Y-138986133D01*
X116414914Y-139022245D01*
X116448382Y-139056902D01*
X116600159Y-139156222D01*
X116606763Y-139158678D01*
X116606765Y-139158679D01*
X116763558Y-139216990D01*
X116763560Y-139216990D01*
X116770168Y-139219448D01*
X116853995Y-139230633D01*
X116942980Y-139242507D01*
X116942984Y-139242507D01*
X116949961Y-139243438D01*
X116956972Y-139242800D01*
X116956976Y-139242800D01*
X117099459Y-139229832D01*
X117130600Y-139226998D01*
X117137302Y-139224820D01*
X117137304Y-139224820D01*
X117296409Y-139173124D01*
X117296412Y-139173123D01*
X117303108Y-139170947D01*
X117416520Y-139103340D01*
X117450186Y-139083271D01*
X117514703Y-139065500D01*
X136191980Y-139065500D01*
X136203214Y-139066030D01*
X136210719Y-139067708D01*
X136279012Y-139065562D01*
X136282969Y-139065500D01*
X136310983Y-139065500D01*
X136314908Y-139065004D01*
X136314909Y-139065004D01*
X136315004Y-139064992D01*
X136326849Y-139064059D01*
X136356670Y-139063122D01*
X136363282Y-139062914D01*
X136363283Y-139062914D01*
X136371205Y-139062665D01*
X136390749Y-139056987D01*
X136410112Y-139052977D01*
X136422440Y-139051420D01*
X136422442Y-139051420D01*
X136430299Y-139050427D01*
X136437663Y-139047511D01*
X136437668Y-139047510D01*
X136471556Y-139034093D01*
X136482785Y-139030248D01*
X136499465Y-139025402D01*
X136525393Y-139017869D01*
X136532220Y-139013831D01*
X136532223Y-139013830D01*
X136542906Y-139007512D01*
X136560664Y-138998812D01*
X136572215Y-138994239D01*
X136572221Y-138994235D01*
X136579588Y-138991319D01*
X136588977Y-138984498D01*
X136615488Y-138965236D01*
X136625410Y-138958719D01*
X136656768Y-138940174D01*
X136656772Y-138940171D01*
X136663598Y-138936134D01*
X136677982Y-138921750D01*
X136693016Y-138908909D01*
X136703073Y-138901602D01*
X136709487Y-138896942D01*
X136737773Y-138862750D01*
X136745763Y-138853969D01*
X137680488Y-137919245D01*
X137688807Y-137911675D01*
X137695303Y-137907553D01*
X137742086Y-137857734D01*
X137744840Y-137854893D01*
X137764639Y-137835094D01*
X137767063Y-137831969D01*
X137767071Y-137831960D01*
X137767137Y-137831874D01*
X137774845Y-137822849D01*
X137799790Y-137796285D01*
X137805217Y-137790506D01*
X137815023Y-137772669D01*
X137825873Y-137756153D01*
X137838350Y-137740067D01*
X137855976Y-137699334D01*
X137861193Y-137688686D01*
X137878749Y-137656751D01*
X137882569Y-137649803D01*
X137884540Y-137642128D01*
X137884542Y-137642122D01*
X137887631Y-137630089D01*
X137894034Y-137611387D01*
X137902117Y-137592708D01*
X137909060Y-137548873D01*
X137911467Y-137537251D01*
X137917072Y-137515421D01*
X137922500Y-137494282D01*
X137922500Y-137473935D01*
X137924051Y-137454224D01*
X137925995Y-137441950D01*
X137927235Y-137434121D01*
X137923059Y-137389944D01*
X137922500Y-137378086D01*
X137922500Y-125312726D01*
X137942502Y-125244605D01*
X137996158Y-125198112D01*
X138066432Y-125188008D01*
X138131012Y-125217502D01*
X138137518Y-125223553D01*
X138209829Y-125295739D01*
X138221240Y-125304751D01*
X138359243Y-125389816D01*
X138372424Y-125395963D01*
X138526710Y-125447138D01*
X138540086Y-125450005D01*
X138634438Y-125459672D01*
X138640854Y-125460000D01*
X138665885Y-125460000D01*
X138681124Y-125455525D01*
X138682329Y-125454135D01*
X138684000Y-125446452D01*
X138684000Y-122462116D01*
X138679525Y-122446877D01*
X138678135Y-122445672D01*
X138670452Y-122444001D01*
X138640905Y-122444001D01*
X138634386Y-122444338D01*
X138538794Y-122454257D01*
X138525400Y-122457149D01*
X138371216Y-122508588D01*
X138358038Y-122514761D01*
X138220193Y-122600063D01*
X138208792Y-122609099D01*
X138137673Y-122680342D01*
X138075390Y-122714421D01*
X138004570Y-122709418D01*
X137947698Y-122666921D01*
X137922829Y-122600422D01*
X137922500Y-122591324D01*
X137922500Y-118454726D01*
X137942502Y-118386605D01*
X137996158Y-118340112D01*
X138066432Y-118330008D01*
X138131012Y-118359502D01*
X138137518Y-118365553D01*
X138209829Y-118437739D01*
X138221240Y-118446751D01*
X138359243Y-118531816D01*
X138372424Y-118537963D01*
X138526710Y-118589138D01*
X138540086Y-118592005D01*
X138634438Y-118601672D01*
X138640854Y-118602000D01*
X138665885Y-118602000D01*
X138681124Y-118597525D01*
X138682329Y-118596135D01*
X138684000Y-118588452D01*
X138684000Y-115604116D01*
X138679525Y-115588877D01*
X138678135Y-115587672D01*
X138670452Y-115586001D01*
X138640905Y-115586001D01*
X138634386Y-115586338D01*
X138538794Y-115596257D01*
X138525400Y-115599149D01*
X138371216Y-115650588D01*
X138358038Y-115656761D01*
X138220193Y-115742063D01*
X138208792Y-115751099D01*
X138137673Y-115822342D01*
X138075390Y-115856421D01*
X138004570Y-115851418D01*
X137947698Y-115808921D01*
X137922829Y-115742422D01*
X137922500Y-115733324D01*
X137922500Y-101533422D01*
X137942502Y-101465301D01*
X137996158Y-101418808D01*
X138066432Y-101408704D01*
X138131012Y-101438198D01*
X138137593Y-101444325D01*
X138791034Y-102097767D01*
X139194750Y-102501483D01*
X139202326Y-102509809D01*
X139206447Y-102516303D01*
X139212222Y-102521726D01*
X139256265Y-102563085D01*
X139259107Y-102565840D01*
X139278906Y-102585639D01*
X139281623Y-102587747D01*
X139319429Y-102647703D01*
X139318817Y-102718697D01*
X139312285Y-102735708D01*
X139308056Y-102744715D01*
X139299737Y-102759691D01*
X139288529Y-102776983D01*
X139288527Y-102776988D01*
X139283648Y-102784515D01*
X139281078Y-102793108D01*
X139281076Y-102793113D01*
X139276289Y-102809120D01*
X139269628Y-102826564D01*
X139258719Y-102849800D01*
X139257338Y-102858667D01*
X139257338Y-102858668D01*
X139254170Y-102879015D01*
X139250387Y-102895732D01*
X139244485Y-102915466D01*
X139244484Y-102915472D01*
X139241914Y-102924066D01*
X139241859Y-102933037D01*
X139241859Y-102933038D01*
X139241704Y-102958497D01*
X139241671Y-102959289D01*
X139241500Y-102960386D01*
X139241500Y-102991377D01*
X139241498Y-102992147D01*
X139241024Y-103069721D01*
X139241408Y-103071065D01*
X139241500Y-103072410D01*
X139241500Y-115489672D01*
X139221498Y-115557793D01*
X139210725Y-115572184D01*
X139193671Y-115591865D01*
X139192000Y-115599548D01*
X139192000Y-118583884D01*
X139196475Y-118599123D01*
X139198012Y-118600455D01*
X139236396Y-118660181D01*
X139241500Y-118695680D01*
X139241500Y-122347672D01*
X139221498Y-122415793D01*
X139210725Y-122430184D01*
X139193671Y-122449865D01*
X139192000Y-122457548D01*
X139192000Y-125441884D01*
X139196475Y-125457123D01*
X139198012Y-125458455D01*
X139236396Y-125518181D01*
X139241500Y-125553680D01*
X139241500Y-152365500D01*
X139221498Y-152433621D01*
X139167842Y-152480114D01*
X139115500Y-152491500D01*
X131134500Y-152491500D01*
X131066379Y-152471498D01*
X131019886Y-152417842D01*
X131008500Y-152365500D01*
X131008500Y-143008623D01*
X131008502Y-143007853D01*
X131008800Y-142959102D01*
X131008976Y-142930279D01*
X131000850Y-142901847D01*
X130997272Y-142885085D01*
X130994352Y-142864698D01*
X130993080Y-142855813D01*
X130982451Y-142832436D01*
X130976004Y-142814913D01*
X130971416Y-142798862D01*
X130968949Y-142790229D01*
X130964156Y-142782632D01*
X130953170Y-142765220D01*
X130945030Y-142750135D01*
X130942564Y-142744711D01*
X130932792Y-142723218D01*
X130916030Y-142703765D01*
X130904927Y-142688761D01*
X130891224Y-142667042D01*
X130884499Y-142661103D01*
X130884496Y-142661099D01*
X130869062Y-142647468D01*
X130857018Y-142635276D01*
X130843573Y-142619673D01*
X130843570Y-142619671D01*
X130837713Y-142612873D01*
X130824009Y-142603990D01*
X130816165Y-142598906D01*
X130801291Y-142587615D01*
X130788783Y-142576569D01*
X130788782Y-142576568D01*
X130782049Y-142570622D01*
X130755287Y-142558057D01*
X130740309Y-142549737D01*
X130723017Y-142538529D01*
X130723012Y-142538527D01*
X130715485Y-142533648D01*
X130706892Y-142531078D01*
X130706887Y-142531076D01*
X130690880Y-142526289D01*
X130673436Y-142519628D01*
X130658324Y-142512533D01*
X130658322Y-142512532D01*
X130650200Y-142508719D01*
X130641333Y-142507338D01*
X130641332Y-142507338D01*
X130630478Y-142505648D01*
X130620983Y-142504170D01*
X130604268Y-142500387D01*
X130584534Y-142494485D01*
X130584528Y-142494484D01*
X130575934Y-142491914D01*
X130566963Y-142491859D01*
X130566962Y-142491859D01*
X130556903Y-142491798D01*
X130541494Y-142491704D01*
X130540711Y-142491671D01*
X130539614Y-142491500D01*
X130508623Y-142491500D01*
X130507853Y-142491498D01*
X130434215Y-142491048D01*
X130434214Y-142491048D01*
X130430279Y-142491024D01*
X130428935Y-142491408D01*
X130427590Y-142491500D01*
X101604688Y-142491500D01*
X101536567Y-142471498D01*
X101490074Y-142417842D01*
X101479970Y-142347568D01*
X101495852Y-142302012D01*
X103461148Y-138932933D01*
X107541001Y-138932933D01*
X107541338Y-138939452D01*
X107551166Y-139034170D01*
X107554058Y-139047564D01*
X107605036Y-139200365D01*
X107611210Y-139213543D01*
X107695744Y-139350149D01*
X107704780Y-139361550D01*
X107818479Y-139475051D01*
X107829890Y-139484063D01*
X107966654Y-139568365D01*
X107979832Y-139574509D01*
X108132740Y-139625227D01*
X108146106Y-139628093D01*
X108239601Y-139637672D01*
X108246016Y-139638000D01*
X108264385Y-139638000D01*
X108279624Y-139633525D01*
X108280829Y-139632135D01*
X108282500Y-139624452D01*
X108282500Y-139619884D01*
X108790500Y-139619884D01*
X108794975Y-139635123D01*
X108796365Y-139636328D01*
X108804048Y-139637999D01*
X108826933Y-139637999D01*
X108833452Y-139637662D01*
X108928170Y-139627834D01*
X108941564Y-139624942D01*
X109094365Y-139573964D01*
X109107543Y-139567790D01*
X109244149Y-139483256D01*
X109255550Y-139474220D01*
X109369051Y-139360521D01*
X109374794Y-139353249D01*
X109432711Y-139312186D01*
X109503634Y-139308954D01*
X109565046Y-139344579D01*
X109570840Y-139351254D01*
X109574203Y-139356689D01*
X109698347Y-139480617D01*
X109704577Y-139484457D01*
X109704578Y-139484458D01*
X109737986Y-139505051D01*
X109847671Y-139572661D01*
X109854619Y-139574966D01*
X109854620Y-139574966D01*
X110007634Y-139625719D01*
X110007636Y-139625719D01*
X110014165Y-139627885D01*
X110117769Y-139638500D01*
X110409234Y-139638500D01*
X110705230Y-139638499D01*
X110810129Y-139627616D01*
X110816660Y-139625437D01*
X110816665Y-139625436D01*
X110969578Y-139574420D01*
X110976526Y-139572102D01*
X111055680Y-139523120D01*
X111116286Y-139485616D01*
X111184738Y-139466778D01*
X111252508Y-139487939D01*
X111281904Y-139518356D01*
X111283125Y-139517388D01*
X111287668Y-139523120D01*
X111291522Y-139529348D01*
X111416697Y-139654305D01*
X111422927Y-139658145D01*
X111422928Y-139658146D01*
X111560090Y-139742694D01*
X111567262Y-139747115D01*
X111647005Y-139773564D01*
X111728611Y-139800632D01*
X111728613Y-139800632D01*
X111735139Y-139802797D01*
X111741975Y-139803497D01*
X111741978Y-139803498D01*
X111785031Y-139807909D01*
X111839600Y-139813500D01*
X112565400Y-139813500D01*
X112568646Y-139813163D01*
X112568650Y-139813163D01*
X112664308Y-139803238D01*
X112664312Y-139803237D01*
X112671166Y-139802526D01*
X112677702Y-139800345D01*
X112677704Y-139800345D01*
X112809806Y-139756272D01*
X112838946Y-139746550D01*
X112989348Y-139653478D01*
X113022884Y-139619884D01*
X113109134Y-139533483D01*
X113114305Y-139528303D01*
X113118146Y-139522072D01*
X113203275Y-139383968D01*
X113203276Y-139383966D01*
X113207115Y-139377738D01*
X113257113Y-139226998D01*
X113260632Y-139216389D01*
X113260632Y-139216387D01*
X113262797Y-139209861D01*
X113273500Y-139105400D01*
X113273500Y-137754600D01*
X113271237Y-137732791D01*
X113263238Y-137655692D01*
X113263237Y-137655688D01*
X113262526Y-137648834D01*
X113206550Y-137481054D01*
X113113478Y-137330652D01*
X112988303Y-137205695D01*
X112970550Y-137194752D01*
X112843968Y-137116725D01*
X112843966Y-137116724D01*
X112837738Y-137112885D01*
X112700924Y-137067506D01*
X112676389Y-137059368D01*
X112676387Y-137059368D01*
X112669861Y-137057203D01*
X112663025Y-137056503D01*
X112663022Y-137056502D01*
X112619969Y-137052091D01*
X112565400Y-137046500D01*
X111839600Y-137046500D01*
X111836354Y-137046837D01*
X111836350Y-137046837D01*
X111740692Y-137056762D01*
X111740688Y-137056763D01*
X111733834Y-137057474D01*
X111727298Y-137059655D01*
X111727296Y-137059655D01*
X111595194Y-137103728D01*
X111566054Y-137113450D01*
X111415652Y-137206522D01*
X111410479Y-137211704D01*
X111362505Y-137259762D01*
X111290695Y-137331697D01*
X111286854Y-137337928D01*
X111282317Y-137343673D01*
X111280077Y-137341904D01*
X111237022Y-137380654D01*
X111166951Y-137392079D01*
X111116417Y-137374306D01*
X110975329Y-137287339D01*
X110911833Y-137266278D01*
X110815366Y-137234281D01*
X110815364Y-137234281D01*
X110808835Y-137232115D01*
X110705231Y-137221500D01*
X110413766Y-137221500D01*
X110117770Y-137221501D01*
X110012871Y-137232384D01*
X110006340Y-137234563D01*
X110006335Y-137234564D01*
X109858189Y-137283990D01*
X109846474Y-137287898D01*
X109697311Y-137380203D01*
X109573383Y-137504347D01*
X109571386Y-137507587D01*
X109514648Y-137547814D01*
X109443725Y-137551047D01*
X109382313Y-137515422D01*
X109374934Y-137506922D01*
X109368218Y-137498448D01*
X109254521Y-137384949D01*
X109243110Y-137375937D01*
X109106346Y-137291635D01*
X109093168Y-137285491D01*
X108940260Y-137234773D01*
X108926894Y-137231907D01*
X108833399Y-137222328D01*
X108826984Y-137222000D01*
X108808615Y-137222000D01*
X108793376Y-137226475D01*
X108792171Y-137227865D01*
X108790500Y-137235548D01*
X108790500Y-139619884D01*
X108282500Y-139619884D01*
X108282500Y-138702115D01*
X108278025Y-138686876D01*
X108276635Y-138685671D01*
X108268952Y-138684000D01*
X107559116Y-138684000D01*
X107543877Y-138688475D01*
X107542672Y-138689865D01*
X107541001Y-138697548D01*
X107541001Y-138932933D01*
X103461148Y-138932933D01*
X103913259Y-138157885D01*
X107541000Y-138157885D01*
X107545475Y-138173124D01*
X107546865Y-138174329D01*
X107554548Y-138176000D01*
X108264385Y-138176000D01*
X108279624Y-138171525D01*
X108280829Y-138170135D01*
X108282500Y-138162452D01*
X108282500Y-137240116D01*
X108278025Y-137224877D01*
X108276635Y-137223672D01*
X108268952Y-137222001D01*
X108246067Y-137222001D01*
X108239548Y-137222338D01*
X108144830Y-137232166D01*
X108131436Y-137235058D01*
X107978635Y-137286036D01*
X107965457Y-137292210D01*
X107828851Y-137376744D01*
X107817450Y-137385780D01*
X107703949Y-137499479D01*
X107694937Y-137510890D01*
X107610635Y-137647654D01*
X107604491Y-137660832D01*
X107553773Y-137813740D01*
X107550907Y-137827106D01*
X107541328Y-137920601D01*
X107541000Y-137927016D01*
X107541000Y-138157885D01*
X103913259Y-138157885D01*
X110017348Y-127693732D01*
X118431288Y-113269836D01*
X118434360Y-113264843D01*
X118466352Y-113215485D01*
X118478554Y-113174683D01*
X118482533Y-113163370D01*
X118495187Y-113132218D01*
X118495188Y-113132214D01*
X118498564Y-113123903D01*
X118499839Y-113111364D01*
X118504474Y-113088011D01*
X118508086Y-113075934D01*
X118508346Y-113033338D01*
X118508990Y-113021366D01*
X118512391Y-112987923D01*
X118513299Y-112978993D01*
X118511004Y-112966602D01*
X118508899Y-112942885D01*
X118508921Y-112939255D01*
X118508976Y-112930279D01*
X118497269Y-112889318D01*
X118494529Y-112877656D01*
X118493410Y-112871611D01*
X118486771Y-112835772D01*
X118481089Y-112824520D01*
X118472411Y-112802344D01*
X118471416Y-112798861D01*
X118468949Y-112790229D01*
X118460590Y-112776980D01*
X118446222Y-112754207D01*
X118440312Y-112743771D01*
X118437603Y-112738406D01*
X118421113Y-112705752D01*
X118412499Y-112696545D01*
X118397946Y-112677696D01*
X118396014Y-112674634D01*
X118391224Y-112667042D01*
X118359301Y-112638849D01*
X118350698Y-112630489D01*
X118327734Y-112605943D01*
X118327732Y-112605941D01*
X118321600Y-112599387D01*
X118313875Y-112594818D01*
X118313872Y-112594815D01*
X118310751Y-112592969D01*
X118291493Y-112578963D01*
X118288777Y-112576564D01*
X118288776Y-112576563D01*
X118282049Y-112570622D01*
X118243494Y-112552520D01*
X118232896Y-112546914D01*
X118196235Y-112525227D01*
X118184021Y-112522112D01*
X118161607Y-112514074D01*
X118158329Y-112512535D01*
X118158325Y-112512534D01*
X118150200Y-112508719D01*
X118141333Y-112507338D01*
X118141332Y-112507338D01*
X118108111Y-112502165D01*
X118096364Y-112499758D01*
X118063788Y-112491451D01*
X118055094Y-112489234D01*
X118046129Y-112489546D01*
X118046128Y-112489546D01*
X117992177Y-112491424D01*
X117987794Y-112491500D01*
X106604688Y-112491500D01*
X106536567Y-112471498D01*
X106490074Y-112417842D01*
X106479970Y-112347568D01*
X106495852Y-112302012D01*
X109037482Y-107944933D01*
X116050001Y-107944933D01*
X116050338Y-107951452D01*
X116060166Y-108046170D01*
X116063058Y-108059564D01*
X116114036Y-108212365D01*
X116120210Y-108225543D01*
X116204744Y-108362149D01*
X116213780Y-108373550D01*
X116327479Y-108487051D01*
X116338890Y-108496063D01*
X116475654Y-108580365D01*
X116488832Y-108586509D01*
X116641740Y-108637227D01*
X116655106Y-108640093D01*
X116748601Y-108649672D01*
X116755016Y-108650000D01*
X116773385Y-108650000D01*
X116788624Y-108645525D01*
X116789829Y-108644135D01*
X116791500Y-108636452D01*
X116791500Y-108631884D01*
X117299500Y-108631884D01*
X117303975Y-108647123D01*
X117305365Y-108648328D01*
X117313048Y-108649999D01*
X117335933Y-108649999D01*
X117342452Y-108649662D01*
X117437170Y-108639834D01*
X117450564Y-108636942D01*
X117603365Y-108585964D01*
X117616543Y-108579790D01*
X117753149Y-108495256D01*
X117764550Y-108486220D01*
X117878051Y-108372521D01*
X117883794Y-108365249D01*
X117941711Y-108324186D01*
X118012634Y-108320954D01*
X118074046Y-108356579D01*
X118079840Y-108363254D01*
X118083203Y-108368689D01*
X118207347Y-108492617D01*
X118213577Y-108496457D01*
X118213578Y-108496458D01*
X118220747Y-108500877D01*
X118356671Y-108584661D01*
X118363619Y-108586966D01*
X118363620Y-108586966D01*
X118516634Y-108637719D01*
X118516636Y-108637719D01*
X118523165Y-108639885D01*
X118626769Y-108650500D01*
X118918234Y-108650500D01*
X119214230Y-108650499D01*
X119319129Y-108639616D01*
X119325660Y-108637437D01*
X119325665Y-108637436D01*
X119478578Y-108586420D01*
X119485526Y-108584102D01*
X119564680Y-108535120D01*
X119625286Y-108497616D01*
X119693738Y-108478778D01*
X119761508Y-108499939D01*
X119790904Y-108530356D01*
X119792125Y-108529388D01*
X119796668Y-108535120D01*
X119800522Y-108541348D01*
X119925697Y-108666305D01*
X119931927Y-108670145D01*
X119931928Y-108670146D01*
X120069090Y-108754694D01*
X120076262Y-108759115D01*
X120156005Y-108785564D01*
X120237611Y-108812632D01*
X120237613Y-108812632D01*
X120244139Y-108814797D01*
X120250975Y-108815497D01*
X120250978Y-108815498D01*
X120294031Y-108819909D01*
X120348600Y-108825500D01*
X121074400Y-108825500D01*
X121077646Y-108825163D01*
X121077650Y-108825163D01*
X121173308Y-108815238D01*
X121173312Y-108815237D01*
X121180166Y-108814526D01*
X121186702Y-108812345D01*
X121186704Y-108812345D01*
X121318806Y-108768272D01*
X121347946Y-108758550D01*
X121498348Y-108665478D01*
X121531884Y-108631884D01*
X121618134Y-108545483D01*
X121623305Y-108540303D01*
X121627544Y-108533426D01*
X121712275Y-108395968D01*
X121712276Y-108395966D01*
X121716115Y-108389738D01*
X121752733Y-108279338D01*
X121769632Y-108228389D01*
X121769632Y-108228387D01*
X121771797Y-108221861D01*
X121782500Y-108117400D01*
X121782500Y-106766600D01*
X121781719Y-106759069D01*
X121772238Y-106667692D01*
X121772237Y-106667688D01*
X121771526Y-106660834D01*
X121715550Y-106493054D01*
X121622478Y-106342652D01*
X121497303Y-106217695D01*
X121491072Y-106213854D01*
X121352968Y-106128725D01*
X121352966Y-106128724D01*
X121346738Y-106124885D01*
X121186254Y-106071655D01*
X121185389Y-106071368D01*
X121185387Y-106071368D01*
X121178861Y-106069203D01*
X121172025Y-106068503D01*
X121172022Y-106068502D01*
X121128969Y-106064091D01*
X121074400Y-106058500D01*
X120348600Y-106058500D01*
X120345354Y-106058837D01*
X120345350Y-106058837D01*
X120249692Y-106068762D01*
X120249688Y-106068763D01*
X120242834Y-106069474D01*
X120236298Y-106071655D01*
X120236296Y-106071655D01*
X120104194Y-106115728D01*
X120075054Y-106125450D01*
X119924652Y-106218522D01*
X119919479Y-106223704D01*
X119857839Y-106285451D01*
X119799695Y-106343697D01*
X119795854Y-106349928D01*
X119791317Y-106355673D01*
X119789077Y-106353904D01*
X119746022Y-106392654D01*
X119675951Y-106404079D01*
X119625417Y-106386306D01*
X119484329Y-106299339D01*
X119455474Y-106289768D01*
X119324366Y-106246281D01*
X119324364Y-106246281D01*
X119317835Y-106244115D01*
X119214231Y-106233500D01*
X118922766Y-106233500D01*
X118626770Y-106233501D01*
X118521871Y-106244384D01*
X118515340Y-106246563D01*
X118515335Y-106246564D01*
X118367189Y-106295990D01*
X118355474Y-106299898D01*
X118206311Y-106392203D01*
X118082383Y-106516347D01*
X118080386Y-106519587D01*
X118023648Y-106559814D01*
X117952725Y-106563047D01*
X117891313Y-106527422D01*
X117883934Y-106518922D01*
X117877218Y-106510448D01*
X117763521Y-106396949D01*
X117752110Y-106387937D01*
X117615346Y-106303635D01*
X117602168Y-106297491D01*
X117449260Y-106246773D01*
X117435894Y-106243907D01*
X117342399Y-106234328D01*
X117335984Y-106234000D01*
X117317615Y-106234000D01*
X117302376Y-106238475D01*
X117301171Y-106239865D01*
X117299500Y-106247548D01*
X117299500Y-108631884D01*
X116791500Y-108631884D01*
X116791500Y-107714115D01*
X116787025Y-107698876D01*
X116785635Y-107697671D01*
X116777952Y-107696000D01*
X116068116Y-107696000D01*
X116052877Y-107700475D01*
X116051672Y-107701865D01*
X116050001Y-107709548D01*
X116050001Y-107944933D01*
X109037482Y-107944933D01*
X109489593Y-107169885D01*
X116050000Y-107169885D01*
X116054475Y-107185124D01*
X116055865Y-107186329D01*
X116063548Y-107188000D01*
X116773385Y-107188000D01*
X116788624Y-107183525D01*
X116789829Y-107182135D01*
X116791500Y-107174452D01*
X116791500Y-106252116D01*
X116787025Y-106236877D01*
X116785635Y-106235672D01*
X116777952Y-106234001D01*
X116755067Y-106234001D01*
X116748548Y-106234338D01*
X116653830Y-106244166D01*
X116640436Y-106247058D01*
X116487635Y-106298036D01*
X116474457Y-106304210D01*
X116337851Y-106388744D01*
X116326450Y-106397780D01*
X116212949Y-106511479D01*
X116203937Y-106522890D01*
X116119635Y-106659654D01*
X116113491Y-106672832D01*
X116062773Y-106825740D01*
X116059907Y-106839106D01*
X116050328Y-106932601D01*
X116050000Y-106939016D01*
X116050000Y-107169885D01*
X109489593Y-107169885D01*
X123431288Y-83269836D01*
X123434360Y-83264843D01*
X123466352Y-83215485D01*
X123478554Y-83174683D01*
X123482533Y-83163370D01*
X123495187Y-83132218D01*
X123495188Y-83132214D01*
X123498564Y-83123903D01*
X123499839Y-83111364D01*
X123504474Y-83088011D01*
X123508086Y-83075934D01*
X123508346Y-83033338D01*
X123508990Y-83021366D01*
X123512391Y-82987923D01*
X123513299Y-82978993D01*
X123511004Y-82966602D01*
X123508899Y-82942885D01*
X123508921Y-82939255D01*
X123508976Y-82930279D01*
X123497269Y-82889318D01*
X123494529Y-82877656D01*
X123493410Y-82871611D01*
X123486771Y-82835772D01*
X123481089Y-82824520D01*
X123472411Y-82802344D01*
X123471416Y-82798861D01*
X123468949Y-82790229D01*
X123460136Y-82776261D01*
X123446222Y-82754207D01*
X123440312Y-82743771D01*
X123429647Y-82722652D01*
X123421113Y-82705752D01*
X123412499Y-82696545D01*
X123397946Y-82677696D01*
X123396014Y-82674634D01*
X123391224Y-82667042D01*
X123359301Y-82638849D01*
X123350698Y-82630489D01*
X123327734Y-82605943D01*
X123327732Y-82605941D01*
X123321600Y-82599387D01*
X123313875Y-82594818D01*
X123313872Y-82594815D01*
X123310751Y-82592969D01*
X123291493Y-82578963D01*
X123288777Y-82576564D01*
X123288776Y-82576563D01*
X123282049Y-82570622D01*
X123243494Y-82552520D01*
X123232896Y-82546914D01*
X123196235Y-82525227D01*
X123184021Y-82522112D01*
X123161607Y-82514074D01*
X123158329Y-82512535D01*
X123158325Y-82512534D01*
X123150200Y-82508719D01*
X123141333Y-82507338D01*
X123141332Y-82507338D01*
X123108111Y-82502165D01*
X123096364Y-82499758D01*
X123063788Y-82491451D01*
X123055094Y-82489234D01*
X123046129Y-82489546D01*
X123046128Y-82489546D01*
X122992177Y-82491424D01*
X122987794Y-82491500D01*
X112022874Y-82491500D01*
X111954753Y-82471498D01*
X111908260Y-82417842D01*
X111898156Y-82347568D01*
X111927650Y-82282988D01*
X111933410Y-82276775D01*
X111979811Y-82229988D01*
X114690278Y-79496933D01*
X118209001Y-79496933D01*
X118209338Y-79503452D01*
X118219166Y-79598170D01*
X118222058Y-79611564D01*
X118273036Y-79764365D01*
X118279210Y-79777543D01*
X118363744Y-79914149D01*
X118372780Y-79925550D01*
X118486479Y-80039051D01*
X118497890Y-80048063D01*
X118634654Y-80132365D01*
X118647832Y-80138509D01*
X118800740Y-80189227D01*
X118814106Y-80192093D01*
X118907601Y-80201672D01*
X118914016Y-80202000D01*
X118932385Y-80202000D01*
X118947624Y-80197525D01*
X118948829Y-80196135D01*
X118950500Y-80188452D01*
X118950500Y-80183884D01*
X119458500Y-80183884D01*
X119462975Y-80199123D01*
X119464365Y-80200328D01*
X119472048Y-80201999D01*
X119494933Y-80201999D01*
X119501452Y-80201662D01*
X119596170Y-80191834D01*
X119609564Y-80188942D01*
X119762365Y-80137964D01*
X119775543Y-80131790D01*
X119912149Y-80047256D01*
X119923550Y-80038220D01*
X120037051Y-79924521D01*
X120042794Y-79917249D01*
X120100711Y-79876186D01*
X120171634Y-79872954D01*
X120233046Y-79908579D01*
X120238840Y-79915254D01*
X120242203Y-79920689D01*
X120366347Y-80044617D01*
X120372577Y-80048457D01*
X120372578Y-80048458D01*
X120405986Y-80069051D01*
X120515671Y-80136661D01*
X120522619Y-80138966D01*
X120522620Y-80138966D01*
X120675634Y-80189719D01*
X120675636Y-80189719D01*
X120682165Y-80191885D01*
X120785769Y-80202500D01*
X121077234Y-80202500D01*
X121373230Y-80202499D01*
X121478129Y-80191616D01*
X121484660Y-80189437D01*
X121484665Y-80189436D01*
X121637578Y-80138420D01*
X121644526Y-80136102D01*
X121725369Y-80086075D01*
X121784286Y-80049616D01*
X121852738Y-80030778D01*
X121920508Y-80051939D01*
X121949904Y-80082356D01*
X121951125Y-80081388D01*
X121955668Y-80087120D01*
X121959522Y-80093348D01*
X122084697Y-80218305D01*
X122090927Y-80222145D01*
X122090928Y-80222146D01*
X122228090Y-80306694D01*
X122235262Y-80311115D01*
X122269222Y-80322379D01*
X122396611Y-80364632D01*
X122396613Y-80364632D01*
X122403139Y-80366797D01*
X122409975Y-80367497D01*
X122409978Y-80367498D01*
X122453031Y-80371909D01*
X122507600Y-80377500D01*
X123233400Y-80377500D01*
X123236646Y-80377163D01*
X123236650Y-80377163D01*
X123332308Y-80367238D01*
X123332312Y-80367237D01*
X123339166Y-80366526D01*
X123345702Y-80364345D01*
X123345704Y-80364345D01*
X123477806Y-80320272D01*
X123506946Y-80310550D01*
X123657348Y-80217478D01*
X123690884Y-80183884D01*
X123777134Y-80097483D01*
X123782305Y-80092303D01*
X123787569Y-80083763D01*
X123871275Y-79947968D01*
X123871276Y-79947966D01*
X123875115Y-79941738D01*
X123930797Y-79773861D01*
X123941500Y-79669400D01*
X123941500Y-78318600D01*
X123940719Y-78311069D01*
X123931238Y-78219692D01*
X123931237Y-78219688D01*
X123930526Y-78212834D01*
X123890967Y-78094260D01*
X123876868Y-78052002D01*
X123874550Y-78045054D01*
X123781478Y-77894652D01*
X123656303Y-77769695D01*
X123581147Y-77723368D01*
X123511968Y-77680725D01*
X123511966Y-77680724D01*
X123505738Y-77676885D01*
X123345254Y-77623655D01*
X123344389Y-77623368D01*
X123344387Y-77623368D01*
X123337861Y-77621203D01*
X123331025Y-77620503D01*
X123331022Y-77620502D01*
X123287969Y-77616091D01*
X123233400Y-77610500D01*
X122507600Y-77610500D01*
X122504354Y-77610837D01*
X122504350Y-77610837D01*
X122408692Y-77620762D01*
X122408688Y-77620763D01*
X122401834Y-77621474D01*
X122395298Y-77623655D01*
X122395296Y-77623655D01*
X122392245Y-77624673D01*
X122234054Y-77677450D01*
X122083652Y-77770522D01*
X122078479Y-77775704D01*
X122041159Y-77813089D01*
X121958695Y-77895697D01*
X121954854Y-77901928D01*
X121950317Y-77907673D01*
X121948077Y-77905904D01*
X121905022Y-77944654D01*
X121834951Y-77956079D01*
X121784417Y-77938306D01*
X121643329Y-77851339D01*
X121589028Y-77833328D01*
X121483366Y-77798281D01*
X121483364Y-77798281D01*
X121476835Y-77796115D01*
X121373231Y-77785500D01*
X121081766Y-77785500D01*
X120785770Y-77785501D01*
X120680871Y-77796384D01*
X120674340Y-77798563D01*
X120674335Y-77798564D01*
X120550883Y-77839751D01*
X120514474Y-77851898D01*
X120365311Y-77944203D01*
X120241383Y-78068347D01*
X120239386Y-78071587D01*
X120182648Y-78111814D01*
X120111725Y-78115047D01*
X120050313Y-78079422D01*
X120042934Y-78070922D01*
X120036218Y-78062448D01*
X119922521Y-77948949D01*
X119911110Y-77939937D01*
X119774346Y-77855635D01*
X119761168Y-77849491D01*
X119608260Y-77798773D01*
X119594894Y-77795907D01*
X119501399Y-77786328D01*
X119494984Y-77786000D01*
X119476615Y-77786000D01*
X119461376Y-77790475D01*
X119460171Y-77791865D01*
X119458500Y-77799548D01*
X119458500Y-80183884D01*
X118950500Y-80183884D01*
X118950500Y-79266115D01*
X118946025Y-79250876D01*
X118944635Y-79249671D01*
X118936952Y-79248000D01*
X118227116Y-79248000D01*
X118211877Y-79252475D01*
X118210672Y-79253865D01*
X118209001Y-79261548D01*
X118209001Y-79496933D01*
X114690278Y-79496933D01*
X115458921Y-78721885D01*
X118209000Y-78721885D01*
X118213475Y-78737124D01*
X118214865Y-78738329D01*
X118222548Y-78740000D01*
X118932385Y-78740000D01*
X118947624Y-78735525D01*
X118948829Y-78734135D01*
X118950500Y-78726452D01*
X118950500Y-77804116D01*
X118946025Y-77788877D01*
X118944635Y-77787672D01*
X118936952Y-77786001D01*
X118914067Y-77786001D01*
X118907548Y-77786338D01*
X118812830Y-77796166D01*
X118799436Y-77799058D01*
X118646635Y-77850036D01*
X118633457Y-77856210D01*
X118496851Y-77940744D01*
X118485450Y-77949780D01*
X118371949Y-78063479D01*
X118362937Y-78074890D01*
X118278635Y-78211654D01*
X118272491Y-78224832D01*
X118221773Y-78377740D01*
X118218907Y-78391106D01*
X118209328Y-78484601D01*
X118209000Y-78491016D01*
X118209000Y-78721885D01*
X115458921Y-78721885D01*
X124600531Y-69504095D01*
X137930001Y-69504095D01*
X137930338Y-69510614D01*
X137940257Y-69606206D01*
X137943149Y-69619600D01*
X137994588Y-69773784D01*
X138000761Y-69786962D01*
X138086063Y-69924807D01*
X138095099Y-69936208D01*
X138209829Y-70050739D01*
X138221240Y-70059751D01*
X138359243Y-70144816D01*
X138372424Y-70150963D01*
X138526710Y-70202138D01*
X138540086Y-70205005D01*
X138634438Y-70214672D01*
X138640854Y-70215000D01*
X138665885Y-70215000D01*
X138681124Y-70210525D01*
X138682329Y-70209135D01*
X138684000Y-70201452D01*
X138684000Y-70196884D01*
X139192000Y-70196884D01*
X139196475Y-70212123D01*
X139197865Y-70213328D01*
X139205548Y-70214999D01*
X139235095Y-70214999D01*
X139241614Y-70214662D01*
X139337206Y-70204743D01*
X139350600Y-70201851D01*
X139504784Y-70150412D01*
X139517962Y-70144239D01*
X139655807Y-70058937D01*
X139667208Y-70049901D01*
X139781739Y-69935171D01*
X139790751Y-69923760D01*
X139875816Y-69785757D01*
X139881963Y-69772576D01*
X139933138Y-69618290D01*
X139936005Y-69604914D01*
X139945672Y-69510562D01*
X139946000Y-69504146D01*
X139946000Y-69504095D01*
X141105001Y-69504095D01*
X141105338Y-69510614D01*
X141115257Y-69606206D01*
X141118149Y-69619600D01*
X141169588Y-69773784D01*
X141175761Y-69786962D01*
X141261063Y-69924807D01*
X141270099Y-69936208D01*
X141384829Y-70050739D01*
X141396240Y-70059751D01*
X141534243Y-70144816D01*
X141547424Y-70150963D01*
X141701710Y-70202138D01*
X141715086Y-70205005D01*
X141809438Y-70214672D01*
X141815854Y-70215000D01*
X141840885Y-70215000D01*
X141856124Y-70210525D01*
X141857329Y-70209135D01*
X141859000Y-70201452D01*
X141859000Y-70196884D01*
X142367000Y-70196884D01*
X142371475Y-70212123D01*
X142372865Y-70213328D01*
X142380548Y-70214999D01*
X142410095Y-70214999D01*
X142416614Y-70214662D01*
X142512206Y-70204743D01*
X142525600Y-70201851D01*
X142679784Y-70150412D01*
X142692962Y-70144239D01*
X142830807Y-70058937D01*
X142842208Y-70049901D01*
X142956739Y-69935171D01*
X142965751Y-69923760D01*
X143050816Y-69785757D01*
X143056963Y-69772576D01*
X143108138Y-69618290D01*
X143111005Y-69604914D01*
X143120672Y-69510562D01*
X143121000Y-69504146D01*
X143121000Y-68979115D01*
X143116525Y-68963876D01*
X143115135Y-68962671D01*
X143107452Y-68961000D01*
X142385115Y-68961000D01*
X142369876Y-68965475D01*
X142368671Y-68966865D01*
X142367000Y-68974548D01*
X142367000Y-70196884D01*
X141859000Y-70196884D01*
X141859000Y-68979115D01*
X141854525Y-68963876D01*
X141853135Y-68962671D01*
X141845452Y-68961000D01*
X141123116Y-68961000D01*
X141107877Y-68965475D01*
X141106672Y-68966865D01*
X141105001Y-68974548D01*
X141105001Y-69504095D01*
X139946000Y-69504095D01*
X139946000Y-68979115D01*
X139941525Y-68963876D01*
X139940135Y-68962671D01*
X139932452Y-68961000D01*
X139210115Y-68961000D01*
X139194876Y-68965475D01*
X139193671Y-68966865D01*
X139192000Y-68974548D01*
X139192000Y-70196884D01*
X138684000Y-70196884D01*
X138684000Y-68979115D01*
X138679525Y-68963876D01*
X138678135Y-68962671D01*
X138670452Y-68961000D01*
X137948116Y-68961000D01*
X137932877Y-68965475D01*
X137931672Y-68966865D01*
X137930001Y-68974548D01*
X137930001Y-69504095D01*
X124600531Y-69504095D01*
X125660905Y-68434885D01*
X137930000Y-68434885D01*
X137934475Y-68450124D01*
X137935865Y-68451329D01*
X137943548Y-68453000D01*
X138665885Y-68453000D01*
X138681124Y-68448525D01*
X138682329Y-68447135D01*
X138684000Y-68439452D01*
X138684000Y-68434885D01*
X139192000Y-68434885D01*
X139196475Y-68450124D01*
X139197865Y-68451329D01*
X139205548Y-68453000D01*
X139927884Y-68453000D01*
X139943123Y-68448525D01*
X139944328Y-68447135D01*
X139945999Y-68439452D01*
X139945999Y-68434885D01*
X141105000Y-68434885D01*
X141109475Y-68450124D01*
X141110865Y-68451329D01*
X141118548Y-68453000D01*
X141840885Y-68453000D01*
X141856124Y-68448525D01*
X141857329Y-68447135D01*
X141859000Y-68439452D01*
X141859000Y-68434885D01*
X142367000Y-68434885D01*
X142371475Y-68450124D01*
X142372865Y-68451329D01*
X142380548Y-68453000D01*
X143102884Y-68453000D01*
X143118123Y-68448525D01*
X143119328Y-68447135D01*
X143120999Y-68439452D01*
X143120999Y-67909905D01*
X143120662Y-67903386D01*
X143110743Y-67807794D01*
X143107851Y-67794400D01*
X143056412Y-67640216D01*
X143050239Y-67627038D01*
X142964937Y-67489193D01*
X142955901Y-67477792D01*
X142841171Y-67363261D01*
X142829760Y-67354249D01*
X142691757Y-67269184D01*
X142678576Y-67263037D01*
X142524290Y-67211862D01*
X142510914Y-67208995D01*
X142416562Y-67199328D01*
X142410145Y-67199000D01*
X142385115Y-67199000D01*
X142369876Y-67203475D01*
X142368671Y-67204865D01*
X142367000Y-67212548D01*
X142367000Y-68434885D01*
X141859000Y-68434885D01*
X141859000Y-67217116D01*
X141854525Y-67201877D01*
X141853135Y-67200672D01*
X141845452Y-67199001D01*
X141815905Y-67199001D01*
X141809386Y-67199338D01*
X141713794Y-67209257D01*
X141700400Y-67212149D01*
X141546216Y-67263588D01*
X141533038Y-67269761D01*
X141395193Y-67355063D01*
X141383792Y-67364099D01*
X141269261Y-67478829D01*
X141260249Y-67490240D01*
X141175184Y-67628243D01*
X141169037Y-67641424D01*
X141117862Y-67795710D01*
X141114995Y-67809086D01*
X141105328Y-67903438D01*
X141105000Y-67909855D01*
X141105000Y-68434885D01*
X139945999Y-68434885D01*
X139945999Y-67909905D01*
X139945662Y-67903386D01*
X139935743Y-67807794D01*
X139932851Y-67794400D01*
X139881412Y-67640216D01*
X139875239Y-67627038D01*
X139789937Y-67489193D01*
X139780901Y-67477792D01*
X139666171Y-67363261D01*
X139654760Y-67354249D01*
X139516757Y-67269184D01*
X139503576Y-67263037D01*
X139349290Y-67211862D01*
X139335914Y-67208995D01*
X139241562Y-67199328D01*
X139235145Y-67199000D01*
X139210115Y-67199000D01*
X139194876Y-67203475D01*
X139193671Y-67204865D01*
X139192000Y-67212548D01*
X139192000Y-68434885D01*
X138684000Y-68434885D01*
X138684000Y-67217116D01*
X138679525Y-67201877D01*
X138678135Y-67200672D01*
X138670452Y-67199001D01*
X138640905Y-67199001D01*
X138634386Y-67199338D01*
X138538794Y-67209257D01*
X138525400Y-67212149D01*
X138371216Y-67263588D01*
X138358038Y-67269761D01*
X138220193Y-67355063D01*
X138208792Y-67364099D01*
X138094261Y-67478829D01*
X138085249Y-67490240D01*
X138000184Y-67628243D01*
X137994037Y-67641424D01*
X137942862Y-67795710D01*
X137939995Y-67809086D01*
X137930328Y-67903438D01*
X137930000Y-67909855D01*
X137930000Y-68434885D01*
X125660905Y-68434885D01*
X126188011Y-67903386D01*
X128379043Y-65694095D01*
X137930001Y-65694095D01*
X137930338Y-65700614D01*
X137940257Y-65796206D01*
X137943149Y-65809600D01*
X137994588Y-65963784D01*
X138000761Y-65976962D01*
X138086063Y-66114807D01*
X138095099Y-66126208D01*
X138209829Y-66240739D01*
X138221240Y-66249751D01*
X138359243Y-66334816D01*
X138372424Y-66340963D01*
X138526710Y-66392138D01*
X138540086Y-66395005D01*
X138634438Y-66404672D01*
X138640854Y-66405000D01*
X138665885Y-66405000D01*
X138681124Y-66400525D01*
X138682329Y-66399135D01*
X138684000Y-66391452D01*
X138684000Y-66386884D01*
X139192000Y-66386884D01*
X139196475Y-66402123D01*
X139197865Y-66403328D01*
X139205548Y-66404999D01*
X139235095Y-66404999D01*
X139241614Y-66404662D01*
X139337206Y-66394743D01*
X139350600Y-66391851D01*
X139504784Y-66340412D01*
X139517962Y-66334239D01*
X139655807Y-66248937D01*
X139667208Y-66239901D01*
X139781739Y-66125171D01*
X139790751Y-66113760D01*
X139875816Y-65975757D01*
X139881963Y-65962576D01*
X139933138Y-65808290D01*
X139936005Y-65794914D01*
X139945672Y-65700562D01*
X139946000Y-65694146D01*
X139946000Y-65169115D01*
X139941525Y-65153876D01*
X139940135Y-65152671D01*
X139932452Y-65151000D01*
X139210115Y-65151000D01*
X139194876Y-65155475D01*
X139193671Y-65156865D01*
X139192000Y-65164548D01*
X139192000Y-66386884D01*
X138684000Y-66386884D01*
X138684000Y-65169115D01*
X138679525Y-65153876D01*
X138678135Y-65152671D01*
X138670452Y-65151000D01*
X137948116Y-65151000D01*
X137932877Y-65155475D01*
X137931672Y-65156865D01*
X137930001Y-65164548D01*
X137930001Y-65694095D01*
X128379043Y-65694095D01*
X129439417Y-64624885D01*
X137930000Y-64624885D01*
X137934475Y-64640124D01*
X137935865Y-64641329D01*
X137943548Y-64643000D01*
X138665885Y-64643000D01*
X138681124Y-64638525D01*
X138682329Y-64637135D01*
X138684000Y-64629452D01*
X138684000Y-64624885D01*
X139192000Y-64624885D01*
X139196475Y-64640124D01*
X139197865Y-64641329D01*
X139205548Y-64643000D01*
X139927884Y-64643000D01*
X139943123Y-64638525D01*
X139944328Y-64637135D01*
X139945999Y-64629452D01*
X139945999Y-64099905D01*
X139945662Y-64093386D01*
X139935743Y-63997794D01*
X139932851Y-63984400D01*
X139881412Y-63830216D01*
X139875239Y-63817038D01*
X139789937Y-63679193D01*
X139780901Y-63667792D01*
X139666171Y-63553261D01*
X139654760Y-63544249D01*
X139516757Y-63459184D01*
X139503576Y-63453037D01*
X139349290Y-63401862D01*
X139335914Y-63398995D01*
X139241562Y-63389328D01*
X139235145Y-63389000D01*
X139210115Y-63389000D01*
X139194876Y-63393475D01*
X139193671Y-63394865D01*
X139192000Y-63402548D01*
X139192000Y-64624885D01*
X138684000Y-64624885D01*
X138684000Y-63407116D01*
X138679525Y-63391877D01*
X138678135Y-63390672D01*
X138670452Y-63389001D01*
X138640905Y-63389001D01*
X138634386Y-63389338D01*
X138538794Y-63399257D01*
X138525400Y-63402149D01*
X138371216Y-63453588D01*
X138358038Y-63459761D01*
X138220193Y-63545063D01*
X138208792Y-63554099D01*
X138094261Y-63668829D01*
X138085249Y-63680240D01*
X138000184Y-63818243D01*
X137994037Y-63831424D01*
X137942862Y-63985710D01*
X137939995Y-63999086D01*
X137930328Y-64093438D01*
X137930000Y-64099855D01*
X137930000Y-64624885D01*
X129439417Y-64624885D01*
X132157556Y-61884095D01*
X137930001Y-61884095D01*
X137930338Y-61890614D01*
X137940257Y-61986206D01*
X137943149Y-61999600D01*
X137994588Y-62153784D01*
X138000761Y-62166962D01*
X138086063Y-62304807D01*
X138095099Y-62316208D01*
X138209829Y-62430739D01*
X138221240Y-62439751D01*
X138359243Y-62524816D01*
X138372424Y-62530963D01*
X138526710Y-62582138D01*
X138540086Y-62585005D01*
X138634438Y-62594672D01*
X138640854Y-62595000D01*
X138665885Y-62595000D01*
X138681124Y-62590525D01*
X138682329Y-62589135D01*
X138684000Y-62581452D01*
X138684000Y-62576884D01*
X139192000Y-62576884D01*
X139196475Y-62592123D01*
X139197865Y-62593328D01*
X139205548Y-62594999D01*
X139235095Y-62594999D01*
X139241614Y-62594662D01*
X139337206Y-62584743D01*
X139350600Y-62581851D01*
X139504784Y-62530412D01*
X139517962Y-62524239D01*
X139655807Y-62438937D01*
X139667208Y-62429901D01*
X139781739Y-62315171D01*
X139790751Y-62303760D01*
X139875816Y-62165757D01*
X139881963Y-62152576D01*
X139933138Y-61998290D01*
X139936005Y-61984914D01*
X139945672Y-61890562D01*
X139946000Y-61884146D01*
X139946000Y-61884095D01*
X141105001Y-61884095D01*
X141105338Y-61890614D01*
X141115257Y-61986206D01*
X141118149Y-61999600D01*
X141169588Y-62153784D01*
X141175761Y-62166962D01*
X141261063Y-62304807D01*
X141270099Y-62316208D01*
X141384829Y-62430739D01*
X141396240Y-62439751D01*
X141534243Y-62524816D01*
X141547424Y-62530963D01*
X141701710Y-62582138D01*
X141715086Y-62585005D01*
X141809438Y-62594672D01*
X141815854Y-62595000D01*
X141840885Y-62595000D01*
X141856124Y-62590525D01*
X141857329Y-62589135D01*
X141859000Y-62581452D01*
X141859000Y-62576884D01*
X142367000Y-62576884D01*
X142371475Y-62592123D01*
X142372865Y-62593328D01*
X142380548Y-62594999D01*
X142410095Y-62594999D01*
X142416614Y-62594662D01*
X142512206Y-62584743D01*
X142525600Y-62581851D01*
X142679784Y-62530412D01*
X142692962Y-62524239D01*
X142830807Y-62438937D01*
X142842208Y-62429901D01*
X142956739Y-62315171D01*
X142965751Y-62303760D01*
X143050816Y-62165757D01*
X143056963Y-62152576D01*
X143108138Y-61998290D01*
X143111005Y-61984914D01*
X143120672Y-61890562D01*
X143121000Y-61884146D01*
X143121000Y-61359115D01*
X143116525Y-61343876D01*
X143115135Y-61342671D01*
X143107452Y-61341000D01*
X142385115Y-61341000D01*
X142369876Y-61345475D01*
X142368671Y-61346865D01*
X142367000Y-61354548D01*
X142367000Y-62576884D01*
X141859000Y-62576884D01*
X141859000Y-61359115D01*
X141854525Y-61343876D01*
X141853135Y-61342671D01*
X141845452Y-61341000D01*
X141123116Y-61341000D01*
X141107877Y-61345475D01*
X141106672Y-61346865D01*
X141105001Y-61354548D01*
X141105001Y-61884095D01*
X139946000Y-61884095D01*
X139946000Y-61359115D01*
X139941525Y-61343876D01*
X139940135Y-61342671D01*
X139932452Y-61341000D01*
X139210115Y-61341000D01*
X139194876Y-61345475D01*
X139193671Y-61346865D01*
X139192000Y-61354548D01*
X139192000Y-62576884D01*
X138684000Y-62576884D01*
X138684000Y-61359115D01*
X138679525Y-61343876D01*
X138678135Y-61342671D01*
X138670452Y-61341000D01*
X137948116Y-61341000D01*
X137932877Y-61345475D01*
X137931672Y-61346865D01*
X137930001Y-61354548D01*
X137930001Y-61884095D01*
X132157556Y-61884095D01*
X133217929Y-60814885D01*
X137930000Y-60814885D01*
X137934475Y-60830124D01*
X137935865Y-60831329D01*
X137943548Y-60833000D01*
X138665885Y-60833000D01*
X138681124Y-60828525D01*
X138682329Y-60827135D01*
X138684000Y-60819452D01*
X138684000Y-60814885D01*
X139192000Y-60814885D01*
X139196475Y-60830124D01*
X139197865Y-60831329D01*
X139205548Y-60833000D01*
X139927884Y-60833000D01*
X139943123Y-60828525D01*
X139944328Y-60827135D01*
X139945999Y-60819452D01*
X139945999Y-60814885D01*
X141105000Y-60814885D01*
X141109475Y-60830124D01*
X141110865Y-60831329D01*
X141118548Y-60833000D01*
X141840885Y-60833000D01*
X141856124Y-60828525D01*
X141857329Y-60827135D01*
X141859000Y-60819452D01*
X141859000Y-60814885D01*
X142367000Y-60814885D01*
X142371475Y-60830124D01*
X142372865Y-60831329D01*
X142380548Y-60833000D01*
X143102884Y-60833000D01*
X143118123Y-60828525D01*
X143119328Y-60827135D01*
X143120999Y-60819452D01*
X143120999Y-60289905D01*
X143120662Y-60283386D01*
X143110743Y-60187794D01*
X143107851Y-60174400D01*
X143056412Y-60020216D01*
X143050239Y-60007038D01*
X142964937Y-59869193D01*
X142955901Y-59857792D01*
X142841171Y-59743261D01*
X142829760Y-59734249D01*
X142691757Y-59649184D01*
X142678576Y-59643037D01*
X142524290Y-59591862D01*
X142510914Y-59588995D01*
X142416562Y-59579328D01*
X142410145Y-59579000D01*
X142385115Y-59579000D01*
X142369876Y-59583475D01*
X142368671Y-59584865D01*
X142367000Y-59592548D01*
X142367000Y-60814885D01*
X141859000Y-60814885D01*
X141859000Y-59597116D01*
X141854525Y-59581877D01*
X141853135Y-59580672D01*
X141845452Y-59579001D01*
X141815905Y-59579001D01*
X141809386Y-59579338D01*
X141713794Y-59589257D01*
X141700400Y-59592149D01*
X141546216Y-59643588D01*
X141533038Y-59649761D01*
X141395193Y-59735063D01*
X141383792Y-59744099D01*
X141269261Y-59858829D01*
X141260249Y-59870240D01*
X141175184Y-60008243D01*
X141169037Y-60021424D01*
X141117862Y-60175710D01*
X141114995Y-60189086D01*
X141105328Y-60283438D01*
X141105000Y-60289855D01*
X141105000Y-60814885D01*
X139945999Y-60814885D01*
X139945999Y-60289905D01*
X139945662Y-60283386D01*
X139935743Y-60187794D01*
X139932851Y-60174400D01*
X139881412Y-60020216D01*
X139875239Y-60007038D01*
X139789937Y-59869193D01*
X139780901Y-59857792D01*
X139666171Y-59743261D01*
X139654760Y-59734249D01*
X139516757Y-59649184D01*
X139503576Y-59643037D01*
X139349290Y-59591862D01*
X139335914Y-59588995D01*
X139241562Y-59579328D01*
X139235145Y-59579000D01*
X139210115Y-59579000D01*
X139194876Y-59583475D01*
X139193671Y-59584865D01*
X139192000Y-59592548D01*
X139192000Y-60814885D01*
X138684000Y-60814885D01*
X138684000Y-59597116D01*
X138679525Y-59581877D01*
X138678135Y-59580672D01*
X138670452Y-59579001D01*
X138640905Y-59579001D01*
X138634386Y-59579338D01*
X138538794Y-59589257D01*
X138525400Y-59592149D01*
X138371216Y-59643588D01*
X138358038Y-59649761D01*
X138220193Y-59735063D01*
X138208792Y-59744099D01*
X138094261Y-59858829D01*
X138085249Y-59870240D01*
X138000184Y-60008243D01*
X137994037Y-60021424D01*
X137942862Y-60175710D01*
X137939995Y-60189086D01*
X137930328Y-60283438D01*
X137930000Y-60289855D01*
X137930000Y-60814885D01*
X133217929Y-60814885D01*
X140410536Y-53562340D01*
X140472706Y-53528057D01*
X140543542Y-53532828D01*
G37*
%TD.AperFunction*%
%TA.AperFunction,Conductor*%
G36*
X141967012Y-102988198D02*
G01*
X141973595Y-102994327D01*
X142710595Y-103731327D01*
X142744621Y-103793639D01*
X142747500Y-103820422D01*
X142747500Y-115498355D01*
X142727498Y-115566476D01*
X142673842Y-115612969D01*
X142603568Y-115623073D01*
X142581833Y-115617948D01*
X142524293Y-115598863D01*
X142510914Y-115595995D01*
X142416562Y-115586328D01*
X142410145Y-115586000D01*
X142385115Y-115586000D01*
X142369876Y-115590475D01*
X142368671Y-115591865D01*
X142367000Y-115599548D01*
X142367000Y-118583884D01*
X142371475Y-118599123D01*
X142372865Y-118600328D01*
X142380548Y-118601999D01*
X142410095Y-118601999D01*
X142416614Y-118601662D01*
X142512206Y-118591743D01*
X142525600Y-118588851D01*
X142581624Y-118570160D01*
X142652573Y-118567576D01*
X142713657Y-118603759D01*
X142745482Y-118667224D01*
X142747500Y-118689684D01*
X142747500Y-122356355D01*
X142727498Y-122424476D01*
X142673842Y-122470969D01*
X142603568Y-122481073D01*
X142581833Y-122475948D01*
X142524293Y-122456863D01*
X142510914Y-122453995D01*
X142416562Y-122444328D01*
X142410145Y-122444000D01*
X142385115Y-122444000D01*
X142369876Y-122448475D01*
X142368671Y-122449865D01*
X142367000Y-122457548D01*
X142367000Y-125441884D01*
X142371475Y-125457123D01*
X142372865Y-125458328D01*
X142380548Y-125459999D01*
X142410095Y-125459999D01*
X142416614Y-125459662D01*
X142512206Y-125449743D01*
X142525603Y-125446850D01*
X142583482Y-125427541D01*
X142654431Y-125424957D01*
X142715515Y-125461141D01*
X142747339Y-125524606D01*
X142749295Y-125543108D01*
X142750335Y-125576205D01*
X142752547Y-125583817D01*
X142756013Y-125595748D01*
X142760023Y-125615112D01*
X142762573Y-125635299D01*
X142765489Y-125642663D01*
X142765490Y-125642668D01*
X142778907Y-125676556D01*
X142782752Y-125687785D01*
X142795131Y-125730393D01*
X142799169Y-125737220D01*
X142799170Y-125737223D01*
X142805488Y-125747906D01*
X142814188Y-125765664D01*
X142818761Y-125777215D01*
X142818765Y-125777221D01*
X142821681Y-125784588D01*
X142826339Y-125790999D01*
X142826340Y-125791001D01*
X142847764Y-125820488D01*
X142854281Y-125830410D01*
X142872826Y-125861768D01*
X142872829Y-125861772D01*
X142876866Y-125868598D01*
X142891250Y-125882982D01*
X142904091Y-125898016D01*
X142916058Y-125914487D01*
X142922166Y-125919540D01*
X142950255Y-125942777D01*
X142959035Y-125950767D01*
X145034672Y-128026405D01*
X145068698Y-128088717D01*
X145063633Y-128159533D01*
X145021086Y-128216368D01*
X144954566Y-128241179D01*
X144945577Y-128241500D01*
X141884500Y-128241500D01*
X141816379Y-128221498D01*
X141769886Y-128167842D01*
X141758500Y-128115500D01*
X141758500Y-125578513D01*
X141778502Y-125510392D01*
X141832158Y-125463899D01*
X141849001Y-125457617D01*
X141856124Y-125455525D01*
X141857329Y-125454135D01*
X141859000Y-125446452D01*
X141859000Y-122462116D01*
X141854525Y-122446877D01*
X141848438Y-122441602D01*
X141795405Y-122412644D01*
X141761380Y-122350332D01*
X141758500Y-122323548D01*
X141758500Y-118720513D01*
X141778502Y-118652392D01*
X141832158Y-118605899D01*
X141849001Y-118599617D01*
X141856124Y-118597525D01*
X141857329Y-118596135D01*
X141859000Y-118588452D01*
X141859000Y-115604116D01*
X141854525Y-115588877D01*
X141848438Y-115583602D01*
X141795405Y-115554644D01*
X141761380Y-115492332D01*
X141758500Y-115465548D01*
X141758500Y-103083422D01*
X141778502Y-103015301D01*
X141832158Y-102968808D01*
X141902432Y-102958704D01*
X141967012Y-102988198D01*
G37*
%TD.AperFunction*%
%TD*%
M02*
