M48
; DRILL file {KiCad (6.0.9)} date Fri Dec  9 22:08:27 2022
; FORMAT={-:-/ absolute / metric / decimal}
; #@! TF.CreationDate,2022-12-09T22:08:27+01:00
; #@! TF.GenerationSoftware,Kicad,Pcbnew,(6.0.9)
; #@! TF.FileFunction,Plated,1,2,PTH
FMAT,2
METRIC
; #@! TA.AperFunction,Plated,PTH,ViaDrill
T1C0.300
%
G90
G05
T1
X107.188Y-138.43
X107.188Y-138.43
X115.697Y-138.43
X115.824Y-107.442
X117.094Y-136.652
X117.094Y-139.573
X117.919Y-78.994
X119.888Y-136.652
X119.888Y-139.573
X122.428Y-136.652
X122.428Y-139.573
X123.698Y-108.077
X124.46Y-106.299
X124.46Y-109.093
X124.968Y-136.652
X124.968Y-139.573
X125.984Y-79.629
X127.0Y-106.299
X127.0Y-109.093
X127.762Y-77.978
X127.762Y-80.645
X127.762Y-136.652
X127.762Y-139.573
X129.54Y-106.299
X129.54Y-109.093
X130.302Y-77.978
X130.302Y-80.645
X130.302Y-136.652
X130.302Y-139.573
X132.08Y-106.299
X132.08Y-109.093
X132.842Y-77.978
X132.842Y-80.645
X132.842Y-136.652
X132.842Y-139.573
X134.62Y-85.979
X134.62Y-88.519
X134.62Y-91.059
X134.62Y-93.599
X134.62Y-96.139
X134.62Y-98.679
X134.62Y-101.219
X134.62Y-103.759
X134.62Y-106.299
X135.255Y-83.439
X135.382Y-77.978
X135.382Y-80.645
X135.636Y-109.093
X135.636Y-111.633
X135.636Y-114.173
X135.636Y-116.713
X135.636Y-119.253
X135.636Y-121.793
X135.636Y-124.333
X135.636Y-126.873
X135.636Y-129.413
X135.636Y-131.953
X135.636Y-134.493
X135.636Y-136.652
X135.636Y-139.573
X137.033Y-81.661
X137.922Y-61.087
X137.922Y-64.897
X137.922Y-68.707
X138.684Y-104.013
X138.684Y-106.553
X138.684Y-109.093
X138.684Y-111.633
X138.684Y-114.173
X138.684Y-119.253
X138.684Y-121.793
X138.684Y-126.746
X142.24Y-104.013
X142.24Y-106.553
X142.24Y-109.093
X142.24Y-111.633
X142.24Y-114.173
X142.24Y-119.253
X142.24Y-121.793
X142.24Y-126.746
X142.748Y-80.645
X142.748Y-85.725
X143.002Y-87.757
X143.002Y-91.567
X143.002Y-95.377
X143.129Y-61.087
X143.129Y-68.707
X143.129Y-76.327
X143.129Y-83.947
X143.129Y-99.187
X143.256Y-78.613
X144.907Y-109.093
X144.907Y-111.633
X144.907Y-114.173
X144.907Y-116.713
X144.907Y-119.253
X144.907Y-121.793
X144.907Y-124.333
X145.288Y-77.978
X145.288Y-80.645
X145.288Y-83.185
X145.288Y-85.725
X145.288Y-88.265
X145.288Y-90.805
X146.431Y-125.857
X147.447Y-106.299
X147.447Y-109.093
X147.828Y-77.978
X147.828Y-80.645
X147.955Y-127.381
X147.955Y-136.652
X147.955Y-139.573
X149.987Y-106.299
X149.987Y-109.093
X150.368Y-77.978
X150.368Y-80.645
X150.495Y-136.652
X150.495Y-139.573
X152.527Y-106.299
X152.527Y-109.093
X152.908Y-77.978
X152.908Y-80.645
X153.035Y-136.652
X153.035Y-139.573
X153.162Y-79.629
X155.067Y-106.299
X155.067Y-109.093
X155.575Y-136.652
X155.575Y-139.573
X157.607Y-106.299
X157.607Y-109.093
X157.861Y-108.077
X158.115Y-136.652
X158.115Y-139.573
X160.655Y-136.652
X160.655Y-139.573
X161.212Y-78.994
X163.195Y-136.652
X163.195Y-139.573
X165.354Y-107.442
X165.608Y-137.795
X165.735Y-136.652
X165.735Y-139.573
X173.673Y-138.43
T0
M30
