%TF.GenerationSoftware,KiCad,Pcbnew,(6.0.9)*%
%TF.CreationDate,2022-12-10T13:43:41+01:00*%
%TF.ProjectId,PartoDos,50617274-6f44-46f7-932e-6b696361645f,rev?*%
%TF.SameCoordinates,Original*%
%TF.FileFunction,Profile,NP*%
%FSLAX46Y46*%
G04 Gerber Fmt 4.6, Leading zero omitted, Abs format (unit mm)*
G04 Created by KiCad (PCBNEW (6.0.9)) date 2022-12-10 13:43:41*
%MOMM*%
%LPD*%
G01*
G04 APERTURE LIST*
%TA.AperFunction,Profile*%
%ADD10C,0.038100*%
%TD*%
G04 APERTURE END LIST*
D10*
X139750000Y-153000000D02*
X139750000Y-103000000D01*
X130500000Y-143000000D02*
X100500000Y-143000000D01*
X100500000Y-143000000D02*
X118000000Y-113000000D01*
X130500000Y-153000000D02*
X130500000Y-143000000D01*
X140500000Y-52750000D02*
X170500000Y-83000000D01*
X110500000Y-83000000D02*
X123000000Y-83000000D01*
X118000000Y-113000000D02*
X105500000Y-113000000D01*
X110500000Y-83000000D02*
X140500000Y-52750000D01*
X139750000Y-153000000D02*
X130500000Y-153000000D01*
X141250000Y-128750000D02*
X145500000Y-128750000D01*
X141250000Y-103000000D02*
X141250000Y-128750000D01*
X180500000Y-143000000D02*
X150500000Y-143000000D01*
X145500000Y-153000000D02*
X150500000Y-153000000D01*
X139750000Y-103000000D02*
X141250000Y-103000000D01*
X158000000Y-83000000D02*
X175500000Y-113000000D01*
X158000000Y-83000000D02*
X170500000Y-83000000D01*
X145500000Y-128750000D02*
X145500000Y-153000000D01*
X175500000Y-113000000D02*
X163000000Y-113000000D01*
X105500000Y-113000000D02*
X123000000Y-83000000D01*
X163000000Y-113000000D02*
X180500000Y-143000000D01*
X150500000Y-143000000D02*
X150500000Y-153000000D01*
M02*
