%TF.GenerationSoftware,KiCad,Pcbnew,(6.0.9)*%
%TF.CreationDate,2022-12-10T13:43:41+01:00*%
%TF.ProjectId,PartoDos,50617274-6f44-46f7-932e-6b696361645f,rev?*%
%TF.SameCoordinates,Original*%
%TF.FileFunction,Copper,L2,Bot*%
%TF.FilePolarity,Positive*%
%FSLAX46Y46*%
G04 Gerber Fmt 4.6, Leading zero omitted, Abs format (unit mm)*
G04 Created by KiCad (PCBNEW (6.0.9)) date 2022-12-10 13:43:41*
%MOMM*%
%LPD*%
G01*
G04 APERTURE LIST*
G04 Aperture macros list*
%AMRoundRect*
0 Rectangle with rounded corners*
0 $1 Rounding radius*
0 $2 $3 $4 $5 $6 $7 $8 $9 X,Y pos of 4 corners*
0 Add a 4 corners polygon primitive as box body*
4,1,4,$2,$3,$4,$5,$6,$7,$8,$9,$2,$3,0*
0 Add four circle primitives for the rounded corners*
1,1,$1+$1,$2,$3*
1,1,$1+$1,$4,$5*
1,1,$1+$1,$6,$7*
1,1,$1+$1,$8,$9*
0 Add four rect primitives between the rounded corners*
20,1,$1+$1,$2,$3,$4,$5,0*
20,1,$1+$1,$4,$5,$6,$7,0*
20,1,$1+$1,$6,$7,$8,$9,0*
20,1,$1+$1,$8,$9,$2,$3,0*%
G04 Aperture macros list end*
%TA.AperFunction,SMDPad,CuDef*%
%ADD10RoundRect,0.250000X0.312500X0.625000X-0.312500X0.625000X-0.312500X-0.625000X0.312500X-0.625000X0*%
%TD*%
%TA.AperFunction,SMDPad,CuDef*%
%ADD11RoundRect,0.250000X-0.312500X-0.625000X0.312500X-0.625000X0.312500X0.625000X-0.312500X0.625000X0*%
%TD*%
%TA.AperFunction,SMDPad,CuDef*%
%ADD12RoundRect,0.250000X0.250000X0.750000X-0.250000X0.750000X-0.250000X-0.750000X0.250000X-0.750000X0*%
%TD*%
%TA.AperFunction,SMDPad,CuDef*%
%ADD13RoundRect,0.243750X0.243750X0.456250X-0.243750X0.456250X-0.243750X-0.456250X0.243750X-0.456250X0*%
%TD*%
%TA.AperFunction,SMDPad,CuDef*%
%ADD14RoundRect,0.243750X-0.243750X-0.456250X0.243750X-0.456250X0.243750X0.456250X-0.243750X0.456250X0*%
%TD*%
%TA.AperFunction,ViaPad*%
%ADD15C,0.600000*%
%TD*%
%TA.AperFunction,Conductor*%
%ADD16C,0.254000*%
%TD*%
G04 APERTURE END LIST*
D10*
%TO.P,R12,1*%
%TO.N,Net-(D12-Pad2)*%
X168721500Y-138430000D03*
%TO.P,R12,2*%
%TO.N,/GRE3*%
X165796500Y-138430000D03*
%TD*%
%TO.P,R11,1*%
%TO.N,Net-(D11-Pad2)*%
X160339500Y-107442000D03*
%TO.P,R11,2*%
%TO.N,/RED5*%
X157414500Y-107442000D03*
%TD*%
%TO.P,R10,1*%
%TO.N,Net-(D10-Pad2)*%
X156148500Y-78994000D03*
%TO.P,R10,2*%
%TO.N,/WHI4*%
X153223500Y-78994000D03*
%TD*%
D11*
%TO.P,R9,1*%
%TO.N,Net-(D9-Pad2)*%
X112202500Y-138430000D03*
%TO.P,R9,2*%
%TO.N,/YEL5*%
X115127500Y-138430000D03*
%TD*%
%TO.P,R8,1*%
%TO.N,Net-(D8-Pad2)*%
X120711500Y-107442000D03*
%TO.P,R8,2*%
%TO.N,/BLU2*%
X123636500Y-107442000D03*
%TD*%
%TO.P,R7,1*%
%TO.N,Net-(D7-Pad2)*%
X122870500Y-78994000D03*
%TO.P,R7,2*%
%TO.N,/GRE2*%
X125795500Y-78994000D03*
%TD*%
D12*
%TO.P,J10,1,Pin_1*%
%TO.N,/WHI4*%
X142113000Y-91567000D03*
%TD*%
%TO.P,J26,1,Pin_1*%
%TO.N,GND*%
X142113000Y-76327000D03*
%TD*%
%TO.P,J24,1,Pin_1*%
%TO.N,GND*%
X142113000Y-61087000D03*
%TD*%
%TO.P,J34,1,Pin_1*%
%TO.N,GND*%
X142113000Y-117094000D03*
%TD*%
D13*
%TO.P,D11,1,K*%
%TO.N,GND*%
X164005500Y-107442000D03*
%TO.P,D11,2,A*%
%TO.N,Net-(D11-Pad2)*%
X162130500Y-107442000D03*
%TD*%
D12*
%TO.P,J25,1,Pin_1*%
%TO.N,GND*%
X142113000Y-68707000D03*
%TD*%
%TO.P,J11,1,Pin_1*%
%TO.N,/RED5*%
X142113000Y-99187000D03*
%TD*%
%TO.P,J27,1,Pin_1*%
%TO.N,GND*%
X142113000Y-83947000D03*
%TD*%
%TO.P,J5,1,Pin_1*%
%TO.N,/GRE1*%
X142113000Y-95377000D03*
%TD*%
%TO.P,J23,1,Pin_1*%
%TO.N,GND*%
X138938000Y-61087000D03*
%TD*%
D13*
%TO.P,D10,1,K*%
%TO.N,GND*%
X159863000Y-78994000D03*
%TO.P,D10,2,A*%
%TO.N,Net-(D10-Pad2)*%
X157988000Y-78994000D03*
%TD*%
D12*
%TO.P,J32,1,Pin_1*%
%TO.N,GND*%
X138938000Y-117094000D03*
%TD*%
D14*
%TO.P,D7,1,K*%
%TO.N,GND*%
X119204500Y-78994000D03*
%TO.P,D7,2,A*%
%TO.N,Net-(D7-Pad2)*%
X121079500Y-78994000D03*
%TD*%
D12*
%TO.P,J21,1,Pin_1*%
%TO.N,GND*%
X138938000Y-68707000D03*
%TD*%
%TO.P,J4,1,Pin_1*%
%TO.N,/YEL3*%
X142113000Y-87757000D03*
%TD*%
%TO.P,J13,1,Pin_1*%
%TO.N,GND*%
X138938000Y-123952000D03*
%TD*%
D14*
%TO.P,D8,1,K*%
%TO.N,GND*%
X117045500Y-107442000D03*
%TO.P,D8,2,A*%
%TO.N,Net-(D8-Pad2)*%
X118920500Y-107442000D03*
%TD*%
D13*
%TO.P,D12,1,K*%
%TO.N,GND*%
X172387500Y-138430000D03*
%TO.P,D12,2,A*%
%TO.N,Net-(D12-Pad2)*%
X170512500Y-138430000D03*
%TD*%
D12*
%TO.P,J33,1,Pin_1*%
%TO.N,GND*%
X142113000Y-123952000D03*
%TD*%
%TO.P,J22,1,Pin_1*%
%TO.N,GND*%
X138938000Y-64897000D03*
%TD*%
D14*
%TO.P,D9,1,K*%
%TO.N,GND*%
X108536500Y-138430000D03*
%TO.P,D9,2,A*%
%TO.N,Net-(D9-Pad2)*%
X110411500Y-138430000D03*
%TD*%
D15*
%TO.N,GND*%
X143129000Y-61087000D03*
X134620000Y-98679000D03*
X137033000Y-81661000D03*
X135382000Y-77978000D03*
X142240000Y-114173000D03*
X134620000Y-96139000D03*
X135636000Y-129413000D03*
X145288000Y-90805000D03*
X122428000Y-139573000D03*
X130302000Y-136652000D03*
X152527000Y-109093000D03*
X137922000Y-64897000D03*
X137922000Y-68707000D03*
X138684000Y-109093000D03*
X134620000Y-91059000D03*
X135382000Y-80645000D03*
X143256000Y-78613000D03*
X134620000Y-106299000D03*
X129540000Y-109093000D03*
X149987000Y-106299000D03*
X119888000Y-139573000D03*
X155067000Y-109093000D03*
X135636000Y-131953000D03*
X145288000Y-88265000D03*
X135636000Y-126873000D03*
X135636000Y-109093000D03*
X147955000Y-139573000D03*
X146431000Y-125857000D03*
X124968000Y-136652000D03*
X138684000Y-114173000D03*
X144907000Y-124333000D03*
X137922000Y-61087000D03*
X127000000Y-109093000D03*
X149987000Y-109093000D03*
X127762000Y-136652000D03*
X115824000Y-107442000D03*
X150495000Y-136652000D03*
X150368000Y-80645000D03*
X161211500Y-78994000D03*
X147955000Y-136652000D03*
X144907000Y-119253000D03*
X127762000Y-139573000D03*
X117094000Y-139573000D03*
X138684000Y-111633000D03*
X127762000Y-77978000D03*
X173673000Y-138430000D03*
X119888000Y-136652000D03*
X150495000Y-139573000D03*
X135636000Y-136652000D03*
X135636000Y-139573000D03*
X138684000Y-119253000D03*
X132080000Y-106299000D03*
X135636000Y-134493000D03*
X142240000Y-106553000D03*
X130302000Y-139573000D03*
X163195000Y-136652000D03*
X147447000Y-109093000D03*
X158115000Y-139573000D03*
X134620000Y-93599000D03*
X134620000Y-85979000D03*
X124968000Y-139573000D03*
X130302000Y-77978000D03*
X132842000Y-77978000D03*
X142240000Y-104013000D03*
X132842000Y-136652000D03*
X153035000Y-139573000D03*
X135636000Y-111633000D03*
X127762000Y-80645000D03*
X145288000Y-80645000D03*
X132842000Y-80645000D03*
X142240000Y-121793000D03*
X155067000Y-106299000D03*
X152527000Y-106299000D03*
X142240000Y-111633000D03*
X134620000Y-101219000D03*
X155575000Y-136652000D03*
X144907000Y-111633000D03*
X147955000Y-127381000D03*
X147447000Y-106299000D03*
X135636000Y-114173000D03*
X135255000Y-83439000D03*
X135636000Y-124333000D03*
X132080000Y-109093000D03*
X142240000Y-109093000D03*
X127000000Y-106299000D03*
X142748000Y-80645000D03*
X144907000Y-109093000D03*
X135636000Y-116713000D03*
X155575000Y-139573000D03*
X142240000Y-119253000D03*
X160655000Y-139573000D03*
X134620000Y-103759000D03*
X153035000Y-136652000D03*
X145288000Y-83185000D03*
X138684000Y-104013000D03*
X165354000Y-107442000D03*
X147828000Y-80645000D03*
X138684000Y-106553000D03*
X132842000Y-139573000D03*
X135636000Y-119253000D03*
X107188000Y-138430000D03*
X130302000Y-80645000D03*
X160655000Y-136652000D03*
X143129000Y-76327000D03*
X107188000Y-138430000D03*
X145288000Y-85725000D03*
X158115000Y-136652000D03*
X134620000Y-88519000D03*
X138684000Y-121793000D03*
X143129000Y-83947000D03*
X142240000Y-126746000D03*
X145288000Y-77978000D03*
X150368000Y-77978000D03*
X144907000Y-121793000D03*
X144907000Y-116713000D03*
X143129000Y-68707000D03*
X144907000Y-114173000D03*
X138684000Y-126746000D03*
X117919000Y-78994000D03*
X117094000Y-136652000D03*
X129540000Y-106299000D03*
X142748000Y-85725000D03*
X163195000Y-139573000D03*
X122428000Y-136652000D03*
X135636000Y-121793000D03*
X147828000Y-77978000D03*
%TO.N,/YEL3*%
X143002000Y-87757000D03*
%TO.N,/GRE1*%
X143002000Y-95377000D03*
%TO.N,/GRE2*%
X127381000Y-79629000D03*
%TO.N,/BLU2*%
X125095000Y-108077000D03*
%TO.N,/YEL5*%
X116967000Y-138430000D03*
%TO.N,/WHI4*%
X151638000Y-79629000D03*
X143002000Y-91567000D03*
%TO.N,/RED5*%
X155575000Y-108077000D03*
X143129000Y-99187000D03*
%TO.N,/GRE3*%
X163957000Y-137795000D03*
%TD*%
D16*
%TO.N,/GRE2*%
X126746000Y-78994000D02*
X125795500Y-78994000D01*
X127381000Y-79629000D02*
X126746000Y-78994000D01*
%TO.N,/BLU2*%
X124460000Y-107442000D02*
X123636500Y-107442000D01*
X125095000Y-108077000D02*
X124460000Y-107442000D01*
%TO.N,/WHI4*%
X152273000Y-78994000D02*
X153223500Y-78994000D01*
X151638000Y-79629000D02*
X152273000Y-78994000D01*
%TO.N,/RED5*%
X156210000Y-107442000D02*
X157414500Y-107442000D01*
X155575000Y-108077000D02*
X156210000Y-107442000D01*
%TO.N,/GRE3*%
X164592000Y-138430000D02*
X165796500Y-138430000D01*
X163957000Y-137795000D02*
X164592000Y-138430000D01*
%TO.N,/YEL5*%
X116967000Y-138430000D02*
X115127500Y-138430000D01*
%TO.N,GND*%
X143129000Y-83947000D02*
X142113000Y-83947000D01*
X137922000Y-61087000D02*
X138938000Y-61087000D01*
X143129000Y-76327000D02*
X142113000Y-76327000D01*
X137922000Y-68707000D02*
X138938000Y-68707000D01*
X143129000Y-68707000D02*
X142113000Y-68707000D01*
X119204500Y-78994000D02*
X117919000Y-78994000D01*
X164005500Y-107442000D02*
X165354000Y-107442000D01*
X137922000Y-64897000D02*
X138938000Y-64897000D01*
X159863000Y-78994000D02*
X161211500Y-78994000D01*
X173673000Y-138430000D02*
X172324500Y-138430000D01*
X107188000Y-138430000D02*
X108536500Y-138430000D01*
X143129000Y-61087000D02*
X142113000Y-61087000D01*
%TO.N,Net-(D7-Pad2)*%
X121079500Y-78994000D02*
X122936000Y-78994000D01*
%TO.N,Net-(D8-Pad2)*%
X120587000Y-107442000D02*
X118920500Y-107442000D01*
%TO.N,Net-(D11-Pad2)*%
X160337000Y-107442000D02*
X162130500Y-107442000D01*
%TO.N,Net-(D12-Pad2)*%
X168719000Y-138430000D02*
X170512500Y-138430000D01*
%TO.N,/YEL3*%
X142113000Y-87757000D02*
X143002000Y-87757000D01*
%TO.N,/GRE1*%
X143002000Y-95377000D02*
X142113000Y-95377000D01*
%TO.N,/WHI4*%
X142113000Y-91567000D02*
X143002000Y-91567000D01*
%TO.N,/RED5*%
X143129000Y-99187000D02*
X142113000Y-99187000D01*
%TO.N,Net-(D9-Pad2)*%
X110490000Y-138430000D02*
X112283500Y-138430000D01*
%TO.N,Net-(D10-Pad2)*%
X157988000Y-78994000D02*
X156194500Y-78994000D01*
%TD*%
%TA.AperFunction,Conductor*%
%TO.N,GND*%
G36*
X140543542Y-53532828D02*
G01*
X140589464Y-53562340D01*
X154811989Y-67903386D01*
X167247413Y-80442438D01*
X169066590Y-82276775D01*
X169100357Y-82339228D01*
X169094998Y-82410022D01*
X169052216Y-82466681D01*
X168985593Y-82491215D01*
X168977126Y-82491500D01*
X158015794Y-82491500D01*
X158009872Y-82491361D01*
X158006769Y-82491215D01*
X157951150Y-82488598D01*
X157942429Y-82490709D01*
X157942427Y-82490709D01*
X157909744Y-82498620D01*
X157897969Y-82500882D01*
X157855813Y-82506920D01*
X157844572Y-82512031D01*
X157844336Y-82512138D01*
X157821834Y-82519899D01*
X157809580Y-82522865D01*
X157801802Y-82527339D01*
X157801799Y-82527340D01*
X157772656Y-82544102D01*
X157761989Y-82549579D01*
X157731393Y-82563491D01*
X157723218Y-82567208D01*
X157713668Y-82575437D01*
X157694244Y-82589204D01*
X157683318Y-82595488D01*
X157653832Y-82626242D01*
X157645143Y-82634482D01*
X157612873Y-82662287D01*
X157607993Y-82669816D01*
X157607990Y-82669819D01*
X157606012Y-82672870D01*
X157591238Y-82691529D01*
X157582514Y-82700629D01*
X157562848Y-82738417D01*
X157556817Y-82748771D01*
X157533648Y-82784515D01*
X157530035Y-82796596D01*
X157521089Y-82818658D01*
X157515271Y-82829837D01*
X157507000Y-82871633D01*
X157504122Y-82883245D01*
X157491914Y-82924066D01*
X157491859Y-82933041D01*
X157491859Y-82933042D01*
X157491837Y-82936673D01*
X157489442Y-82960361D01*
X157486996Y-82972723D01*
X157487795Y-82981663D01*
X157490786Y-83015141D01*
X157491284Y-83027124D01*
X157491185Y-83043324D01*
X157491024Y-83069721D01*
X157493490Y-83078350D01*
X157493491Y-83078355D01*
X157494488Y-83081844D01*
X157498838Y-83105247D01*
X157499960Y-83117803D01*
X157503236Y-83126159D01*
X157503236Y-83126160D01*
X157515508Y-83157463D01*
X157519349Y-83168827D01*
X157528584Y-83201141D01*
X157528585Y-83201144D01*
X157531051Y-83209771D01*
X157535839Y-83217360D01*
X157535841Y-83217364D01*
X157564634Y-83262999D01*
X157566908Y-83266745D01*
X174504147Y-112302012D01*
X174521194Y-112370932D01*
X174498274Y-112438127D01*
X174442664Y-112482264D01*
X174395311Y-112491500D01*
X163015794Y-112491500D01*
X163009872Y-112491361D01*
X163007864Y-112491267D01*
X162951150Y-112488598D01*
X162942429Y-112490709D01*
X162942427Y-112490709D01*
X162909744Y-112498620D01*
X162897969Y-112500882D01*
X162855813Y-112506920D01*
X162844572Y-112512031D01*
X162844336Y-112512138D01*
X162821834Y-112519899D01*
X162809580Y-112522865D01*
X162801802Y-112527339D01*
X162801799Y-112527340D01*
X162772656Y-112544102D01*
X162761989Y-112549579D01*
X162731393Y-112563491D01*
X162723218Y-112567208D01*
X162713668Y-112575437D01*
X162694244Y-112589204D01*
X162683318Y-112595488D01*
X162653832Y-112626242D01*
X162645143Y-112634482D01*
X162612873Y-112662287D01*
X162607993Y-112669816D01*
X162607990Y-112669819D01*
X162606012Y-112672870D01*
X162591238Y-112691529D01*
X162582514Y-112700629D01*
X162562848Y-112738417D01*
X162556817Y-112748771D01*
X162533648Y-112784515D01*
X162530035Y-112796596D01*
X162521089Y-112818658D01*
X162515271Y-112829837D01*
X162507000Y-112871633D01*
X162504122Y-112883245D01*
X162491914Y-112924066D01*
X162491859Y-112933041D01*
X162491859Y-112933042D01*
X162491837Y-112936673D01*
X162489442Y-112960361D01*
X162486996Y-112972723D01*
X162487795Y-112981663D01*
X162490786Y-113015141D01*
X162491284Y-113027124D01*
X162491024Y-113069721D01*
X162493490Y-113078350D01*
X162493491Y-113078355D01*
X162494488Y-113081844D01*
X162498838Y-113105247D01*
X162499960Y-113117803D01*
X162503236Y-113126159D01*
X162503236Y-113126160D01*
X162515508Y-113157463D01*
X162519349Y-113168827D01*
X162528584Y-113201141D01*
X162528585Y-113201144D01*
X162531051Y-113209771D01*
X162535839Y-113217360D01*
X162535841Y-113217364D01*
X162564634Y-113262999D01*
X162566908Y-113266745D01*
X179504147Y-142302012D01*
X179521194Y-142370932D01*
X179498274Y-142438127D01*
X179442664Y-142482264D01*
X179395311Y-142491500D01*
X150508623Y-142491500D01*
X150507853Y-142491498D01*
X150507037Y-142491493D01*
X150430279Y-142491024D01*
X150407918Y-142497415D01*
X150401847Y-142499150D01*
X150385085Y-142502728D01*
X150355813Y-142506920D01*
X150347645Y-142510634D01*
X150347644Y-142510634D01*
X150332438Y-142517548D01*
X150314914Y-142523996D01*
X150290229Y-142531051D01*
X150282635Y-142535843D01*
X150282632Y-142535844D01*
X150265220Y-142546830D01*
X150250137Y-142554969D01*
X150223218Y-142567208D01*
X150216416Y-142573069D01*
X150203765Y-142583970D01*
X150188761Y-142595073D01*
X150167042Y-142608776D01*
X150161103Y-142615501D01*
X150161099Y-142615504D01*
X150147468Y-142630938D01*
X150135276Y-142642982D01*
X150119673Y-142656427D01*
X150119671Y-142656430D01*
X150112873Y-142662287D01*
X150107993Y-142669816D01*
X150107992Y-142669817D01*
X150098906Y-142683835D01*
X150087615Y-142698709D01*
X150076569Y-142711217D01*
X150070622Y-142717951D01*
X150062548Y-142735148D01*
X150058058Y-142744711D01*
X150049737Y-142759691D01*
X150038529Y-142776983D01*
X150038527Y-142776988D01*
X150033648Y-142784515D01*
X150031078Y-142793108D01*
X150031076Y-142793113D01*
X150026289Y-142809120D01*
X150019628Y-142826564D01*
X150014752Y-142836950D01*
X150008719Y-142849800D01*
X150007338Y-142858667D01*
X150007338Y-142858668D01*
X150004170Y-142879015D01*
X150000387Y-142895732D01*
X149994485Y-142915466D01*
X149994484Y-142915472D01*
X149991914Y-142924066D01*
X149991859Y-142933037D01*
X149991859Y-142933038D01*
X149991704Y-142958497D01*
X149991671Y-142959289D01*
X149991500Y-142960386D01*
X149991500Y-142991377D01*
X149991498Y-142992147D01*
X149991024Y-143069721D01*
X149991408Y-143071065D01*
X149991500Y-143072410D01*
X149991500Y-152365500D01*
X149971498Y-152433621D01*
X149917842Y-152480114D01*
X149865500Y-152491500D01*
X146134500Y-152491500D01*
X146066379Y-152471498D01*
X146019886Y-152417842D01*
X146008500Y-152365500D01*
X146008500Y-137783640D01*
X163143463Y-137783640D01*
X163161163Y-137964160D01*
X163218418Y-138136273D01*
X163222065Y-138142295D01*
X163222066Y-138142297D01*
X163287139Y-138249745D01*
X163312380Y-138291424D01*
X163438382Y-138421902D01*
X163590159Y-138521222D01*
X163596763Y-138523678D01*
X163596765Y-138523679D01*
X163675164Y-138552835D01*
X163760168Y-138584448D01*
X163818922Y-138592287D01*
X163883798Y-138621122D01*
X163891353Y-138628085D01*
X164086755Y-138823488D01*
X164094325Y-138831807D01*
X164098447Y-138838303D01*
X164104225Y-138843729D01*
X164104226Y-138843730D01*
X164148265Y-138885085D01*
X164151107Y-138887840D01*
X164170906Y-138907639D01*
X164174037Y-138910068D01*
X164174042Y-138910072D01*
X164174128Y-138910139D01*
X164183153Y-138917847D01*
X164215494Y-138948217D01*
X164222439Y-138952035D01*
X164222443Y-138952038D01*
X164233334Y-138958026D01*
X164249855Y-138968878D01*
X164265934Y-138981350D01*
X164306655Y-138998971D01*
X164317311Y-139004192D01*
X164349245Y-139021748D01*
X164349251Y-139021750D01*
X164356197Y-139025569D01*
X164363872Y-139027540D01*
X164363878Y-139027542D01*
X164375911Y-139030631D01*
X164394613Y-139037034D01*
X164413292Y-139045117D01*
X164421118Y-139046357D01*
X164421123Y-139046358D01*
X164457120Y-139052060D01*
X164468740Y-139054466D01*
X164504037Y-139063528D01*
X164511718Y-139065500D01*
X164532066Y-139065500D01*
X164551778Y-139067051D01*
X164571880Y-139070235D01*
X164579772Y-139069489D01*
X164596095Y-139067946D01*
X164665796Y-139081449D01*
X164717132Y-139130491D01*
X164733280Y-139180383D01*
X164735629Y-139203021D01*
X164736474Y-139211166D01*
X164792450Y-139378946D01*
X164885522Y-139529348D01*
X165010697Y-139654305D01*
X165016927Y-139658145D01*
X165016928Y-139658146D01*
X165154090Y-139742694D01*
X165161262Y-139747115D01*
X165241005Y-139773564D01*
X165322611Y-139800632D01*
X165322613Y-139800632D01*
X165329139Y-139802797D01*
X165335975Y-139803497D01*
X165335978Y-139803498D01*
X165379031Y-139807909D01*
X165433600Y-139813500D01*
X166159400Y-139813500D01*
X166162646Y-139813163D01*
X166162650Y-139813163D01*
X166258308Y-139803238D01*
X166258312Y-139803237D01*
X166265166Y-139802526D01*
X166271702Y-139800345D01*
X166271704Y-139800345D01*
X166403806Y-139756272D01*
X166432946Y-139746550D01*
X166583348Y-139653478D01*
X166616884Y-139619884D01*
X166703134Y-139533483D01*
X166708305Y-139528303D01*
X166712146Y-139522072D01*
X166797275Y-139383968D01*
X166797276Y-139383966D01*
X166801115Y-139377738D01*
X166851113Y-139226998D01*
X166854632Y-139216389D01*
X166854632Y-139216387D01*
X166856797Y-139209861D01*
X166867500Y-139105400D01*
X167650500Y-139105400D01*
X167650837Y-139108646D01*
X167650837Y-139108650D01*
X167660629Y-139203021D01*
X167661474Y-139211166D01*
X167717450Y-139378946D01*
X167810522Y-139529348D01*
X167935697Y-139654305D01*
X167941927Y-139658145D01*
X167941928Y-139658146D01*
X168079090Y-139742694D01*
X168086262Y-139747115D01*
X168166005Y-139773564D01*
X168247611Y-139800632D01*
X168247613Y-139800632D01*
X168254139Y-139802797D01*
X168260975Y-139803497D01*
X168260978Y-139803498D01*
X168304031Y-139807909D01*
X168358600Y-139813500D01*
X169084400Y-139813500D01*
X169087646Y-139813163D01*
X169087650Y-139813163D01*
X169183308Y-139803238D01*
X169183312Y-139803237D01*
X169190166Y-139802526D01*
X169196702Y-139800345D01*
X169196704Y-139800345D01*
X169328806Y-139756272D01*
X169357946Y-139746550D01*
X169508348Y-139653478D01*
X169541884Y-139619884D01*
X169628134Y-139533483D01*
X169633305Y-139528303D01*
X169637146Y-139522072D01*
X169641683Y-139516327D01*
X169643923Y-139518096D01*
X169686978Y-139479346D01*
X169757049Y-139467921D01*
X169807583Y-139485694D01*
X169948671Y-139572661D01*
X169955619Y-139574966D01*
X169955620Y-139574966D01*
X170108634Y-139625719D01*
X170108636Y-139625719D01*
X170115165Y-139627885D01*
X170218769Y-139638500D01*
X170510234Y-139638500D01*
X170806230Y-139638499D01*
X170911129Y-139627616D01*
X170917660Y-139625437D01*
X170917665Y-139625436D01*
X171070578Y-139574420D01*
X171077526Y-139572102D01*
X171226689Y-139479797D01*
X171350617Y-139355653D01*
X171352614Y-139352413D01*
X171409352Y-139312186D01*
X171480275Y-139308953D01*
X171541687Y-139344578D01*
X171549066Y-139353078D01*
X171555782Y-139361552D01*
X171669479Y-139475051D01*
X171680890Y-139484063D01*
X171817654Y-139568365D01*
X171830832Y-139574509D01*
X171983740Y-139625227D01*
X171997106Y-139628093D01*
X172090601Y-139637672D01*
X172097016Y-139638000D01*
X172115385Y-139638000D01*
X172130624Y-139633525D01*
X172131829Y-139632135D01*
X172133500Y-139624452D01*
X172133500Y-139619884D01*
X172641500Y-139619884D01*
X172645975Y-139635123D01*
X172647365Y-139636328D01*
X172655048Y-139637999D01*
X172677933Y-139637999D01*
X172684452Y-139637662D01*
X172779170Y-139627834D01*
X172792564Y-139624942D01*
X172945365Y-139573964D01*
X172958543Y-139567790D01*
X173095149Y-139483256D01*
X173106550Y-139474220D01*
X173220051Y-139360521D01*
X173229063Y-139349110D01*
X173313365Y-139212346D01*
X173319509Y-139199168D01*
X173370227Y-139046260D01*
X173373093Y-139032894D01*
X173382672Y-138939399D01*
X173383000Y-138932984D01*
X173383000Y-138702115D01*
X173378525Y-138686876D01*
X173377135Y-138685671D01*
X173369452Y-138684000D01*
X172659615Y-138684000D01*
X172644376Y-138688475D01*
X172643171Y-138689865D01*
X172641500Y-138697548D01*
X172641500Y-139619884D01*
X172133500Y-139619884D01*
X172133500Y-138157885D01*
X172641500Y-138157885D01*
X172645975Y-138173124D01*
X172647365Y-138174329D01*
X172655048Y-138176000D01*
X173364884Y-138176000D01*
X173380123Y-138171525D01*
X173381328Y-138170135D01*
X173382999Y-138162452D01*
X173382999Y-137927067D01*
X173382662Y-137920548D01*
X173372834Y-137825830D01*
X173369942Y-137812436D01*
X173318964Y-137659635D01*
X173312790Y-137646457D01*
X173228256Y-137509851D01*
X173219220Y-137498450D01*
X173105521Y-137384949D01*
X173094110Y-137375937D01*
X172957346Y-137291635D01*
X172944168Y-137285491D01*
X172791260Y-137234773D01*
X172777894Y-137231907D01*
X172684399Y-137222328D01*
X172677984Y-137222000D01*
X172659615Y-137222000D01*
X172644376Y-137226475D01*
X172643171Y-137227865D01*
X172641500Y-137235548D01*
X172641500Y-138157885D01*
X172133500Y-138157885D01*
X172133500Y-137240116D01*
X172129025Y-137224877D01*
X172127635Y-137223672D01*
X172119952Y-137222001D01*
X172097067Y-137222001D01*
X172090548Y-137222338D01*
X171995830Y-137232166D01*
X171982436Y-137235058D01*
X171829635Y-137286036D01*
X171816457Y-137292210D01*
X171679851Y-137376744D01*
X171668450Y-137385780D01*
X171554949Y-137499479D01*
X171549206Y-137506751D01*
X171491289Y-137547814D01*
X171420366Y-137551046D01*
X171358954Y-137515421D01*
X171353160Y-137508746D01*
X171349797Y-137503311D01*
X171225653Y-137379383D01*
X171213775Y-137372061D01*
X171164850Y-137341904D01*
X171076329Y-137287339D01*
X171068153Y-137284627D01*
X170916366Y-137234281D01*
X170916364Y-137234281D01*
X170909835Y-137232115D01*
X170806231Y-137221500D01*
X170514766Y-137221500D01*
X170218770Y-137221501D01*
X170113871Y-137232384D01*
X170107340Y-137234563D01*
X170107335Y-137234564D01*
X169968836Y-137280771D01*
X169947474Y-137287898D01*
X169941242Y-137291754D01*
X169941243Y-137291754D01*
X169807714Y-137374384D01*
X169739262Y-137393222D01*
X169671492Y-137372061D01*
X169642096Y-137341644D01*
X169640875Y-137342612D01*
X169636332Y-137336880D01*
X169632478Y-137330652D01*
X169507303Y-137205695D01*
X169434662Y-137160918D01*
X169362968Y-137116725D01*
X169362966Y-137116724D01*
X169356738Y-137112885D01*
X169219924Y-137067506D01*
X169195389Y-137059368D01*
X169195387Y-137059368D01*
X169188861Y-137057203D01*
X169182025Y-137056503D01*
X169182022Y-137056502D01*
X169138969Y-137052091D01*
X169084400Y-137046500D01*
X168358600Y-137046500D01*
X168355354Y-137046837D01*
X168355350Y-137046837D01*
X168259692Y-137056762D01*
X168259688Y-137056763D01*
X168252834Y-137057474D01*
X168246298Y-137059655D01*
X168246296Y-137059655D01*
X168114194Y-137103728D01*
X168085054Y-137113450D01*
X167934652Y-137206522D01*
X167929479Y-137211704D01*
X167867839Y-137273451D01*
X167809695Y-137331697D01*
X167805855Y-137337927D01*
X167805854Y-137337928D01*
X167728247Y-137463830D01*
X167716885Y-137482262D01*
X167694070Y-137551047D01*
X167666104Y-137635364D01*
X167661203Y-137650139D01*
X167650500Y-137754600D01*
X167650500Y-139105400D01*
X166867500Y-139105400D01*
X166867500Y-137754600D01*
X166867163Y-137751350D01*
X166857238Y-137655692D01*
X166857237Y-137655688D01*
X166856526Y-137648834D01*
X166851787Y-137634628D01*
X166802868Y-137488002D01*
X166800550Y-137481054D01*
X166707478Y-137330652D01*
X166582303Y-137205695D01*
X166509662Y-137160918D01*
X166437968Y-137116725D01*
X166437966Y-137116724D01*
X166431738Y-137112885D01*
X166294924Y-137067506D01*
X166270389Y-137059368D01*
X166270387Y-137059368D01*
X166263861Y-137057203D01*
X166257025Y-137056503D01*
X166257022Y-137056502D01*
X166213969Y-137052091D01*
X166159400Y-137046500D01*
X165433600Y-137046500D01*
X165430354Y-137046837D01*
X165430350Y-137046837D01*
X165334692Y-137056762D01*
X165334688Y-137056763D01*
X165327834Y-137057474D01*
X165321298Y-137059655D01*
X165321296Y-137059655D01*
X165189194Y-137103728D01*
X165160054Y-137113450D01*
X165009652Y-137206522D01*
X165004479Y-137211704D01*
X164942839Y-137273451D01*
X164884695Y-137331697D01*
X164880855Y-137337927D01*
X164880854Y-137337928D01*
X164860234Y-137371380D01*
X164807462Y-137418873D01*
X164737390Y-137430297D01*
X164672266Y-137402023D01*
X164646124Y-137372039D01*
X164594626Y-137289624D01*
X164580941Y-137275843D01*
X164471778Y-137165915D01*
X164471774Y-137165912D01*
X164466815Y-137160918D01*
X164455697Y-137153862D01*
X164391127Y-137112885D01*
X164313666Y-137063727D01*
X164265287Y-137046500D01*
X164149425Y-137005243D01*
X164149420Y-137005242D01*
X164142790Y-137002881D01*
X164135802Y-137002048D01*
X164135799Y-137002047D01*
X164012698Y-136987368D01*
X163962680Y-136981404D01*
X163955677Y-136982140D01*
X163955676Y-136982140D01*
X163789288Y-136999628D01*
X163789286Y-136999629D01*
X163782288Y-137000364D01*
X163610579Y-137058818D01*
X163604575Y-137062512D01*
X163462095Y-137150166D01*
X163462092Y-137150168D01*
X163456088Y-137153862D01*
X163451053Y-137158793D01*
X163451050Y-137158795D01*
X163372673Y-137235548D01*
X163326493Y-137280771D01*
X163228235Y-137433238D01*
X163225826Y-137439858D01*
X163225824Y-137439861D01*
X163185356Y-137551046D01*
X163166197Y-137603685D01*
X163143463Y-137783640D01*
X146008500Y-137783640D01*
X146008500Y-128758623D01*
X146008502Y-128757853D01*
X146008921Y-128689254D01*
X146008976Y-128680279D01*
X146000850Y-128651847D01*
X145997272Y-128635085D01*
X145994352Y-128614698D01*
X145993080Y-128605813D01*
X145982451Y-128582436D01*
X145976004Y-128564913D01*
X145971416Y-128548862D01*
X145968949Y-128540229D01*
X145964156Y-128532632D01*
X145953170Y-128515220D01*
X145945030Y-128500135D01*
X145932792Y-128473218D01*
X145916030Y-128453765D01*
X145904927Y-128438761D01*
X145891224Y-128417042D01*
X145884499Y-128411103D01*
X145884496Y-128411099D01*
X145869062Y-128397468D01*
X145857018Y-128385276D01*
X145843573Y-128369673D01*
X145843570Y-128369671D01*
X145837713Y-128362873D01*
X145816165Y-128348906D01*
X145801291Y-128337615D01*
X145788783Y-128326569D01*
X145788782Y-128326568D01*
X145782049Y-128320622D01*
X145755287Y-128308057D01*
X145740309Y-128299737D01*
X145723017Y-128288529D01*
X145723012Y-128288527D01*
X145715485Y-128283648D01*
X145706892Y-128281078D01*
X145706887Y-128281076D01*
X145690880Y-128276289D01*
X145673436Y-128269628D01*
X145658324Y-128262533D01*
X145658322Y-128262532D01*
X145650200Y-128258719D01*
X145641333Y-128257338D01*
X145641332Y-128257338D01*
X145631690Y-128255837D01*
X145620983Y-128254170D01*
X145604268Y-128250387D01*
X145584534Y-128244485D01*
X145584528Y-128244484D01*
X145575934Y-128241914D01*
X145566963Y-128241859D01*
X145566962Y-128241859D01*
X145556903Y-128241798D01*
X145541494Y-128241704D01*
X145540711Y-128241671D01*
X145539614Y-128241500D01*
X145508623Y-128241500D01*
X145507853Y-128241498D01*
X145434215Y-128241048D01*
X145434214Y-128241048D01*
X145430279Y-128241024D01*
X145428935Y-128241408D01*
X145427590Y-128241500D01*
X141884500Y-128241500D01*
X141816379Y-128221498D01*
X141769886Y-128167842D01*
X141758500Y-128115500D01*
X141758500Y-125578513D01*
X141778502Y-125510392D01*
X141832158Y-125463899D01*
X141849001Y-125457617D01*
X141856124Y-125455525D01*
X141857329Y-125454135D01*
X141859000Y-125446452D01*
X141859000Y-125441884D01*
X142367000Y-125441884D01*
X142371475Y-125457123D01*
X142372865Y-125458328D01*
X142380548Y-125459999D01*
X142410095Y-125459999D01*
X142416614Y-125459662D01*
X142512206Y-125449743D01*
X142525600Y-125446851D01*
X142679784Y-125395412D01*
X142692962Y-125389239D01*
X142830807Y-125303937D01*
X142842208Y-125294901D01*
X142956739Y-125180171D01*
X142965751Y-125168760D01*
X143050816Y-125030757D01*
X143056963Y-125017576D01*
X143108138Y-124863290D01*
X143111005Y-124849914D01*
X143120672Y-124755562D01*
X143121000Y-124749146D01*
X143121000Y-124224115D01*
X143116525Y-124208876D01*
X143115135Y-124207671D01*
X143107452Y-124206000D01*
X142385115Y-124206000D01*
X142369876Y-124210475D01*
X142368671Y-124211865D01*
X142367000Y-124219548D01*
X142367000Y-125441884D01*
X141859000Y-125441884D01*
X141859000Y-123679885D01*
X142367000Y-123679885D01*
X142371475Y-123695124D01*
X142372865Y-123696329D01*
X142380548Y-123698000D01*
X143102884Y-123698000D01*
X143118123Y-123693525D01*
X143119328Y-123692135D01*
X143120999Y-123684452D01*
X143120999Y-123154905D01*
X143120662Y-123148386D01*
X143110743Y-123052794D01*
X143107851Y-123039400D01*
X143056412Y-122885216D01*
X143050239Y-122872038D01*
X142964937Y-122734193D01*
X142955901Y-122722792D01*
X142841171Y-122608261D01*
X142829760Y-122599249D01*
X142691757Y-122514184D01*
X142678576Y-122508037D01*
X142524290Y-122456862D01*
X142510914Y-122453995D01*
X142416562Y-122444328D01*
X142410145Y-122444000D01*
X142385115Y-122444000D01*
X142369876Y-122448475D01*
X142368671Y-122449865D01*
X142367000Y-122457548D01*
X142367000Y-123679885D01*
X141859000Y-123679885D01*
X141859000Y-122462116D01*
X141854525Y-122446877D01*
X141848438Y-122441602D01*
X141795405Y-122412644D01*
X141761380Y-122350332D01*
X141758500Y-122323548D01*
X141758500Y-118720513D01*
X141778502Y-118652392D01*
X141832158Y-118605899D01*
X141849001Y-118599617D01*
X141856124Y-118597525D01*
X141857329Y-118596135D01*
X141859000Y-118588452D01*
X141859000Y-118583884D01*
X142367000Y-118583884D01*
X142371475Y-118599123D01*
X142372865Y-118600328D01*
X142380548Y-118601999D01*
X142410095Y-118601999D01*
X142416614Y-118601662D01*
X142512206Y-118591743D01*
X142525600Y-118588851D01*
X142679784Y-118537412D01*
X142692962Y-118531239D01*
X142830807Y-118445937D01*
X142842208Y-118436901D01*
X142956739Y-118322171D01*
X142965751Y-118310760D01*
X143050816Y-118172757D01*
X143056963Y-118159576D01*
X143108138Y-118005290D01*
X143111005Y-117991914D01*
X143120672Y-117897562D01*
X143121000Y-117891146D01*
X143121000Y-117366115D01*
X143116525Y-117350876D01*
X143115135Y-117349671D01*
X143107452Y-117348000D01*
X142385115Y-117348000D01*
X142369876Y-117352475D01*
X142368671Y-117353865D01*
X142367000Y-117361548D01*
X142367000Y-118583884D01*
X141859000Y-118583884D01*
X141859000Y-116821885D01*
X142367000Y-116821885D01*
X142371475Y-116837124D01*
X142372865Y-116838329D01*
X142380548Y-116840000D01*
X143102884Y-116840000D01*
X143118123Y-116835525D01*
X143119328Y-116834135D01*
X143120999Y-116826452D01*
X143120999Y-116296905D01*
X143120662Y-116290386D01*
X143110743Y-116194794D01*
X143107851Y-116181400D01*
X143056412Y-116027216D01*
X143050239Y-116014038D01*
X142964937Y-115876193D01*
X142955901Y-115864792D01*
X142841171Y-115750261D01*
X142829760Y-115741249D01*
X142691757Y-115656184D01*
X142678576Y-115650037D01*
X142524290Y-115598862D01*
X142510914Y-115595995D01*
X142416562Y-115586328D01*
X142410145Y-115586000D01*
X142385115Y-115586000D01*
X142369876Y-115590475D01*
X142368671Y-115591865D01*
X142367000Y-115599548D01*
X142367000Y-116821885D01*
X141859000Y-116821885D01*
X141859000Y-115604116D01*
X141854525Y-115588877D01*
X141848438Y-115583602D01*
X141795405Y-115554644D01*
X141761380Y-115492332D01*
X141758500Y-115465548D01*
X141758500Y-108065640D01*
X154761463Y-108065640D01*
X154779163Y-108246160D01*
X154836418Y-108418273D01*
X154840065Y-108424295D01*
X154840066Y-108424297D01*
X154906548Y-108534072D01*
X154930380Y-108573424D01*
X154935269Y-108578487D01*
X154935270Y-108578488D01*
X154991246Y-108636452D01*
X155056382Y-108703902D01*
X155208159Y-108803222D01*
X155214763Y-108805678D01*
X155214765Y-108805679D01*
X155371558Y-108863990D01*
X155371560Y-108863990D01*
X155378168Y-108866448D01*
X155461995Y-108877633D01*
X155550980Y-108889507D01*
X155550984Y-108889507D01*
X155557961Y-108890438D01*
X155564972Y-108889800D01*
X155564976Y-108889800D01*
X155707459Y-108876832D01*
X155738600Y-108873998D01*
X155745302Y-108871820D01*
X155745304Y-108871820D01*
X155904409Y-108820124D01*
X155904412Y-108820123D01*
X155911108Y-108817947D01*
X156066912Y-108725069D01*
X156198266Y-108599982D01*
X156207218Y-108586509D01*
X156266386Y-108497453D01*
X156320743Y-108451782D01*
X156391163Y-108442750D01*
X156455287Y-108473223D01*
X156478474Y-108500871D01*
X156503522Y-108541348D01*
X156628697Y-108666305D01*
X156634927Y-108670145D01*
X156634928Y-108670146D01*
X156772090Y-108754694D01*
X156779262Y-108759115D01*
X156859005Y-108785564D01*
X156940611Y-108812632D01*
X156940613Y-108812632D01*
X156947139Y-108814797D01*
X156953975Y-108815497D01*
X156953978Y-108815498D01*
X156997031Y-108819909D01*
X157051600Y-108825500D01*
X157777400Y-108825500D01*
X157780646Y-108825163D01*
X157780650Y-108825163D01*
X157876308Y-108815238D01*
X157876312Y-108815237D01*
X157883166Y-108814526D01*
X157889702Y-108812345D01*
X157889704Y-108812345D01*
X158021806Y-108768272D01*
X158050946Y-108758550D01*
X158201348Y-108665478D01*
X158234884Y-108631884D01*
X158286887Y-108579790D01*
X158326305Y-108540303D01*
X158330146Y-108534072D01*
X158415275Y-108395968D01*
X158415276Y-108395966D01*
X158419115Y-108389738D01*
X158458045Y-108272366D01*
X158472632Y-108228389D01*
X158472632Y-108228387D01*
X158474797Y-108221861D01*
X158485500Y-108117400D01*
X159268500Y-108117400D01*
X159279474Y-108223166D01*
X159281655Y-108229702D01*
X159281655Y-108229704D01*
X159300410Y-108285920D01*
X159335450Y-108390946D01*
X159428522Y-108541348D01*
X159553697Y-108666305D01*
X159559927Y-108670145D01*
X159559928Y-108670146D01*
X159697090Y-108754694D01*
X159704262Y-108759115D01*
X159784005Y-108785564D01*
X159865611Y-108812632D01*
X159865613Y-108812632D01*
X159872139Y-108814797D01*
X159878975Y-108815497D01*
X159878978Y-108815498D01*
X159922031Y-108819909D01*
X159976600Y-108825500D01*
X160702400Y-108825500D01*
X160705646Y-108825163D01*
X160705650Y-108825163D01*
X160801308Y-108815238D01*
X160801312Y-108815237D01*
X160808166Y-108814526D01*
X160814702Y-108812345D01*
X160814704Y-108812345D01*
X160946806Y-108768272D01*
X160975946Y-108758550D01*
X161126348Y-108665478D01*
X161159884Y-108631884D01*
X161211887Y-108579790D01*
X161251305Y-108540303D01*
X161255146Y-108534072D01*
X161259683Y-108528327D01*
X161261923Y-108530096D01*
X161304978Y-108491346D01*
X161375049Y-108479921D01*
X161425583Y-108497694D01*
X161566671Y-108584661D01*
X161573619Y-108586966D01*
X161573620Y-108586966D01*
X161726634Y-108637719D01*
X161726636Y-108637719D01*
X161733165Y-108639885D01*
X161836769Y-108650500D01*
X162128234Y-108650500D01*
X162424230Y-108650499D01*
X162529129Y-108639616D01*
X162535660Y-108637437D01*
X162535665Y-108637436D01*
X162688578Y-108586420D01*
X162695526Y-108584102D01*
X162844689Y-108491797D01*
X162968617Y-108367653D01*
X162970614Y-108364413D01*
X163027352Y-108324186D01*
X163098275Y-108320953D01*
X163159687Y-108356578D01*
X163167066Y-108365078D01*
X163173782Y-108373552D01*
X163287479Y-108487051D01*
X163298890Y-108496063D01*
X163435654Y-108580365D01*
X163448832Y-108586509D01*
X163601740Y-108637227D01*
X163615106Y-108640093D01*
X163708601Y-108649672D01*
X163715016Y-108650000D01*
X163733385Y-108650000D01*
X163748624Y-108645525D01*
X163749829Y-108644135D01*
X163751500Y-108636452D01*
X163751500Y-108631884D01*
X164259500Y-108631884D01*
X164263975Y-108647123D01*
X164265365Y-108648328D01*
X164273048Y-108649999D01*
X164295933Y-108649999D01*
X164302452Y-108649662D01*
X164397170Y-108639834D01*
X164410564Y-108636942D01*
X164563365Y-108585964D01*
X164576543Y-108579790D01*
X164713149Y-108495256D01*
X164724550Y-108486220D01*
X164838051Y-108372521D01*
X164847063Y-108361110D01*
X164931365Y-108224346D01*
X164937509Y-108211168D01*
X164988227Y-108058260D01*
X164991093Y-108044894D01*
X165000672Y-107951399D01*
X165001000Y-107944984D01*
X165001000Y-107714115D01*
X164996525Y-107698876D01*
X164995135Y-107697671D01*
X164987452Y-107696000D01*
X164277615Y-107696000D01*
X164262376Y-107700475D01*
X164261171Y-107701865D01*
X164259500Y-107709548D01*
X164259500Y-108631884D01*
X163751500Y-108631884D01*
X163751500Y-107169885D01*
X164259500Y-107169885D01*
X164263975Y-107185124D01*
X164265365Y-107186329D01*
X164273048Y-107188000D01*
X164982884Y-107188000D01*
X164998123Y-107183525D01*
X164999328Y-107182135D01*
X165000999Y-107174452D01*
X165000999Y-106939067D01*
X165000662Y-106932548D01*
X164990834Y-106837830D01*
X164987942Y-106824436D01*
X164936964Y-106671635D01*
X164930790Y-106658457D01*
X164846256Y-106521851D01*
X164837220Y-106510450D01*
X164723521Y-106396949D01*
X164712110Y-106387937D01*
X164575346Y-106303635D01*
X164562168Y-106297491D01*
X164409260Y-106246773D01*
X164395894Y-106243907D01*
X164302399Y-106234328D01*
X164295984Y-106234000D01*
X164277615Y-106234000D01*
X164262376Y-106238475D01*
X164261171Y-106239865D01*
X164259500Y-106247548D01*
X164259500Y-107169885D01*
X163751500Y-107169885D01*
X163751500Y-106252116D01*
X163747025Y-106236877D01*
X163745635Y-106235672D01*
X163737952Y-106234001D01*
X163715067Y-106234001D01*
X163708548Y-106234338D01*
X163613830Y-106244166D01*
X163600436Y-106247058D01*
X163447635Y-106298036D01*
X163434457Y-106304210D01*
X163297851Y-106388744D01*
X163286450Y-106397780D01*
X163172949Y-106511479D01*
X163167206Y-106518751D01*
X163109289Y-106559814D01*
X163038366Y-106563046D01*
X162976954Y-106527421D01*
X162971160Y-106520746D01*
X162967797Y-106515311D01*
X162843653Y-106391383D01*
X162831775Y-106384061D01*
X162782850Y-106353904D01*
X162694329Y-106299339D01*
X162687380Y-106297034D01*
X162534366Y-106246281D01*
X162534364Y-106246281D01*
X162527835Y-106244115D01*
X162424231Y-106233500D01*
X162132766Y-106233500D01*
X161836770Y-106233501D01*
X161731871Y-106244384D01*
X161725340Y-106246563D01*
X161725335Y-106246564D01*
X161577189Y-106295990D01*
X161565474Y-106299898D01*
X161559242Y-106303754D01*
X161559243Y-106303754D01*
X161425714Y-106386384D01*
X161357262Y-106405222D01*
X161289492Y-106384061D01*
X161260096Y-106353644D01*
X161258875Y-106354612D01*
X161254332Y-106348880D01*
X161250478Y-106342652D01*
X161125303Y-106217695D01*
X161119072Y-106213854D01*
X160980968Y-106128725D01*
X160980966Y-106128724D01*
X160974738Y-106124885D01*
X160814254Y-106071655D01*
X160813389Y-106071368D01*
X160813387Y-106071368D01*
X160806861Y-106069203D01*
X160800025Y-106068503D01*
X160800022Y-106068502D01*
X160756969Y-106064091D01*
X160702400Y-106058500D01*
X159976600Y-106058500D01*
X159973354Y-106058837D01*
X159973350Y-106058837D01*
X159877692Y-106068762D01*
X159877688Y-106068763D01*
X159870834Y-106069474D01*
X159864298Y-106071655D01*
X159864296Y-106071655D01*
X159732194Y-106115728D01*
X159703054Y-106125450D01*
X159552652Y-106218522D01*
X159547479Y-106223704D01*
X159485839Y-106285451D01*
X159427695Y-106343697D01*
X159423855Y-106349927D01*
X159423854Y-106349928D01*
X159346247Y-106475830D01*
X159334885Y-106494262D01*
X159279203Y-106662139D01*
X159268500Y-106766600D01*
X159268500Y-108117400D01*
X158485500Y-108117400D01*
X158485500Y-106766600D01*
X158485163Y-106763350D01*
X158475238Y-106667692D01*
X158475237Y-106667688D01*
X158474526Y-106660834D01*
X158418550Y-106493054D01*
X158325478Y-106342652D01*
X158200303Y-106217695D01*
X158194072Y-106213854D01*
X158055968Y-106128725D01*
X158055966Y-106128724D01*
X158049738Y-106124885D01*
X157889254Y-106071655D01*
X157888389Y-106071368D01*
X157888387Y-106071368D01*
X157881861Y-106069203D01*
X157875025Y-106068503D01*
X157875022Y-106068502D01*
X157831969Y-106064091D01*
X157777400Y-106058500D01*
X157051600Y-106058500D01*
X157048354Y-106058837D01*
X157048350Y-106058837D01*
X156952692Y-106068762D01*
X156952688Y-106068763D01*
X156945834Y-106069474D01*
X156939298Y-106071655D01*
X156939296Y-106071655D01*
X156807194Y-106115728D01*
X156778054Y-106125450D01*
X156627652Y-106218522D01*
X156622479Y-106223704D01*
X156560839Y-106285451D01*
X156502695Y-106343697D01*
X156498855Y-106349927D01*
X156498854Y-106349928D01*
X156421247Y-106475830D01*
X156409885Y-106494262D01*
X156354203Y-106662139D01*
X156353502Y-106668977D01*
X156353502Y-106668979D01*
X156351095Y-106692471D01*
X156324253Y-106758199D01*
X156266138Y-106798980D01*
X156229710Y-106805566D01*
X156208698Y-106806227D01*
X156201968Y-106806438D01*
X156198012Y-106806500D01*
X156170017Y-106806500D01*
X156166083Y-106806997D01*
X156166081Y-106806997D01*
X156165994Y-106807008D01*
X156154160Y-106807940D01*
X156109795Y-106809335D01*
X156102182Y-106811547D01*
X156102181Y-106811547D01*
X156090252Y-106815013D01*
X156070888Y-106819023D01*
X156058560Y-106820580D01*
X156058558Y-106820580D01*
X156050701Y-106821573D01*
X156043337Y-106824489D01*
X156043332Y-106824490D01*
X156009444Y-106837907D01*
X155998215Y-106841752D01*
X155990079Y-106844116D01*
X155955607Y-106854131D01*
X155948781Y-106858168D01*
X155938091Y-106864490D01*
X155920341Y-106873187D01*
X155901412Y-106880681D01*
X155894998Y-106885341D01*
X155865514Y-106906762D01*
X155855594Y-106913278D01*
X155824229Y-106931827D01*
X155824226Y-106931829D01*
X155817402Y-106935865D01*
X155803014Y-106950253D01*
X155787980Y-106963094D01*
X155771513Y-106975058D01*
X155766460Y-106981166D01*
X155743228Y-107009249D01*
X155735238Y-107018029D01*
X155510748Y-107242519D01*
X155448436Y-107276545D01*
X155434824Y-107278734D01*
X155407288Y-107281628D01*
X155407286Y-107281628D01*
X155400288Y-107282364D01*
X155228579Y-107340818D01*
X155222575Y-107344512D01*
X155080095Y-107432166D01*
X155080092Y-107432168D01*
X155074088Y-107435862D01*
X155069053Y-107440793D01*
X155069050Y-107440795D01*
X154949525Y-107557843D01*
X154944493Y-107562771D01*
X154846235Y-107715238D01*
X154843826Y-107721858D01*
X154843824Y-107721861D01*
X154786606Y-107879066D01*
X154784197Y-107885685D01*
X154761463Y-108065640D01*
X141758500Y-108065640D01*
X141758500Y-103008623D01*
X141758502Y-103007853D01*
X141758800Y-102959102D01*
X141758976Y-102930279D01*
X141750850Y-102901847D01*
X141747272Y-102885085D01*
X141744352Y-102864698D01*
X141743080Y-102855813D01*
X141732451Y-102832436D01*
X141726004Y-102814913D01*
X141721416Y-102798862D01*
X141718949Y-102790229D01*
X141714156Y-102782632D01*
X141703170Y-102765220D01*
X141695030Y-102750135D01*
X141692564Y-102744711D01*
X141682792Y-102723218D01*
X141666030Y-102703765D01*
X141654927Y-102688761D01*
X141641224Y-102667042D01*
X141634499Y-102661103D01*
X141634496Y-102661099D01*
X141619062Y-102647468D01*
X141607018Y-102635276D01*
X141593573Y-102619673D01*
X141593570Y-102619671D01*
X141587713Y-102612873D01*
X141574009Y-102603990D01*
X141566165Y-102598906D01*
X141551291Y-102587615D01*
X141538783Y-102576569D01*
X141538782Y-102576568D01*
X141532049Y-102570622D01*
X141505287Y-102558057D01*
X141490309Y-102549737D01*
X141473017Y-102538529D01*
X141473012Y-102538527D01*
X141465485Y-102533648D01*
X141456892Y-102531078D01*
X141456887Y-102531076D01*
X141440880Y-102526289D01*
X141423436Y-102519628D01*
X141408324Y-102512533D01*
X141408322Y-102512532D01*
X141400200Y-102508719D01*
X141391333Y-102507338D01*
X141391332Y-102507338D01*
X141380478Y-102505648D01*
X141370983Y-102504170D01*
X141354268Y-102500387D01*
X141334534Y-102494485D01*
X141334528Y-102494484D01*
X141325934Y-102491914D01*
X141316963Y-102491859D01*
X141316962Y-102491859D01*
X141306903Y-102491798D01*
X141291494Y-102491704D01*
X141290711Y-102491671D01*
X141289614Y-102491500D01*
X141258623Y-102491500D01*
X141257853Y-102491498D01*
X141184215Y-102491048D01*
X141184214Y-102491048D01*
X141180279Y-102491024D01*
X141178935Y-102491408D01*
X141177590Y-102491500D01*
X139758623Y-102491500D01*
X139757853Y-102491498D01*
X139757037Y-102491493D01*
X139680279Y-102491024D01*
X139657918Y-102497415D01*
X139651847Y-102499150D01*
X139635085Y-102502728D01*
X139605813Y-102506920D01*
X139597645Y-102510634D01*
X139597644Y-102510634D01*
X139582438Y-102517548D01*
X139564914Y-102523996D01*
X139540229Y-102531051D01*
X139532635Y-102535843D01*
X139532632Y-102535844D01*
X139515220Y-102546830D01*
X139500137Y-102554969D01*
X139473218Y-102567208D01*
X139466416Y-102573069D01*
X139453765Y-102583970D01*
X139438761Y-102595073D01*
X139417042Y-102608776D01*
X139411103Y-102615501D01*
X139411099Y-102615504D01*
X139397468Y-102630938D01*
X139385276Y-102642982D01*
X139369673Y-102656427D01*
X139369671Y-102656430D01*
X139362873Y-102662287D01*
X139357993Y-102669816D01*
X139357992Y-102669817D01*
X139348906Y-102683835D01*
X139337615Y-102698709D01*
X139326569Y-102711217D01*
X139320622Y-102717951D01*
X139314312Y-102731391D01*
X139308058Y-102744711D01*
X139299737Y-102759691D01*
X139288529Y-102776983D01*
X139288527Y-102776988D01*
X139283648Y-102784515D01*
X139281078Y-102793108D01*
X139281076Y-102793113D01*
X139276289Y-102809120D01*
X139269628Y-102826564D01*
X139262533Y-102841676D01*
X139258719Y-102849800D01*
X139257338Y-102858667D01*
X139257338Y-102858668D01*
X139254170Y-102879015D01*
X139250387Y-102895732D01*
X139244485Y-102915466D01*
X139244484Y-102915472D01*
X139241914Y-102924066D01*
X139241859Y-102933037D01*
X139241859Y-102933038D01*
X139241704Y-102958497D01*
X139241671Y-102959289D01*
X139241500Y-102960386D01*
X139241500Y-102991377D01*
X139241498Y-102992147D01*
X139241024Y-103069721D01*
X139241408Y-103071065D01*
X139241500Y-103072410D01*
X139241500Y-115489672D01*
X139221498Y-115557793D01*
X139210725Y-115572184D01*
X139193671Y-115591865D01*
X139192000Y-115599548D01*
X139192000Y-118583884D01*
X139196475Y-118599123D01*
X139198012Y-118600455D01*
X139236396Y-118660181D01*
X139241500Y-118695680D01*
X139241500Y-122347672D01*
X139221498Y-122415793D01*
X139210725Y-122430184D01*
X139193671Y-122449865D01*
X139192000Y-122457548D01*
X139192000Y-125441884D01*
X139196475Y-125457123D01*
X139198012Y-125458455D01*
X139236396Y-125518181D01*
X139241500Y-125553680D01*
X139241500Y-152365500D01*
X139221498Y-152433621D01*
X139167842Y-152480114D01*
X139115500Y-152491500D01*
X131134500Y-152491500D01*
X131066379Y-152471498D01*
X131019886Y-152417842D01*
X131008500Y-152365500D01*
X131008500Y-143008623D01*
X131008502Y-143007853D01*
X131008800Y-142959102D01*
X131008976Y-142930279D01*
X131000850Y-142901847D01*
X130997272Y-142885085D01*
X130994352Y-142864698D01*
X130993080Y-142855813D01*
X130982451Y-142832436D01*
X130976004Y-142814913D01*
X130971416Y-142798862D01*
X130968949Y-142790229D01*
X130964156Y-142782632D01*
X130953170Y-142765220D01*
X130945030Y-142750135D01*
X130942564Y-142744711D01*
X130932792Y-142723218D01*
X130916030Y-142703765D01*
X130904927Y-142688761D01*
X130891224Y-142667042D01*
X130884499Y-142661103D01*
X130884496Y-142661099D01*
X130869062Y-142647468D01*
X130857018Y-142635276D01*
X130843573Y-142619673D01*
X130843570Y-142619671D01*
X130837713Y-142612873D01*
X130824009Y-142603990D01*
X130816165Y-142598906D01*
X130801291Y-142587615D01*
X130788783Y-142576569D01*
X130788782Y-142576568D01*
X130782049Y-142570622D01*
X130755287Y-142558057D01*
X130740309Y-142549737D01*
X130723017Y-142538529D01*
X130723012Y-142538527D01*
X130715485Y-142533648D01*
X130706892Y-142531078D01*
X130706887Y-142531076D01*
X130690880Y-142526289D01*
X130673436Y-142519628D01*
X130658324Y-142512533D01*
X130658322Y-142512532D01*
X130650200Y-142508719D01*
X130641333Y-142507338D01*
X130641332Y-142507338D01*
X130630478Y-142505648D01*
X130620983Y-142504170D01*
X130604268Y-142500387D01*
X130584534Y-142494485D01*
X130584528Y-142494484D01*
X130575934Y-142491914D01*
X130566963Y-142491859D01*
X130566962Y-142491859D01*
X130556903Y-142491798D01*
X130541494Y-142491704D01*
X130540711Y-142491671D01*
X130539614Y-142491500D01*
X130508623Y-142491500D01*
X130507853Y-142491498D01*
X130434215Y-142491048D01*
X130434214Y-142491048D01*
X130430279Y-142491024D01*
X130428935Y-142491408D01*
X130427590Y-142491500D01*
X101604688Y-142491500D01*
X101536567Y-142471498D01*
X101490074Y-142417842D01*
X101479970Y-142347568D01*
X101495852Y-142302012D01*
X103461148Y-138932933D01*
X107541001Y-138932933D01*
X107541338Y-138939452D01*
X107551166Y-139034170D01*
X107554058Y-139047564D01*
X107605036Y-139200365D01*
X107611210Y-139213543D01*
X107695744Y-139350149D01*
X107704780Y-139361550D01*
X107818479Y-139475051D01*
X107829890Y-139484063D01*
X107966654Y-139568365D01*
X107979832Y-139574509D01*
X108132740Y-139625227D01*
X108146106Y-139628093D01*
X108239601Y-139637672D01*
X108246016Y-139638000D01*
X108264385Y-139638000D01*
X108279624Y-139633525D01*
X108280829Y-139632135D01*
X108282500Y-139624452D01*
X108282500Y-139619884D01*
X108790500Y-139619884D01*
X108794975Y-139635123D01*
X108796365Y-139636328D01*
X108804048Y-139637999D01*
X108826933Y-139637999D01*
X108833452Y-139637662D01*
X108928170Y-139627834D01*
X108941564Y-139624942D01*
X109094365Y-139573964D01*
X109107543Y-139567790D01*
X109244149Y-139483256D01*
X109255550Y-139474220D01*
X109369051Y-139360521D01*
X109374794Y-139353249D01*
X109432711Y-139312186D01*
X109503634Y-139308954D01*
X109565046Y-139344579D01*
X109570840Y-139351254D01*
X109574203Y-139356689D01*
X109698347Y-139480617D01*
X109704577Y-139484457D01*
X109704578Y-139484458D01*
X109737986Y-139505051D01*
X109847671Y-139572661D01*
X109854619Y-139574966D01*
X109854620Y-139574966D01*
X110007634Y-139625719D01*
X110007636Y-139625719D01*
X110014165Y-139627885D01*
X110117769Y-139638500D01*
X110409234Y-139638500D01*
X110705230Y-139638499D01*
X110810129Y-139627616D01*
X110816660Y-139625437D01*
X110816665Y-139625436D01*
X110969578Y-139574420D01*
X110976526Y-139572102D01*
X111055680Y-139523120D01*
X111116286Y-139485616D01*
X111184738Y-139466778D01*
X111252508Y-139487939D01*
X111281904Y-139518356D01*
X111283125Y-139517388D01*
X111287668Y-139523120D01*
X111291522Y-139529348D01*
X111416697Y-139654305D01*
X111422927Y-139658145D01*
X111422928Y-139658146D01*
X111560090Y-139742694D01*
X111567262Y-139747115D01*
X111647005Y-139773564D01*
X111728611Y-139800632D01*
X111728613Y-139800632D01*
X111735139Y-139802797D01*
X111741975Y-139803497D01*
X111741978Y-139803498D01*
X111785031Y-139807909D01*
X111839600Y-139813500D01*
X112565400Y-139813500D01*
X112568646Y-139813163D01*
X112568650Y-139813163D01*
X112664308Y-139803238D01*
X112664312Y-139803237D01*
X112671166Y-139802526D01*
X112677702Y-139800345D01*
X112677704Y-139800345D01*
X112809806Y-139756272D01*
X112838946Y-139746550D01*
X112989348Y-139653478D01*
X113022884Y-139619884D01*
X113109134Y-139533483D01*
X113114305Y-139528303D01*
X113118146Y-139522072D01*
X113203275Y-139383968D01*
X113203276Y-139383966D01*
X113207115Y-139377738D01*
X113257113Y-139226998D01*
X113260632Y-139216389D01*
X113260632Y-139216387D01*
X113262797Y-139209861D01*
X113273500Y-139105400D01*
X114056500Y-139105400D01*
X114056837Y-139108646D01*
X114056837Y-139108650D01*
X114066629Y-139203021D01*
X114067474Y-139211166D01*
X114123450Y-139378946D01*
X114216522Y-139529348D01*
X114341697Y-139654305D01*
X114347927Y-139658145D01*
X114347928Y-139658146D01*
X114485090Y-139742694D01*
X114492262Y-139747115D01*
X114572005Y-139773564D01*
X114653611Y-139800632D01*
X114653613Y-139800632D01*
X114660139Y-139802797D01*
X114666975Y-139803497D01*
X114666978Y-139803498D01*
X114710031Y-139807909D01*
X114764600Y-139813500D01*
X115490400Y-139813500D01*
X115493646Y-139813163D01*
X115493650Y-139813163D01*
X115589308Y-139803238D01*
X115589312Y-139803237D01*
X115596166Y-139802526D01*
X115602702Y-139800345D01*
X115602704Y-139800345D01*
X115734806Y-139756272D01*
X115763946Y-139746550D01*
X115914348Y-139653478D01*
X115947884Y-139619884D01*
X116034134Y-139533483D01*
X116039305Y-139528303D01*
X116043146Y-139522072D01*
X116128275Y-139383968D01*
X116128276Y-139383966D01*
X116132115Y-139377738D01*
X116182113Y-139226998D01*
X116185632Y-139216389D01*
X116185632Y-139216387D01*
X116187797Y-139209861D01*
X116190994Y-139178658D01*
X116217835Y-139112931D01*
X116275950Y-139072148D01*
X116316338Y-139065500D01*
X116423959Y-139065500D01*
X116492952Y-139086068D01*
X116527382Y-139108598D01*
X116600159Y-139156222D01*
X116606763Y-139158678D01*
X116606765Y-139158679D01*
X116763558Y-139216990D01*
X116763560Y-139216990D01*
X116770168Y-139219448D01*
X116853995Y-139230633D01*
X116942980Y-139242507D01*
X116942984Y-139242507D01*
X116949961Y-139243438D01*
X116956972Y-139242800D01*
X116956976Y-139242800D01*
X117099459Y-139229832D01*
X117130600Y-139226998D01*
X117137302Y-139224820D01*
X117137304Y-139224820D01*
X117296409Y-139173124D01*
X117296412Y-139173123D01*
X117303108Y-139170947D01*
X117413064Y-139105400D01*
X117452860Y-139081677D01*
X117452862Y-139081676D01*
X117458912Y-139078069D01*
X117590266Y-138952982D01*
X117690643Y-138801902D01*
X117734338Y-138686876D01*
X117752555Y-138638920D01*
X117752556Y-138638918D01*
X117755055Y-138632338D01*
X117760684Y-138592287D01*
X117779748Y-138456639D01*
X117779748Y-138456636D01*
X117780299Y-138452717D01*
X117780616Y-138430000D01*
X117760397Y-138249745D01*
X117758080Y-138243091D01*
X117703064Y-138085106D01*
X117703062Y-138085103D01*
X117700745Y-138078448D01*
X117604626Y-137924624D01*
X117599664Y-137919627D01*
X117481778Y-137800915D01*
X117481774Y-137800912D01*
X117476815Y-137795918D01*
X117465697Y-137788862D01*
X117406587Y-137751350D01*
X117323666Y-137698727D01*
X117275301Y-137681505D01*
X117159425Y-137640243D01*
X117159420Y-137640242D01*
X117152790Y-137637881D01*
X117145802Y-137637048D01*
X117145799Y-137637047D01*
X117022698Y-137622368D01*
X116972680Y-137616404D01*
X116965677Y-137617140D01*
X116965676Y-137617140D01*
X116799288Y-137634628D01*
X116799286Y-137634629D01*
X116792288Y-137635364D01*
X116620579Y-137693818D01*
X116528880Y-137750232D01*
X116487292Y-137775817D01*
X116421270Y-137794500D01*
X116316243Y-137794500D01*
X116248122Y-137774498D01*
X116201629Y-137720842D01*
X116190916Y-137681505D01*
X116188771Y-137660832D01*
X116187526Y-137648834D01*
X116182787Y-137634628D01*
X116133868Y-137488002D01*
X116131550Y-137481054D01*
X116038478Y-137330652D01*
X115913303Y-137205695D01*
X115840662Y-137160918D01*
X115768968Y-137116725D01*
X115768966Y-137116724D01*
X115762738Y-137112885D01*
X115625924Y-137067506D01*
X115601389Y-137059368D01*
X115601387Y-137059368D01*
X115594861Y-137057203D01*
X115588025Y-137056503D01*
X115588022Y-137056502D01*
X115544969Y-137052091D01*
X115490400Y-137046500D01*
X114764600Y-137046500D01*
X114761354Y-137046837D01*
X114761350Y-137046837D01*
X114665692Y-137056762D01*
X114665688Y-137056763D01*
X114658834Y-137057474D01*
X114652298Y-137059655D01*
X114652296Y-137059655D01*
X114520194Y-137103728D01*
X114491054Y-137113450D01*
X114340652Y-137206522D01*
X114335479Y-137211704D01*
X114273839Y-137273451D01*
X114215695Y-137331697D01*
X114211855Y-137337927D01*
X114211854Y-137337928D01*
X114134247Y-137463830D01*
X114122885Y-137482262D01*
X114100070Y-137551047D01*
X114072104Y-137635364D01*
X114067203Y-137650139D01*
X114056500Y-137754600D01*
X114056500Y-139105400D01*
X113273500Y-139105400D01*
X113273500Y-137754600D01*
X113273163Y-137751350D01*
X113263238Y-137655692D01*
X113263237Y-137655688D01*
X113262526Y-137648834D01*
X113257787Y-137634628D01*
X113208868Y-137488002D01*
X113206550Y-137481054D01*
X113113478Y-137330652D01*
X112988303Y-137205695D01*
X112915662Y-137160918D01*
X112843968Y-137116725D01*
X112843966Y-137116724D01*
X112837738Y-137112885D01*
X112700924Y-137067506D01*
X112676389Y-137059368D01*
X112676387Y-137059368D01*
X112669861Y-137057203D01*
X112663025Y-137056503D01*
X112663022Y-137056502D01*
X112619969Y-137052091D01*
X112565400Y-137046500D01*
X111839600Y-137046500D01*
X111836354Y-137046837D01*
X111836350Y-137046837D01*
X111740692Y-137056762D01*
X111740688Y-137056763D01*
X111733834Y-137057474D01*
X111727298Y-137059655D01*
X111727296Y-137059655D01*
X111595194Y-137103728D01*
X111566054Y-137113450D01*
X111415652Y-137206522D01*
X111410479Y-137211704D01*
X111348839Y-137273451D01*
X111290695Y-137331697D01*
X111286854Y-137337928D01*
X111282317Y-137343673D01*
X111280077Y-137341904D01*
X111237022Y-137380654D01*
X111166951Y-137392079D01*
X111116417Y-137374306D01*
X110975329Y-137287339D01*
X110967153Y-137284627D01*
X110815366Y-137234281D01*
X110815364Y-137234281D01*
X110808835Y-137232115D01*
X110705231Y-137221500D01*
X110413766Y-137221500D01*
X110117770Y-137221501D01*
X110012871Y-137232384D01*
X110006340Y-137234563D01*
X110006335Y-137234564D01*
X109867836Y-137280771D01*
X109846474Y-137287898D01*
X109697311Y-137380203D01*
X109573383Y-137504347D01*
X109571386Y-137507587D01*
X109514648Y-137547814D01*
X109443725Y-137551047D01*
X109382313Y-137515422D01*
X109374934Y-137506922D01*
X109368218Y-137498448D01*
X109254521Y-137384949D01*
X109243110Y-137375937D01*
X109106346Y-137291635D01*
X109093168Y-137285491D01*
X108940260Y-137234773D01*
X108926894Y-137231907D01*
X108833399Y-137222328D01*
X108826984Y-137222000D01*
X108808615Y-137222000D01*
X108793376Y-137226475D01*
X108792171Y-137227865D01*
X108790500Y-137235548D01*
X108790500Y-139619884D01*
X108282500Y-139619884D01*
X108282500Y-138702115D01*
X108278025Y-138686876D01*
X108276635Y-138685671D01*
X108268952Y-138684000D01*
X107559116Y-138684000D01*
X107543877Y-138688475D01*
X107542672Y-138689865D01*
X107541001Y-138697548D01*
X107541001Y-138932933D01*
X103461148Y-138932933D01*
X103913259Y-138157885D01*
X107541000Y-138157885D01*
X107545475Y-138173124D01*
X107546865Y-138174329D01*
X107554548Y-138176000D01*
X108264385Y-138176000D01*
X108279624Y-138171525D01*
X108280829Y-138170135D01*
X108282500Y-138162452D01*
X108282500Y-137240116D01*
X108278025Y-137224877D01*
X108276635Y-137223672D01*
X108268952Y-137222001D01*
X108246067Y-137222001D01*
X108239548Y-137222338D01*
X108144830Y-137232166D01*
X108131436Y-137235058D01*
X107978635Y-137286036D01*
X107965457Y-137292210D01*
X107828851Y-137376744D01*
X107817450Y-137385780D01*
X107703949Y-137499479D01*
X107694937Y-137510890D01*
X107610635Y-137647654D01*
X107604491Y-137660832D01*
X107553773Y-137813740D01*
X107550907Y-137827106D01*
X107541328Y-137920601D01*
X107541000Y-137927016D01*
X107541000Y-138157885D01*
X103913259Y-138157885D01*
X111326342Y-125449743D01*
X111735053Y-124749095D01*
X137930001Y-124749095D01*
X137930338Y-124755614D01*
X137940257Y-124851206D01*
X137943149Y-124864600D01*
X137994588Y-125018784D01*
X138000761Y-125031962D01*
X138086063Y-125169807D01*
X138095099Y-125181208D01*
X138209829Y-125295739D01*
X138221240Y-125304751D01*
X138359243Y-125389816D01*
X138372424Y-125395963D01*
X138526710Y-125447138D01*
X138540086Y-125450005D01*
X138634438Y-125459672D01*
X138640854Y-125460000D01*
X138665885Y-125460000D01*
X138681124Y-125455525D01*
X138682329Y-125454135D01*
X138684000Y-125446452D01*
X138684000Y-124224115D01*
X138679525Y-124208876D01*
X138678135Y-124207671D01*
X138670452Y-124206000D01*
X137948116Y-124206000D01*
X137932877Y-124210475D01*
X137931672Y-124211865D01*
X137930001Y-124219548D01*
X137930001Y-124749095D01*
X111735053Y-124749095D01*
X112358759Y-123679885D01*
X137930000Y-123679885D01*
X137934475Y-123695124D01*
X137935865Y-123696329D01*
X137943548Y-123698000D01*
X138665885Y-123698000D01*
X138681124Y-123693525D01*
X138682329Y-123692135D01*
X138684000Y-123684452D01*
X138684000Y-122462116D01*
X138679525Y-122446877D01*
X138678135Y-122445672D01*
X138670452Y-122444001D01*
X138640905Y-122444001D01*
X138634386Y-122444338D01*
X138538794Y-122454257D01*
X138525400Y-122457149D01*
X138371216Y-122508588D01*
X138358038Y-122514761D01*
X138220193Y-122600063D01*
X138208792Y-122609099D01*
X138094261Y-122723829D01*
X138085249Y-122735240D01*
X138000184Y-122873243D01*
X137994037Y-122886424D01*
X137942862Y-123040710D01*
X137939995Y-123054086D01*
X137930328Y-123148438D01*
X137930000Y-123154855D01*
X137930000Y-123679885D01*
X112358759Y-123679885D01*
X115735553Y-117891095D01*
X137930001Y-117891095D01*
X137930338Y-117897614D01*
X137940257Y-117993206D01*
X137943149Y-118006600D01*
X137994588Y-118160784D01*
X138000761Y-118173962D01*
X138086063Y-118311807D01*
X138095099Y-118323208D01*
X138209829Y-118437739D01*
X138221240Y-118446751D01*
X138359243Y-118531816D01*
X138372424Y-118537963D01*
X138526710Y-118589138D01*
X138540086Y-118592005D01*
X138634438Y-118601672D01*
X138640854Y-118602000D01*
X138665885Y-118602000D01*
X138681124Y-118597525D01*
X138682329Y-118596135D01*
X138684000Y-118588452D01*
X138684000Y-117366115D01*
X138679525Y-117350876D01*
X138678135Y-117349671D01*
X138670452Y-117348000D01*
X137948116Y-117348000D01*
X137932877Y-117352475D01*
X137931672Y-117353865D01*
X137930001Y-117361548D01*
X137930001Y-117891095D01*
X115735553Y-117891095D01*
X116359259Y-116821885D01*
X137930000Y-116821885D01*
X137934475Y-116837124D01*
X137935865Y-116838329D01*
X137943548Y-116840000D01*
X138665885Y-116840000D01*
X138681124Y-116835525D01*
X138682329Y-116834135D01*
X138684000Y-116826452D01*
X138684000Y-115604116D01*
X138679525Y-115588877D01*
X138678135Y-115587672D01*
X138670452Y-115586001D01*
X138640905Y-115586001D01*
X138634386Y-115586338D01*
X138538794Y-115596257D01*
X138525400Y-115599149D01*
X138371216Y-115650588D01*
X138358038Y-115656761D01*
X138220193Y-115742063D01*
X138208792Y-115751099D01*
X138094261Y-115865829D01*
X138085249Y-115877240D01*
X138000184Y-116015243D01*
X137994037Y-116028424D01*
X137942862Y-116182710D01*
X137939995Y-116196086D01*
X137930328Y-116290438D01*
X137930000Y-116296855D01*
X137930000Y-116821885D01*
X116359259Y-116821885D01*
X118431288Y-113269836D01*
X118434360Y-113264843D01*
X118466352Y-113215485D01*
X118478554Y-113174683D01*
X118482533Y-113163370D01*
X118495187Y-113132218D01*
X118495188Y-113132214D01*
X118498564Y-113123903D01*
X118499839Y-113111364D01*
X118504474Y-113088011D01*
X118508086Y-113075934D01*
X118508346Y-113033338D01*
X118508990Y-113021366D01*
X118512391Y-112987923D01*
X118513299Y-112978993D01*
X118511004Y-112966602D01*
X118508899Y-112942885D01*
X118508921Y-112939255D01*
X118508976Y-112930279D01*
X118497269Y-112889318D01*
X118494529Y-112877656D01*
X118493410Y-112871611D01*
X118486771Y-112835772D01*
X118481089Y-112824520D01*
X118472411Y-112802344D01*
X118471416Y-112798861D01*
X118468949Y-112790229D01*
X118460590Y-112776980D01*
X118446222Y-112754207D01*
X118440312Y-112743771D01*
X118437603Y-112738406D01*
X118421113Y-112705752D01*
X118412499Y-112696545D01*
X118397946Y-112677696D01*
X118396014Y-112674634D01*
X118391224Y-112667042D01*
X118359301Y-112638849D01*
X118350698Y-112630489D01*
X118327734Y-112605943D01*
X118327732Y-112605941D01*
X118321600Y-112599387D01*
X118313875Y-112594818D01*
X118313872Y-112594815D01*
X118310751Y-112592969D01*
X118291493Y-112578963D01*
X118288777Y-112576564D01*
X118288776Y-112576563D01*
X118282049Y-112570622D01*
X118243494Y-112552520D01*
X118232896Y-112546914D01*
X118196235Y-112525227D01*
X118184021Y-112522112D01*
X118161607Y-112514074D01*
X118158329Y-112512535D01*
X118158325Y-112512534D01*
X118150200Y-112508719D01*
X118141333Y-112507338D01*
X118141332Y-112507338D01*
X118108111Y-112502165D01*
X118096364Y-112499758D01*
X118063788Y-112491451D01*
X118055094Y-112489234D01*
X118046129Y-112489546D01*
X118046128Y-112489546D01*
X117992177Y-112491424D01*
X117987794Y-112491500D01*
X106604688Y-112491500D01*
X106536567Y-112471498D01*
X106490074Y-112417842D01*
X106479970Y-112347568D01*
X106495852Y-112302012D01*
X109037482Y-107944933D01*
X116050001Y-107944933D01*
X116050338Y-107951452D01*
X116060166Y-108046170D01*
X116063058Y-108059564D01*
X116114036Y-108212365D01*
X116120210Y-108225543D01*
X116204744Y-108362149D01*
X116213780Y-108373550D01*
X116327479Y-108487051D01*
X116338890Y-108496063D01*
X116475654Y-108580365D01*
X116488832Y-108586509D01*
X116641740Y-108637227D01*
X116655106Y-108640093D01*
X116748601Y-108649672D01*
X116755016Y-108650000D01*
X116773385Y-108650000D01*
X116788624Y-108645525D01*
X116789829Y-108644135D01*
X116791500Y-108636452D01*
X116791500Y-108631884D01*
X117299500Y-108631884D01*
X117303975Y-108647123D01*
X117305365Y-108648328D01*
X117313048Y-108649999D01*
X117335933Y-108649999D01*
X117342452Y-108649662D01*
X117437170Y-108639834D01*
X117450564Y-108636942D01*
X117603365Y-108585964D01*
X117616543Y-108579790D01*
X117753149Y-108495256D01*
X117764550Y-108486220D01*
X117878051Y-108372521D01*
X117883794Y-108365249D01*
X117941711Y-108324186D01*
X118012634Y-108320954D01*
X118074046Y-108356579D01*
X118079840Y-108363254D01*
X118083203Y-108368689D01*
X118207347Y-108492617D01*
X118213577Y-108496457D01*
X118213578Y-108496458D01*
X118220747Y-108500877D01*
X118356671Y-108584661D01*
X118363619Y-108586966D01*
X118363620Y-108586966D01*
X118516634Y-108637719D01*
X118516636Y-108637719D01*
X118523165Y-108639885D01*
X118626769Y-108650500D01*
X118918234Y-108650500D01*
X119214230Y-108650499D01*
X119319129Y-108639616D01*
X119325660Y-108637437D01*
X119325665Y-108637436D01*
X119478578Y-108586420D01*
X119485526Y-108584102D01*
X119564680Y-108535120D01*
X119625286Y-108497616D01*
X119693738Y-108478778D01*
X119761508Y-108499939D01*
X119790904Y-108530356D01*
X119792125Y-108529388D01*
X119796668Y-108535120D01*
X119800522Y-108541348D01*
X119925697Y-108666305D01*
X119931927Y-108670145D01*
X119931928Y-108670146D01*
X120069090Y-108754694D01*
X120076262Y-108759115D01*
X120156005Y-108785564D01*
X120237611Y-108812632D01*
X120237613Y-108812632D01*
X120244139Y-108814797D01*
X120250975Y-108815497D01*
X120250978Y-108815498D01*
X120294031Y-108819909D01*
X120348600Y-108825500D01*
X121074400Y-108825500D01*
X121077646Y-108825163D01*
X121077650Y-108825163D01*
X121173308Y-108815238D01*
X121173312Y-108815237D01*
X121180166Y-108814526D01*
X121186702Y-108812345D01*
X121186704Y-108812345D01*
X121318806Y-108768272D01*
X121347946Y-108758550D01*
X121498348Y-108665478D01*
X121531884Y-108631884D01*
X121583887Y-108579790D01*
X121623305Y-108540303D01*
X121627146Y-108534072D01*
X121712275Y-108395968D01*
X121712276Y-108395966D01*
X121716115Y-108389738D01*
X121755045Y-108272366D01*
X121769632Y-108228389D01*
X121769632Y-108228387D01*
X121771797Y-108221861D01*
X121782500Y-108117400D01*
X122565500Y-108117400D01*
X122576474Y-108223166D01*
X122578655Y-108229702D01*
X122578655Y-108229704D01*
X122597410Y-108285920D01*
X122632450Y-108390946D01*
X122725522Y-108541348D01*
X122850697Y-108666305D01*
X122856927Y-108670145D01*
X122856928Y-108670146D01*
X122994090Y-108754694D01*
X123001262Y-108759115D01*
X123081005Y-108785564D01*
X123162611Y-108812632D01*
X123162613Y-108812632D01*
X123169139Y-108814797D01*
X123175975Y-108815497D01*
X123175978Y-108815498D01*
X123219031Y-108819909D01*
X123273600Y-108825500D01*
X123999400Y-108825500D01*
X124002646Y-108825163D01*
X124002650Y-108825163D01*
X124098308Y-108815238D01*
X124098312Y-108815237D01*
X124105166Y-108814526D01*
X124111702Y-108812345D01*
X124111704Y-108812345D01*
X124243806Y-108768272D01*
X124272946Y-108758550D01*
X124409534Y-108674026D01*
X124477987Y-108655188D01*
X124545757Y-108676349D01*
X124566470Y-108693638D01*
X124576382Y-108703902D01*
X124728159Y-108803222D01*
X124734763Y-108805678D01*
X124734765Y-108805679D01*
X124891558Y-108863990D01*
X124891560Y-108863990D01*
X124898168Y-108866448D01*
X124981995Y-108877633D01*
X125070980Y-108889507D01*
X125070984Y-108889507D01*
X125077961Y-108890438D01*
X125084972Y-108889800D01*
X125084976Y-108889800D01*
X125227459Y-108876832D01*
X125258600Y-108873998D01*
X125265302Y-108871820D01*
X125265304Y-108871820D01*
X125424409Y-108820124D01*
X125424412Y-108820123D01*
X125431108Y-108817947D01*
X125586912Y-108725069D01*
X125718266Y-108599982D01*
X125818643Y-108448902D01*
X125883055Y-108279338D01*
X125886066Y-108257912D01*
X125907748Y-108103639D01*
X125907748Y-108103636D01*
X125908299Y-108099717D01*
X125908616Y-108077000D01*
X125888397Y-107896745D01*
X125886080Y-107890091D01*
X125831064Y-107732106D01*
X125831062Y-107732103D01*
X125828745Y-107725448D01*
X125732626Y-107571624D01*
X125718941Y-107557843D01*
X125609778Y-107447915D01*
X125609774Y-107447912D01*
X125604815Y-107442918D01*
X125593697Y-107435862D01*
X125545538Y-107405300D01*
X125451666Y-107345727D01*
X125280790Y-107284881D01*
X125234219Y-107279328D01*
X125168945Y-107251401D01*
X125160042Y-107243309D01*
X124965250Y-107048517D01*
X124957674Y-107040191D01*
X124953553Y-107033697D01*
X124903734Y-106986914D01*
X124900893Y-106984160D01*
X124881094Y-106964361D01*
X124877969Y-106961937D01*
X124877960Y-106961929D01*
X124877874Y-106961863D01*
X124868849Y-106954155D01*
X124852782Y-106939067D01*
X124836506Y-106923783D01*
X124818669Y-106913977D01*
X124802153Y-106903127D01*
X124786067Y-106890650D01*
X124778786Y-106887499D01*
X124771968Y-106883467D01*
X124773358Y-106881116D01*
X124728888Y-106844116D01*
X124707500Y-106773885D01*
X124707500Y-106766600D01*
X124707163Y-106763350D01*
X124697238Y-106667692D01*
X124697237Y-106667688D01*
X124696526Y-106660834D01*
X124640550Y-106493054D01*
X124547478Y-106342652D01*
X124422303Y-106217695D01*
X124416072Y-106213854D01*
X124277968Y-106128725D01*
X124277966Y-106128724D01*
X124271738Y-106124885D01*
X124111254Y-106071655D01*
X124110389Y-106071368D01*
X124110387Y-106071368D01*
X124103861Y-106069203D01*
X124097025Y-106068503D01*
X124097022Y-106068502D01*
X124053969Y-106064091D01*
X123999400Y-106058500D01*
X123273600Y-106058500D01*
X123270354Y-106058837D01*
X123270350Y-106058837D01*
X123174692Y-106068762D01*
X123174688Y-106068763D01*
X123167834Y-106069474D01*
X123161298Y-106071655D01*
X123161296Y-106071655D01*
X123029194Y-106115728D01*
X123000054Y-106125450D01*
X122849652Y-106218522D01*
X122844479Y-106223704D01*
X122782839Y-106285451D01*
X122724695Y-106343697D01*
X122720855Y-106349927D01*
X122720854Y-106349928D01*
X122643247Y-106475830D01*
X122631885Y-106494262D01*
X122576203Y-106662139D01*
X122565500Y-106766600D01*
X122565500Y-108117400D01*
X121782500Y-108117400D01*
X121782500Y-106766600D01*
X121782163Y-106763350D01*
X121772238Y-106667692D01*
X121772237Y-106667688D01*
X121771526Y-106660834D01*
X121715550Y-106493054D01*
X121622478Y-106342652D01*
X121497303Y-106217695D01*
X121491072Y-106213854D01*
X121352968Y-106128725D01*
X121352966Y-106128724D01*
X121346738Y-106124885D01*
X121186254Y-106071655D01*
X121185389Y-106071368D01*
X121185387Y-106071368D01*
X121178861Y-106069203D01*
X121172025Y-106068503D01*
X121172022Y-106068502D01*
X121128969Y-106064091D01*
X121074400Y-106058500D01*
X120348600Y-106058500D01*
X120345354Y-106058837D01*
X120345350Y-106058837D01*
X120249692Y-106068762D01*
X120249688Y-106068763D01*
X120242834Y-106069474D01*
X120236298Y-106071655D01*
X120236296Y-106071655D01*
X120104194Y-106115728D01*
X120075054Y-106125450D01*
X119924652Y-106218522D01*
X119919479Y-106223704D01*
X119857839Y-106285451D01*
X119799695Y-106343697D01*
X119795854Y-106349928D01*
X119791317Y-106355673D01*
X119789077Y-106353904D01*
X119746022Y-106392654D01*
X119675951Y-106404079D01*
X119625417Y-106386306D01*
X119484329Y-106299339D01*
X119477380Y-106297034D01*
X119324366Y-106246281D01*
X119324364Y-106246281D01*
X119317835Y-106244115D01*
X119214231Y-106233500D01*
X118922766Y-106233500D01*
X118626770Y-106233501D01*
X118521871Y-106244384D01*
X118515340Y-106246563D01*
X118515335Y-106246564D01*
X118367189Y-106295990D01*
X118355474Y-106299898D01*
X118206311Y-106392203D01*
X118082383Y-106516347D01*
X118080386Y-106519587D01*
X118023648Y-106559814D01*
X117952725Y-106563047D01*
X117891313Y-106527422D01*
X117883934Y-106518922D01*
X117877218Y-106510448D01*
X117763521Y-106396949D01*
X117752110Y-106387937D01*
X117615346Y-106303635D01*
X117602168Y-106297491D01*
X117449260Y-106246773D01*
X117435894Y-106243907D01*
X117342399Y-106234328D01*
X117335984Y-106234000D01*
X117317615Y-106234000D01*
X117302376Y-106238475D01*
X117301171Y-106239865D01*
X117299500Y-106247548D01*
X117299500Y-108631884D01*
X116791500Y-108631884D01*
X116791500Y-107714115D01*
X116787025Y-107698876D01*
X116785635Y-107697671D01*
X116777952Y-107696000D01*
X116068116Y-107696000D01*
X116052877Y-107700475D01*
X116051672Y-107701865D01*
X116050001Y-107709548D01*
X116050001Y-107944933D01*
X109037482Y-107944933D01*
X109489593Y-107169885D01*
X116050000Y-107169885D01*
X116054475Y-107185124D01*
X116055865Y-107186329D01*
X116063548Y-107188000D01*
X116773385Y-107188000D01*
X116788624Y-107183525D01*
X116789829Y-107182135D01*
X116791500Y-107174452D01*
X116791500Y-106252116D01*
X116787025Y-106236877D01*
X116785635Y-106235672D01*
X116777952Y-106234001D01*
X116755067Y-106234001D01*
X116748548Y-106234338D01*
X116653830Y-106244166D01*
X116640436Y-106247058D01*
X116487635Y-106298036D01*
X116474457Y-106304210D01*
X116337851Y-106388744D01*
X116326450Y-106397780D01*
X116212949Y-106511479D01*
X116203937Y-106522890D01*
X116119635Y-106659654D01*
X116113491Y-106672832D01*
X116062773Y-106825740D01*
X116059907Y-106839106D01*
X116050328Y-106932601D01*
X116050000Y-106939016D01*
X116050000Y-107169885D01*
X109489593Y-107169885D01*
X113679375Y-99987400D01*
X141104500Y-99987400D01*
X141104837Y-99990646D01*
X141104837Y-99990650D01*
X141108614Y-100027047D01*
X141115474Y-100093166D01*
X141171450Y-100260946D01*
X141264522Y-100411348D01*
X141389697Y-100536305D01*
X141395927Y-100540145D01*
X141395928Y-100540146D01*
X141533090Y-100624694D01*
X141540262Y-100629115D01*
X141620005Y-100655564D01*
X141701611Y-100682632D01*
X141701613Y-100682632D01*
X141708139Y-100684797D01*
X141714975Y-100685497D01*
X141714978Y-100685498D01*
X141758031Y-100689909D01*
X141812600Y-100695500D01*
X142413400Y-100695500D01*
X142416646Y-100695163D01*
X142416650Y-100695163D01*
X142512308Y-100685238D01*
X142512312Y-100685237D01*
X142519166Y-100684526D01*
X142525702Y-100682345D01*
X142525704Y-100682345D01*
X142657806Y-100638272D01*
X142686946Y-100628550D01*
X142837348Y-100535478D01*
X142962305Y-100410303D01*
X143055115Y-100259738D01*
X143110797Y-100091861D01*
X143111159Y-100088330D01*
X143144383Y-100027047D01*
X143206592Y-99992835D01*
X143222305Y-99990395D01*
X143292600Y-99983998D01*
X143299302Y-99981820D01*
X143299304Y-99981820D01*
X143458409Y-99930124D01*
X143458412Y-99930123D01*
X143465108Y-99927947D01*
X143620912Y-99835069D01*
X143752266Y-99709982D01*
X143852643Y-99558902D01*
X143917055Y-99389338D01*
X143942299Y-99209717D01*
X143942616Y-99187000D01*
X143922397Y-99006745D01*
X143862745Y-98835448D01*
X143766626Y-98681624D01*
X143761664Y-98676627D01*
X143643778Y-98557915D01*
X143643774Y-98557912D01*
X143638815Y-98552918D01*
X143485666Y-98455727D01*
X143456463Y-98445328D01*
X143321425Y-98397243D01*
X143321420Y-98397242D01*
X143314790Y-98394881D01*
X143307804Y-98394048D01*
X143307800Y-98394047D01*
X143253835Y-98387613D01*
X143218882Y-98383445D01*
X143153610Y-98355518D01*
X143113797Y-98296735D01*
X143111148Y-98286825D01*
X143110526Y-98280834D01*
X143054550Y-98113054D01*
X142961478Y-97962652D01*
X142836303Y-97837695D01*
X142830072Y-97833854D01*
X142691968Y-97748725D01*
X142691966Y-97748724D01*
X142685738Y-97744885D01*
X142525254Y-97691655D01*
X142524389Y-97691368D01*
X142524387Y-97691368D01*
X142517861Y-97689203D01*
X142511025Y-97688503D01*
X142511022Y-97688502D01*
X142467969Y-97684091D01*
X142413400Y-97678500D01*
X141812600Y-97678500D01*
X141809354Y-97678837D01*
X141809350Y-97678837D01*
X141713692Y-97688762D01*
X141713688Y-97688763D01*
X141706834Y-97689474D01*
X141700298Y-97691655D01*
X141700296Y-97691655D01*
X141568194Y-97735728D01*
X141539054Y-97745450D01*
X141388652Y-97838522D01*
X141263695Y-97963697D01*
X141170885Y-98114262D01*
X141115203Y-98282139D01*
X141114503Y-98288975D01*
X141114502Y-98288978D01*
X141110091Y-98332031D01*
X141104500Y-98386600D01*
X141104500Y-99987400D01*
X113679375Y-99987400D01*
X114985269Y-97748725D01*
X115901875Y-96177400D01*
X141104500Y-96177400D01*
X141104837Y-96180646D01*
X141104837Y-96180650D01*
X141114629Y-96275021D01*
X141115474Y-96283166D01*
X141171450Y-96450946D01*
X141264522Y-96601348D01*
X141389697Y-96726305D01*
X141395927Y-96730145D01*
X141395928Y-96730146D01*
X141533090Y-96814694D01*
X141540262Y-96819115D01*
X141620005Y-96845564D01*
X141701611Y-96872632D01*
X141701613Y-96872632D01*
X141708139Y-96874797D01*
X141714975Y-96875497D01*
X141714978Y-96875498D01*
X141758031Y-96879909D01*
X141812600Y-96885500D01*
X142413400Y-96885500D01*
X142416646Y-96885163D01*
X142416650Y-96885163D01*
X142512308Y-96875238D01*
X142512312Y-96875237D01*
X142519166Y-96874526D01*
X142525702Y-96872345D01*
X142525704Y-96872345D01*
X142657806Y-96828272D01*
X142686946Y-96818550D01*
X142837348Y-96725478D01*
X142962305Y-96600303D01*
X143055115Y-96449738D01*
X143110797Y-96281861D01*
X143111978Y-96270335D01*
X143138820Y-96204608D01*
X143198385Y-96163345D01*
X143249132Y-96146857D01*
X143331409Y-96120124D01*
X143331412Y-96120123D01*
X143338108Y-96117947D01*
X143493912Y-96025069D01*
X143625266Y-95899982D01*
X143725643Y-95748902D01*
X143790055Y-95579338D01*
X143815299Y-95399717D01*
X143815616Y-95377000D01*
X143795397Y-95196745D01*
X143735745Y-95025448D01*
X143639626Y-94871624D01*
X143634664Y-94866627D01*
X143516778Y-94747915D01*
X143516774Y-94747912D01*
X143511815Y-94742918D01*
X143358666Y-94645727D01*
X143318833Y-94631543D01*
X143194708Y-94587344D01*
X143137244Y-94545650D01*
X143112754Y-94484414D01*
X143112692Y-94484427D01*
X143112612Y-94484059D01*
X143111648Y-94481647D01*
X143111238Y-94477693D01*
X143111237Y-94477690D01*
X143110526Y-94470834D01*
X143054550Y-94303054D01*
X142961478Y-94152652D01*
X142836303Y-94027695D01*
X142830072Y-94023854D01*
X142691968Y-93938725D01*
X142691966Y-93938724D01*
X142685738Y-93934885D01*
X142525254Y-93881655D01*
X142524389Y-93881368D01*
X142524387Y-93881368D01*
X142517861Y-93879203D01*
X142511025Y-93878503D01*
X142511022Y-93878502D01*
X142467969Y-93874091D01*
X142413400Y-93868500D01*
X141812600Y-93868500D01*
X141809354Y-93868837D01*
X141809350Y-93868837D01*
X141713692Y-93878762D01*
X141713688Y-93878763D01*
X141706834Y-93879474D01*
X141700298Y-93881655D01*
X141700296Y-93881655D01*
X141568194Y-93925728D01*
X141539054Y-93935450D01*
X141388652Y-94028522D01*
X141263695Y-94153697D01*
X141170885Y-94304262D01*
X141115203Y-94472139D01*
X141114503Y-94478975D01*
X141114502Y-94478978D01*
X141113945Y-94484414D01*
X141104500Y-94576600D01*
X141104500Y-96177400D01*
X115901875Y-96177400D01*
X118124376Y-92367400D01*
X141104500Y-92367400D01*
X141104837Y-92370646D01*
X141104837Y-92370650D01*
X141114629Y-92465021D01*
X141115474Y-92473166D01*
X141171450Y-92640946D01*
X141264522Y-92791348D01*
X141389697Y-92916305D01*
X141395927Y-92920145D01*
X141395928Y-92920146D01*
X141533090Y-93004694D01*
X141540262Y-93009115D01*
X141620005Y-93035564D01*
X141701611Y-93062632D01*
X141701613Y-93062632D01*
X141708139Y-93064797D01*
X141714975Y-93065497D01*
X141714978Y-93065498D01*
X141758031Y-93069909D01*
X141812600Y-93075500D01*
X142413400Y-93075500D01*
X142416646Y-93075163D01*
X142416650Y-93075163D01*
X142512308Y-93065238D01*
X142512312Y-93065237D01*
X142519166Y-93064526D01*
X142525702Y-93062345D01*
X142525704Y-93062345D01*
X142657806Y-93018272D01*
X142686946Y-93008550D01*
X142837348Y-92915478D01*
X142962305Y-92790303D01*
X143055115Y-92639738D01*
X143110797Y-92471861D01*
X143111978Y-92460335D01*
X143138820Y-92394608D01*
X143198385Y-92353345D01*
X143249132Y-92336857D01*
X143331409Y-92310124D01*
X143331412Y-92310123D01*
X143338108Y-92307947D01*
X143493912Y-92215069D01*
X143625266Y-92089982D01*
X143725643Y-91938902D01*
X143790055Y-91769338D01*
X143815299Y-91589717D01*
X143815616Y-91567000D01*
X143795397Y-91386745D01*
X143735745Y-91215448D01*
X143639626Y-91061624D01*
X143634664Y-91056627D01*
X143516778Y-90937915D01*
X143516774Y-90937912D01*
X143511815Y-90932918D01*
X143358666Y-90835727D01*
X143318833Y-90821543D01*
X143194708Y-90777344D01*
X143137244Y-90735650D01*
X143112754Y-90674414D01*
X143112692Y-90674427D01*
X143112612Y-90674059D01*
X143111648Y-90671647D01*
X143111238Y-90667693D01*
X143111237Y-90667690D01*
X143110526Y-90660834D01*
X143054550Y-90493054D01*
X142961478Y-90342652D01*
X142836303Y-90217695D01*
X142830072Y-90213854D01*
X142691968Y-90128725D01*
X142691966Y-90128724D01*
X142685738Y-90124885D01*
X142525254Y-90071655D01*
X142524389Y-90071368D01*
X142524387Y-90071368D01*
X142517861Y-90069203D01*
X142511025Y-90068503D01*
X142511022Y-90068502D01*
X142467969Y-90064091D01*
X142413400Y-90058500D01*
X141812600Y-90058500D01*
X141809354Y-90058837D01*
X141809350Y-90058837D01*
X141713692Y-90068762D01*
X141713688Y-90068763D01*
X141706834Y-90069474D01*
X141700298Y-90071655D01*
X141700296Y-90071655D01*
X141568194Y-90115728D01*
X141539054Y-90125450D01*
X141388652Y-90218522D01*
X141263695Y-90343697D01*
X141170885Y-90494262D01*
X141115203Y-90662139D01*
X141114503Y-90668975D01*
X141114502Y-90668978D01*
X141113945Y-90674414D01*
X141104500Y-90766600D01*
X141104500Y-92367400D01*
X118124376Y-92367400D01*
X120346876Y-88557400D01*
X141104500Y-88557400D01*
X141104837Y-88560646D01*
X141104837Y-88560650D01*
X141114629Y-88655021D01*
X141115474Y-88663166D01*
X141171450Y-88830946D01*
X141264522Y-88981348D01*
X141389697Y-89106305D01*
X141395927Y-89110145D01*
X141395928Y-89110146D01*
X141533090Y-89194694D01*
X141540262Y-89199115D01*
X141620005Y-89225564D01*
X141701611Y-89252632D01*
X141701613Y-89252632D01*
X141708139Y-89254797D01*
X141714975Y-89255497D01*
X141714978Y-89255498D01*
X141758031Y-89259909D01*
X141812600Y-89265500D01*
X142413400Y-89265500D01*
X142416646Y-89265163D01*
X142416650Y-89265163D01*
X142512308Y-89255238D01*
X142512312Y-89255237D01*
X142519166Y-89254526D01*
X142525702Y-89252345D01*
X142525704Y-89252345D01*
X142657806Y-89208272D01*
X142686946Y-89198550D01*
X142837348Y-89105478D01*
X142962305Y-88980303D01*
X143055115Y-88829738D01*
X143110797Y-88661861D01*
X143111978Y-88650335D01*
X143138820Y-88584608D01*
X143198385Y-88543345D01*
X143249132Y-88526857D01*
X143331409Y-88500124D01*
X143331412Y-88500123D01*
X143338108Y-88497947D01*
X143493912Y-88405069D01*
X143625266Y-88279982D01*
X143725643Y-88128902D01*
X143790055Y-87959338D01*
X143815299Y-87779717D01*
X143815616Y-87757000D01*
X143795397Y-87576745D01*
X143735745Y-87405448D01*
X143639626Y-87251624D01*
X143634664Y-87246627D01*
X143516778Y-87127915D01*
X143516774Y-87127912D01*
X143511815Y-87122918D01*
X143358666Y-87025727D01*
X143318833Y-87011543D01*
X143194708Y-86967344D01*
X143137244Y-86925650D01*
X143112754Y-86864414D01*
X143112692Y-86864427D01*
X143112612Y-86864059D01*
X143111648Y-86861647D01*
X143111238Y-86857693D01*
X143111237Y-86857690D01*
X143110526Y-86850834D01*
X143054550Y-86683054D01*
X142961478Y-86532652D01*
X142836303Y-86407695D01*
X142830072Y-86403854D01*
X142691968Y-86318725D01*
X142691966Y-86318724D01*
X142685738Y-86314885D01*
X142525254Y-86261655D01*
X142524389Y-86261368D01*
X142524387Y-86261368D01*
X142517861Y-86259203D01*
X142511025Y-86258503D01*
X142511022Y-86258502D01*
X142467969Y-86254091D01*
X142413400Y-86248500D01*
X141812600Y-86248500D01*
X141809354Y-86248837D01*
X141809350Y-86248837D01*
X141713692Y-86258762D01*
X141713688Y-86258763D01*
X141706834Y-86259474D01*
X141700298Y-86261655D01*
X141700296Y-86261655D01*
X141568194Y-86305728D01*
X141539054Y-86315450D01*
X141388652Y-86408522D01*
X141263695Y-86533697D01*
X141170885Y-86684262D01*
X141115203Y-86852139D01*
X141114503Y-86858975D01*
X141114502Y-86858978D01*
X141113945Y-86864414D01*
X141104500Y-86956600D01*
X141104500Y-88557400D01*
X120346876Y-88557400D01*
X122571303Y-84744095D01*
X141105001Y-84744095D01*
X141105338Y-84750614D01*
X141115257Y-84846206D01*
X141118149Y-84859600D01*
X141169588Y-85013784D01*
X141175761Y-85026962D01*
X141261063Y-85164807D01*
X141270099Y-85176208D01*
X141384829Y-85290739D01*
X141396240Y-85299751D01*
X141534243Y-85384816D01*
X141547424Y-85390963D01*
X141701710Y-85442138D01*
X141715086Y-85445005D01*
X141809438Y-85454672D01*
X141815854Y-85455000D01*
X141840885Y-85455000D01*
X141856124Y-85450525D01*
X141857329Y-85449135D01*
X141859000Y-85441452D01*
X141859000Y-85436884D01*
X142367000Y-85436884D01*
X142371475Y-85452123D01*
X142372865Y-85453328D01*
X142380548Y-85454999D01*
X142410095Y-85454999D01*
X142416614Y-85454662D01*
X142512206Y-85444743D01*
X142525600Y-85441851D01*
X142679784Y-85390412D01*
X142692962Y-85384239D01*
X142830807Y-85298937D01*
X142842208Y-85289901D01*
X142956739Y-85175171D01*
X142965751Y-85163760D01*
X143050816Y-85025757D01*
X143056963Y-85012576D01*
X143108138Y-84858290D01*
X143111005Y-84844914D01*
X143120672Y-84750562D01*
X143121000Y-84744146D01*
X143121000Y-84219115D01*
X143116525Y-84203876D01*
X143115135Y-84202671D01*
X143107452Y-84201000D01*
X142385115Y-84201000D01*
X142369876Y-84205475D01*
X142368671Y-84206865D01*
X142367000Y-84214548D01*
X142367000Y-85436884D01*
X141859000Y-85436884D01*
X141859000Y-84219115D01*
X141854525Y-84203876D01*
X141853135Y-84202671D01*
X141845452Y-84201000D01*
X141123116Y-84201000D01*
X141107877Y-84205475D01*
X141106672Y-84206865D01*
X141105001Y-84214548D01*
X141105001Y-84744095D01*
X122571303Y-84744095D01*
X123195009Y-83674885D01*
X141105000Y-83674885D01*
X141109475Y-83690124D01*
X141110865Y-83691329D01*
X141118548Y-83693000D01*
X141840885Y-83693000D01*
X141856124Y-83688525D01*
X141857329Y-83687135D01*
X141859000Y-83679452D01*
X141859000Y-83674885D01*
X142367000Y-83674885D01*
X142371475Y-83690124D01*
X142372865Y-83691329D01*
X142380548Y-83693000D01*
X143102884Y-83693000D01*
X143118123Y-83688525D01*
X143119328Y-83687135D01*
X143120999Y-83679452D01*
X143120999Y-83149905D01*
X143120662Y-83143386D01*
X143110743Y-83047794D01*
X143107851Y-83034400D01*
X143056412Y-82880216D01*
X143050239Y-82867038D01*
X142964937Y-82729193D01*
X142955901Y-82717792D01*
X142841171Y-82603261D01*
X142829760Y-82594249D01*
X142691757Y-82509184D01*
X142678576Y-82503037D01*
X142524290Y-82451862D01*
X142510914Y-82448995D01*
X142416562Y-82439328D01*
X142410145Y-82439000D01*
X142385115Y-82439000D01*
X142369876Y-82443475D01*
X142368671Y-82444865D01*
X142367000Y-82452548D01*
X142367000Y-83674885D01*
X141859000Y-83674885D01*
X141859000Y-82457116D01*
X141854525Y-82441877D01*
X141853135Y-82440672D01*
X141845452Y-82439001D01*
X141815905Y-82439001D01*
X141809386Y-82439338D01*
X141713794Y-82449257D01*
X141700400Y-82452149D01*
X141546216Y-82503588D01*
X141533038Y-82509761D01*
X141395193Y-82595063D01*
X141383792Y-82604099D01*
X141269261Y-82718829D01*
X141260249Y-82730240D01*
X141175184Y-82868243D01*
X141169037Y-82881424D01*
X141117862Y-83035710D01*
X141114995Y-83049086D01*
X141105328Y-83143438D01*
X141105000Y-83149855D01*
X141105000Y-83674885D01*
X123195009Y-83674885D01*
X123431288Y-83269836D01*
X123434360Y-83264843D01*
X123466352Y-83215485D01*
X123478554Y-83174683D01*
X123482533Y-83163370D01*
X123495187Y-83132218D01*
X123495188Y-83132214D01*
X123498564Y-83123903D01*
X123499839Y-83111364D01*
X123504474Y-83088011D01*
X123508086Y-83075934D01*
X123508346Y-83033338D01*
X123508990Y-83021366D01*
X123512391Y-82987923D01*
X123513299Y-82978993D01*
X123511004Y-82966602D01*
X123508899Y-82942885D01*
X123508921Y-82939255D01*
X123508976Y-82930279D01*
X123497269Y-82889318D01*
X123494529Y-82877656D01*
X123493410Y-82871611D01*
X123486771Y-82835772D01*
X123481089Y-82824520D01*
X123472411Y-82802344D01*
X123471416Y-82798861D01*
X123468949Y-82790229D01*
X123460136Y-82776261D01*
X123446222Y-82754207D01*
X123440312Y-82743771D01*
X123432950Y-82729193D01*
X123421113Y-82705752D01*
X123412499Y-82696545D01*
X123397946Y-82677696D01*
X123396014Y-82674634D01*
X123391224Y-82667042D01*
X123359301Y-82638849D01*
X123350698Y-82630489D01*
X123327734Y-82605943D01*
X123327732Y-82605941D01*
X123321600Y-82599387D01*
X123313875Y-82594818D01*
X123313872Y-82594815D01*
X123310751Y-82592969D01*
X123291493Y-82578963D01*
X123288777Y-82576564D01*
X123288776Y-82576563D01*
X123282049Y-82570622D01*
X123243494Y-82552520D01*
X123232896Y-82546914D01*
X123196235Y-82525227D01*
X123184021Y-82522112D01*
X123161607Y-82514074D01*
X123158329Y-82512535D01*
X123158325Y-82512534D01*
X123150200Y-82508719D01*
X123141333Y-82507338D01*
X123141332Y-82507338D01*
X123108111Y-82502165D01*
X123096364Y-82499758D01*
X123063788Y-82491451D01*
X123055094Y-82489234D01*
X123046129Y-82489546D01*
X123046128Y-82489546D01*
X122992177Y-82491424D01*
X122987794Y-82491500D01*
X112022874Y-82491500D01*
X111954753Y-82471498D01*
X111908260Y-82417842D01*
X111898156Y-82347568D01*
X111927650Y-82282988D01*
X111933410Y-82276775D01*
X113752588Y-80442438D01*
X114690279Y-79496933D01*
X118209001Y-79496933D01*
X118209338Y-79503452D01*
X118219166Y-79598170D01*
X118222058Y-79611564D01*
X118273036Y-79764365D01*
X118279210Y-79777543D01*
X118363744Y-79914149D01*
X118372780Y-79925550D01*
X118486479Y-80039051D01*
X118497890Y-80048063D01*
X118634654Y-80132365D01*
X118647832Y-80138509D01*
X118800740Y-80189227D01*
X118814106Y-80192093D01*
X118907601Y-80201672D01*
X118914016Y-80202000D01*
X118932385Y-80202000D01*
X118947624Y-80197525D01*
X118948829Y-80196135D01*
X118950500Y-80188452D01*
X118950500Y-80183884D01*
X119458500Y-80183884D01*
X119462975Y-80199123D01*
X119464365Y-80200328D01*
X119472048Y-80201999D01*
X119494933Y-80201999D01*
X119501452Y-80201662D01*
X119596170Y-80191834D01*
X119609564Y-80188942D01*
X119762365Y-80137964D01*
X119775543Y-80131790D01*
X119912149Y-80047256D01*
X119923550Y-80038220D01*
X120037051Y-79924521D01*
X120042794Y-79917249D01*
X120100711Y-79876186D01*
X120171634Y-79872954D01*
X120233046Y-79908579D01*
X120238840Y-79915254D01*
X120242203Y-79920689D01*
X120366347Y-80044617D01*
X120372577Y-80048457D01*
X120372578Y-80048458D01*
X120405986Y-80069051D01*
X120515671Y-80136661D01*
X120522619Y-80138966D01*
X120522620Y-80138966D01*
X120675634Y-80189719D01*
X120675636Y-80189719D01*
X120682165Y-80191885D01*
X120785769Y-80202500D01*
X121077234Y-80202500D01*
X121373230Y-80202499D01*
X121478129Y-80191616D01*
X121484660Y-80189437D01*
X121484665Y-80189436D01*
X121637578Y-80138420D01*
X121644526Y-80136102D01*
X121725369Y-80086075D01*
X121784286Y-80049616D01*
X121852738Y-80030778D01*
X121920508Y-80051939D01*
X121949904Y-80082356D01*
X121951125Y-80081388D01*
X121955668Y-80087120D01*
X121959522Y-80093348D01*
X122084697Y-80218305D01*
X122090927Y-80222145D01*
X122090928Y-80222146D01*
X122228090Y-80306694D01*
X122235262Y-80311115D01*
X122315005Y-80337564D01*
X122396611Y-80364632D01*
X122396613Y-80364632D01*
X122403139Y-80366797D01*
X122409975Y-80367497D01*
X122409978Y-80367498D01*
X122453031Y-80371909D01*
X122507600Y-80377500D01*
X123233400Y-80377500D01*
X123236646Y-80377163D01*
X123236650Y-80377163D01*
X123332308Y-80367238D01*
X123332312Y-80367237D01*
X123339166Y-80366526D01*
X123345702Y-80364345D01*
X123345704Y-80364345D01*
X123477806Y-80320272D01*
X123506946Y-80310550D01*
X123657348Y-80217478D01*
X123690884Y-80183884D01*
X123742887Y-80131790D01*
X123782305Y-80092303D01*
X123787569Y-80083763D01*
X123871275Y-79947968D01*
X123871276Y-79947966D01*
X123875115Y-79941738D01*
X123914045Y-79824366D01*
X123928632Y-79780389D01*
X123928632Y-79780387D01*
X123930797Y-79773861D01*
X123941500Y-79669400D01*
X124724500Y-79669400D01*
X124735474Y-79775166D01*
X124737655Y-79781702D01*
X124737655Y-79781704D01*
X124756410Y-79837920D01*
X124791450Y-79942946D01*
X124884522Y-80093348D01*
X125009697Y-80218305D01*
X125015927Y-80222145D01*
X125015928Y-80222146D01*
X125153090Y-80306694D01*
X125160262Y-80311115D01*
X125240005Y-80337564D01*
X125321611Y-80364632D01*
X125321613Y-80364632D01*
X125328139Y-80366797D01*
X125334975Y-80367497D01*
X125334978Y-80367498D01*
X125378031Y-80371909D01*
X125432600Y-80377500D01*
X126158400Y-80377500D01*
X126161646Y-80377163D01*
X126161650Y-80377163D01*
X126257308Y-80367238D01*
X126257312Y-80367237D01*
X126264166Y-80366526D01*
X126270702Y-80364345D01*
X126270704Y-80364345D01*
X126402806Y-80320272D01*
X126431946Y-80310550D01*
X126582348Y-80217478D01*
X126597800Y-80201999D01*
X126615162Y-80184607D01*
X126677445Y-80150528D01*
X126748265Y-80155531D01*
X126794971Y-80186097D01*
X126820272Y-80212296D01*
X126862382Y-80255902D01*
X127014159Y-80355222D01*
X127020763Y-80357678D01*
X127020765Y-80357679D01*
X127177558Y-80415990D01*
X127177560Y-80415990D01*
X127184168Y-80418448D01*
X127267995Y-80429633D01*
X127356980Y-80441507D01*
X127356984Y-80441507D01*
X127363961Y-80442438D01*
X127370972Y-80441800D01*
X127370976Y-80441800D01*
X127513459Y-80428832D01*
X127544600Y-80425998D01*
X127551302Y-80423820D01*
X127551304Y-80423820D01*
X127710409Y-80372124D01*
X127710412Y-80372123D01*
X127717108Y-80369947D01*
X127872912Y-80277069D01*
X128004266Y-80151982D01*
X128104643Y-80000902D01*
X128169055Y-79831338D01*
X128170035Y-79824366D01*
X128193748Y-79655639D01*
X128193748Y-79655636D01*
X128194299Y-79651717D01*
X128194616Y-79629000D01*
X128193342Y-79617640D01*
X150824463Y-79617640D01*
X150842163Y-79798160D01*
X150899418Y-79970273D01*
X150903065Y-79976295D01*
X150903066Y-79976297D01*
X150969550Y-80086075D01*
X150993380Y-80125424D01*
X150998269Y-80130487D01*
X150998270Y-80130488D01*
X151050533Y-80184607D01*
X151119382Y-80255902D01*
X151271159Y-80355222D01*
X151277763Y-80357678D01*
X151277765Y-80357679D01*
X151434558Y-80415990D01*
X151434560Y-80415990D01*
X151441168Y-80418448D01*
X151524995Y-80429633D01*
X151613980Y-80441507D01*
X151613984Y-80441507D01*
X151620961Y-80442438D01*
X151627972Y-80441800D01*
X151627976Y-80441800D01*
X151770459Y-80428832D01*
X151801600Y-80425998D01*
X151808302Y-80423820D01*
X151808304Y-80423820D01*
X151967409Y-80372124D01*
X151967412Y-80372123D01*
X151974108Y-80369947D01*
X152129912Y-80277069D01*
X152135018Y-80272207D01*
X152228593Y-80183097D01*
X152291718Y-80150604D01*
X152362388Y-80157397D01*
X152404503Y-80185169D01*
X152432516Y-80213134D01*
X152432521Y-80213138D01*
X152437697Y-80218305D01*
X152443927Y-80222145D01*
X152443928Y-80222146D01*
X152581090Y-80306694D01*
X152588262Y-80311115D01*
X152668005Y-80337564D01*
X152749611Y-80364632D01*
X152749613Y-80364632D01*
X152756139Y-80366797D01*
X152762975Y-80367497D01*
X152762978Y-80367498D01*
X152806031Y-80371909D01*
X152860600Y-80377500D01*
X153586400Y-80377500D01*
X153589646Y-80377163D01*
X153589650Y-80377163D01*
X153685308Y-80367238D01*
X153685312Y-80367237D01*
X153692166Y-80366526D01*
X153698702Y-80364345D01*
X153698704Y-80364345D01*
X153830806Y-80320272D01*
X153859946Y-80310550D01*
X154010348Y-80217478D01*
X154043884Y-80183884D01*
X154095887Y-80131790D01*
X154135305Y-80092303D01*
X154140569Y-80083763D01*
X154224275Y-79947968D01*
X154224276Y-79947966D01*
X154228115Y-79941738D01*
X154267045Y-79824366D01*
X154281632Y-79780389D01*
X154281632Y-79780387D01*
X154283797Y-79773861D01*
X154294500Y-79669400D01*
X155077500Y-79669400D01*
X155088474Y-79775166D01*
X155090655Y-79781702D01*
X155090655Y-79781704D01*
X155109410Y-79837920D01*
X155144450Y-79942946D01*
X155237522Y-80093348D01*
X155362697Y-80218305D01*
X155368927Y-80222145D01*
X155368928Y-80222146D01*
X155506090Y-80306694D01*
X155513262Y-80311115D01*
X155593005Y-80337564D01*
X155674611Y-80364632D01*
X155674613Y-80364632D01*
X155681139Y-80366797D01*
X155687975Y-80367497D01*
X155687978Y-80367498D01*
X155731031Y-80371909D01*
X155785600Y-80377500D01*
X156511400Y-80377500D01*
X156514646Y-80377163D01*
X156514650Y-80377163D01*
X156610308Y-80367238D01*
X156610312Y-80367237D01*
X156617166Y-80366526D01*
X156623702Y-80364345D01*
X156623704Y-80364345D01*
X156755806Y-80320272D01*
X156784946Y-80310550D01*
X156935348Y-80217478D01*
X156968884Y-80183884D01*
X157020887Y-80131790D01*
X157060305Y-80092303D01*
X157076662Y-80065767D01*
X157129434Y-80018275D01*
X157199506Y-80006853D01*
X157264629Y-80035127D01*
X157267393Y-80037650D01*
X157269667Y-80039446D01*
X157274847Y-80044617D01*
X157281077Y-80048457D01*
X157281078Y-80048458D01*
X157314486Y-80069051D01*
X157424171Y-80136661D01*
X157431119Y-80138966D01*
X157431120Y-80138966D01*
X157584134Y-80189719D01*
X157584136Y-80189719D01*
X157590665Y-80191885D01*
X157694269Y-80202500D01*
X157985734Y-80202500D01*
X158281730Y-80202499D01*
X158386629Y-80191616D01*
X158393160Y-80189437D01*
X158393165Y-80189436D01*
X158546078Y-80138420D01*
X158553026Y-80136102D01*
X158702189Y-80043797D01*
X158826117Y-79919653D01*
X158828114Y-79916413D01*
X158884852Y-79876186D01*
X158955775Y-79872953D01*
X159017187Y-79908578D01*
X159024566Y-79917078D01*
X159031282Y-79925552D01*
X159144979Y-80039051D01*
X159156390Y-80048063D01*
X159293154Y-80132365D01*
X159306332Y-80138509D01*
X159459240Y-80189227D01*
X159472606Y-80192093D01*
X159566101Y-80201672D01*
X159572516Y-80202000D01*
X159590885Y-80202000D01*
X159606124Y-80197525D01*
X159607329Y-80196135D01*
X159609000Y-80188452D01*
X159609000Y-80183884D01*
X160117000Y-80183884D01*
X160121475Y-80199123D01*
X160122865Y-80200328D01*
X160130548Y-80201999D01*
X160153433Y-80201999D01*
X160159952Y-80201662D01*
X160254670Y-80191834D01*
X160268064Y-80188942D01*
X160420865Y-80137964D01*
X160434043Y-80131790D01*
X160570649Y-80047256D01*
X160582050Y-80038220D01*
X160695551Y-79924521D01*
X160704563Y-79913110D01*
X160788865Y-79776346D01*
X160795009Y-79763168D01*
X160845727Y-79610260D01*
X160848593Y-79596894D01*
X160858172Y-79503399D01*
X160858500Y-79496984D01*
X160858500Y-79266115D01*
X160854025Y-79250876D01*
X160852635Y-79249671D01*
X160844952Y-79248000D01*
X160135115Y-79248000D01*
X160119876Y-79252475D01*
X160118671Y-79253865D01*
X160117000Y-79261548D01*
X160117000Y-80183884D01*
X159609000Y-80183884D01*
X159609000Y-78721885D01*
X160117000Y-78721885D01*
X160121475Y-78737124D01*
X160122865Y-78738329D01*
X160130548Y-78740000D01*
X160840384Y-78740000D01*
X160855623Y-78735525D01*
X160856828Y-78734135D01*
X160858499Y-78726452D01*
X160858499Y-78491067D01*
X160858162Y-78484548D01*
X160848334Y-78389830D01*
X160845442Y-78376436D01*
X160794464Y-78223635D01*
X160788290Y-78210457D01*
X160703756Y-78073851D01*
X160694720Y-78062450D01*
X160581021Y-77948949D01*
X160569610Y-77939937D01*
X160432846Y-77855635D01*
X160419668Y-77849491D01*
X160266760Y-77798773D01*
X160253394Y-77795907D01*
X160159899Y-77786328D01*
X160153484Y-77786000D01*
X160135115Y-77786000D01*
X160119876Y-77790475D01*
X160118671Y-77791865D01*
X160117000Y-77799548D01*
X160117000Y-78721885D01*
X159609000Y-78721885D01*
X159609000Y-77804116D01*
X159604525Y-77788877D01*
X159603135Y-77787672D01*
X159595452Y-77786001D01*
X159572567Y-77786001D01*
X159566048Y-77786338D01*
X159471330Y-77796166D01*
X159457936Y-77799058D01*
X159305135Y-77850036D01*
X159291957Y-77856210D01*
X159155351Y-77940744D01*
X159143950Y-77949780D01*
X159030449Y-78063479D01*
X159024706Y-78070751D01*
X158966789Y-78111814D01*
X158895866Y-78115046D01*
X158834454Y-78079421D01*
X158828660Y-78072746D01*
X158825297Y-78067311D01*
X158701153Y-77943383D01*
X158682171Y-77931682D01*
X158622096Y-77894652D01*
X158551829Y-77851339D01*
X158493895Y-77832123D01*
X158391866Y-77798281D01*
X158391864Y-77798281D01*
X158385335Y-77796115D01*
X158281731Y-77785500D01*
X157990266Y-77785500D01*
X157694270Y-77785501D01*
X157589371Y-77796384D01*
X157582840Y-77798563D01*
X157582835Y-77798564D01*
X157434689Y-77847990D01*
X157422974Y-77851898D01*
X157273811Y-77944203D01*
X157268638Y-77949385D01*
X157262901Y-77953932D01*
X157261038Y-77951581D01*
X157210693Y-77979147D01*
X157139871Y-77974163D01*
X157082987Y-77931682D01*
X157076630Y-77922370D01*
X157059478Y-77894652D01*
X156934303Y-77769695D01*
X156925452Y-77764239D01*
X156789968Y-77680725D01*
X156789966Y-77680724D01*
X156783738Y-77676885D01*
X156623254Y-77623655D01*
X156622389Y-77623368D01*
X156622387Y-77623368D01*
X156615861Y-77621203D01*
X156609025Y-77620503D01*
X156609022Y-77620502D01*
X156565969Y-77616091D01*
X156511400Y-77610500D01*
X155785600Y-77610500D01*
X155782354Y-77610837D01*
X155782350Y-77610837D01*
X155686692Y-77620762D01*
X155686688Y-77620763D01*
X155679834Y-77621474D01*
X155673298Y-77623655D01*
X155673296Y-77623655D01*
X155541194Y-77667728D01*
X155512054Y-77677450D01*
X155361652Y-77770522D01*
X155356479Y-77775704D01*
X155315371Y-77816884D01*
X155236695Y-77895697D01*
X155232855Y-77901927D01*
X155232854Y-77901928D01*
X155155247Y-78027830D01*
X155143885Y-78046262D01*
X155088203Y-78214139D01*
X155077500Y-78318600D01*
X155077500Y-79669400D01*
X154294500Y-79669400D01*
X154294500Y-78318600D01*
X154284647Y-78223635D01*
X154284238Y-78219692D01*
X154284237Y-78219688D01*
X154283526Y-78212834D01*
X154227550Y-78045054D01*
X154134478Y-77894652D01*
X154009303Y-77769695D01*
X154000452Y-77764239D01*
X153864968Y-77680725D01*
X153864966Y-77680724D01*
X153858738Y-77676885D01*
X153698254Y-77623655D01*
X153697389Y-77623368D01*
X153697387Y-77623368D01*
X153690861Y-77621203D01*
X153684025Y-77620503D01*
X153684022Y-77620502D01*
X153640969Y-77616091D01*
X153586400Y-77610500D01*
X152860600Y-77610500D01*
X152857354Y-77610837D01*
X152857350Y-77610837D01*
X152761692Y-77620762D01*
X152761688Y-77620763D01*
X152754834Y-77621474D01*
X152748298Y-77623655D01*
X152748296Y-77623655D01*
X152616194Y-77667728D01*
X152587054Y-77677450D01*
X152436652Y-77770522D01*
X152431479Y-77775704D01*
X152390371Y-77816884D01*
X152311695Y-77895697D01*
X152307855Y-77901927D01*
X152307854Y-77901928D01*
X152230247Y-78027830D01*
X152218885Y-78046262D01*
X152163203Y-78214139D01*
X152156251Y-78281996D01*
X152156071Y-78283750D01*
X152129230Y-78349477D01*
X152077102Y-78388063D01*
X152072436Y-78389910D01*
X152061215Y-78393752D01*
X152051902Y-78396458D01*
X152018607Y-78406131D01*
X152011781Y-78410168D01*
X152001091Y-78416490D01*
X151983341Y-78425187D01*
X151964412Y-78432681D01*
X151957998Y-78437341D01*
X151928514Y-78458762D01*
X151918594Y-78465278D01*
X151887229Y-78483827D01*
X151887226Y-78483829D01*
X151880402Y-78487865D01*
X151866014Y-78502253D01*
X151850980Y-78515094D01*
X151834513Y-78527058D01*
X151829460Y-78533166D01*
X151806228Y-78561249D01*
X151798238Y-78570029D01*
X151573748Y-78794519D01*
X151511436Y-78828545D01*
X151497824Y-78830734D01*
X151470288Y-78833628D01*
X151470286Y-78833628D01*
X151463288Y-78834364D01*
X151291579Y-78892818D01*
X151285575Y-78896512D01*
X151143095Y-78984166D01*
X151143092Y-78984168D01*
X151137088Y-78987862D01*
X151132053Y-78992793D01*
X151132050Y-78992795D01*
X151012525Y-79109843D01*
X151007493Y-79114771D01*
X150909235Y-79267238D01*
X150906826Y-79273858D01*
X150906824Y-79273861D01*
X150849606Y-79431066D01*
X150847197Y-79437685D01*
X150824463Y-79617640D01*
X128193342Y-79617640D01*
X128174397Y-79448745D01*
X128172080Y-79442091D01*
X128117064Y-79284106D01*
X128117062Y-79284103D01*
X128114745Y-79277448D01*
X128018626Y-79123624D01*
X128004941Y-79109843D01*
X127895778Y-78999915D01*
X127895774Y-78999912D01*
X127890815Y-78994918D01*
X127879697Y-78987862D01*
X127831538Y-78957300D01*
X127737666Y-78897727D01*
X127566790Y-78836881D01*
X127520219Y-78831328D01*
X127454945Y-78803401D01*
X127446042Y-78795309D01*
X127251250Y-78600517D01*
X127243674Y-78592191D01*
X127239553Y-78585697D01*
X127189734Y-78538914D01*
X127186893Y-78536160D01*
X127167094Y-78516361D01*
X127163969Y-78513937D01*
X127163960Y-78513929D01*
X127163874Y-78513863D01*
X127154849Y-78506155D01*
X127138782Y-78491067D01*
X127122506Y-78475783D01*
X127104669Y-78465977D01*
X127088153Y-78455127D01*
X127072067Y-78442650D01*
X127031334Y-78425024D01*
X127020686Y-78419807D01*
X126991787Y-78403920D01*
X126981803Y-78398431D01*
X126974128Y-78396460D01*
X126974122Y-78396458D01*
X126962089Y-78393369D01*
X126943380Y-78386963D01*
X126937975Y-78384624D01*
X126883407Y-78339208D01*
X126862702Y-78281996D01*
X126856238Y-78219693D01*
X126856237Y-78219690D01*
X126855526Y-78212834D01*
X126799550Y-78045054D01*
X126706478Y-77894652D01*
X126581303Y-77769695D01*
X126572452Y-77764239D01*
X126436968Y-77680725D01*
X126436966Y-77680724D01*
X126430738Y-77676885D01*
X126270254Y-77623655D01*
X126269389Y-77623368D01*
X126269387Y-77623368D01*
X126262861Y-77621203D01*
X126256025Y-77620503D01*
X126256022Y-77620502D01*
X126212969Y-77616091D01*
X126158400Y-77610500D01*
X125432600Y-77610500D01*
X125429354Y-77610837D01*
X125429350Y-77610837D01*
X125333692Y-77620762D01*
X125333688Y-77620763D01*
X125326834Y-77621474D01*
X125320298Y-77623655D01*
X125320296Y-77623655D01*
X125188194Y-77667728D01*
X125159054Y-77677450D01*
X125008652Y-77770522D01*
X125003479Y-77775704D01*
X124962371Y-77816884D01*
X124883695Y-77895697D01*
X124879855Y-77901927D01*
X124879854Y-77901928D01*
X124802247Y-78027830D01*
X124790885Y-78046262D01*
X124735203Y-78214139D01*
X124724500Y-78318600D01*
X124724500Y-79669400D01*
X123941500Y-79669400D01*
X123941500Y-78318600D01*
X123931647Y-78223635D01*
X123931238Y-78219692D01*
X123931237Y-78219688D01*
X123930526Y-78212834D01*
X123874550Y-78045054D01*
X123781478Y-77894652D01*
X123656303Y-77769695D01*
X123647452Y-77764239D01*
X123511968Y-77680725D01*
X123511966Y-77680724D01*
X123505738Y-77676885D01*
X123345254Y-77623655D01*
X123344389Y-77623368D01*
X123344387Y-77623368D01*
X123337861Y-77621203D01*
X123331025Y-77620503D01*
X123331022Y-77620502D01*
X123287969Y-77616091D01*
X123233400Y-77610500D01*
X122507600Y-77610500D01*
X122504354Y-77610837D01*
X122504350Y-77610837D01*
X122408692Y-77620762D01*
X122408688Y-77620763D01*
X122401834Y-77621474D01*
X122395298Y-77623655D01*
X122395296Y-77623655D01*
X122263194Y-77667728D01*
X122234054Y-77677450D01*
X122083652Y-77770522D01*
X122078479Y-77775704D01*
X122037371Y-77816884D01*
X121958695Y-77895697D01*
X121954854Y-77901928D01*
X121950317Y-77907673D01*
X121948077Y-77905904D01*
X121905022Y-77944654D01*
X121834951Y-77956079D01*
X121784417Y-77938306D01*
X121643329Y-77851339D01*
X121585395Y-77832123D01*
X121483366Y-77798281D01*
X121483364Y-77798281D01*
X121476835Y-77796115D01*
X121373231Y-77785500D01*
X121081766Y-77785500D01*
X120785770Y-77785501D01*
X120680871Y-77796384D01*
X120674340Y-77798563D01*
X120674335Y-77798564D01*
X120526189Y-77847990D01*
X120514474Y-77851898D01*
X120365311Y-77944203D01*
X120241383Y-78068347D01*
X120239386Y-78071587D01*
X120182648Y-78111814D01*
X120111725Y-78115047D01*
X120050313Y-78079422D01*
X120042934Y-78070922D01*
X120036218Y-78062448D01*
X119922521Y-77948949D01*
X119911110Y-77939937D01*
X119774346Y-77855635D01*
X119761168Y-77849491D01*
X119608260Y-77798773D01*
X119594894Y-77795907D01*
X119501399Y-77786328D01*
X119494984Y-77786000D01*
X119476615Y-77786000D01*
X119461376Y-77790475D01*
X119460171Y-77791865D01*
X119458500Y-77799548D01*
X119458500Y-80183884D01*
X118950500Y-80183884D01*
X118950500Y-79266115D01*
X118946025Y-79250876D01*
X118944635Y-79249671D01*
X118936952Y-79248000D01*
X118227116Y-79248000D01*
X118211877Y-79252475D01*
X118210672Y-79253865D01*
X118209001Y-79261548D01*
X118209001Y-79496933D01*
X114690279Y-79496933D01*
X115458921Y-78721885D01*
X118209000Y-78721885D01*
X118213475Y-78737124D01*
X118214865Y-78738329D01*
X118222548Y-78740000D01*
X118932385Y-78740000D01*
X118947624Y-78735525D01*
X118948829Y-78734135D01*
X118950500Y-78726452D01*
X118950500Y-77804116D01*
X118946025Y-77788877D01*
X118944635Y-77787672D01*
X118936952Y-77786001D01*
X118914067Y-77786001D01*
X118907548Y-77786338D01*
X118812830Y-77796166D01*
X118799436Y-77799058D01*
X118646635Y-77850036D01*
X118633457Y-77856210D01*
X118496851Y-77940744D01*
X118485450Y-77949780D01*
X118371949Y-78063479D01*
X118362937Y-78074890D01*
X118278635Y-78211654D01*
X118272491Y-78224832D01*
X118221773Y-78377740D01*
X118218907Y-78391106D01*
X118209328Y-78484601D01*
X118209000Y-78491016D01*
X118209000Y-78721885D01*
X115458921Y-78721885D01*
X117043506Y-77124095D01*
X141105001Y-77124095D01*
X141105338Y-77130614D01*
X141115257Y-77226206D01*
X141118149Y-77239600D01*
X141169588Y-77393784D01*
X141175761Y-77406962D01*
X141261063Y-77544807D01*
X141270099Y-77556208D01*
X141384829Y-77670739D01*
X141396240Y-77679751D01*
X141534243Y-77764816D01*
X141547424Y-77770963D01*
X141701710Y-77822138D01*
X141715086Y-77825005D01*
X141809438Y-77834672D01*
X141815854Y-77835000D01*
X141840885Y-77835000D01*
X141856124Y-77830525D01*
X141857329Y-77829135D01*
X141859000Y-77821452D01*
X141859000Y-77816884D01*
X142367000Y-77816884D01*
X142371475Y-77832123D01*
X142372865Y-77833328D01*
X142380548Y-77834999D01*
X142410095Y-77834999D01*
X142416614Y-77834662D01*
X142512206Y-77824743D01*
X142525600Y-77821851D01*
X142679784Y-77770412D01*
X142692962Y-77764239D01*
X142830807Y-77678937D01*
X142842208Y-77669901D01*
X142956739Y-77555171D01*
X142965751Y-77543760D01*
X143050816Y-77405757D01*
X143056963Y-77392576D01*
X143108138Y-77238290D01*
X143111005Y-77224914D01*
X143120672Y-77130562D01*
X143121000Y-77124146D01*
X143121000Y-76599115D01*
X143116525Y-76583876D01*
X143115135Y-76582671D01*
X143107452Y-76581000D01*
X142385115Y-76581000D01*
X142369876Y-76585475D01*
X142368671Y-76586865D01*
X142367000Y-76594548D01*
X142367000Y-77816884D01*
X141859000Y-77816884D01*
X141859000Y-76599115D01*
X141854525Y-76583876D01*
X141853135Y-76582671D01*
X141845452Y-76581000D01*
X141123116Y-76581000D01*
X141107877Y-76585475D01*
X141106672Y-76586865D01*
X141105001Y-76594548D01*
X141105001Y-77124095D01*
X117043506Y-77124095D01*
X118103880Y-76054885D01*
X141105000Y-76054885D01*
X141109475Y-76070124D01*
X141110865Y-76071329D01*
X141118548Y-76073000D01*
X141840885Y-76073000D01*
X141856124Y-76068525D01*
X141857329Y-76067135D01*
X141859000Y-76059452D01*
X141859000Y-76054885D01*
X142367000Y-76054885D01*
X142371475Y-76070124D01*
X142372865Y-76071329D01*
X142380548Y-76073000D01*
X143102884Y-76073000D01*
X143118123Y-76068525D01*
X143119328Y-76067135D01*
X143120999Y-76059452D01*
X143120999Y-75529905D01*
X143120662Y-75523386D01*
X143110743Y-75427794D01*
X143107851Y-75414400D01*
X143056412Y-75260216D01*
X143050239Y-75247038D01*
X142964937Y-75109193D01*
X142955901Y-75097792D01*
X142841171Y-74983261D01*
X142829760Y-74974249D01*
X142691757Y-74889184D01*
X142678576Y-74883037D01*
X142524290Y-74831862D01*
X142510914Y-74828995D01*
X142416562Y-74819328D01*
X142410145Y-74819000D01*
X142385115Y-74819000D01*
X142369876Y-74823475D01*
X142368671Y-74824865D01*
X142367000Y-74832548D01*
X142367000Y-76054885D01*
X141859000Y-76054885D01*
X141859000Y-74837116D01*
X141854525Y-74821877D01*
X141853135Y-74820672D01*
X141845452Y-74819001D01*
X141815905Y-74819001D01*
X141809386Y-74819338D01*
X141713794Y-74829257D01*
X141700400Y-74832149D01*
X141546216Y-74883588D01*
X141533038Y-74889761D01*
X141395193Y-74975063D01*
X141383792Y-74984099D01*
X141269261Y-75098829D01*
X141260249Y-75110240D01*
X141175184Y-75248243D01*
X141169037Y-75261424D01*
X141117862Y-75415710D01*
X141114995Y-75429086D01*
X141105328Y-75523438D01*
X141105000Y-75529855D01*
X141105000Y-76054885D01*
X118103880Y-76054885D01*
X124600531Y-69504095D01*
X137930001Y-69504095D01*
X137930338Y-69510614D01*
X137940257Y-69606206D01*
X137943149Y-69619600D01*
X137994588Y-69773784D01*
X138000761Y-69786962D01*
X138086063Y-69924807D01*
X138095099Y-69936208D01*
X138209829Y-70050739D01*
X138221240Y-70059751D01*
X138359243Y-70144816D01*
X138372424Y-70150963D01*
X138526710Y-70202138D01*
X138540086Y-70205005D01*
X138634438Y-70214672D01*
X138640854Y-70215000D01*
X138665885Y-70215000D01*
X138681124Y-70210525D01*
X138682329Y-70209135D01*
X138684000Y-70201452D01*
X138684000Y-70196884D01*
X139192000Y-70196884D01*
X139196475Y-70212123D01*
X139197865Y-70213328D01*
X139205548Y-70214999D01*
X139235095Y-70214999D01*
X139241614Y-70214662D01*
X139337206Y-70204743D01*
X139350600Y-70201851D01*
X139504784Y-70150412D01*
X139517962Y-70144239D01*
X139655807Y-70058937D01*
X139667208Y-70049901D01*
X139781739Y-69935171D01*
X139790751Y-69923760D01*
X139875816Y-69785757D01*
X139881963Y-69772576D01*
X139933138Y-69618290D01*
X139936005Y-69604914D01*
X139945672Y-69510562D01*
X139946000Y-69504146D01*
X139946000Y-69504095D01*
X141105001Y-69504095D01*
X141105338Y-69510614D01*
X141115257Y-69606206D01*
X141118149Y-69619600D01*
X141169588Y-69773784D01*
X141175761Y-69786962D01*
X141261063Y-69924807D01*
X141270099Y-69936208D01*
X141384829Y-70050739D01*
X141396240Y-70059751D01*
X141534243Y-70144816D01*
X141547424Y-70150963D01*
X141701710Y-70202138D01*
X141715086Y-70205005D01*
X141809438Y-70214672D01*
X141815854Y-70215000D01*
X141840885Y-70215000D01*
X141856124Y-70210525D01*
X141857329Y-70209135D01*
X141859000Y-70201452D01*
X141859000Y-70196884D01*
X142367000Y-70196884D01*
X142371475Y-70212123D01*
X142372865Y-70213328D01*
X142380548Y-70214999D01*
X142410095Y-70214999D01*
X142416614Y-70214662D01*
X142512206Y-70204743D01*
X142525600Y-70201851D01*
X142679784Y-70150412D01*
X142692962Y-70144239D01*
X142830807Y-70058937D01*
X142842208Y-70049901D01*
X142956739Y-69935171D01*
X142965751Y-69923760D01*
X143050816Y-69785757D01*
X143056963Y-69772576D01*
X143108138Y-69618290D01*
X143111005Y-69604914D01*
X143120672Y-69510562D01*
X143121000Y-69504146D01*
X143121000Y-68979115D01*
X143116525Y-68963876D01*
X143115135Y-68962671D01*
X143107452Y-68961000D01*
X142385115Y-68961000D01*
X142369876Y-68965475D01*
X142368671Y-68966865D01*
X142367000Y-68974548D01*
X142367000Y-70196884D01*
X141859000Y-70196884D01*
X141859000Y-68979115D01*
X141854525Y-68963876D01*
X141853135Y-68962671D01*
X141845452Y-68961000D01*
X141123116Y-68961000D01*
X141107877Y-68965475D01*
X141106672Y-68966865D01*
X141105001Y-68974548D01*
X141105001Y-69504095D01*
X139946000Y-69504095D01*
X139946000Y-68979115D01*
X139941525Y-68963876D01*
X139940135Y-68962671D01*
X139932452Y-68961000D01*
X139210115Y-68961000D01*
X139194876Y-68965475D01*
X139193671Y-68966865D01*
X139192000Y-68974548D01*
X139192000Y-70196884D01*
X138684000Y-70196884D01*
X138684000Y-68979115D01*
X138679525Y-68963876D01*
X138678135Y-68962671D01*
X138670452Y-68961000D01*
X137948116Y-68961000D01*
X137932877Y-68965475D01*
X137931672Y-68966865D01*
X137930001Y-68974548D01*
X137930001Y-69504095D01*
X124600531Y-69504095D01*
X125660905Y-68434885D01*
X137930000Y-68434885D01*
X137934475Y-68450124D01*
X137935865Y-68451329D01*
X137943548Y-68453000D01*
X138665885Y-68453000D01*
X138681124Y-68448525D01*
X138682329Y-68447135D01*
X138684000Y-68439452D01*
X138684000Y-68434885D01*
X139192000Y-68434885D01*
X139196475Y-68450124D01*
X139197865Y-68451329D01*
X139205548Y-68453000D01*
X139927884Y-68453000D01*
X139943123Y-68448525D01*
X139944328Y-68447135D01*
X139945999Y-68439452D01*
X139945999Y-68434885D01*
X141105000Y-68434885D01*
X141109475Y-68450124D01*
X141110865Y-68451329D01*
X141118548Y-68453000D01*
X141840885Y-68453000D01*
X141856124Y-68448525D01*
X141857329Y-68447135D01*
X141859000Y-68439452D01*
X141859000Y-68434885D01*
X142367000Y-68434885D01*
X142371475Y-68450124D01*
X142372865Y-68451329D01*
X142380548Y-68453000D01*
X143102884Y-68453000D01*
X143118123Y-68448525D01*
X143119328Y-68447135D01*
X143120999Y-68439452D01*
X143120999Y-67909905D01*
X143120662Y-67903386D01*
X143110743Y-67807794D01*
X143107851Y-67794400D01*
X143056412Y-67640216D01*
X143050239Y-67627038D01*
X142964937Y-67489193D01*
X142955901Y-67477792D01*
X142841171Y-67363261D01*
X142829760Y-67354249D01*
X142691757Y-67269184D01*
X142678576Y-67263037D01*
X142524290Y-67211862D01*
X142510914Y-67208995D01*
X142416562Y-67199328D01*
X142410145Y-67199000D01*
X142385115Y-67199000D01*
X142369876Y-67203475D01*
X142368671Y-67204865D01*
X142367000Y-67212548D01*
X142367000Y-68434885D01*
X141859000Y-68434885D01*
X141859000Y-67217116D01*
X141854525Y-67201877D01*
X141853135Y-67200672D01*
X141845452Y-67199001D01*
X141815905Y-67199001D01*
X141809386Y-67199338D01*
X141713794Y-67209257D01*
X141700400Y-67212149D01*
X141546216Y-67263588D01*
X141533038Y-67269761D01*
X141395193Y-67355063D01*
X141383792Y-67364099D01*
X141269261Y-67478829D01*
X141260249Y-67490240D01*
X141175184Y-67628243D01*
X141169037Y-67641424D01*
X141117862Y-67795710D01*
X141114995Y-67809086D01*
X141105328Y-67903438D01*
X141105000Y-67909855D01*
X141105000Y-68434885D01*
X139945999Y-68434885D01*
X139945999Y-67909905D01*
X139945662Y-67903386D01*
X139935743Y-67807794D01*
X139932851Y-67794400D01*
X139881412Y-67640216D01*
X139875239Y-67627038D01*
X139789937Y-67489193D01*
X139780901Y-67477792D01*
X139666171Y-67363261D01*
X139654760Y-67354249D01*
X139516757Y-67269184D01*
X139503576Y-67263037D01*
X139349290Y-67211862D01*
X139335914Y-67208995D01*
X139241562Y-67199328D01*
X139235145Y-67199000D01*
X139210115Y-67199000D01*
X139194876Y-67203475D01*
X139193671Y-67204865D01*
X139192000Y-67212548D01*
X139192000Y-68434885D01*
X138684000Y-68434885D01*
X138684000Y-67217116D01*
X138679525Y-67201877D01*
X138678135Y-67200672D01*
X138670452Y-67199001D01*
X138640905Y-67199001D01*
X138634386Y-67199338D01*
X138538794Y-67209257D01*
X138525400Y-67212149D01*
X138371216Y-67263588D01*
X138358038Y-67269761D01*
X138220193Y-67355063D01*
X138208792Y-67364099D01*
X138094261Y-67478829D01*
X138085249Y-67490240D01*
X138000184Y-67628243D01*
X137994037Y-67641424D01*
X137942862Y-67795710D01*
X137939995Y-67809086D01*
X137930328Y-67903438D01*
X137930000Y-67909855D01*
X137930000Y-68434885D01*
X125660905Y-68434885D01*
X126188011Y-67903386D01*
X128379043Y-65694095D01*
X137930001Y-65694095D01*
X137930338Y-65700614D01*
X137940257Y-65796206D01*
X137943149Y-65809600D01*
X137994588Y-65963784D01*
X138000761Y-65976962D01*
X138086063Y-66114807D01*
X138095099Y-66126208D01*
X138209829Y-66240739D01*
X138221240Y-66249751D01*
X138359243Y-66334816D01*
X138372424Y-66340963D01*
X138526710Y-66392138D01*
X138540086Y-66395005D01*
X138634438Y-66404672D01*
X138640854Y-66405000D01*
X138665885Y-66405000D01*
X138681124Y-66400525D01*
X138682329Y-66399135D01*
X138684000Y-66391452D01*
X138684000Y-66386884D01*
X139192000Y-66386884D01*
X139196475Y-66402123D01*
X139197865Y-66403328D01*
X139205548Y-66404999D01*
X139235095Y-66404999D01*
X139241614Y-66404662D01*
X139337206Y-66394743D01*
X139350600Y-66391851D01*
X139504784Y-66340412D01*
X139517962Y-66334239D01*
X139655807Y-66248937D01*
X139667208Y-66239901D01*
X139781739Y-66125171D01*
X139790751Y-66113760D01*
X139875816Y-65975757D01*
X139881963Y-65962576D01*
X139933138Y-65808290D01*
X139936005Y-65794914D01*
X139945672Y-65700562D01*
X139946000Y-65694146D01*
X139946000Y-65169115D01*
X139941525Y-65153876D01*
X139940135Y-65152671D01*
X139932452Y-65151000D01*
X139210115Y-65151000D01*
X139194876Y-65155475D01*
X139193671Y-65156865D01*
X139192000Y-65164548D01*
X139192000Y-66386884D01*
X138684000Y-66386884D01*
X138684000Y-65169115D01*
X138679525Y-65153876D01*
X138678135Y-65152671D01*
X138670452Y-65151000D01*
X137948116Y-65151000D01*
X137932877Y-65155475D01*
X137931672Y-65156865D01*
X137930001Y-65164548D01*
X137930001Y-65694095D01*
X128379043Y-65694095D01*
X129439417Y-64624885D01*
X137930000Y-64624885D01*
X137934475Y-64640124D01*
X137935865Y-64641329D01*
X137943548Y-64643000D01*
X138665885Y-64643000D01*
X138681124Y-64638525D01*
X138682329Y-64637135D01*
X138684000Y-64629452D01*
X138684000Y-64624885D01*
X139192000Y-64624885D01*
X139196475Y-64640124D01*
X139197865Y-64641329D01*
X139205548Y-64643000D01*
X139927884Y-64643000D01*
X139943123Y-64638525D01*
X139944328Y-64637135D01*
X139945999Y-64629452D01*
X139945999Y-64099905D01*
X139945662Y-64093386D01*
X139935743Y-63997794D01*
X139932851Y-63984400D01*
X139881412Y-63830216D01*
X139875239Y-63817038D01*
X139789937Y-63679193D01*
X139780901Y-63667792D01*
X139666171Y-63553261D01*
X139654760Y-63544249D01*
X139516757Y-63459184D01*
X139503576Y-63453037D01*
X139349290Y-63401862D01*
X139335914Y-63398995D01*
X139241562Y-63389328D01*
X139235145Y-63389000D01*
X139210115Y-63389000D01*
X139194876Y-63393475D01*
X139193671Y-63394865D01*
X139192000Y-63402548D01*
X139192000Y-64624885D01*
X138684000Y-64624885D01*
X138684000Y-63407116D01*
X138679525Y-63391877D01*
X138678135Y-63390672D01*
X138670452Y-63389001D01*
X138640905Y-63389001D01*
X138634386Y-63389338D01*
X138538794Y-63399257D01*
X138525400Y-63402149D01*
X138371216Y-63453588D01*
X138358038Y-63459761D01*
X138220193Y-63545063D01*
X138208792Y-63554099D01*
X138094261Y-63668829D01*
X138085249Y-63680240D01*
X138000184Y-63818243D01*
X137994037Y-63831424D01*
X137942862Y-63985710D01*
X137939995Y-63999086D01*
X137930328Y-64093438D01*
X137930000Y-64099855D01*
X137930000Y-64624885D01*
X129439417Y-64624885D01*
X132157556Y-61884095D01*
X137930001Y-61884095D01*
X137930338Y-61890614D01*
X137940257Y-61986206D01*
X137943149Y-61999600D01*
X137994588Y-62153784D01*
X138000761Y-62166962D01*
X138086063Y-62304807D01*
X138095099Y-62316208D01*
X138209829Y-62430739D01*
X138221240Y-62439751D01*
X138359243Y-62524816D01*
X138372424Y-62530963D01*
X138526710Y-62582138D01*
X138540086Y-62585005D01*
X138634438Y-62594672D01*
X138640854Y-62595000D01*
X138665885Y-62595000D01*
X138681124Y-62590525D01*
X138682329Y-62589135D01*
X138684000Y-62581452D01*
X138684000Y-62576884D01*
X139192000Y-62576884D01*
X139196475Y-62592123D01*
X139197865Y-62593328D01*
X139205548Y-62594999D01*
X139235095Y-62594999D01*
X139241614Y-62594662D01*
X139337206Y-62584743D01*
X139350600Y-62581851D01*
X139504784Y-62530412D01*
X139517962Y-62524239D01*
X139655807Y-62438937D01*
X139667208Y-62429901D01*
X139781739Y-62315171D01*
X139790751Y-62303760D01*
X139875816Y-62165757D01*
X139881963Y-62152576D01*
X139933138Y-61998290D01*
X139936005Y-61984914D01*
X139945672Y-61890562D01*
X139946000Y-61884146D01*
X139946000Y-61884095D01*
X141105001Y-61884095D01*
X141105338Y-61890614D01*
X141115257Y-61986206D01*
X141118149Y-61999600D01*
X141169588Y-62153784D01*
X141175761Y-62166962D01*
X141261063Y-62304807D01*
X141270099Y-62316208D01*
X141384829Y-62430739D01*
X141396240Y-62439751D01*
X141534243Y-62524816D01*
X141547424Y-62530963D01*
X141701710Y-62582138D01*
X141715086Y-62585005D01*
X141809438Y-62594672D01*
X141815854Y-62595000D01*
X141840885Y-62595000D01*
X141856124Y-62590525D01*
X141857329Y-62589135D01*
X141859000Y-62581452D01*
X141859000Y-62576884D01*
X142367000Y-62576884D01*
X142371475Y-62592123D01*
X142372865Y-62593328D01*
X142380548Y-62594999D01*
X142410095Y-62594999D01*
X142416614Y-62594662D01*
X142512206Y-62584743D01*
X142525600Y-62581851D01*
X142679784Y-62530412D01*
X142692962Y-62524239D01*
X142830807Y-62438937D01*
X142842208Y-62429901D01*
X142956739Y-62315171D01*
X142965751Y-62303760D01*
X143050816Y-62165757D01*
X143056963Y-62152576D01*
X143108138Y-61998290D01*
X143111005Y-61984914D01*
X143120672Y-61890562D01*
X143121000Y-61884146D01*
X143121000Y-61359115D01*
X143116525Y-61343876D01*
X143115135Y-61342671D01*
X143107452Y-61341000D01*
X142385115Y-61341000D01*
X142369876Y-61345475D01*
X142368671Y-61346865D01*
X142367000Y-61354548D01*
X142367000Y-62576884D01*
X141859000Y-62576884D01*
X141859000Y-61359115D01*
X141854525Y-61343876D01*
X141853135Y-61342671D01*
X141845452Y-61341000D01*
X141123116Y-61341000D01*
X141107877Y-61345475D01*
X141106672Y-61346865D01*
X141105001Y-61354548D01*
X141105001Y-61884095D01*
X139946000Y-61884095D01*
X139946000Y-61359115D01*
X139941525Y-61343876D01*
X139940135Y-61342671D01*
X139932452Y-61341000D01*
X139210115Y-61341000D01*
X139194876Y-61345475D01*
X139193671Y-61346865D01*
X139192000Y-61354548D01*
X139192000Y-62576884D01*
X138684000Y-62576884D01*
X138684000Y-61359115D01*
X138679525Y-61343876D01*
X138678135Y-61342671D01*
X138670452Y-61341000D01*
X137948116Y-61341000D01*
X137932877Y-61345475D01*
X137931672Y-61346865D01*
X137930001Y-61354548D01*
X137930001Y-61884095D01*
X132157556Y-61884095D01*
X133217929Y-60814885D01*
X137930000Y-60814885D01*
X137934475Y-60830124D01*
X137935865Y-60831329D01*
X137943548Y-60833000D01*
X138665885Y-60833000D01*
X138681124Y-60828525D01*
X138682329Y-60827135D01*
X138684000Y-60819452D01*
X138684000Y-60814885D01*
X139192000Y-60814885D01*
X139196475Y-60830124D01*
X139197865Y-60831329D01*
X139205548Y-60833000D01*
X139927884Y-60833000D01*
X139943123Y-60828525D01*
X139944328Y-60827135D01*
X139945999Y-60819452D01*
X139945999Y-60814885D01*
X141105000Y-60814885D01*
X141109475Y-60830124D01*
X141110865Y-60831329D01*
X141118548Y-60833000D01*
X141840885Y-60833000D01*
X141856124Y-60828525D01*
X141857329Y-60827135D01*
X141859000Y-60819452D01*
X141859000Y-60814885D01*
X142367000Y-60814885D01*
X142371475Y-60830124D01*
X142372865Y-60831329D01*
X142380548Y-60833000D01*
X143102884Y-60833000D01*
X143118123Y-60828525D01*
X143119328Y-60827135D01*
X143120999Y-60819452D01*
X143120999Y-60289905D01*
X143120662Y-60283386D01*
X143110743Y-60187794D01*
X143107851Y-60174400D01*
X143056412Y-60020216D01*
X143050239Y-60007038D01*
X142964937Y-59869193D01*
X142955901Y-59857792D01*
X142841171Y-59743261D01*
X142829760Y-59734249D01*
X142691757Y-59649184D01*
X142678576Y-59643037D01*
X142524290Y-59591862D01*
X142510914Y-59588995D01*
X142416562Y-59579328D01*
X142410145Y-59579000D01*
X142385115Y-59579000D01*
X142369876Y-59583475D01*
X142368671Y-59584865D01*
X142367000Y-59592548D01*
X142367000Y-60814885D01*
X141859000Y-60814885D01*
X141859000Y-59597116D01*
X141854525Y-59581877D01*
X141853135Y-59580672D01*
X141845452Y-59579001D01*
X141815905Y-59579001D01*
X141809386Y-59579338D01*
X141713794Y-59589257D01*
X141700400Y-59592149D01*
X141546216Y-59643588D01*
X141533038Y-59649761D01*
X141395193Y-59735063D01*
X141383792Y-59744099D01*
X141269261Y-59858829D01*
X141260249Y-59870240D01*
X141175184Y-60008243D01*
X141169037Y-60021424D01*
X141117862Y-60175710D01*
X141114995Y-60189086D01*
X141105328Y-60283438D01*
X141105000Y-60289855D01*
X141105000Y-60814885D01*
X139945999Y-60814885D01*
X139945999Y-60289905D01*
X139945662Y-60283386D01*
X139935743Y-60187794D01*
X139932851Y-60174400D01*
X139881412Y-60020216D01*
X139875239Y-60007038D01*
X139789937Y-59869193D01*
X139780901Y-59857792D01*
X139666171Y-59743261D01*
X139654760Y-59734249D01*
X139516757Y-59649184D01*
X139503576Y-59643037D01*
X139349290Y-59591862D01*
X139335914Y-59588995D01*
X139241562Y-59579328D01*
X139235145Y-59579000D01*
X139210115Y-59579000D01*
X139194876Y-59583475D01*
X139193671Y-59584865D01*
X139192000Y-59592548D01*
X139192000Y-60814885D01*
X138684000Y-60814885D01*
X138684000Y-59597116D01*
X138679525Y-59581877D01*
X138678135Y-59580672D01*
X138670452Y-59579001D01*
X138640905Y-59579001D01*
X138634386Y-59579338D01*
X138538794Y-59589257D01*
X138525400Y-59592149D01*
X138371216Y-59643588D01*
X138358038Y-59649761D01*
X138220193Y-59735063D01*
X138208792Y-59744099D01*
X138094261Y-59858829D01*
X138085249Y-59870240D01*
X138000184Y-60008243D01*
X137994037Y-60021424D01*
X137942862Y-60175710D01*
X137939995Y-60189086D01*
X137930328Y-60283438D01*
X137930000Y-60289855D01*
X137930000Y-60814885D01*
X133217929Y-60814885D01*
X140410536Y-53562340D01*
X140472706Y-53528057D01*
X140543542Y-53532828D01*
G37*
%TD.AperFunction*%
%TD*%
M02*
