%TF.GenerationSoftware,KiCad,Pcbnew,(6.0.9)*%
%TF.CreationDate,2022-12-10T13:43:41+01:00*%
%TF.ProjectId,PartoDos,50617274-6f44-46f7-932e-6b696361645f,rev?*%
%TF.SameCoordinates,Original*%
%TF.FileFunction,Legend,Top*%
%TF.FilePolarity,Positive*%
%FSLAX46Y46*%
G04 Gerber Fmt 4.6, Leading zero omitted, Abs format (unit mm)*
G04 Created by KiCad (PCBNEW (6.0.9)) date 2022-12-10 13:43:41*
%MOMM*%
%LPD*%
G01*
G04 APERTURE LIST*
G04 Aperture macros list*
%AMRoundRect*
0 Rectangle with rounded corners*
0 $1 Rounding radius*
0 $2 $3 $4 $5 $6 $7 $8 $9 X,Y pos of 4 corners*
0 Add a 4 corners polygon primitive as box body*
4,1,4,$2,$3,$4,$5,$6,$7,$8,$9,$2,$3,0*
0 Add four circle primitives for the rounded corners*
1,1,$1+$1,$2,$3*
1,1,$1+$1,$4,$5*
1,1,$1+$1,$6,$7*
1,1,$1+$1,$8,$9*
0 Add four rect primitives between the rounded corners*
20,1,$1+$1,$2,$3,$4,$5,0*
20,1,$1+$1,$4,$5,$6,$7,0*
20,1,$1+$1,$6,$7,$8,$9,0*
20,1,$1+$1,$8,$9,$2,$3,0*%
G04 Aperture macros list end*
%ADD10C,0.152400*%
%ADD11C,0.150000*%
%ADD12C,0.120000*%
%ADD13RoundRect,0.250000X0.312500X0.625000X-0.312500X0.625000X-0.312500X-0.625000X0.312500X-0.625000X0*%
%ADD14RoundRect,0.250000X-0.312500X-0.625000X0.312500X-0.625000X0.312500X0.625000X-0.312500X0.625000X0*%
%ADD15RoundRect,0.250000X-0.250000X-0.750000X0.250000X-0.750000X0.250000X0.750000X-0.250000X0.750000X0*%
%ADD16RoundRect,0.243750X-0.243750X-0.456250X0.243750X-0.456250X0.243750X0.456250X-0.243750X0.456250X0*%
%ADD17RoundRect,0.243750X0.243750X0.456250X-0.243750X0.456250X-0.243750X-0.456250X0.243750X-0.456250X0*%
%ADD18RoundRect,0.250000X0.250000X0.750000X-0.250000X0.750000X-0.250000X-0.750000X0.250000X-0.750000X0*%
G04 APERTURE END LIST*
D10*
X140143895Y-83256361D02*
X140724466Y-83256361D01*
X140840580Y-83295066D01*
X140917990Y-83372476D01*
X140956695Y-83488590D01*
X140956695Y-83566000D01*
X140956695Y-82482266D02*
X140956695Y-82869314D01*
X140143895Y-82869314D01*
X140879285Y-81746876D02*
X140917990Y-81785580D01*
X140956695Y-81901695D01*
X140956695Y-81979104D01*
X140917990Y-82095219D01*
X140840580Y-82172628D01*
X140763171Y-82211333D01*
X140608352Y-82250038D01*
X140492238Y-82250038D01*
X140337419Y-82211333D01*
X140260009Y-82172628D01*
X140182600Y-82095219D01*
X140143895Y-81979104D01*
X140143895Y-81901695D01*
X140182600Y-81785580D01*
X140221304Y-81746876D01*
X140143895Y-81166304D02*
X140724466Y-81166304D01*
X140840580Y-81205009D01*
X140917990Y-81282419D01*
X140956695Y-81398533D01*
X140956695Y-81475942D01*
X140956695Y-80392209D02*
X140956695Y-80779257D01*
X140143895Y-80779257D01*
X140879285Y-79656819D02*
X140917990Y-79695523D01*
X140956695Y-79811638D01*
X140956695Y-79889047D01*
X140917990Y-80005161D01*
X140840580Y-80082571D01*
X140763171Y-80121276D01*
X140608352Y-80159980D01*
X140492238Y-80159980D01*
X140337419Y-80121276D01*
X140260009Y-80082571D01*
X140182600Y-80005161D01*
X140143895Y-79889047D01*
X140143895Y-79811638D01*
X140182600Y-79695523D01*
X140221304Y-79656819D01*
X140143895Y-79076247D02*
X140724466Y-79076247D01*
X140840580Y-79114952D01*
X140917990Y-79192361D01*
X140956695Y-79308476D01*
X140956695Y-79385885D01*
X140956695Y-78302152D02*
X140956695Y-78689200D01*
X140143895Y-78689200D01*
X140879285Y-77566761D02*
X140917990Y-77605466D01*
X140956695Y-77721580D01*
X140956695Y-77798990D01*
X140917990Y-77915104D01*
X140840580Y-77992514D01*
X140763171Y-78031219D01*
X140608352Y-78069923D01*
X140492238Y-78069923D01*
X140337419Y-78031219D01*
X140260009Y-77992514D01*
X140182600Y-77915104D01*
X140143895Y-77798990D01*
X140143895Y-77721580D01*
X140182600Y-77605466D01*
X140221304Y-77566761D01*
X140143895Y-76986190D02*
X140724466Y-76986190D01*
X140840580Y-77024895D01*
X140917990Y-77102304D01*
X140956695Y-77218419D01*
X140956695Y-77295828D01*
X140956695Y-76212095D02*
X140956695Y-76599142D01*
X140143895Y-76599142D01*
X140879285Y-75476704D02*
X140917990Y-75515409D01*
X140956695Y-75631523D01*
X140956695Y-75708933D01*
X140917990Y-75825047D01*
X140840580Y-75902457D01*
X140763171Y-75941161D01*
X140608352Y-75979866D01*
X140492238Y-75979866D01*
X140337419Y-75941161D01*
X140260009Y-75902457D01*
X140182600Y-75825047D01*
X140143895Y-75708933D01*
X140143895Y-75631523D01*
X140182600Y-75515409D01*
X140221304Y-75476704D01*
D11*
%TO.C,R6*%
X167092333Y-137104380D02*
X166759000Y-136628190D01*
X166520904Y-137104380D02*
X166520904Y-136104380D01*
X166901857Y-136104380D01*
X166997095Y-136152000D01*
X167044714Y-136199619D01*
X167092333Y-136294857D01*
X167092333Y-136437714D01*
X167044714Y-136532952D01*
X166997095Y-136580571D01*
X166901857Y-136628190D01*
X166520904Y-136628190D01*
X167949476Y-136104380D02*
X167759000Y-136104380D01*
X167663761Y-136152000D01*
X167616142Y-136199619D01*
X167520904Y-136342476D01*
X167473285Y-136532952D01*
X167473285Y-136913904D01*
X167520904Y-137009142D01*
X167568523Y-137056761D01*
X167663761Y-137104380D01*
X167854238Y-137104380D01*
X167949476Y-137056761D01*
X167997095Y-137009142D01*
X168044714Y-136913904D01*
X168044714Y-136675809D01*
X167997095Y-136580571D01*
X167949476Y-136532952D01*
X167854238Y-136485333D01*
X167663761Y-136485333D01*
X167568523Y-136532952D01*
X167520904Y-136580571D01*
X167473285Y-136675809D01*
%TO.C,R5*%
X158710333Y-106116380D02*
X158377000Y-105640190D01*
X158138904Y-106116380D02*
X158138904Y-105116380D01*
X158519857Y-105116380D01*
X158615095Y-105164000D01*
X158662714Y-105211619D01*
X158710333Y-105306857D01*
X158710333Y-105449714D01*
X158662714Y-105544952D01*
X158615095Y-105592571D01*
X158519857Y-105640190D01*
X158138904Y-105640190D01*
X159615095Y-105116380D02*
X159138904Y-105116380D01*
X159091285Y-105592571D01*
X159138904Y-105544952D01*
X159234142Y-105497333D01*
X159472238Y-105497333D01*
X159567476Y-105544952D01*
X159615095Y-105592571D01*
X159662714Y-105687809D01*
X159662714Y-105925904D01*
X159615095Y-106021142D01*
X159567476Y-106068761D01*
X159472238Y-106116380D01*
X159234142Y-106116380D01*
X159138904Y-106068761D01*
X159091285Y-106021142D01*
%TO.C,R4*%
X154519333Y-77668380D02*
X154186000Y-77192190D01*
X153947904Y-77668380D02*
X153947904Y-76668380D01*
X154328857Y-76668380D01*
X154424095Y-76716000D01*
X154471714Y-76763619D01*
X154519333Y-76858857D01*
X154519333Y-77001714D01*
X154471714Y-77096952D01*
X154424095Y-77144571D01*
X154328857Y-77192190D01*
X153947904Y-77192190D01*
X155376476Y-77001714D02*
X155376476Y-77668380D01*
X155138380Y-76620761D02*
X154900285Y-77335047D01*
X155519333Y-77335047D01*
%TO.C,R3*%
X113498333Y-137062380D02*
X113165000Y-136586190D01*
X112926904Y-137062380D02*
X112926904Y-136062380D01*
X113307857Y-136062380D01*
X113403095Y-136110000D01*
X113450714Y-136157619D01*
X113498333Y-136252857D01*
X113498333Y-136395714D01*
X113450714Y-136490952D01*
X113403095Y-136538571D01*
X113307857Y-136586190D01*
X112926904Y-136586190D01*
X113831666Y-136062380D02*
X114450714Y-136062380D01*
X114117380Y-136443333D01*
X114260238Y-136443333D01*
X114355476Y-136490952D01*
X114403095Y-136538571D01*
X114450714Y-136633809D01*
X114450714Y-136871904D01*
X114403095Y-136967142D01*
X114355476Y-137014761D01*
X114260238Y-137062380D01*
X113974523Y-137062380D01*
X113879285Y-137014761D01*
X113831666Y-136967142D01*
%TO.C,R2*%
X122007333Y-106074380D02*
X121674000Y-105598190D01*
X121435904Y-106074380D02*
X121435904Y-105074380D01*
X121816857Y-105074380D01*
X121912095Y-105122000D01*
X121959714Y-105169619D01*
X122007333Y-105264857D01*
X122007333Y-105407714D01*
X121959714Y-105502952D01*
X121912095Y-105550571D01*
X121816857Y-105598190D01*
X121435904Y-105598190D01*
X122388285Y-105169619D02*
X122435904Y-105122000D01*
X122531142Y-105074380D01*
X122769238Y-105074380D01*
X122864476Y-105122000D01*
X122912095Y-105169619D01*
X122959714Y-105264857D01*
X122959714Y-105360095D01*
X122912095Y-105502952D01*
X122340666Y-106074380D01*
X122959714Y-106074380D01*
%TO.C,R1*%
X124166333Y-77626380D02*
X123833000Y-77150190D01*
X123594904Y-77626380D02*
X123594904Y-76626380D01*
X123975857Y-76626380D01*
X124071095Y-76674000D01*
X124118714Y-76721619D01*
X124166333Y-76816857D01*
X124166333Y-76959714D01*
X124118714Y-77054952D01*
X124071095Y-77102571D01*
X123975857Y-77150190D01*
X123594904Y-77150190D01*
X125118714Y-77626380D02*
X124547285Y-77626380D01*
X124833000Y-77626380D02*
X124833000Y-76626380D01*
X124737761Y-76769238D01*
X124642523Y-76864476D01*
X124547285Y-76912095D01*
%TO.C,D2*%
X117244904Y-106116380D02*
X117244904Y-105116380D01*
X117483000Y-105116380D01*
X117625857Y-105164000D01*
X117721095Y-105259238D01*
X117768714Y-105354476D01*
X117816333Y-105544952D01*
X117816333Y-105687809D01*
X117768714Y-105878285D01*
X117721095Y-105973523D01*
X117625857Y-106068761D01*
X117483000Y-106116380D01*
X117244904Y-106116380D01*
X118197285Y-105211619D02*
X118244904Y-105164000D01*
X118340142Y-105116380D01*
X118578238Y-105116380D01*
X118673476Y-105164000D01*
X118721095Y-105211619D01*
X118768714Y-105306857D01*
X118768714Y-105402095D01*
X118721095Y-105544952D01*
X118149666Y-106116380D01*
X118768714Y-106116380D01*
%TO.C,D6*%
X170711904Y-137104380D02*
X170711904Y-136104380D01*
X170950000Y-136104380D01*
X171092857Y-136152000D01*
X171188095Y-136247238D01*
X171235714Y-136342476D01*
X171283333Y-136532952D01*
X171283333Y-136675809D01*
X171235714Y-136866285D01*
X171188095Y-136961523D01*
X171092857Y-137056761D01*
X170950000Y-137104380D01*
X170711904Y-137104380D01*
X172140476Y-136104380D02*
X171950000Y-136104380D01*
X171854761Y-136152000D01*
X171807142Y-136199619D01*
X171711904Y-136342476D01*
X171664285Y-136532952D01*
X171664285Y-136913904D01*
X171711904Y-137009142D01*
X171759523Y-137056761D01*
X171854761Y-137104380D01*
X172045238Y-137104380D01*
X172140476Y-137056761D01*
X172188095Y-137009142D01*
X172235714Y-136913904D01*
X172235714Y-136675809D01*
X172188095Y-136580571D01*
X172140476Y-136532952D01*
X172045238Y-136485333D01*
X171854761Y-136485333D01*
X171759523Y-136532952D01*
X171711904Y-136580571D01*
X171664285Y-136675809D01*
%TO.C,D4*%
X158187404Y-77668380D02*
X158187404Y-76668380D01*
X158425500Y-76668380D01*
X158568357Y-76716000D01*
X158663595Y-76811238D01*
X158711214Y-76906476D01*
X158758833Y-77096952D01*
X158758833Y-77239809D01*
X158711214Y-77430285D01*
X158663595Y-77525523D01*
X158568357Y-77620761D01*
X158425500Y-77668380D01*
X158187404Y-77668380D01*
X159615976Y-77001714D02*
X159615976Y-77668380D01*
X159377880Y-76620761D02*
X159139785Y-77335047D01*
X159758833Y-77335047D01*
%TO.C,D1*%
X119403904Y-77668380D02*
X119403904Y-76668380D01*
X119642000Y-76668380D01*
X119784857Y-76716000D01*
X119880095Y-76811238D01*
X119927714Y-76906476D01*
X119975333Y-77096952D01*
X119975333Y-77239809D01*
X119927714Y-77430285D01*
X119880095Y-77525523D01*
X119784857Y-77620761D01*
X119642000Y-77668380D01*
X119403904Y-77668380D01*
X120927714Y-77668380D02*
X120356285Y-77668380D01*
X120642000Y-77668380D02*
X120642000Y-76668380D01*
X120546761Y-76811238D01*
X120451523Y-76906476D01*
X120356285Y-76954095D01*
%TO.C,D5*%
X162329904Y-106116380D02*
X162329904Y-105116380D01*
X162568000Y-105116380D01*
X162710857Y-105164000D01*
X162806095Y-105259238D01*
X162853714Y-105354476D01*
X162901333Y-105544952D01*
X162901333Y-105687809D01*
X162853714Y-105878285D01*
X162806095Y-105973523D01*
X162710857Y-106068761D01*
X162568000Y-106116380D01*
X162329904Y-106116380D01*
X163806095Y-105116380D02*
X163329904Y-105116380D01*
X163282285Y-105592571D01*
X163329904Y-105544952D01*
X163425142Y-105497333D01*
X163663238Y-105497333D01*
X163758476Y-105544952D01*
X163806095Y-105592571D01*
X163853714Y-105687809D01*
X163853714Y-105925904D01*
X163806095Y-106021142D01*
X163758476Y-106068761D01*
X163663238Y-106116380D01*
X163425142Y-106116380D01*
X163329904Y-106068761D01*
X163282285Y-106021142D01*
%TO.C,D3*%
X108735904Y-137104380D02*
X108735904Y-136104380D01*
X108974000Y-136104380D01*
X109116857Y-136152000D01*
X109212095Y-136247238D01*
X109259714Y-136342476D01*
X109307333Y-136532952D01*
X109307333Y-136675809D01*
X109259714Y-136866285D01*
X109212095Y-136961523D01*
X109116857Y-137056761D01*
X108974000Y-137104380D01*
X108735904Y-137104380D01*
X109640666Y-136104380D02*
X110259714Y-136104380D01*
X109926380Y-136485333D01*
X110069238Y-136485333D01*
X110164476Y-136532952D01*
X110212095Y-136580571D01*
X110259714Y-136675809D01*
X110259714Y-136913904D01*
X110212095Y-137009142D01*
X110164476Y-137056761D01*
X110069238Y-137104380D01*
X109783523Y-137104380D01*
X109688285Y-137056761D01*
X109640666Y-137009142D01*
D12*
%TO.C,R6*%
X167986064Y-137520000D02*
X166531936Y-137520000D01*
X167986064Y-139340000D02*
X166531936Y-139340000D01*
%TO.C,R5*%
X159604064Y-106532000D02*
X158149936Y-106532000D01*
X159604064Y-108352000D02*
X158149936Y-108352000D01*
%TO.C,R4*%
X155413064Y-78084000D02*
X153958936Y-78084000D01*
X155413064Y-79904000D02*
X153958936Y-79904000D01*
%TO.C,R3*%
X112937936Y-139340000D02*
X114392064Y-139340000D01*
X112937936Y-137520000D02*
X114392064Y-137520000D01*
%TO.C,R2*%
X121446936Y-108352000D02*
X122901064Y-108352000D01*
X121446936Y-106532000D02*
X122901064Y-106532000D01*
%TO.C,R1*%
X123605936Y-79904000D02*
X125060064Y-79904000D01*
X123605936Y-78084000D02*
X125060064Y-78084000D01*
%TO.C,D2*%
X118983000Y-106482000D02*
X116298000Y-106482000D01*
X116298000Y-108402000D02*
X118983000Y-108402000D01*
X116298000Y-106482000D02*
X116298000Y-108402000D01*
%TO.C,D6*%
X173135000Y-139390000D02*
X173135000Y-137470000D01*
X173135000Y-137470000D02*
X170450000Y-137470000D01*
X170450000Y-139390000D02*
X173135000Y-139390000D01*
%TO.C,D4*%
X160610500Y-79954000D02*
X160610500Y-78034000D01*
X160610500Y-78034000D02*
X157925500Y-78034000D01*
X157925500Y-79954000D02*
X160610500Y-79954000D01*
%TO.C,D1*%
X118457000Y-79954000D02*
X121142000Y-79954000D01*
X121142000Y-78034000D02*
X118457000Y-78034000D01*
X118457000Y-78034000D02*
X118457000Y-79954000D01*
%TO.C,D5*%
X164753000Y-108402000D02*
X164753000Y-106482000D01*
X162068000Y-108402000D02*
X164753000Y-108402000D01*
X164753000Y-106482000D02*
X162068000Y-106482000D01*
%TO.C,D3*%
X110474000Y-137470000D02*
X107789000Y-137470000D01*
X107789000Y-137470000D02*
X107789000Y-139390000D01*
X107789000Y-139390000D02*
X110474000Y-139390000D01*
%TD*%
%LPC*%
D13*
%TO.C,R6*%
X168721500Y-138430000D03*
X165796500Y-138430000D03*
%TD*%
%TO.C,R5*%
X160339500Y-107442000D03*
X157414500Y-107442000D03*
%TD*%
%TO.C,R4*%
X156148500Y-78994000D03*
X153223500Y-78994000D03*
%TD*%
D14*
%TO.C,R3*%
X112202500Y-138430000D03*
X115127500Y-138430000D03*
%TD*%
%TO.C,R2*%
X120711500Y-107442000D03*
X123636500Y-107442000D03*
%TD*%
%TO.C,R1*%
X122870500Y-78994000D03*
X125795500Y-78994000D03*
%TD*%
D15*
%TO.C,J7*%
X138938000Y-76327000D03*
%TD*%
%TO.C,J8*%
X138938000Y-83947000D03*
%TD*%
D16*
%TO.C,D2*%
X117045500Y-107442000D03*
X118920500Y-107442000D03*
%TD*%
D17*
%TO.C,D6*%
X172387500Y-138430000D03*
X170512500Y-138430000D03*
%TD*%
D15*
%TO.C,J20*%
X142113000Y-83947000D03*
%TD*%
%TO.C,J16*%
X138938000Y-61087000D03*
%TD*%
D17*
%TO.C,D4*%
X159863000Y-78994000D03*
X157988000Y-78994000D03*
%TD*%
D15*
%TO.C,J18*%
X142113000Y-68707000D03*
%TD*%
%TO.C,J19*%
X142113000Y-76327000D03*
%TD*%
%TO.C,J2*%
X138938000Y-80137000D03*
%TD*%
%TO.C,J31*%
X142113000Y-123952000D03*
%TD*%
D16*
%TO.C,D1*%
X119204500Y-78994000D03*
X121079500Y-78994000D03*
%TD*%
D17*
%TO.C,D5*%
X164005500Y-107442000D03*
X162130500Y-107442000D03*
%TD*%
D15*
%TO.C,J30*%
X142113000Y-117094000D03*
%TD*%
%TO.C,J6*%
X138938000Y-95377000D03*
%TD*%
%TO.C,J3*%
X138938000Y-87757000D03*
%TD*%
%TO.C,J17*%
X142113000Y-61087000D03*
%TD*%
%TO.C,J28*%
X138938000Y-117094000D03*
%TD*%
%TO.C,J12*%
X138938000Y-99187000D03*
%TD*%
D16*
%TO.C,D3*%
X108536500Y-138430000D03*
X110411500Y-138430000D03*
%TD*%
D15*
%TO.C,J14*%
X138938000Y-68707000D03*
%TD*%
%TO.C,J9*%
X138938000Y-91567000D03*
%TD*%
D18*
%TO.C,J1*%
X138938000Y-72517000D03*
%TD*%
D15*
%TO.C,J29*%
X138938000Y-123952000D03*
%TD*%
%TO.C,J15*%
X138938000Y-64897000D03*
%TD*%
M02*
