%TF.GenerationSoftware,KiCad,Pcbnew,(6.0.9)*%
%TF.CreationDate,2022-12-10T14:06:51+01:00*%
%TF.ProjectId,PartoUno,50617274-6f55-46e6-9f2e-6b696361645f,rev?*%
%TF.SameCoordinates,Original*%
%TF.FileFunction,Legend,Top*%
%TF.FilePolarity,Positive*%
%FSLAX46Y46*%
G04 Gerber Fmt 4.6, Leading zero omitted, Abs format (unit mm)*
G04 Created by KiCad (PCBNEW (6.0.9)) date 2022-12-10 14:06:51*
%MOMM*%
%LPD*%
G01*
G04 APERTURE LIST*
G04 Aperture macros list*
%AMRoundRect*
0 Rectangle with rounded corners*
0 $1 Rounding radius*
0 $2 $3 $4 $5 $6 $7 $8 $9 X,Y pos of 4 corners*
0 Add a 4 corners polygon primitive as box body*
4,1,4,$2,$3,$4,$5,$6,$7,$8,$9,$2,$3,0*
0 Add four circle primitives for the rounded corners*
1,1,$1+$1,$2,$3*
1,1,$1+$1,$4,$5*
1,1,$1+$1,$6,$7*
1,1,$1+$1,$8,$9*
0 Add four rect primitives between the rounded corners*
20,1,$1+$1,$2,$3,$4,$5,0*
20,1,$1+$1,$4,$5,$6,$7,0*
20,1,$1+$1,$6,$7,$8,$9,0*
20,1,$1+$1,$8,$9,$2,$3,0*%
G04 Aperture macros list end*
%ADD10C,0.152400*%
%ADD11C,0.150000*%
%ADD12C,0.120000*%
%ADD13O,2.400000X1.600000*%
%ADD14R,2.400000X1.600000*%
%ADD15RoundRect,0.250000X-0.312500X-0.625000X0.312500X-0.625000X0.312500X0.625000X-0.312500X0.625000X0*%
%ADD16RoundRect,0.750000X1.000000X-0.750000X1.000000X0.750000X-1.000000X0.750000X-1.000000X-0.750000X0*%
%ADD17RoundRect,0.750000X1.750000X-0.750000X1.750000X0.750000X-1.750000X0.750000X-1.750000X-0.750000X0*%
%ADD18RoundRect,3.000000X3.000000X-3.000000X3.000000X3.000000X-3.000000X3.000000X-3.000000X-3.000000X0*%
%ADD19RoundRect,0.250000X-0.250000X-0.750000X0.250000X-0.750000X0.250000X0.750000X-0.250000X0.750000X0*%
%ADD20RoundRect,0.243750X-0.243750X-0.456250X0.243750X-0.456250X0.243750X0.456250X-0.243750X0.456250X0*%
%ADD21RoundRect,0.243750X0.243750X0.456250X-0.243750X0.456250X-0.243750X-0.456250X0.243750X-0.456250X0*%
%ADD22RoundRect,0.250000X0.325000X1.100000X-0.325000X1.100000X-0.325000X-1.100000X0.325000X-1.100000X0*%
%ADD23RoundRect,0.250000X0.325000X0.650000X-0.325000X0.650000X-0.325000X-0.650000X0.325000X-0.650000X0*%
%ADD24RoundRect,0.250000X0.312500X0.625000X-0.312500X0.625000X-0.312500X-0.625000X0.312500X-0.625000X0*%
%ADD25RoundRect,0.250000X-0.325000X-0.650000X0.325000X-0.650000X0.325000X0.650000X-0.325000X0.650000X0*%
%ADD26RoundRect,0.100000X-0.637500X-0.100000X0.637500X-0.100000X0.637500X0.100000X-0.637500X0.100000X0*%
%ADD27RoundRect,0.100000X0.637500X0.100000X-0.637500X0.100000X-0.637500X-0.100000X0.637500X-0.100000X0*%
G04 APERTURE END LIST*
D10*
X136707638Y-132904895D02*
X136707638Y-133485466D01*
X136668933Y-133601580D01*
X136591523Y-133678990D01*
X136475409Y-133717695D01*
X136398000Y-133717695D01*
X137481733Y-133717695D02*
X137094685Y-133717695D01*
X137094685Y-132904895D01*
X138217123Y-133640285D02*
X138178419Y-133678990D01*
X138062304Y-133717695D01*
X137984895Y-133717695D01*
X137868780Y-133678990D01*
X137791371Y-133601580D01*
X137752666Y-133524171D01*
X137713961Y-133369352D01*
X137713961Y-133253238D01*
X137752666Y-133098419D01*
X137791371Y-133021009D01*
X137868780Y-132943600D01*
X137984895Y-132904895D01*
X138062304Y-132904895D01*
X138178419Y-132943600D01*
X138217123Y-132982304D01*
X138797695Y-132904895D02*
X138797695Y-133485466D01*
X138758990Y-133601580D01*
X138681580Y-133678990D01*
X138565466Y-133717695D01*
X138488057Y-133717695D01*
X139571790Y-133717695D02*
X139184742Y-133717695D01*
X139184742Y-132904895D01*
X140307180Y-133640285D02*
X140268476Y-133678990D01*
X140152361Y-133717695D01*
X140074952Y-133717695D01*
X139958838Y-133678990D01*
X139881428Y-133601580D01*
X139842723Y-133524171D01*
X139804019Y-133369352D01*
X139804019Y-133253238D01*
X139842723Y-133098419D01*
X139881428Y-133021009D01*
X139958838Y-132943600D01*
X140074952Y-132904895D01*
X140152361Y-132904895D01*
X140268476Y-132943600D01*
X140307180Y-132982304D01*
X140887752Y-132904895D02*
X140887752Y-133485466D01*
X140849047Y-133601580D01*
X140771638Y-133678990D01*
X140655523Y-133717695D01*
X140578114Y-133717695D01*
X141661847Y-133717695D02*
X141274800Y-133717695D01*
X141274800Y-132904895D01*
X142397238Y-133640285D02*
X142358533Y-133678990D01*
X142242419Y-133717695D01*
X142165009Y-133717695D01*
X142048895Y-133678990D01*
X141971485Y-133601580D01*
X141932780Y-133524171D01*
X141894076Y-133369352D01*
X141894076Y-133253238D01*
X141932780Y-133098419D01*
X141971485Y-133021009D01*
X142048895Y-132943600D01*
X142165009Y-132904895D01*
X142242419Y-132904895D01*
X142358533Y-132943600D01*
X142397238Y-132982304D01*
X142977809Y-132904895D02*
X142977809Y-133485466D01*
X142939104Y-133601580D01*
X142861695Y-133678990D01*
X142745580Y-133717695D01*
X142668171Y-133717695D01*
X143751904Y-133717695D02*
X143364857Y-133717695D01*
X143364857Y-132904895D01*
X144487295Y-133640285D02*
X144448590Y-133678990D01*
X144332476Y-133717695D01*
X144255066Y-133717695D01*
X144138952Y-133678990D01*
X144061542Y-133601580D01*
X144022838Y-133524171D01*
X143984133Y-133369352D01*
X143984133Y-133253238D01*
X144022838Y-133098419D01*
X144061542Y-133021009D01*
X144138952Y-132943600D01*
X144255066Y-132904895D01*
X144332476Y-132904895D01*
X144448590Y-132943600D01*
X144487295Y-132982304D01*
D11*
%TO.C,U1*%
X154940095Y-88479380D02*
X154940095Y-89288904D01*
X154987714Y-89384142D01*
X155035333Y-89431761D01*
X155130571Y-89479380D01*
X155321047Y-89479380D01*
X155416285Y-89431761D01*
X155463904Y-89384142D01*
X155511523Y-89288904D01*
X155511523Y-88479380D01*
X156511523Y-89479380D02*
X155940095Y-89479380D01*
X156225809Y-89479380D02*
X156225809Y-88479380D01*
X156130571Y-88622238D01*
X156035333Y-88717476D01*
X155940095Y-88765095D01*
%TO.C,R1*%
X124293333Y-77626380D02*
X123960000Y-77150190D01*
X123721904Y-77626380D02*
X123721904Y-76626380D01*
X124102857Y-76626380D01*
X124198095Y-76674000D01*
X124245714Y-76721619D01*
X124293333Y-76816857D01*
X124293333Y-76959714D01*
X124245714Y-77054952D01*
X124198095Y-77102571D01*
X124102857Y-77150190D01*
X123721904Y-77150190D01*
X125245714Y-77626380D02*
X124674285Y-77626380D01*
X124960000Y-77626380D02*
X124960000Y-76626380D01*
X124864761Y-76769238D01*
X124769523Y-76864476D01*
X124674285Y-76912095D01*
%TO.C,BT1*%
X131500571Y-141247714D02*
X131548190Y-141104857D01*
X131595809Y-141057238D01*
X131691047Y-141009619D01*
X131833904Y-141009619D01*
X131929142Y-141057238D01*
X131976761Y-141104857D01*
X132024380Y-141200095D01*
X132024380Y-141581047D01*
X131024380Y-141581047D01*
X131024380Y-141247714D01*
X131072000Y-141152476D01*
X131119619Y-141104857D01*
X131214857Y-141057238D01*
X131310095Y-141057238D01*
X131405333Y-141104857D01*
X131452952Y-141152476D01*
X131500571Y-141247714D01*
X131500571Y-141581047D01*
X131024380Y-140723904D02*
X131024380Y-140152476D01*
X132024380Y-140438190D02*
X131024380Y-140438190D01*
X132024380Y-139295333D02*
X132024380Y-139866761D01*
X132024380Y-139581047D02*
X131024380Y-139581047D01*
X131167238Y-139676285D01*
X131262476Y-139771523D01*
X131310095Y-139866761D01*
%TO.C,D21*%
X108259714Y-137104380D02*
X108259714Y-136104380D01*
X108497809Y-136104380D01*
X108640666Y-136152000D01*
X108735904Y-136247238D01*
X108783523Y-136342476D01*
X108831142Y-136532952D01*
X108831142Y-136675809D01*
X108783523Y-136866285D01*
X108735904Y-136961523D01*
X108640666Y-137056761D01*
X108497809Y-137104380D01*
X108259714Y-137104380D01*
X109212095Y-136199619D02*
X109259714Y-136152000D01*
X109354952Y-136104380D01*
X109593047Y-136104380D01*
X109688285Y-136152000D01*
X109735904Y-136199619D01*
X109783523Y-136294857D01*
X109783523Y-136390095D01*
X109735904Y-136532952D01*
X109164476Y-137104380D01*
X109783523Y-137104380D01*
X110735904Y-137104380D02*
X110164476Y-137104380D01*
X110450190Y-137104380D02*
X110450190Y-136104380D01*
X110354952Y-136247238D01*
X110259714Y-136342476D01*
X110164476Y-136390095D01*
%TO.C,R9*%
X121854933Y-106074380D02*
X121521600Y-105598190D01*
X121283504Y-106074380D02*
X121283504Y-105074380D01*
X121664457Y-105074380D01*
X121759695Y-105122000D01*
X121807314Y-105169619D01*
X121854933Y-105264857D01*
X121854933Y-105407714D01*
X121807314Y-105502952D01*
X121759695Y-105550571D01*
X121664457Y-105598190D01*
X121283504Y-105598190D01*
X122331123Y-106074380D02*
X122521600Y-106074380D01*
X122616838Y-106026761D01*
X122664457Y-105979142D01*
X122759695Y-105836285D01*
X122807314Y-105645809D01*
X122807314Y-105264857D01*
X122759695Y-105169619D01*
X122712076Y-105122000D01*
X122616838Y-105074380D01*
X122426361Y-105074380D01*
X122331123Y-105122000D01*
X122283504Y-105169619D01*
X122235885Y-105264857D01*
X122235885Y-105502952D01*
X122283504Y-105598190D01*
X122331123Y-105645809D01*
X122426361Y-105693428D01*
X122616838Y-105693428D01*
X122712076Y-105645809D01*
X122759695Y-105598190D01*
X122807314Y-105502952D01*
%TO.C,D13*%
X161853714Y-106116380D02*
X161853714Y-105116380D01*
X162091809Y-105116380D01*
X162234666Y-105164000D01*
X162329904Y-105259238D01*
X162377523Y-105354476D01*
X162425142Y-105544952D01*
X162425142Y-105687809D01*
X162377523Y-105878285D01*
X162329904Y-105973523D01*
X162234666Y-106068761D01*
X162091809Y-106116380D01*
X161853714Y-106116380D01*
X163377523Y-106116380D02*
X162806095Y-106116380D01*
X163091809Y-106116380D02*
X163091809Y-105116380D01*
X162996571Y-105259238D01*
X162901333Y-105354476D01*
X162806095Y-105402095D01*
X163710857Y-105116380D02*
X164329904Y-105116380D01*
X163996571Y-105497333D01*
X164139428Y-105497333D01*
X164234666Y-105544952D01*
X164282285Y-105592571D01*
X164329904Y-105687809D01*
X164329904Y-105925904D01*
X164282285Y-106021142D01*
X164234666Y-106068761D01*
X164139428Y-106116380D01*
X163853714Y-106116380D01*
X163758476Y-106068761D01*
X163710857Y-106021142D01*
%TO.C,C1*%
X134215142Y-127166666D02*
X134262761Y-127214285D01*
X134310380Y-127357142D01*
X134310380Y-127452380D01*
X134262761Y-127595238D01*
X134167523Y-127690476D01*
X134072285Y-127738095D01*
X133881809Y-127785714D01*
X133738952Y-127785714D01*
X133548476Y-127738095D01*
X133453238Y-127690476D01*
X133358000Y-127595238D01*
X133310380Y-127452380D01*
X133310380Y-127357142D01*
X133358000Y-127214285D01*
X133405619Y-127166666D01*
X134310380Y-126214285D02*
X134310380Y-126785714D01*
X134310380Y-126500000D02*
X133310380Y-126500000D01*
X133453238Y-126595238D01*
X133548476Y-126690476D01*
X133596095Y-126785714D01*
%TO.C,D1*%
X119466904Y-77668380D02*
X119466904Y-76668380D01*
X119705000Y-76668380D01*
X119847857Y-76716000D01*
X119943095Y-76811238D01*
X119990714Y-76906476D01*
X120038333Y-77096952D01*
X120038333Y-77239809D01*
X119990714Y-77430285D01*
X119943095Y-77525523D01*
X119847857Y-77620761D01*
X119705000Y-77668380D01*
X119466904Y-77668380D01*
X120990714Y-77668380D02*
X120419285Y-77668380D01*
X120705000Y-77668380D02*
X120705000Y-76668380D01*
X120609761Y-76811238D01*
X120514523Y-76906476D01*
X120419285Y-76954095D01*
%TO.C,C4*%
X129627333Y-114983142D02*
X129579714Y-115030761D01*
X129436857Y-115078380D01*
X129341619Y-115078380D01*
X129198761Y-115030761D01*
X129103523Y-114935523D01*
X129055904Y-114840285D01*
X129008285Y-114649809D01*
X129008285Y-114506952D01*
X129055904Y-114316476D01*
X129103523Y-114221238D01*
X129198761Y-114126000D01*
X129341619Y-114078380D01*
X129436857Y-114078380D01*
X129579714Y-114126000D01*
X129627333Y-114173619D01*
X130484476Y-114411714D02*
X130484476Y-115078380D01*
X130246380Y-114030761D02*
X130008285Y-114745047D01*
X130627333Y-114745047D01*
%TO.C,R3*%
X166965333Y-137104380D02*
X166632000Y-136628190D01*
X166393904Y-137104380D02*
X166393904Y-136104380D01*
X166774857Y-136104380D01*
X166870095Y-136152000D01*
X166917714Y-136199619D01*
X166965333Y-136294857D01*
X166965333Y-136437714D01*
X166917714Y-136532952D01*
X166870095Y-136580571D01*
X166774857Y-136628190D01*
X166393904Y-136628190D01*
X167298666Y-136104380D02*
X167917714Y-136104380D01*
X167584380Y-136485333D01*
X167727238Y-136485333D01*
X167822476Y-136532952D01*
X167870095Y-136580571D01*
X167917714Y-136675809D01*
X167917714Y-136913904D01*
X167870095Y-137009142D01*
X167822476Y-137056761D01*
X167727238Y-137104380D01*
X167441523Y-137104380D01*
X167346285Y-137056761D01*
X167298666Y-137009142D01*
%TO.C,C3*%
X147550142Y-127166666D02*
X147597761Y-127214285D01*
X147645380Y-127357142D01*
X147645380Y-127452380D01*
X147597761Y-127595238D01*
X147502523Y-127690476D01*
X147407285Y-127738095D01*
X147216809Y-127785714D01*
X147073952Y-127785714D01*
X146883476Y-127738095D01*
X146788238Y-127690476D01*
X146693000Y-127595238D01*
X146645380Y-127452380D01*
X146645380Y-127357142D01*
X146693000Y-127214285D01*
X146740619Y-127166666D01*
X146645380Y-126833333D02*
X146645380Y-126214285D01*
X147026333Y-126547619D01*
X147026333Y-126404761D01*
X147073952Y-126309523D01*
X147121571Y-126261904D01*
X147216809Y-126214285D01*
X147454904Y-126214285D01*
X147550142Y-126261904D01*
X147597761Y-126309523D01*
X147645380Y-126404761D01*
X147645380Y-126690476D01*
X147597761Y-126785714D01*
X147550142Y-126833333D01*
%TO.C,U2*%
X129032095Y-104227380D02*
X129032095Y-105036904D01*
X129079714Y-105132142D01*
X129127333Y-105179761D01*
X129222571Y-105227380D01*
X129413047Y-105227380D01*
X129508285Y-105179761D01*
X129555904Y-105132142D01*
X129603523Y-105036904D01*
X129603523Y-104227380D01*
X130032095Y-104322619D02*
X130079714Y-104275000D01*
X130174952Y-104227380D01*
X130413047Y-104227380D01*
X130508285Y-104275000D01*
X130555904Y-104322619D01*
X130603523Y-104417857D01*
X130603523Y-104513095D01*
X130555904Y-104655952D01*
X129984476Y-105227380D01*
X130603523Y-105227380D01*
%TO.C,R21*%
X113047542Y-137062380D02*
X112714209Y-136586190D01*
X112476114Y-137062380D02*
X112476114Y-136062380D01*
X112857066Y-136062380D01*
X112952304Y-136110000D01*
X112999923Y-136157619D01*
X113047542Y-136252857D01*
X113047542Y-136395714D01*
X112999923Y-136490952D01*
X112952304Y-136538571D01*
X112857066Y-136586190D01*
X112476114Y-136586190D01*
X113428495Y-136157619D02*
X113476114Y-136110000D01*
X113571352Y-136062380D01*
X113809447Y-136062380D01*
X113904685Y-136110000D01*
X113952304Y-136157619D01*
X113999923Y-136252857D01*
X113999923Y-136348095D01*
X113952304Y-136490952D01*
X113380876Y-137062380D01*
X113999923Y-137062380D01*
X114952304Y-137062380D02*
X114380876Y-137062380D01*
X114666590Y-137062380D02*
X114666590Y-136062380D01*
X114571352Y-136205238D01*
X114476114Y-136300476D01*
X114380876Y-136348095D01*
%TO.C,R11*%
X158259542Y-106116380D02*
X157926209Y-105640190D01*
X157688114Y-106116380D02*
X157688114Y-105116380D01*
X158069066Y-105116380D01*
X158164304Y-105164000D01*
X158211923Y-105211619D01*
X158259542Y-105306857D01*
X158259542Y-105449714D01*
X158211923Y-105544952D01*
X158164304Y-105592571D01*
X158069066Y-105640190D01*
X157688114Y-105640190D01*
X159211923Y-106116380D02*
X158640495Y-106116380D01*
X158926209Y-106116380D02*
X158926209Y-105116380D01*
X158830971Y-105259238D01*
X158735733Y-105354476D01*
X158640495Y-105402095D01*
X160164304Y-106116380D02*
X159592876Y-106116380D01*
X159878590Y-106116380D02*
X159878590Y-105116380D01*
X159783352Y-105259238D01*
X159688114Y-105354476D01*
X159592876Y-105402095D01*
%TO.C,C6*%
X132421333Y-90654142D02*
X132373714Y-90701761D01*
X132230857Y-90749380D01*
X132135619Y-90749380D01*
X131992761Y-90701761D01*
X131897523Y-90606523D01*
X131849904Y-90511285D01*
X131802285Y-90320809D01*
X131802285Y-90177952D01*
X131849904Y-89987476D01*
X131897523Y-89892238D01*
X131992761Y-89797000D01*
X132135619Y-89749380D01*
X132230857Y-89749380D01*
X132373714Y-89797000D01*
X132421333Y-89844619D01*
X133278476Y-89749380D02*
X133088000Y-89749380D01*
X132992761Y-89797000D01*
X132945142Y-89844619D01*
X132849904Y-89987476D01*
X132802285Y-90177952D01*
X132802285Y-90558904D01*
X132849904Y-90654142D01*
X132897523Y-90701761D01*
X132992761Y-90749380D01*
X133183238Y-90749380D01*
X133278476Y-90701761D01*
X133326095Y-90654142D01*
X133373714Y-90558904D01*
X133373714Y-90320809D01*
X133326095Y-90225571D01*
X133278476Y-90177952D01*
X133183238Y-90130333D01*
X132992761Y-90130333D01*
X132897523Y-90177952D01*
X132849904Y-90225571D01*
X132802285Y-90320809D01*
%TO.C,U3*%
X149225095Y-104100380D02*
X149225095Y-104909904D01*
X149272714Y-105005142D01*
X149320333Y-105052761D01*
X149415571Y-105100380D01*
X149606047Y-105100380D01*
X149701285Y-105052761D01*
X149748904Y-105005142D01*
X149796523Y-104909904D01*
X149796523Y-104100380D01*
X150177476Y-104100380D02*
X150796523Y-104100380D01*
X150463190Y-104481333D01*
X150606047Y-104481333D01*
X150701285Y-104528952D01*
X150748904Y-104576571D01*
X150796523Y-104671809D01*
X150796523Y-104909904D01*
X150748904Y-105005142D01*
X150701285Y-105052761D01*
X150606047Y-105100380D01*
X150320333Y-105100380D01*
X150225095Y-105052761D01*
X150177476Y-105005142D01*
%TO.C,D3*%
X170711904Y-137104380D02*
X170711904Y-136104380D01*
X170950000Y-136104380D01*
X171092857Y-136152000D01*
X171188095Y-136247238D01*
X171235714Y-136342476D01*
X171283333Y-136532952D01*
X171283333Y-136675809D01*
X171235714Y-136866285D01*
X171188095Y-136961523D01*
X171092857Y-137056761D01*
X170950000Y-137104380D01*
X170711904Y-137104380D01*
X171616666Y-136104380D02*
X172235714Y-136104380D01*
X171902380Y-136485333D01*
X172045238Y-136485333D01*
X172140476Y-136532952D01*
X172188095Y-136580571D01*
X172235714Y-136675809D01*
X172235714Y-136913904D01*
X172188095Y-137009142D01*
X172140476Y-137056761D01*
X172045238Y-137104380D01*
X171759523Y-137104380D01*
X171664285Y-137056761D01*
X171616666Y-137009142D01*
%TO.C,R18*%
X155821142Y-77668380D02*
X155487809Y-77192190D01*
X155249714Y-77668380D02*
X155249714Y-76668380D01*
X155630666Y-76668380D01*
X155725904Y-76716000D01*
X155773523Y-76763619D01*
X155821142Y-76858857D01*
X155821142Y-77001714D01*
X155773523Y-77096952D01*
X155725904Y-77144571D01*
X155630666Y-77192190D01*
X155249714Y-77192190D01*
X156773523Y-77668380D02*
X156202095Y-77668380D01*
X156487809Y-77668380D02*
X156487809Y-76668380D01*
X156392571Y-76811238D01*
X156297333Y-76906476D01*
X156202095Y-76954095D01*
X157344952Y-77096952D02*
X157249714Y-77049333D01*
X157202095Y-77001714D01*
X157154476Y-76906476D01*
X157154476Y-76858857D01*
X157202095Y-76763619D01*
X157249714Y-76716000D01*
X157344952Y-76668380D01*
X157535428Y-76668380D01*
X157630666Y-76716000D01*
X157678285Y-76763619D01*
X157725904Y-76858857D01*
X157725904Y-76906476D01*
X157678285Y-77001714D01*
X157630666Y-77049333D01*
X157535428Y-77096952D01*
X157344952Y-77096952D01*
X157249714Y-77144571D01*
X157202095Y-77192190D01*
X157154476Y-77287428D01*
X157154476Y-77477904D01*
X157202095Y-77573142D01*
X157249714Y-77620761D01*
X157344952Y-77668380D01*
X157535428Y-77668380D01*
X157630666Y-77620761D01*
X157678285Y-77573142D01*
X157725904Y-77477904D01*
X157725904Y-77287428D01*
X157678285Y-77192190D01*
X157630666Y-77144571D01*
X157535428Y-77096952D01*
%TO.C,D18*%
X159504714Y-77668380D02*
X159504714Y-76668380D01*
X159742809Y-76668380D01*
X159885666Y-76716000D01*
X159980904Y-76811238D01*
X160028523Y-76906476D01*
X160076142Y-77096952D01*
X160076142Y-77239809D01*
X160028523Y-77430285D01*
X159980904Y-77525523D01*
X159885666Y-77620761D01*
X159742809Y-77668380D01*
X159504714Y-77668380D01*
X161028523Y-77668380D02*
X160457095Y-77668380D01*
X160742809Y-77668380D02*
X160742809Y-76668380D01*
X160647571Y-76811238D01*
X160552333Y-76906476D01*
X160457095Y-76954095D01*
X161599952Y-77096952D02*
X161504714Y-77049333D01*
X161457095Y-77001714D01*
X161409476Y-76906476D01*
X161409476Y-76858857D01*
X161457095Y-76763619D01*
X161504714Y-76716000D01*
X161599952Y-76668380D01*
X161790428Y-76668380D01*
X161885666Y-76716000D01*
X161933285Y-76763619D01*
X161980904Y-76858857D01*
X161980904Y-76906476D01*
X161933285Y-77001714D01*
X161885666Y-77049333D01*
X161790428Y-77096952D01*
X161599952Y-77096952D01*
X161504714Y-77144571D01*
X161457095Y-77192190D01*
X161409476Y-77287428D01*
X161409476Y-77477904D01*
X161457095Y-77573142D01*
X161504714Y-77620761D01*
X161599952Y-77668380D01*
X161790428Y-77668380D01*
X161885666Y-77620761D01*
X161933285Y-77573142D01*
X161980904Y-77477904D01*
X161980904Y-77287428D01*
X161933285Y-77192190D01*
X161885666Y-77144571D01*
X161790428Y-77096952D01*
%TO.C,C2*%
X155535333Y-104702142D02*
X155487714Y-104749761D01*
X155344857Y-104797380D01*
X155249619Y-104797380D01*
X155106761Y-104749761D01*
X155011523Y-104654523D01*
X154963904Y-104559285D01*
X154916285Y-104368809D01*
X154916285Y-104225952D01*
X154963904Y-104035476D01*
X155011523Y-103940238D01*
X155106761Y-103845000D01*
X155249619Y-103797380D01*
X155344857Y-103797380D01*
X155487714Y-103845000D01*
X155535333Y-103892619D01*
X155916285Y-103892619D02*
X155963904Y-103845000D01*
X156059142Y-103797380D01*
X156297238Y-103797380D01*
X156392476Y-103845000D01*
X156440095Y-103892619D01*
X156487714Y-103987857D01*
X156487714Y-104083095D01*
X156440095Y-104225952D01*
X155868666Y-104797380D01*
X156487714Y-104797380D01*
%TO.C,U4*%
X131826095Y-79264380D02*
X131826095Y-80073904D01*
X131873714Y-80169142D01*
X131921333Y-80216761D01*
X132016571Y-80264380D01*
X132207047Y-80264380D01*
X132302285Y-80216761D01*
X132349904Y-80169142D01*
X132397523Y-80073904D01*
X132397523Y-79264380D01*
X133302285Y-79597714D02*
X133302285Y-80264380D01*
X133064190Y-79216761D02*
X132826095Y-79931047D01*
X133445142Y-79931047D01*
%TO.C,R25*%
X160073642Y-104797380D02*
X159740309Y-104321190D01*
X159502214Y-104797380D02*
X159502214Y-103797380D01*
X159883166Y-103797380D01*
X159978404Y-103845000D01*
X160026023Y-103892619D01*
X160073642Y-103987857D01*
X160073642Y-104130714D01*
X160026023Y-104225952D01*
X159978404Y-104273571D01*
X159883166Y-104321190D01*
X159502214Y-104321190D01*
X160454595Y-103892619D02*
X160502214Y-103845000D01*
X160597452Y-103797380D01*
X160835547Y-103797380D01*
X160930785Y-103845000D01*
X160978404Y-103892619D01*
X161026023Y-103987857D01*
X161026023Y-104083095D01*
X160978404Y-104225952D01*
X160406976Y-104797380D01*
X161026023Y-104797380D01*
X161930785Y-103797380D02*
X161454595Y-103797380D01*
X161406976Y-104273571D01*
X161454595Y-104225952D01*
X161549833Y-104178333D01*
X161787928Y-104178333D01*
X161883166Y-104225952D01*
X161930785Y-104273571D01*
X161978404Y-104368809D01*
X161978404Y-104606904D01*
X161930785Y-104702142D01*
X161883166Y-104749761D01*
X161787928Y-104797380D01*
X161549833Y-104797380D01*
X161454595Y-104749761D01*
X161406976Y-104702142D01*
%TO.C,C5*%
X149947333Y-115038142D02*
X149899714Y-115085761D01*
X149756857Y-115133380D01*
X149661619Y-115133380D01*
X149518761Y-115085761D01*
X149423523Y-114990523D01*
X149375904Y-114895285D01*
X149328285Y-114704809D01*
X149328285Y-114561952D01*
X149375904Y-114371476D01*
X149423523Y-114276238D01*
X149518761Y-114181000D01*
X149661619Y-114133380D01*
X149756857Y-114133380D01*
X149899714Y-114181000D01*
X149947333Y-114228619D01*
X150852095Y-114133380D02*
X150375904Y-114133380D01*
X150328285Y-114609571D01*
X150375904Y-114561952D01*
X150471142Y-114514333D01*
X150709238Y-114514333D01*
X150804476Y-114561952D01*
X150852095Y-114609571D01*
X150899714Y-114704809D01*
X150899714Y-114942904D01*
X150852095Y-115038142D01*
X150804476Y-115085761D01*
X150709238Y-115133380D01*
X150471142Y-115133380D01*
X150375904Y-115085761D01*
X150328285Y-115038142D01*
%TO.C,D9*%
X117117904Y-106116380D02*
X117117904Y-105116380D01*
X117356000Y-105116380D01*
X117498857Y-105164000D01*
X117594095Y-105259238D01*
X117641714Y-105354476D01*
X117689333Y-105544952D01*
X117689333Y-105687809D01*
X117641714Y-105878285D01*
X117594095Y-105973523D01*
X117498857Y-106068761D01*
X117356000Y-106116380D01*
X117117904Y-106116380D01*
X118165523Y-106116380D02*
X118356000Y-106116380D01*
X118451238Y-106068761D01*
X118498857Y-106021142D01*
X118594095Y-105878285D01*
X118641714Y-105687809D01*
X118641714Y-105306857D01*
X118594095Y-105211619D01*
X118546476Y-105164000D01*
X118451238Y-105116380D01*
X118260761Y-105116380D01*
X118165523Y-105164000D01*
X118117904Y-105211619D01*
X118070285Y-105306857D01*
X118070285Y-105544952D01*
X118117904Y-105640190D01*
X118165523Y-105687809D01*
X118260761Y-105735428D01*
X118451238Y-105735428D01*
X118546476Y-105687809D01*
X118594095Y-105640190D01*
X118641714Y-105544952D01*
D12*
%TO.C,U1*%
X156692000Y-100507000D02*
G75*
G03*
X154692000Y-100507000I-1000000J0D01*
G01*
X160942000Y-100567000D02*
X160942000Y-90167000D01*
X160942000Y-90167000D02*
X150442000Y-90167000D01*
X150442000Y-100567000D02*
X160942000Y-100567000D01*
X153442000Y-90227000D02*
X153442000Y-100507000D01*
X150442000Y-90167000D02*
X150442000Y-100567000D01*
X156692000Y-100507000D02*
X157942000Y-100507000D01*
X153442000Y-100507000D02*
X154692000Y-100507000D01*
X157942000Y-100507000D02*
X157942000Y-90227000D01*
X157942000Y-90227000D02*
X153442000Y-90227000D01*
%TO.C,R1*%
X123732936Y-79904000D02*
X125187064Y-79904000D01*
X123732936Y-78084000D02*
X125187064Y-78084000D01*
%TO.C,BT1*%
X133462000Y-139962000D02*
X133962000Y-140462000D01*
X144962000Y-146462000D02*
X144962000Y-150212000D01*
X144962000Y-130712000D02*
X144962000Y-134462000D01*
X135962000Y-134462000D02*
X135962000Y-130712000D01*
X144962000Y-150212000D02*
X143462000Y-150212000D01*
X135962000Y-150212000D02*
X137462000Y-150212000D01*
X135962000Y-130712000D02*
X137462000Y-130712000D01*
X132462000Y-140462000D02*
X133962000Y-140462000D01*
X133462000Y-140962000D02*
X133462000Y-139962000D01*
X135962000Y-150212000D02*
X135962000Y-146462000D01*
X133962000Y-140462000D02*
X133462000Y-140962000D01*
X144962000Y-130712000D02*
X143462000Y-130712000D01*
X144962000Y-149461999D02*
G75*
G03*
X144962000Y-131462001I-4500000J8999999D01*
G01*
X135962000Y-131462001D02*
G75*
G03*
X135962000Y-149461999I4500000J-8999999D01*
G01*
%TO.C,D21*%
X107789000Y-139390000D02*
X110474000Y-139390000D01*
X110474000Y-137470000D02*
X107789000Y-137470000D01*
X107789000Y-137470000D02*
X107789000Y-139390000D01*
%TO.C,R9*%
X121294536Y-106532000D02*
X122748664Y-106532000D01*
X121294536Y-108352000D02*
X122748664Y-108352000D01*
%TO.C,D13*%
X164753000Y-106482000D02*
X162068000Y-106482000D01*
X162068000Y-108402000D02*
X164753000Y-108402000D01*
X164753000Y-108402000D02*
X164753000Y-106482000D01*
%TO.C,C1*%
X137666252Y-125640000D02*
X136243748Y-125640000D01*
X137666252Y-128360000D02*
X136243748Y-128360000D01*
%TO.C,D1*%
X118520000Y-79954000D02*
X121205000Y-79954000D01*
X121205000Y-78034000D02*
X118520000Y-78034000D01*
X118520000Y-78034000D02*
X118520000Y-79954000D01*
%TO.C,C4*%
X130505252Y-111866000D02*
X129082748Y-111866000D01*
X130505252Y-113686000D02*
X129082748Y-113686000D01*
%TO.C,R3*%
X167960664Y-137520000D02*
X166506536Y-137520000D01*
X167960664Y-139340000D02*
X166506536Y-139340000D01*
%TO.C,C3*%
X143257748Y-127910000D02*
X144680252Y-127910000D01*
X143257748Y-126090000D02*
X144680252Y-126090000D01*
%TO.C,U2*%
X129794000Y-105682000D02*
X126194000Y-105682000D01*
X129794000Y-111152000D02*
X131994000Y-111152000D01*
X129794000Y-105682000D02*
X131994000Y-105682000D01*
X129794000Y-111152000D02*
X127594000Y-111152000D01*
%TO.C,R21*%
X112963336Y-139340000D02*
X114417464Y-139340000D01*
X112963336Y-137520000D02*
X114417464Y-137520000D01*
%TO.C,R11*%
X159629464Y-108352000D02*
X158175336Y-108352000D01*
X159629464Y-106532000D02*
X158175336Y-106532000D01*
%TO.C,C6*%
X131876748Y-89175000D02*
X133299252Y-89175000D01*
X131876748Y-87355000D02*
X133299252Y-87355000D01*
%TO.C,U3*%
X149987000Y-111193000D02*
X147787000Y-111193000D01*
X149987000Y-105723000D02*
X147787000Y-105723000D01*
X149987000Y-111193000D02*
X153587000Y-111193000D01*
X149987000Y-105723000D02*
X152187000Y-105723000D01*
%TO.C,D3*%
X170450000Y-139390000D02*
X173135000Y-139390000D01*
X173135000Y-139390000D02*
X173135000Y-137470000D01*
X173135000Y-137470000D02*
X170450000Y-137470000D01*
%TO.C,R18*%
X157191064Y-79904000D02*
X155736936Y-79904000D01*
X157191064Y-78084000D02*
X155736936Y-78084000D01*
%TO.C,D18*%
X162404000Y-79954000D02*
X162404000Y-78034000D01*
X162404000Y-78034000D02*
X159719000Y-78034000D01*
X159719000Y-79954000D02*
X162404000Y-79954000D01*
%TO.C,C2*%
X154990748Y-103350000D02*
X156413252Y-103350000D01*
X154990748Y-101530000D02*
X156413252Y-101530000D01*
%TO.C,U4*%
X132588000Y-80887000D02*
X130388000Y-80887000D01*
X132588000Y-86357000D02*
X130388000Y-86357000D01*
X132588000Y-86357000D02*
X136188000Y-86357000D01*
X132588000Y-80887000D02*
X134788000Y-80887000D01*
%TO.C,R25*%
X161443564Y-103350000D02*
X159989436Y-103350000D01*
X161443564Y-101530000D02*
X159989436Y-101530000D01*
%TO.C,C5*%
X149402748Y-111866000D02*
X150825252Y-111866000D01*
X149402748Y-113686000D02*
X150825252Y-113686000D01*
%TO.C,D9*%
X116171000Y-106482000D02*
X116171000Y-108402000D01*
X118856000Y-106482000D02*
X116171000Y-106482000D01*
X116171000Y-108402000D02*
X118856000Y-108402000D01*
%TD*%
%LPC*%
D13*
%TO.C,U1*%
X151882000Y-99177000D03*
X151882000Y-96637000D03*
X151882000Y-94097000D03*
X151882000Y-91557000D03*
X159502000Y-91557000D03*
X159502000Y-94097000D03*
X159502000Y-96637000D03*
D14*
X159502000Y-99177000D03*
%TD*%
D15*
%TO.C,R1*%
X122997500Y-78994000D03*
X125922500Y-78994000D03*
%TD*%
D16*
%TO.C,BT1*%
X140462000Y-150412000D03*
D17*
X140462000Y-130512000D03*
D18*
X140462000Y-140462000D03*
%TD*%
D19*
%TO.C,J7*%
X142113000Y-91567000D03*
%TD*%
%TO.C,J8*%
X142113000Y-87757000D03*
%TD*%
D20*
%TO.C,D21*%
X108536500Y-138430000D03*
X110411500Y-138430000D03*
%TD*%
D19*
%TO.C,J10*%
X142113000Y-99187000D03*
%TD*%
D15*
%TO.C,R9*%
X120559100Y-107442000D03*
X123484100Y-107442000D03*
%TD*%
D19*
%TO.C,J20*%
X142113000Y-83947000D03*
%TD*%
D21*
%TO.C,D13*%
X164005500Y-107442000D03*
X162130500Y-107442000D03*
%TD*%
D19*
%TO.C,J16*%
X138938000Y-61087000D03*
%TD*%
%TO.C,J18*%
X142113000Y-68707000D03*
%TD*%
%TO.C,J19*%
X142113000Y-76327000D03*
%TD*%
%TO.C,J31*%
X142113000Y-123317000D03*
%TD*%
D22*
%TO.C,C1*%
X138430000Y-127000000D03*
X135480000Y-127000000D03*
%TD*%
D20*
%TO.C,D1*%
X119267500Y-78994000D03*
X121142500Y-78994000D03*
%TD*%
D19*
%TO.C,J30*%
X142113000Y-116459000D03*
%TD*%
D23*
%TO.C,C4*%
X131269000Y-112776000D03*
X128319000Y-112776000D03*
%TD*%
D19*
%TO.C,J17*%
X142113000Y-61087000D03*
%TD*%
D24*
%TO.C,R3*%
X168696100Y-138430000D03*
X165771100Y-138430000D03*
%TD*%
D25*
%TO.C,C3*%
X142494000Y-127000000D03*
X145444000Y-127000000D03*
%TD*%
D19*
%TO.C,J28*%
X138938000Y-116459000D03*
%TD*%
D26*
%TO.C,U2*%
X126931500Y-106142000D03*
X126931500Y-106792000D03*
X126931500Y-107442000D03*
X126931500Y-108092000D03*
X126931500Y-108742000D03*
X126931500Y-109392000D03*
X126931500Y-110042000D03*
X126931500Y-110692000D03*
X132656500Y-110692000D03*
X132656500Y-110042000D03*
X132656500Y-109392000D03*
X132656500Y-108742000D03*
X132656500Y-108092000D03*
X132656500Y-107442000D03*
X132656500Y-106792000D03*
X132656500Y-106142000D03*
%TD*%
D15*
%TO.C,R21*%
X112227900Y-138430000D03*
X115152900Y-138430000D03*
%TD*%
D24*
%TO.C,R11*%
X160364900Y-107442000D03*
X157439900Y-107442000D03*
%TD*%
D25*
%TO.C,C6*%
X131113000Y-88265000D03*
X134063000Y-88265000D03*
%TD*%
D27*
%TO.C,U3*%
X152849500Y-110733000D03*
X152849500Y-110083000D03*
X152849500Y-109433000D03*
X152849500Y-108783000D03*
X152849500Y-108133000D03*
X152849500Y-107483000D03*
X152849500Y-106833000D03*
X152849500Y-106183000D03*
X147124500Y-106183000D03*
X147124500Y-106833000D03*
X147124500Y-107483000D03*
X147124500Y-108133000D03*
X147124500Y-108783000D03*
X147124500Y-109433000D03*
X147124500Y-110083000D03*
X147124500Y-110733000D03*
%TD*%
D21*
%TO.C,D3*%
X172387500Y-138430000D03*
X170512500Y-138430000D03*
%TD*%
D24*
%TO.C,R18*%
X157926500Y-78994000D03*
X155001500Y-78994000D03*
%TD*%
D19*
%TO.C,J14*%
X138938000Y-68707000D03*
%TD*%
D21*
%TO.C,D18*%
X161656500Y-78994000D03*
X159781500Y-78994000D03*
%TD*%
D25*
%TO.C,C2*%
X157177000Y-102440000D03*
X154227000Y-102440000D03*
%TD*%
D27*
%TO.C,U4*%
X135450500Y-85897000D03*
X135450500Y-85247000D03*
X135450500Y-84597000D03*
X135450500Y-83947000D03*
X135450500Y-83297000D03*
X135450500Y-82647000D03*
X135450500Y-81997000D03*
X135450500Y-81347000D03*
X129725500Y-81347000D03*
X129725500Y-81997000D03*
X129725500Y-82647000D03*
X129725500Y-83297000D03*
X129725500Y-83947000D03*
X129725500Y-84597000D03*
X129725500Y-85247000D03*
X129725500Y-85897000D03*
%TD*%
D19*
%TO.C,J9*%
X142113000Y-95377000D03*
%TD*%
D24*
%TO.C,R25*%
X159254000Y-102440000D03*
X162179000Y-102440000D03*
%TD*%
D19*
%TO.C,J29*%
X138938000Y-123317000D03*
%TD*%
%TO.C,J15*%
X138938000Y-64897000D03*
%TD*%
D25*
%TO.C,C5*%
X148639000Y-112776000D03*
X151589000Y-112776000D03*
%TD*%
D20*
%TO.C,D9*%
X116918500Y-107442000D03*
X118793500Y-107442000D03*
%TD*%
M02*
