M48
; DRILL file {KiCad (6.0.9)} date Sat Dec 10 14:06:54 2022
; FORMAT={-:-/ absolute / metric / decimal}
; #@! TF.CreationDate,2022-12-10T14:06:54+01:00
; #@! TF.GenerationSoftware,Kicad,Pcbnew,(6.0.9)
; #@! TF.FileFunction,MixedPlating,1,2
FMAT,2
METRIC
; #@! TA.AperFunction,Plated,PTH,ViaDrill
T1C0.300
; #@! TA.AperFunction,Plated,PTH,ComponentDrill
T2C0.800
%
G90
G05
T1
X107.188Y-138.43
X115.57Y-107.442
X116.332Y-137.414
X116.332Y-140.081
X116.84Y-139.065
X117.919Y-78.994
X118.872Y-137.414
X118.872Y-140.081
X121.666Y-140.081
X121.793Y-135.763
X123.444Y-111.252
X123.444Y-113.792
X123.444Y-116.332
X123.444Y-118.872
X123.444Y-121.412
X123.444Y-123.952
X123.444Y-126.492
X123.444Y-129.032
X123.444Y-131.572
X123.444Y-134.112
X123.825Y-137.541
X125.11Y-108.092
X125.476Y-82.931
X125.476Y-85.471
X125.476Y-88.011
X125.476Y-90.551
X125.476Y-93.091
X125.476Y-95.631
X125.476Y-98.171
X125.476Y-100.711
X125.476Y-103.251
X125.938Y-81.28
X125.984Y-113.792
X125.984Y-116.332
X125.984Y-118.872
X125.984Y-121.412
X125.984Y-123.952
X125.984Y-126.492
X125.984Y-129.032
X125.984Y-131.572
X125.984Y-134.112
X126.931Y-111.447
X127.127Y-112.776
X128.319Y-111.33
X128.778Y-80.137
X129.794Y-140.462
X130.048Y-137.922
X131.064Y-135.382
X131.166Y-83.947
X131.191Y-84.963
X131.318Y-80.137
X132.461Y-114.554
X132.715Y-84.963
X132.994Y-104.394
X133.096Y-132.842
X133.858Y-80.137
X133.909Y-104.394
X133.96Y-105.918
X134.087Y-108.092
X134.772Y-103.988
X135.001Y-114.554
X135.382Y-88.265
X135.382Y-90.932
X135.382Y-131.064
X135.451Y-80.632
X135.611Y-103.302
X136.124Y-108.463
X136.129Y-107.071
X136.398Y-80.137
X136.754Y-107.747
X137.389Y-106.172
X137.541Y-114.554
X137.541Y-117.094
X137.541Y-119.634
X137.541Y-122.174
X137.541Y-124.714
X137.922Y-61.087
X137.922Y-64.897
X137.922Y-68.707
X138.024Y-83.972
X138.938Y-73.914
X138.938Y-77.724
X138.938Y-81.534
X138.938Y-86.36
X138.938Y-90.17
X138.938Y-93.98
X138.938Y-97.79
X143.129Y-61.087
X143.129Y-68.707
X143.129Y-76.327
X143.129Y-83.947
X143.637Y-114.554
X143.637Y-117.094
X143.637Y-119.634
X143.637Y-122.174
X143.637Y-124.714
X144.78Y-108.783
X145.542Y-131.064
X145.669Y-103.759
X145.669Y-110.109
X145.796Y-93.116
X145.796Y-95.656
X145.796Y-98.196
X146.685Y-82.296
X146.685Y-84.836
X146.685Y-87.376
X146.685Y-89.916
X146.685Y-92.456
X147.193Y-101.473
X147.193Y-102.362
X147.193Y-103.251
X147.828Y-132.842
X148.59Y-106.807
X148.59Y-110.744
X149.479Y-82.296
X149.479Y-84.836
X149.479Y-87.376
X149.479Y-89.916
X149.86Y-135.382
X150.495Y-101.473
X150.495Y-102.362
X150.495Y-103.251
X150.876Y-137.922
X151.003Y-76.454
X151.13Y-140.462
X151.638Y-114.3
X152.4Y-104.394
X152.85Y-105.478
X153.289Y-79.629
X153.797Y-80.772
X155.804Y-106.833
X156.464Y-110.744
X156.464Y-113.284
X156.464Y-115.824
X156.464Y-118.364
X156.464Y-120.904
X156.464Y-123.444
X156.464Y-125.984
X156.464Y-128.524
X156.464Y-131.064
X157.226Y-104.267
X157.353Y-91.567
X157.48Y-133.553
X159.004Y-110.744
X159.004Y-113.284
X159.004Y-115.824
X159.004Y-118.364
X159.004Y-120.904
X159.004Y-123.444
X159.004Y-125.984
X159.004Y-128.524
X159.004Y-131.064
X159.512Y-89.789
X160.02Y-136.093
X161.671Y-133.604
X162.433Y-138.633
X163.005Y-78.994
X164.186Y-137.617
X164.211Y-136.144
X165.354Y-107.442
X173.736Y-138.43
T2
X151.882Y-91.557
X151.882Y-94.097
X151.882Y-96.637
X151.882Y-99.177
X159.502Y-91.557
X159.502Y-94.097
X159.502Y-96.637
X159.502Y-99.177
T0
M30
