%TF.GenerationSoftware,KiCad,Pcbnew,(6.0.9)*%
%TF.CreationDate,2022-12-10T14:06:51+01:00*%
%TF.ProjectId,PartoUno,50617274-6f55-46e6-9f2e-6b696361645f,rev?*%
%TF.SameCoordinates,Original*%
%TF.FileFunction,Paste,Top*%
%TF.FilePolarity,Positive*%
%FSLAX46Y46*%
G04 Gerber Fmt 4.6, Leading zero omitted, Abs format (unit mm)*
G04 Created by KiCad (PCBNEW (6.0.9)) date 2022-12-10 14:06:51*
%MOMM*%
%LPD*%
G01*
G04 APERTURE LIST*
G04 Aperture macros list*
%AMRoundRect*
0 Rectangle with rounded corners*
0 $1 Rounding radius*
0 $2 $3 $4 $5 $6 $7 $8 $9 X,Y pos of 4 corners*
0 Add a 4 corners polygon primitive as box body*
4,1,4,$2,$3,$4,$5,$6,$7,$8,$9,$2,$3,0*
0 Add four circle primitives for the rounded corners*
1,1,$1+$1,$2,$3*
1,1,$1+$1,$4,$5*
1,1,$1+$1,$6,$7*
1,1,$1+$1,$8,$9*
0 Add four rect primitives between the rounded corners*
20,1,$1+$1,$2,$3,$4,$5,0*
20,1,$1+$1,$4,$5,$6,$7,0*
20,1,$1+$1,$6,$7,$8,$9,0*
20,1,$1+$1,$8,$9,$2,$3,0*%
G04 Aperture macros list end*
%ADD10RoundRect,0.250000X-0.312500X-0.625000X0.312500X-0.625000X0.312500X0.625000X-0.312500X0.625000X0*%
%ADD11RoundRect,0.750000X1.000000X-0.750000X1.000000X0.750000X-1.000000X0.750000X-1.000000X-0.750000X0*%
%ADD12RoundRect,0.750000X1.750000X-0.750000X1.750000X0.750000X-1.750000X0.750000X-1.750000X-0.750000X0*%
%ADD13RoundRect,3.000000X3.000000X-3.000000X3.000000X3.000000X-3.000000X3.000000X-3.000000X-3.000000X0*%
%ADD14RoundRect,0.250000X-0.250000X-0.750000X0.250000X-0.750000X0.250000X0.750000X-0.250000X0.750000X0*%
%ADD15RoundRect,0.243750X-0.243750X-0.456250X0.243750X-0.456250X0.243750X0.456250X-0.243750X0.456250X0*%
%ADD16RoundRect,0.243750X0.243750X0.456250X-0.243750X0.456250X-0.243750X-0.456250X0.243750X-0.456250X0*%
%ADD17RoundRect,0.250000X0.325000X1.100000X-0.325000X1.100000X-0.325000X-1.100000X0.325000X-1.100000X0*%
%ADD18RoundRect,0.250000X0.325000X0.650000X-0.325000X0.650000X-0.325000X-0.650000X0.325000X-0.650000X0*%
%ADD19RoundRect,0.250000X0.312500X0.625000X-0.312500X0.625000X-0.312500X-0.625000X0.312500X-0.625000X0*%
%ADD20RoundRect,0.250000X-0.325000X-0.650000X0.325000X-0.650000X0.325000X0.650000X-0.325000X0.650000X0*%
%ADD21RoundRect,0.100000X-0.637500X-0.100000X0.637500X-0.100000X0.637500X0.100000X-0.637500X0.100000X0*%
%ADD22RoundRect,0.100000X0.637500X0.100000X-0.637500X0.100000X-0.637500X-0.100000X0.637500X-0.100000X0*%
G04 APERTURE END LIST*
D10*
%TO.C,R1*%
X122997500Y-78994000D03*
X125922500Y-78994000D03*
%TD*%
D11*
%TO.C,BT1*%
X140462000Y-150412000D03*
D12*
X140462000Y-130512000D03*
D13*
X140462000Y-140462000D03*
%TD*%
D14*
%TO.C,J7*%
X142113000Y-91567000D03*
%TD*%
%TO.C,J8*%
X142113000Y-87757000D03*
%TD*%
D15*
%TO.C,D21*%
X108536500Y-138430000D03*
X110411500Y-138430000D03*
%TD*%
D14*
%TO.C,J10*%
X142113000Y-99187000D03*
%TD*%
D10*
%TO.C,R9*%
X120559100Y-107442000D03*
X123484100Y-107442000D03*
%TD*%
D14*
%TO.C,J20*%
X142113000Y-83947000D03*
%TD*%
D16*
%TO.C,D13*%
X164005500Y-107442000D03*
X162130500Y-107442000D03*
%TD*%
D14*
%TO.C,J16*%
X138938000Y-61087000D03*
%TD*%
%TO.C,J18*%
X142113000Y-68707000D03*
%TD*%
%TO.C,J19*%
X142113000Y-76327000D03*
%TD*%
%TO.C,J31*%
X142113000Y-123317000D03*
%TD*%
D17*
%TO.C,C1*%
X138430000Y-127000000D03*
X135480000Y-127000000D03*
%TD*%
D15*
%TO.C,D1*%
X119267500Y-78994000D03*
X121142500Y-78994000D03*
%TD*%
D14*
%TO.C,J30*%
X142113000Y-116459000D03*
%TD*%
D18*
%TO.C,C4*%
X131269000Y-112776000D03*
X128319000Y-112776000D03*
%TD*%
D14*
%TO.C,J17*%
X142113000Y-61087000D03*
%TD*%
D19*
%TO.C,R3*%
X168696100Y-138430000D03*
X165771100Y-138430000D03*
%TD*%
D20*
%TO.C,C3*%
X142494000Y-127000000D03*
X145444000Y-127000000D03*
%TD*%
D14*
%TO.C,J28*%
X138938000Y-116459000D03*
%TD*%
D21*
%TO.C,U2*%
X126931500Y-106142000D03*
X126931500Y-106792000D03*
X126931500Y-107442000D03*
X126931500Y-108092000D03*
X126931500Y-108742000D03*
X126931500Y-109392000D03*
X126931500Y-110042000D03*
X126931500Y-110692000D03*
X132656500Y-110692000D03*
X132656500Y-110042000D03*
X132656500Y-109392000D03*
X132656500Y-108742000D03*
X132656500Y-108092000D03*
X132656500Y-107442000D03*
X132656500Y-106792000D03*
X132656500Y-106142000D03*
%TD*%
D10*
%TO.C,R21*%
X112227900Y-138430000D03*
X115152900Y-138430000D03*
%TD*%
D19*
%TO.C,R11*%
X160364900Y-107442000D03*
X157439900Y-107442000D03*
%TD*%
D20*
%TO.C,C6*%
X131113000Y-88265000D03*
X134063000Y-88265000D03*
%TD*%
D22*
%TO.C,U3*%
X152849500Y-110733000D03*
X152849500Y-110083000D03*
X152849500Y-109433000D03*
X152849500Y-108783000D03*
X152849500Y-108133000D03*
X152849500Y-107483000D03*
X152849500Y-106833000D03*
X152849500Y-106183000D03*
X147124500Y-106183000D03*
X147124500Y-106833000D03*
X147124500Y-107483000D03*
X147124500Y-108133000D03*
X147124500Y-108783000D03*
X147124500Y-109433000D03*
X147124500Y-110083000D03*
X147124500Y-110733000D03*
%TD*%
D16*
%TO.C,D3*%
X172387500Y-138430000D03*
X170512500Y-138430000D03*
%TD*%
D19*
%TO.C,R18*%
X157926500Y-78994000D03*
X155001500Y-78994000D03*
%TD*%
D14*
%TO.C,J14*%
X138938000Y-68707000D03*
%TD*%
D16*
%TO.C,D18*%
X161656500Y-78994000D03*
X159781500Y-78994000D03*
%TD*%
D20*
%TO.C,C2*%
X157177000Y-102440000D03*
X154227000Y-102440000D03*
%TD*%
D22*
%TO.C,U4*%
X135450500Y-85897000D03*
X135450500Y-85247000D03*
X135450500Y-84597000D03*
X135450500Y-83947000D03*
X135450500Y-83297000D03*
X135450500Y-82647000D03*
X135450500Y-81997000D03*
X135450500Y-81347000D03*
X129725500Y-81347000D03*
X129725500Y-81997000D03*
X129725500Y-82647000D03*
X129725500Y-83297000D03*
X129725500Y-83947000D03*
X129725500Y-84597000D03*
X129725500Y-85247000D03*
X129725500Y-85897000D03*
%TD*%
D14*
%TO.C,J9*%
X142113000Y-95377000D03*
%TD*%
D19*
%TO.C,R25*%
X159254000Y-102440000D03*
X162179000Y-102440000D03*
%TD*%
D14*
%TO.C,J29*%
X138938000Y-123317000D03*
%TD*%
%TO.C,J15*%
X138938000Y-64897000D03*
%TD*%
D20*
%TO.C,C5*%
X148639000Y-112776000D03*
X151589000Y-112776000D03*
%TD*%
D15*
%TO.C,D9*%
X116918500Y-107442000D03*
X118793500Y-107442000D03*
%TD*%
M02*
