%TF.GenerationSoftware,KiCad,Pcbnew,(6.0.9)*%
%TF.CreationDate,2022-12-10T14:06:51+01:00*%
%TF.ProjectId,PartoUno,50617274-6f55-46e6-9f2e-6b696361645f,rev?*%
%TF.SameCoordinates,Original*%
%TF.FileFunction,Copper,L1,Top*%
%TF.FilePolarity,Positive*%
%FSLAX46Y46*%
G04 Gerber Fmt 4.6, Leading zero omitted, Abs format (unit mm)*
G04 Created by KiCad (PCBNEW (6.0.9)) date 2022-12-10 14:06:51*
%MOMM*%
%LPD*%
G01*
G04 APERTURE LIST*
G04 Aperture macros list*
%AMRoundRect*
0 Rectangle with rounded corners*
0 $1 Rounding radius*
0 $2 $3 $4 $5 $6 $7 $8 $9 X,Y pos of 4 corners*
0 Add a 4 corners polygon primitive as box body*
4,1,4,$2,$3,$4,$5,$6,$7,$8,$9,$2,$3,0*
0 Add four circle primitives for the rounded corners*
1,1,$1+$1,$2,$3*
1,1,$1+$1,$4,$5*
1,1,$1+$1,$6,$7*
1,1,$1+$1,$8,$9*
0 Add four rect primitives between the rounded corners*
20,1,$1+$1,$2,$3,$4,$5,0*
20,1,$1+$1,$4,$5,$6,$7,0*
20,1,$1+$1,$6,$7,$8,$9,0*
20,1,$1+$1,$8,$9,$2,$3,0*%
G04 Aperture macros list end*
%TA.AperFunction,ComponentPad*%
%ADD10O,2.400000X1.600000*%
%TD*%
%TA.AperFunction,ComponentPad*%
%ADD11R,2.400000X1.600000*%
%TD*%
%TA.AperFunction,SMDPad,CuDef*%
%ADD12RoundRect,0.250000X-0.312500X-0.625000X0.312500X-0.625000X0.312500X0.625000X-0.312500X0.625000X0*%
%TD*%
%TA.AperFunction,SMDPad,CuDef*%
%ADD13RoundRect,0.750000X1.000000X-0.750000X1.000000X0.750000X-1.000000X0.750000X-1.000000X-0.750000X0*%
%TD*%
%TA.AperFunction,SMDPad,CuDef*%
%ADD14RoundRect,0.750000X1.750000X-0.750000X1.750000X0.750000X-1.750000X0.750000X-1.750000X-0.750000X0*%
%TD*%
%TA.AperFunction,SMDPad,CuDef*%
%ADD15RoundRect,3.000000X3.000000X-3.000000X3.000000X3.000000X-3.000000X3.000000X-3.000000X-3.000000X0*%
%TD*%
%TA.AperFunction,SMDPad,CuDef*%
%ADD16RoundRect,0.250000X-0.250000X-0.750000X0.250000X-0.750000X0.250000X0.750000X-0.250000X0.750000X0*%
%TD*%
%TA.AperFunction,SMDPad,CuDef*%
%ADD17RoundRect,0.243750X-0.243750X-0.456250X0.243750X-0.456250X0.243750X0.456250X-0.243750X0.456250X0*%
%TD*%
%TA.AperFunction,SMDPad,CuDef*%
%ADD18RoundRect,0.243750X0.243750X0.456250X-0.243750X0.456250X-0.243750X-0.456250X0.243750X-0.456250X0*%
%TD*%
%TA.AperFunction,SMDPad,CuDef*%
%ADD19RoundRect,0.250000X0.325000X1.100000X-0.325000X1.100000X-0.325000X-1.100000X0.325000X-1.100000X0*%
%TD*%
%TA.AperFunction,SMDPad,CuDef*%
%ADD20RoundRect,0.250000X0.325000X0.650000X-0.325000X0.650000X-0.325000X-0.650000X0.325000X-0.650000X0*%
%TD*%
%TA.AperFunction,SMDPad,CuDef*%
%ADD21RoundRect,0.250000X0.312500X0.625000X-0.312500X0.625000X-0.312500X-0.625000X0.312500X-0.625000X0*%
%TD*%
%TA.AperFunction,SMDPad,CuDef*%
%ADD22RoundRect,0.250000X-0.325000X-0.650000X0.325000X-0.650000X0.325000X0.650000X-0.325000X0.650000X0*%
%TD*%
%TA.AperFunction,SMDPad,CuDef*%
%ADD23RoundRect,0.100000X-0.637500X-0.100000X0.637500X-0.100000X0.637500X0.100000X-0.637500X0.100000X0*%
%TD*%
%TA.AperFunction,SMDPad,CuDef*%
%ADD24RoundRect,0.100000X0.637500X0.100000X-0.637500X0.100000X-0.637500X-0.100000X0.637500X-0.100000X0*%
%TD*%
%TA.AperFunction,ViaPad*%
%ADD25C,0.600000*%
%TD*%
%TA.AperFunction,Conductor*%
%ADD26C,0.254000*%
%TD*%
%TA.AperFunction,Conductor*%
%ADD27C,0.508000*%
%TD*%
%TA.AperFunction,Conductor*%
%ADD28C,1.270000*%
%TD*%
%TA.AperFunction,Conductor*%
%ADD29C,13.970000*%
%TD*%
G04 APERTURE END LIST*
D10*
%TO.P,U1,8,VCC*%
%TO.N,VCC*%
X151882000Y-99177000D03*
%TO.P,U1,7,PB2*%
%TO.N,/LATCH*%
X151882000Y-96637000D03*
%TO.P,U1,6,PB1*%
%TO.N,/CLK*%
X151882000Y-94097000D03*
%TO.P,U1,5,AREF/PB0*%
%TO.N,/DATA*%
X151882000Y-91557000D03*
%TO.P,U1,4,GND*%
%TO.N,GND*%
X159502000Y-91557000D03*
%TO.P,U1,3,XTAL2/PB4*%
%TO.N,unconnected-(U1-Pad3)*%
X159502000Y-94097000D03*
%TO.P,U1,2,XTAL1/PB3*%
%TO.N,unconnected-(U1-Pad2)*%
X159502000Y-96637000D03*
D11*
%TO.P,U1,1,~{RESET}/PB5*%
%TO.N,Net-(R25-Pad1)*%
X159502000Y-99177000D03*
%TD*%
D12*
%TO.P,R1,1*%
%TO.N,Net-(D1-Pad2)*%
X122997500Y-78994000D03*
%TO.P,R1,2*%
%TO.N,/RED1*%
X125922500Y-78994000D03*
%TD*%
D13*
%TO.P,BT1,1,+*%
%TO.N,VCC*%
X140462000Y-150412000D03*
D14*
X140462000Y-130512000D03*
D15*
%TO.P,BT1,2,-*%
%TO.N,GND*%
X140462000Y-140462000D03*
%TD*%
D16*
%TO.P,J7,1,Pin_1*%
%TO.N,/WHI4*%
X142113000Y-91567000D03*
%TD*%
%TO.P,J8,1,Pin_1*%
%TO.N,/YEL3*%
X142113000Y-87757000D03*
%TD*%
D17*
%TO.P,D21,1,K*%
%TO.N,GND*%
X108536500Y-138430000D03*
%TO.P,D21,2,A*%
%TO.N,Net-(D21-Pad2)*%
X110411500Y-138430000D03*
%TD*%
D16*
%TO.P,J10,1,Pin_1*%
%TO.N,/RED5*%
X142113000Y-99187000D03*
%TD*%
D12*
%TO.P,R9,1*%
%TO.N,Net-(D9-Pad2)*%
X120559100Y-107442000D03*
%TO.P,R9,2*%
%TO.N,/GRE4*%
X123484100Y-107442000D03*
%TD*%
D16*
%TO.P,J20,1,Pin_1*%
%TO.N,GND*%
X142113000Y-83947000D03*
%TD*%
D18*
%TO.P,D13,1,K*%
%TO.N,GND*%
X164005500Y-107442000D03*
%TO.P,D13,2,A*%
%TO.N,Net-(D13-Pad2)*%
X162130500Y-107442000D03*
%TD*%
D16*
%TO.P,J16,1,Pin_1*%
%TO.N,GND*%
X138938000Y-61087000D03*
%TD*%
%TO.P,J18,1,Pin_1*%
%TO.N,GND*%
X142113000Y-68707000D03*
%TD*%
%TO.P,J19,1,Pin_1*%
%TO.N,GND*%
X142113000Y-76327000D03*
%TD*%
%TO.P,J31,1,Pin_1*%
%TO.N,GND*%
X142113000Y-123317000D03*
%TD*%
D19*
%TO.P,C1,1*%
%TO.N,VCC*%
X138430000Y-127000000D03*
%TO.P,C1,2*%
%TO.N,GND*%
X135480000Y-127000000D03*
%TD*%
D17*
%TO.P,D1,1,K*%
%TO.N,GND*%
X119267500Y-78994000D03*
%TO.P,D1,2,A*%
%TO.N,Net-(D1-Pad2)*%
X121142500Y-78994000D03*
%TD*%
D16*
%TO.P,J30,1,Pin_1*%
%TO.N,GND*%
X142113000Y-116459000D03*
%TD*%
D20*
%TO.P,C4,1*%
%TO.N,VCC*%
X131269000Y-112776000D03*
%TO.P,C4,2*%
%TO.N,GND*%
X128319000Y-112776000D03*
%TD*%
D16*
%TO.P,J17,1,Pin_1*%
%TO.N,GND*%
X142113000Y-61087000D03*
%TD*%
D21*
%TO.P,R3,1*%
%TO.N,Net-(D3-Pad2)*%
X168696100Y-138430000D03*
%TO.P,R3,2*%
%TO.N,/RED3*%
X165771100Y-138430000D03*
%TD*%
D22*
%TO.P,C3,1*%
%TO.N,VCC*%
X142494000Y-127000000D03*
%TO.P,C3,2*%
%TO.N,GND*%
X145444000Y-127000000D03*
%TD*%
D16*
%TO.P,J28,1,Pin_1*%
%TO.N,GND*%
X138938000Y-116459000D03*
%TD*%
D23*
%TO.P,U2,1,QB*%
%TO.N,/RED1*%
X126931500Y-106142000D03*
%TO.P,U2,2,QC*%
%TO.N,/YEL2*%
X126931500Y-106792000D03*
%TO.P,U2,3,QD*%
%TO.N,/GRE4*%
X126931500Y-107442000D03*
%TO.P,U2,4,QE*%
%TO.N,/BLU5*%
X126931500Y-108092000D03*
%TO.P,U2,5,QF*%
%TO.N,/WHI1*%
X126931500Y-108742000D03*
%TO.P,U2,6,QG*%
%TO.N,/GRE5*%
X126931500Y-109392000D03*
%TO.P,U2,7,QH*%
%TO.N,/BLU3*%
X126931500Y-110042000D03*
%TO.P,U2,8,GND*%
%TO.N,GND*%
X126931500Y-110692000D03*
%TO.P,U2,9,QH'*%
%TO.N,Net-(U2-Pad9)*%
X132656500Y-110692000D03*
%TO.P,U2,10,~{SRCLR}*%
%TO.N,VCC*%
X132656500Y-110042000D03*
%TO.P,U2,11,SRCLK*%
%TO.N,/CLK*%
X132656500Y-109392000D03*
%TO.P,U2,12,RCLK*%
%TO.N,/LATCH*%
X132656500Y-108742000D03*
%TO.P,U2,13,~{OE}*%
%TO.N,GND*%
X132656500Y-108092000D03*
%TO.P,U2,14,SER*%
%TO.N,/DATA*%
X132656500Y-107442000D03*
%TO.P,U2,15,QA*%
%TO.N,/WHI2*%
X132656500Y-106792000D03*
%TO.P,U2,16,VCC*%
%TO.N,VCC*%
X132656500Y-106142000D03*
%TD*%
D12*
%TO.P,R21,1*%
%TO.N,Net-(D21-Pad2)*%
X112227900Y-138430000D03*
%TO.P,R21,2*%
%TO.N,/WHI1*%
X115152900Y-138430000D03*
%TD*%
D21*
%TO.P,R11,1*%
%TO.N,Net-(D13-Pad2)*%
X160364900Y-107442000D03*
%TO.P,R11,2*%
%TO.N,/YEL1*%
X157439900Y-107442000D03*
%TD*%
D22*
%TO.P,C6,1*%
%TO.N,VCC*%
X131113000Y-88265000D03*
%TO.P,C6,2*%
%TO.N,GND*%
X134063000Y-88265000D03*
%TD*%
D24*
%TO.P,U3,1,QB*%
%TO.N,/GRE1*%
X152849500Y-110733000D03*
%TO.P,U3,2,QC*%
%TO.N,/WHI4*%
X152849500Y-110083000D03*
%TO.P,U3,3,QD*%
%TO.N,/YEL3*%
X152849500Y-109433000D03*
%TO.P,U3,4,QE*%
%TO.N,/RED3*%
X152849500Y-108783000D03*
%TO.P,U3,5,QF*%
%TO.N,/BLU4*%
X152849500Y-108133000D03*
%TO.P,U3,6,QG*%
%TO.N,/YEL1*%
X152849500Y-107483000D03*
%TO.P,U3,7,QH*%
%TO.N,/RED2*%
X152849500Y-106833000D03*
%TO.P,U3,8,GND*%
%TO.N,GND*%
X152849500Y-106183000D03*
%TO.P,U3,9,QH'*%
%TO.N,Net-(U3-Pad9)*%
X147124500Y-106183000D03*
%TO.P,U3,10,~{SRCLR}*%
%TO.N,VCC*%
X147124500Y-106833000D03*
%TO.P,U3,11,SRCLK*%
%TO.N,/CLK*%
X147124500Y-107483000D03*
%TO.P,U3,12,RCLK*%
%TO.N,/LATCH*%
X147124500Y-108133000D03*
%TO.P,U3,13,~{OE}*%
%TO.N,GND*%
X147124500Y-108783000D03*
%TO.P,U3,14,SER*%
%TO.N,Net-(U2-Pad9)*%
X147124500Y-109433000D03*
%TO.P,U3,15,QA*%
%TO.N,/RED5*%
X147124500Y-110083000D03*
%TO.P,U3,16,VCC*%
%TO.N,VCC*%
X147124500Y-110733000D03*
%TD*%
D18*
%TO.P,D3,1,K*%
%TO.N,GND*%
X172387500Y-138430000D03*
%TO.P,D3,2,A*%
%TO.N,Net-(D3-Pad2)*%
X170512500Y-138430000D03*
%TD*%
D21*
%TO.P,R18,1*%
%TO.N,Net-(D18-Pad2)*%
X157926500Y-78994000D03*
%TO.P,R18,2*%
%TO.N,/BLU3*%
X155001500Y-78994000D03*
%TD*%
D16*
%TO.P,J14,1,Pin_1*%
%TO.N,GND*%
X138938000Y-68707000D03*
%TD*%
D18*
%TO.P,D18,1,K*%
%TO.N,GND*%
X161656500Y-78994000D03*
%TO.P,D18,2,A*%
%TO.N,Net-(D18-Pad2)*%
X159781500Y-78994000D03*
%TD*%
D22*
%TO.P,C2,2*%
%TO.N,GND*%
X157177000Y-102440000D03*
%TO.P,C2,1*%
%TO.N,VCC*%
X154227000Y-102440000D03*
%TD*%
D24*
%TO.P,U4,1,QB*%
%TO.N,/WHI3*%
X135450500Y-85897000D03*
%TO.P,U4,2,QC*%
%TO.N,/YEL5*%
X135450500Y-85247000D03*
%TO.P,U4,3,QD*%
%TO.N,/BLU1*%
X135450500Y-84597000D03*
%TO.P,U4,4,QE*%
%TO.N,/BLU2*%
X135450500Y-83947000D03*
%TO.P,U4,5,QF*%
%TO.N,/YEL4*%
X135450500Y-83297000D03*
%TO.P,U4,6,QG*%
%TO.N,/GRE2*%
X135450500Y-82647000D03*
%TO.P,U4,7,QH*%
%TO.N,/RED4*%
X135450500Y-81997000D03*
%TO.P,U4,8,GND*%
%TO.N,GND*%
X135450500Y-81347000D03*
%TO.P,U4,9,QH'*%
%TO.N,unconnected-(U4-Pad9)*%
X129725500Y-81347000D03*
%TO.P,U4,10,~{SRCLR}*%
%TO.N,VCC*%
X129725500Y-81997000D03*
%TO.P,U4,11,SRCLK*%
%TO.N,/CLK*%
X129725500Y-82647000D03*
%TO.P,U4,12,RCLK*%
%TO.N,/LATCH*%
X129725500Y-83297000D03*
%TO.P,U4,13,~{OE}*%
%TO.N,GND*%
X129725500Y-83947000D03*
%TO.P,U4,14,SER*%
%TO.N,Net-(U3-Pad9)*%
X129725500Y-84597000D03*
%TO.P,U4,15,QA*%
%TO.N,/GRE3*%
X129725500Y-85247000D03*
%TO.P,U4,16,VCC*%
%TO.N,VCC*%
X129725500Y-85897000D03*
%TD*%
D16*
%TO.P,J9,1,Pin_1*%
%TO.N,/GRE1*%
X142113000Y-95377000D03*
%TD*%
D21*
%TO.P,R25,2*%
%TO.N,VCC*%
X159254000Y-102440000D03*
%TO.P,R25,1*%
%TO.N,Net-(R25-Pad1)*%
X162179000Y-102440000D03*
%TD*%
D16*
%TO.P,J29,1,Pin_1*%
%TO.N,GND*%
X138938000Y-123317000D03*
%TD*%
%TO.P,J15,1,Pin_1*%
%TO.N,GND*%
X138938000Y-64897000D03*
%TD*%
D22*
%TO.P,C5,1*%
%TO.N,VCC*%
X148639000Y-112776000D03*
%TO.P,C5,2*%
%TO.N,GND*%
X151589000Y-112776000D03*
%TD*%
D17*
%TO.P,D9,1,K*%
%TO.N,GND*%
X116918500Y-107442000D03*
%TO.P,D9,2,A*%
%TO.N,Net-(D9-Pad2)*%
X118793500Y-107442000D03*
%TD*%
D25*
%TO.N,GND*%
X159512000Y-89789000D03*
X157353000Y-91567000D03*
%TO.N,VCC*%
X148590000Y-110744000D03*
X148590000Y-106807000D03*
X152400000Y-104394000D03*
%TO.N,GND*%
X159004000Y-110744000D03*
X143129000Y-61087000D03*
X143637000Y-124714000D03*
X123444000Y-131572000D03*
X137922000Y-64897000D03*
X156464000Y-110744000D03*
X137922000Y-68707000D03*
X150876000Y-137922000D03*
X159004000Y-118364000D03*
X137541000Y-119634000D03*
X146685000Y-92456000D03*
X123444000Y-134112000D03*
X134086600Y-108092000D03*
X123444000Y-129032000D03*
X123444000Y-111252000D03*
X128319000Y-111330000D03*
X157226000Y-104267000D03*
X137541000Y-124714000D03*
X125984000Y-126492000D03*
X127127000Y-112776000D03*
X137922000Y-61087000D03*
X151638000Y-114300000D03*
X146685000Y-84836000D03*
X125476000Y-90551000D03*
X145542000Y-131064000D03*
X128778000Y-80137000D03*
X135001000Y-114554000D03*
X125984000Y-134112000D03*
X146685000Y-82296000D03*
X125984000Y-118872000D03*
X125476000Y-93091000D03*
X115570000Y-107442000D03*
X149479000Y-84836000D03*
X156464000Y-118364000D03*
X159004000Y-128524000D03*
X162433000Y-138633200D03*
X152849500Y-105478500D03*
X135382000Y-88265000D03*
X125476000Y-95631000D03*
X137541000Y-122174000D03*
X117919000Y-78994000D03*
X133096000Y-132842000D03*
X156464000Y-123444000D03*
X131165600Y-83947000D03*
X121666000Y-140081000D03*
X121793000Y-135763000D03*
X126931500Y-111447500D03*
X156464000Y-131064000D03*
X161671000Y-133604000D03*
X145796000Y-93116400D03*
X130048000Y-137922000D03*
X145796000Y-98196400D03*
X143637000Y-117094000D03*
X116332000Y-140081000D03*
X125984000Y-129032000D03*
X116332000Y-137414000D03*
X135450500Y-80632500D03*
X159004000Y-115824000D03*
X146685000Y-87376000D03*
X149479000Y-87376000D03*
X125984000Y-113792000D03*
X118872000Y-137414000D03*
X156464000Y-128524000D03*
X147828000Y-132842000D03*
X164211000Y-136144000D03*
X157480000Y-133553200D03*
X159004000Y-131064000D03*
X143637000Y-114554000D03*
X125476000Y-100711000D03*
X125476000Y-103251000D03*
X123444000Y-113792000D03*
X151003000Y-76454000D03*
X145796000Y-95656400D03*
X143637000Y-122174000D03*
X131064000Y-135382000D03*
X135382000Y-131064000D03*
X125476000Y-88011000D03*
X156464000Y-115824000D03*
X123444000Y-116332000D03*
X125476000Y-85471000D03*
X123825000Y-137541000D03*
X123444000Y-126492000D03*
X149479000Y-82296000D03*
X143637000Y-119634000D03*
X123444000Y-118872000D03*
X125984000Y-131572000D03*
X131318000Y-80137000D03*
X159004000Y-113284000D03*
X125984000Y-116332000D03*
X159004000Y-120904000D03*
X156464000Y-120904000D03*
X137541000Y-114554000D03*
X159004000Y-123444000D03*
X156464000Y-113284000D03*
X133858000Y-80137000D03*
X165354000Y-107442000D03*
X125984000Y-121412000D03*
X129794000Y-140462000D03*
X132461000Y-114554000D03*
X137541000Y-117094000D03*
X118872000Y-140081000D03*
X123444000Y-121412000D03*
X144780000Y-108783000D03*
X159004000Y-125984000D03*
X156464000Y-125984000D03*
X153797000Y-80772000D03*
X173736000Y-138430000D03*
X143129000Y-76327000D03*
X107188000Y-138430000D03*
X149860000Y-135382000D03*
X143129000Y-83947000D03*
X125984000Y-123952000D03*
X136398000Y-80137000D03*
X143129000Y-68707000D03*
X125476000Y-82931000D03*
X146685000Y-89916000D03*
X151130000Y-140462000D03*
X135382000Y-90932000D03*
X160020000Y-136093200D03*
X125476000Y-98171000D03*
X123444000Y-123952000D03*
X163005000Y-78994000D03*
X149479000Y-89916000D03*
%TO.N,/RED2*%
X155804200Y-106833000D03*
%TO.N,/RED4*%
X138938000Y-73914000D03*
%TO.N,/RED5*%
X145669000Y-103759000D03*
X145669000Y-110109000D03*
%TO.N,/GRE1*%
X150495000Y-103251000D03*
X147193000Y-103251000D03*
%TO.N,/GRE2*%
X138938000Y-77724000D03*
%TO.N,/GRE3*%
X138938000Y-97790000D03*
X132715000Y-84963000D03*
X131191000Y-84963000D03*
%TO.N,/GRE5*%
X116840000Y-139065000D03*
%TO.N,/YEL4*%
X138938000Y-81534000D03*
%TO.N,/YEL5*%
X138938000Y-90170000D03*
%TO.N,/YEL2*%
X125938500Y-81280000D03*
%TO.N,/BLU1*%
X138938000Y-86360000D03*
%TO.N,/BLU2*%
X138023600Y-83972400D03*
%TO.N,/BLU3*%
X133959600Y-105918000D03*
X132994400Y-104394000D03*
%TO.N,/BLU4*%
X164185600Y-137617200D03*
%TO.N,/BLU5*%
X125110000Y-108092000D03*
%TO.N,/WHI2*%
X153289000Y-79629000D03*
%TO.N,/WHI3*%
X138938000Y-93980000D03*
%TO.N,/WHI4*%
X150495000Y-102362000D03*
X147193000Y-102362000D03*
%TO.N,/LATCH*%
X136753600Y-107746800D03*
X134772400Y-103987600D03*
%TO.N,/CLK*%
X136128984Y-107071384D03*
X136123700Y-108463100D03*
X133908800Y-104394000D03*
%TO.N,Net-(U3-Pad9)*%
X137388600Y-106172000D03*
X135610600Y-103301800D03*
%TO.N,/YEL3*%
X150495000Y-101473000D03*
X147193000Y-101473000D03*
%TD*%
D26*
%TO.N,GND*%
X126931500Y-111447500D02*
X126931500Y-110692000D01*
D27*
X159502000Y-89799000D02*
X159512000Y-89789000D01*
X159502000Y-91557000D02*
X159502000Y-89799000D01*
X157363000Y-91557000D02*
X157353000Y-91567000D01*
X159502000Y-91557000D02*
X157363000Y-91557000D01*
D26*
%TO.N,VCC*%
X158496000Y-100584000D02*
X159254000Y-101342000D01*
X154227000Y-100584000D02*
X158496000Y-100584000D01*
X159254000Y-101342000D02*
X159254000Y-102440000D01*
D27*
X154227000Y-99871000D02*
X153533000Y-99177000D01*
X154227000Y-100330000D02*
X154227000Y-99871000D01*
X154227000Y-102440000D02*
X154227000Y-100330000D01*
X153533000Y-99177000D02*
X151882000Y-99177000D01*
D26*
%TO.N,Net-(R25-Pad1)*%
X161026000Y-99177000D02*
X159502000Y-99177000D01*
X162179000Y-100330000D02*
X161026000Y-99177000D01*
X162179000Y-102440000D02*
X162179000Y-100330000D01*
%TO.N,GND*%
X157226000Y-104267000D02*
X157226000Y-102489000D01*
%TO.N,/DATA*%
X148844000Y-104267000D02*
X148844000Y-92964000D01*
X137007600Y-105410000D02*
X147701000Y-105410000D01*
X134975600Y-107442000D02*
X137007600Y-105410000D01*
X148844000Y-92964000D02*
X150251000Y-91557000D01*
X150251000Y-91557000D02*
X152136000Y-91557000D01*
X132631100Y-107442000D02*
X134975600Y-107442000D01*
X147701000Y-105410000D02*
X148844000Y-104267000D01*
%TO.N,/CLK*%
X150251000Y-94097000D02*
X152136000Y-94097000D01*
X149352000Y-107061000D02*
X149352000Y-94996000D01*
X149352000Y-94996000D02*
X150251000Y-94097000D01*
X147124500Y-107483000D02*
X148930000Y-107483000D01*
X148930000Y-107483000D02*
X149352000Y-107061000D01*
%TO.N,/LATCH*%
X149169000Y-108133000D02*
X147124500Y-108133000D01*
X149860000Y-97028000D02*
X149860000Y-107442000D01*
X150251000Y-96637000D02*
X149860000Y-97028000D01*
X149860000Y-107442000D02*
X149169000Y-108133000D01*
X152136000Y-96637000D02*
X150251000Y-96637000D01*
D27*
%TO.N,VCC*%
X152400000Y-103124000D02*
X152400000Y-104394000D01*
D26*
%TO.N,/WHI2*%
X147447000Y-104902000D02*
X136753600Y-104902000D01*
X148336000Y-104013000D02*
X147447000Y-104902000D01*
X148336000Y-81788000D02*
X148336000Y-104013000D01*
X134863600Y-106792000D02*
X132631100Y-106792000D01*
X150495000Y-79629000D02*
X148336000Y-81788000D01*
X153289000Y-79629000D02*
X150495000Y-79629000D01*
X136753600Y-104902000D02*
X134863600Y-106792000D01*
%TO.N,/BLU3*%
X150495000Y-78994000D02*
X155001500Y-78994000D01*
X147828000Y-103759000D02*
X147828000Y-81661000D01*
X147193000Y-104394000D02*
X147828000Y-103759000D01*
X136499600Y-104394000D02*
X147193000Y-104394000D01*
X134975600Y-105918000D02*
X136499600Y-104394000D01*
X147828000Y-81661000D02*
X150495000Y-78994000D01*
X133959600Y-105918000D02*
X134975600Y-105918000D01*
D27*
%TO.N,VCC*%
X153035000Y-102440000D02*
X152400000Y-103075000D01*
X153973000Y-102440000D02*
X153035000Y-102440000D01*
D28*
X140462000Y-127000000D02*
X140462000Y-112776000D01*
D27*
X148639000Y-110793000D02*
X148639000Y-112776000D01*
D28*
X140500000Y-130474000D02*
X140500000Y-127000000D01*
D27*
X131953000Y-85897000D02*
X129725500Y-85897000D01*
X148579000Y-110733000D02*
X148639000Y-110793000D01*
X131953000Y-86360000D02*
X131953000Y-82677000D01*
X131113000Y-87200000D02*
X131953000Y-86360000D01*
X132656500Y-110042000D02*
X131318000Y-110042000D01*
X131273000Y-81997000D02*
X129725500Y-81997000D01*
X131271000Y-105584000D02*
X131699000Y-105156000D01*
X148590000Y-106807000D02*
X148564000Y-106833000D01*
X147124500Y-110733000D02*
X148579000Y-110733000D01*
D28*
X140462000Y-127000000D02*
X142494000Y-127000000D01*
D27*
X131953000Y-82677000D02*
X131273000Y-81997000D01*
X131113000Y-89711000D02*
X131113000Y-87200000D01*
X131271000Y-112649000D02*
X131271000Y-105584000D01*
D28*
X140462000Y-127000000D02*
X138430000Y-127000000D01*
D27*
X148564000Y-106833000D02*
X147124500Y-106833000D01*
D28*
X140462000Y-130512000D02*
X140500000Y-130474000D01*
D27*
X136296400Y-94894400D02*
X131113000Y-89711000D01*
X131673600Y-105156000D02*
X134823200Y-105156000D01*
D28*
X148639000Y-112776000D02*
X131398000Y-112776000D01*
D27*
X132656500Y-106142000D02*
X131318000Y-106142000D01*
X136296400Y-103682800D02*
X136296400Y-94894400D01*
X134823200Y-105156000D02*
X136296400Y-103682800D01*
D26*
%TO.N,GND*%
X107188000Y-138430000D02*
X108536500Y-138430000D01*
X142113000Y-76327000D02*
X143129000Y-76327000D01*
X131165600Y-83947000D02*
X129725500Y-83947000D01*
X134086600Y-108092000D02*
X132631100Y-108092000D01*
X142113000Y-68707000D02*
X143129000Y-68707000D01*
X161656500Y-78994000D02*
X163005000Y-78994000D01*
X138938000Y-64897000D02*
X137922000Y-64897000D01*
X172387500Y-138430000D02*
X173736000Y-138430000D01*
X135450500Y-80632500D02*
X135450500Y-81347000D01*
X152849500Y-105478500D02*
X152849500Y-106183000D01*
X144780000Y-108783000D02*
X147124500Y-108783000D01*
X135382000Y-88265000D02*
X133938000Y-88265000D01*
X151638000Y-112825000D02*
X151589000Y-112776000D01*
X119267500Y-78994000D02*
X117919000Y-78994000D01*
X151638000Y-114300000D02*
X151638000Y-112825000D01*
X138938000Y-61087000D02*
X137922000Y-61087000D01*
D29*
X142250000Y-140462000D02*
X139202000Y-140462000D01*
D26*
X116918500Y-107442000D02*
X115570000Y-107442000D01*
X128319000Y-112776000D02*
X127127000Y-112776000D01*
X138938000Y-68707000D02*
X137922000Y-68707000D01*
X128319000Y-111330000D02*
X128319000Y-112776000D01*
X142113000Y-83947000D02*
X143129000Y-83947000D01*
X142113000Y-61087000D02*
X143129000Y-61087000D01*
X165354000Y-107442000D02*
X164005500Y-107442000D01*
%TO.N,/RED1*%
X128143000Y-105473500D02*
X127101600Y-104432100D01*
X127101600Y-81381600D02*
X125922500Y-80202500D01*
X126931500Y-106142000D02*
X127855500Y-106142000D01*
X127855500Y-106142000D02*
X128143000Y-105854500D01*
X127101600Y-104432100D02*
X127101600Y-81381600D01*
X128143000Y-105854500D02*
X128143000Y-105473500D01*
X125922500Y-80202500D02*
X125922500Y-78994000D01*
%TO.N,/RED2*%
X155804200Y-106833000D02*
X152849500Y-106833000D01*
%TO.N,/RED3*%
X157480000Y-110642400D02*
X157480000Y-131927600D01*
X152849500Y-108783000D02*
X155620600Y-108783000D01*
X157480000Y-131927600D02*
X163982400Y-138430000D01*
X163982400Y-138430000D02*
X165771100Y-138430000D01*
X155620600Y-108783000D02*
X157480000Y-110642400D01*
%TO.N,/RED4*%
X137205000Y-81997000D02*
X135450500Y-81997000D01*
X137541000Y-81661000D02*
X137205000Y-81997000D01*
X138938000Y-73914000D02*
X137541000Y-75311000D01*
X137541000Y-75311000D02*
X137541000Y-81661000D01*
%TO.N,/RED5*%
X142113000Y-100711000D02*
X142113000Y-99314000D01*
X145695000Y-110083000D02*
X145669000Y-110109000D01*
X147124500Y-110083000D02*
X145695000Y-110083000D01*
X145669000Y-103759000D02*
X145161000Y-103759000D01*
X145161000Y-103759000D02*
X142113000Y-100711000D01*
%TO.N,/GRE1*%
X151881000Y-110733000D02*
X152849500Y-110733000D01*
X143002000Y-99822000D02*
X143002000Y-97663000D01*
X147193000Y-103251000D02*
X146431000Y-103251000D01*
X142113000Y-96774000D02*
X142113000Y-95377000D01*
X150495000Y-103296500D02*
X150495000Y-109347000D01*
X150495000Y-109347000D02*
X151881000Y-110733000D01*
X146431000Y-103251000D02*
X143002000Y-99822000D01*
X143002000Y-97663000D02*
X142113000Y-96774000D01*
%TO.N,/GRE2*%
X137190000Y-82647000D02*
X135450500Y-82647000D01*
X138049000Y-78613000D02*
X138049000Y-81788000D01*
X138938000Y-77724000D02*
X138049000Y-78613000D01*
X138049000Y-81788000D02*
X137190000Y-82647000D01*
%TO.N,/GRE3*%
X131191000Y-84963000D02*
X130907000Y-85247000D01*
X137033000Y-86995000D02*
X136652000Y-86614000D01*
X138938000Y-97790000D02*
X137033000Y-95885000D01*
X130907000Y-85247000D02*
X129725500Y-85247000D01*
X136652000Y-86614000D02*
X134366000Y-86614000D01*
X134366000Y-86614000D02*
X132715000Y-84963000D01*
X137033000Y-95885000D02*
X137033000Y-86995000D01*
%TO.N,/GRE4*%
X126931500Y-107442000D02*
X123484100Y-107442000D01*
%TO.N,/GRE5*%
X120777000Y-139065000D02*
X124968000Y-134874000D01*
X124968000Y-109982000D02*
X125558000Y-109392000D01*
X125558000Y-109392000D02*
X126931500Y-109392000D01*
X124968000Y-134874000D02*
X124968000Y-109982000D01*
X116840000Y-139065000D02*
X120777000Y-139065000D01*
%TO.N,/YEL4*%
X135450500Y-83297000D02*
X137175000Y-83297000D01*
X137175000Y-83297000D02*
X138938000Y-81534000D01*
%TO.N,/YEL5*%
X138938000Y-90170000D02*
X138049000Y-89281000D01*
X138049000Y-86106000D02*
X137190000Y-85247000D01*
X137190000Y-85247000D02*
X135450500Y-85247000D01*
X138049000Y-89281000D02*
X138049000Y-86106000D01*
%TO.N,/YEL1*%
X152849500Y-107483000D02*
X152890500Y-107442000D01*
X152890500Y-107442000D02*
X157439900Y-107442000D01*
%TO.N,/YEL2*%
X125730000Y-105283000D02*
X125730000Y-106578400D01*
X125730000Y-106578400D02*
X125943600Y-106792000D01*
X126593600Y-104419400D02*
X125730000Y-105283000D01*
X126593600Y-81935100D02*
X126593600Y-104419400D01*
X125943600Y-106792000D02*
X126931500Y-106792000D01*
X125938500Y-81280000D02*
X126593600Y-81935100D01*
%TO.N,/BLU1*%
X137175000Y-84597000D02*
X138938000Y-86360000D01*
X135450500Y-84597000D02*
X137175000Y-84597000D01*
%TO.N,/BLU2*%
X135450500Y-83947000D02*
X138023600Y-83947000D01*
X138023600Y-83947000D02*
X138023600Y-83972400D01*
%TO.N,/BLU3*%
X130556000Y-105283000D02*
X130556000Y-109474000D01*
X132994400Y-104394000D02*
X131419600Y-104394000D01*
X131445000Y-104394000D02*
X130556000Y-105283000D01*
X129988000Y-110042000D02*
X126931500Y-110042000D01*
X130556000Y-109474000D02*
X129988000Y-110042000D01*
%TO.N,/BLU4*%
X164185600Y-137617200D02*
X157988000Y-131419600D01*
X157988000Y-131419600D02*
X157988000Y-110337600D01*
X157988000Y-110337600D02*
X155783400Y-108133000D01*
X155783400Y-108133000D02*
X152849500Y-108133000D01*
%TO.N,/BLU5*%
X125110000Y-108092000D02*
X126931500Y-108092000D01*
%TO.N,/WHI1*%
X120650000Y-138430000D02*
X115152900Y-138430000D01*
X125446000Y-108742000D02*
X124460000Y-109728000D01*
X124460000Y-134620000D02*
X120650000Y-138430000D01*
X124460000Y-109728000D02*
X124460000Y-134620000D01*
X126931500Y-108742000D02*
X125446000Y-108742000D01*
%TO.N,/WHI3*%
X137205000Y-85897000D02*
X137541000Y-86233000D01*
X137541000Y-86233000D02*
X137541000Y-92583000D01*
X135450500Y-85897000D02*
X137205000Y-85897000D01*
X137541000Y-92583000D02*
X138938000Y-93980000D01*
%TO.N,/WHI4*%
X151130000Y-109220000D02*
X151993000Y-110083000D01*
X147193000Y-102362000D02*
X146177000Y-102362000D01*
X150622000Y-102362000D02*
X150876000Y-102362000D01*
X143510000Y-94361000D02*
X142113000Y-92964000D01*
X151130000Y-102616000D02*
X151130000Y-109220000D01*
X142113000Y-92964000D02*
X142113000Y-91567000D01*
X150876000Y-102362000D02*
X151130000Y-102616000D01*
X151993000Y-110083000D02*
X152849500Y-110083000D01*
X143510000Y-99695000D02*
X143510000Y-94361000D01*
X146177000Y-102362000D02*
X143510000Y-99695000D01*
%TO.N,/LATCH*%
X136753600Y-107746800D02*
X145386892Y-107746800D01*
X134772400Y-95021400D02*
X128066800Y-88315800D01*
X136753600Y-107746800D02*
X135496300Y-107746800D01*
X145773092Y-108133000D02*
X147124500Y-108133000D01*
X145386892Y-107746800D02*
X145773092Y-108133000D01*
X135496300Y-107746800D02*
X134501100Y-108742000D01*
X128640600Y-83297000D02*
X129725500Y-83297000D01*
X128066800Y-83870800D02*
X128640600Y-83297000D01*
X134772400Y-103987600D02*
X134772400Y-95021400D01*
X128066800Y-88315800D02*
X128066800Y-83870800D01*
X134501100Y-108742000D02*
X132631100Y-108742000D01*
%TO.N,/CLK*%
X145542000Y-107061000D02*
X145964000Y-107483000D01*
X136139368Y-107061000D02*
X145542000Y-107061000D01*
X145964000Y-107483000D02*
X147124500Y-107483000D01*
X136123700Y-108463100D02*
X135194800Y-109392000D01*
X127609600Y-83566000D02*
X128528600Y-82647000D01*
X133908800Y-104394000D02*
X133908800Y-94919800D01*
X127609600Y-88620600D02*
X127609600Y-83566000D01*
X133908800Y-94919800D02*
X127609600Y-88620600D01*
X136128984Y-107071384D02*
X136139368Y-107061000D01*
X128528600Y-82647000D02*
X129725500Y-82647000D01*
X135194800Y-109392000D02*
X132631100Y-109392000D01*
%TO.N,Net-(D1-Pad2)*%
X121142500Y-78994000D02*
X122936000Y-78994000D01*
%TO.N,Net-(D3-Pad2)*%
X168806500Y-138430000D02*
X170512500Y-138430000D01*
%TO.N,Net-(D9-Pad2)*%
X118793500Y-107442000D02*
X120587000Y-107442000D01*
%TO.N,Net-(D13-Pad2)*%
X160337000Y-107442000D02*
X162130500Y-107442000D01*
%TO.N,Net-(D18-Pad2)*%
X157988000Y-78994000D02*
X159781500Y-78994000D01*
%TO.N,Net-(D21-Pad2)*%
X110411500Y-138430000D02*
X112205000Y-138430000D01*
%TO.N,Net-(U2-Pad9)*%
X132656500Y-110692000D02*
X143943000Y-110692000D01*
X143943000Y-110692000D02*
X145202000Y-109433000D01*
X145202000Y-109433000D02*
X147124500Y-109433000D01*
%TO.N,Net-(U3-Pad9)*%
X135610600Y-103301800D02*
X135610600Y-95097600D01*
X137388600Y-106172000D02*
X137399600Y-106183000D01*
X135610600Y-95097600D02*
X128524000Y-88011000D01*
X137399600Y-106183000D02*
X147124500Y-106183000D01*
X128524000Y-88011000D02*
X128524000Y-84821000D01*
X128748000Y-84597000D02*
X129725500Y-84597000D01*
X128524000Y-84821000D02*
X128748000Y-84597000D01*
%TO.N,/YEL3*%
X151765000Y-109220000D02*
X151978000Y-109433000D01*
X151978000Y-109433000D02*
X152849500Y-109433000D01*
X144018000Y-99441000D02*
X144018000Y-91059000D01*
X147193000Y-101473000D02*
X146050000Y-101473000D01*
X144018000Y-91059000D02*
X142113000Y-89154000D01*
X151765000Y-102235000D02*
X151765000Y-109220000D01*
X146050000Y-101473000D02*
X144018000Y-99441000D01*
X150495000Y-101473000D02*
X151003000Y-101473000D01*
X151003000Y-101473000D02*
X151765000Y-102235000D01*
X142113000Y-89154000D02*
X142113000Y-87757000D01*
%TD*%
%TA.AperFunction,Conductor*%
%TO.N,GND*%
G36*
X141967012Y-55186593D02*
G01*
X141973595Y-55192722D01*
X169057277Y-82276405D01*
X169091303Y-82338717D01*
X169086238Y-82409532D01*
X169043691Y-82466368D01*
X168977171Y-82491179D01*
X168968182Y-82491500D01*
X158015794Y-82491500D01*
X158009872Y-82491361D01*
X158006004Y-82491179D01*
X157951150Y-82488598D01*
X157942429Y-82490709D01*
X157942427Y-82490709D01*
X157909744Y-82498620D01*
X157897969Y-82500882D01*
X157855813Y-82506920D01*
X157846318Y-82511237D01*
X157844336Y-82512138D01*
X157821834Y-82519899D01*
X157809580Y-82522865D01*
X157801802Y-82527339D01*
X157801799Y-82527340D01*
X157772656Y-82544102D01*
X157761989Y-82549579D01*
X157731393Y-82563491D01*
X157723218Y-82567208D01*
X157713668Y-82575437D01*
X157694244Y-82589204D01*
X157683318Y-82595488D01*
X157653832Y-82626242D01*
X157645143Y-82634482D01*
X157612873Y-82662287D01*
X157607993Y-82669816D01*
X157607990Y-82669819D01*
X157606012Y-82672870D01*
X157591238Y-82691529D01*
X157582514Y-82700629D01*
X157562848Y-82738417D01*
X157556817Y-82748771D01*
X157533648Y-82784515D01*
X157530035Y-82796596D01*
X157521089Y-82818658D01*
X157515271Y-82829837D01*
X157507000Y-82871633D01*
X157504122Y-82883245D01*
X157491914Y-82924066D01*
X157491859Y-82933041D01*
X157491859Y-82933042D01*
X157491837Y-82936673D01*
X157489442Y-82960361D01*
X157486996Y-82972723D01*
X157487795Y-82981663D01*
X157490786Y-83015141D01*
X157491284Y-83027124D01*
X157491217Y-83038150D01*
X157491024Y-83069721D01*
X157493490Y-83078350D01*
X157493491Y-83078355D01*
X157494488Y-83081844D01*
X157498838Y-83105247D01*
X157499960Y-83117803D01*
X157515372Y-83157115D01*
X157515508Y-83157463D01*
X157519349Y-83168827D01*
X157528584Y-83201141D01*
X157528585Y-83201144D01*
X157531051Y-83209771D01*
X157535839Y-83217360D01*
X157535841Y-83217364D01*
X157564634Y-83262999D01*
X157566908Y-83266745D01*
X174504147Y-112302012D01*
X174521194Y-112370932D01*
X174498274Y-112438127D01*
X174442664Y-112482264D01*
X174395311Y-112491500D01*
X163015794Y-112491500D01*
X163009872Y-112491361D01*
X163007864Y-112491267D01*
X162951150Y-112488598D01*
X162942429Y-112490709D01*
X162942427Y-112490709D01*
X162909744Y-112498620D01*
X162897969Y-112500882D01*
X162855813Y-112506920D01*
X162844572Y-112512031D01*
X162844336Y-112512138D01*
X162821834Y-112519899D01*
X162809580Y-112522865D01*
X162801802Y-112527339D01*
X162801799Y-112527340D01*
X162772656Y-112544102D01*
X162761989Y-112549579D01*
X162731393Y-112563491D01*
X162723218Y-112567208D01*
X162713668Y-112575437D01*
X162694244Y-112589204D01*
X162683318Y-112595488D01*
X162653832Y-112626242D01*
X162645143Y-112634482D01*
X162612873Y-112662287D01*
X162607993Y-112669816D01*
X162607990Y-112669819D01*
X162606012Y-112672870D01*
X162591238Y-112691529D01*
X162591094Y-112691680D01*
X162582514Y-112700629D01*
X162562848Y-112738417D01*
X162556817Y-112748771D01*
X162533648Y-112784515D01*
X162530035Y-112796596D01*
X162521089Y-112818658D01*
X162515271Y-112829837D01*
X162507000Y-112871633D01*
X162504122Y-112883245D01*
X162491914Y-112924066D01*
X162491859Y-112933041D01*
X162491859Y-112933042D01*
X162491837Y-112936673D01*
X162489442Y-112960361D01*
X162486996Y-112972723D01*
X162487795Y-112981663D01*
X162490786Y-113015141D01*
X162491284Y-113027124D01*
X162491249Y-113032876D01*
X162491024Y-113069721D01*
X162493490Y-113078350D01*
X162493491Y-113078355D01*
X162494488Y-113081844D01*
X162498838Y-113105247D01*
X162499960Y-113117803D01*
X162503236Y-113126159D01*
X162503236Y-113126160D01*
X162515508Y-113157463D01*
X162519349Y-113168827D01*
X162528584Y-113201141D01*
X162528585Y-113201144D01*
X162531051Y-113209771D01*
X162535839Y-113217360D01*
X162535841Y-113217364D01*
X162564634Y-113262999D01*
X162566908Y-113266745D01*
X179504147Y-142302012D01*
X179521194Y-142370932D01*
X179498274Y-142438127D01*
X179442664Y-142482264D01*
X179395311Y-142491500D01*
X150508623Y-142491500D01*
X150507853Y-142491498D01*
X150507037Y-142491493D01*
X150430279Y-142491024D01*
X150407918Y-142497415D01*
X150401847Y-142499150D01*
X150385085Y-142502728D01*
X150355813Y-142506920D01*
X150347645Y-142510634D01*
X150347644Y-142510634D01*
X150332438Y-142517548D01*
X150314914Y-142523996D01*
X150290229Y-142531051D01*
X150282635Y-142535843D01*
X150282632Y-142535844D01*
X150265220Y-142546830D01*
X150250137Y-142554969D01*
X150223218Y-142567208D01*
X150216416Y-142573069D01*
X150203765Y-142583970D01*
X150188761Y-142595073D01*
X150167042Y-142608776D01*
X150161103Y-142615501D01*
X150161099Y-142615504D01*
X150147468Y-142630938D01*
X150135276Y-142642982D01*
X150119673Y-142656427D01*
X150119671Y-142656430D01*
X150112873Y-142662287D01*
X150107993Y-142669816D01*
X150107992Y-142669817D01*
X150098906Y-142683835D01*
X150087615Y-142698709D01*
X150076569Y-142711217D01*
X150070622Y-142717951D01*
X150062548Y-142735148D01*
X150058058Y-142744711D01*
X150049737Y-142759691D01*
X150038529Y-142776983D01*
X150038527Y-142776988D01*
X150033648Y-142784515D01*
X150031078Y-142793108D01*
X150031076Y-142793113D01*
X150026289Y-142809120D01*
X150019628Y-142826564D01*
X150014752Y-142836950D01*
X150008719Y-142849800D01*
X150007338Y-142858667D01*
X150007338Y-142858668D01*
X150004170Y-142879015D01*
X150000387Y-142895732D01*
X149994485Y-142915466D01*
X149994484Y-142915472D01*
X149991914Y-142924066D01*
X149991859Y-142933037D01*
X149991859Y-142933038D01*
X149991704Y-142958497D01*
X149991671Y-142959289D01*
X149991500Y-142960386D01*
X149991500Y-142991377D01*
X149991498Y-142992147D01*
X149991024Y-143069721D01*
X149991408Y-143071065D01*
X149991500Y-143072410D01*
X149991500Y-152365500D01*
X149971498Y-152433621D01*
X149917842Y-152480114D01*
X149865500Y-152491500D01*
X142155680Y-152491500D01*
X142087559Y-152471498D01*
X142041066Y-152417842D01*
X142030962Y-152347568D01*
X142060456Y-152282988D01*
X142088378Y-152260056D01*
X142088055Y-152259591D01*
X142272527Y-152131380D01*
X142431380Y-151972527D01*
X142559591Y-151788055D01*
X142653110Y-151583794D01*
X142708978Y-151366200D01*
X142720500Y-151224542D01*
X142720500Y-149599458D01*
X142708978Y-149457800D01*
X142653110Y-149240206D01*
X142559591Y-149035945D01*
X142431380Y-148851473D01*
X142272527Y-148692620D01*
X142088055Y-148564409D01*
X141883794Y-148470890D01*
X141666200Y-148415022D01*
X141612295Y-148410638D01*
X141527092Y-148403707D01*
X141527082Y-148403707D01*
X141524542Y-148403500D01*
X139399458Y-148403500D01*
X139396918Y-148403707D01*
X139396908Y-148403707D01*
X139311705Y-148410638D01*
X139257800Y-148415022D01*
X139040206Y-148470890D01*
X138835945Y-148564409D01*
X138651473Y-148692620D01*
X138492620Y-148851473D01*
X138364409Y-149035945D01*
X138270890Y-149240206D01*
X138215022Y-149457800D01*
X138203500Y-149599458D01*
X138203500Y-151224542D01*
X138215022Y-151366200D01*
X138270890Y-151583794D01*
X138364409Y-151788055D01*
X138492620Y-151972527D01*
X138651473Y-152131380D01*
X138835945Y-152259591D01*
X138835195Y-152260670D01*
X138880008Y-152307175D01*
X138893811Y-152376817D01*
X138867771Y-152442866D01*
X138810156Y-152484352D01*
X138768320Y-152491500D01*
X131134500Y-152491500D01*
X131066379Y-152471498D01*
X131019886Y-152417842D01*
X131008500Y-152365500D01*
X131008500Y-143568063D01*
X133954001Y-143568063D01*
X133954072Y-143571076D01*
X133964462Y-143789457D01*
X133965075Y-143795720D01*
X134019051Y-144159049D01*
X134020389Y-144165628D01*
X134112619Y-144520974D01*
X134114642Y-144527352D01*
X134244112Y-144870889D01*
X134246813Y-144877041D01*
X134412048Y-145204863D01*
X134415373Y-145210671D01*
X134614527Y-145519105D01*
X134618443Y-145524514D01*
X134849251Y-145810048D01*
X134853711Y-145815001D01*
X135113550Y-146074387D01*
X135118521Y-146078848D01*
X135404452Y-146309153D01*
X135409870Y-146313060D01*
X135718647Y-146511672D01*
X135724460Y-146514988D01*
X136052577Y-146679655D01*
X136058731Y-146682343D01*
X136402488Y-146811211D01*
X136408873Y-146813225D01*
X136764388Y-146904836D01*
X136770951Y-146906159D01*
X137134395Y-146959504D01*
X137140642Y-146960105D01*
X137352970Y-146969933D01*
X137355877Y-146970000D01*
X140189885Y-146970000D01*
X140205124Y-146965525D01*
X140206329Y-146964135D01*
X140208000Y-146956452D01*
X140208000Y-146951884D01*
X140716000Y-146951884D01*
X140720475Y-146967123D01*
X140721865Y-146968328D01*
X140729548Y-146969999D01*
X143568063Y-146969999D01*
X143571076Y-146969928D01*
X143789457Y-146959538D01*
X143795720Y-146958925D01*
X144159049Y-146904949D01*
X144165628Y-146903611D01*
X144520974Y-146811381D01*
X144527352Y-146809358D01*
X144870889Y-146679888D01*
X144877041Y-146677187D01*
X145204863Y-146511952D01*
X145210671Y-146508627D01*
X145519105Y-146309473D01*
X145524514Y-146305557D01*
X145810048Y-146074749D01*
X145815001Y-146070289D01*
X146074387Y-145810450D01*
X146078848Y-145805479D01*
X146309153Y-145519548D01*
X146313060Y-145514130D01*
X146511672Y-145205353D01*
X146514988Y-145199540D01*
X146679655Y-144871423D01*
X146682343Y-144865269D01*
X146811211Y-144521512D01*
X146813225Y-144515127D01*
X146904836Y-144159612D01*
X146906159Y-144153049D01*
X146959504Y-143789605D01*
X146960105Y-143783358D01*
X146969933Y-143571030D01*
X146970000Y-143568123D01*
X146970000Y-140734115D01*
X146965525Y-140718876D01*
X146964135Y-140717671D01*
X146956452Y-140716000D01*
X140734115Y-140716000D01*
X140718876Y-140720475D01*
X140717671Y-140721865D01*
X140716000Y-140729548D01*
X140716000Y-146951884D01*
X140208000Y-146951884D01*
X140208000Y-140734115D01*
X140203525Y-140718876D01*
X140202135Y-140717671D01*
X140194452Y-140716000D01*
X133972116Y-140716000D01*
X133956877Y-140720475D01*
X133955672Y-140721865D01*
X133954001Y-140729548D01*
X133954001Y-143568063D01*
X131008500Y-143568063D01*
X131008500Y-143008623D01*
X131008502Y-143007853D01*
X131008800Y-142959102D01*
X131008976Y-142930279D01*
X131000850Y-142901847D01*
X130997272Y-142885085D01*
X130994352Y-142864698D01*
X130993080Y-142855813D01*
X130982451Y-142832436D01*
X130976004Y-142814913D01*
X130971416Y-142798862D01*
X130968949Y-142790229D01*
X130964156Y-142782632D01*
X130953170Y-142765220D01*
X130945030Y-142750135D01*
X130942564Y-142744711D01*
X130932792Y-142723218D01*
X130916030Y-142703765D01*
X130904927Y-142688761D01*
X130891224Y-142667042D01*
X130884499Y-142661103D01*
X130884496Y-142661099D01*
X130869062Y-142647468D01*
X130857018Y-142635276D01*
X130843573Y-142619673D01*
X130843570Y-142619671D01*
X130837713Y-142612873D01*
X130824009Y-142603990D01*
X130816165Y-142598906D01*
X130801291Y-142587615D01*
X130788783Y-142576569D01*
X130788782Y-142576568D01*
X130782049Y-142570622D01*
X130755287Y-142558057D01*
X130740309Y-142549737D01*
X130723017Y-142538529D01*
X130723012Y-142538527D01*
X130715485Y-142533648D01*
X130706892Y-142531078D01*
X130706887Y-142531076D01*
X130690880Y-142526289D01*
X130673436Y-142519628D01*
X130658324Y-142512533D01*
X130658322Y-142512532D01*
X130650200Y-142508719D01*
X130641333Y-142507338D01*
X130641332Y-142507338D01*
X130630478Y-142505648D01*
X130620983Y-142504170D01*
X130604268Y-142500387D01*
X130584534Y-142494485D01*
X130584528Y-142494484D01*
X130575934Y-142491914D01*
X130566963Y-142491859D01*
X130566962Y-142491859D01*
X130556903Y-142491798D01*
X130541494Y-142491704D01*
X130540711Y-142491671D01*
X130539614Y-142491500D01*
X130508623Y-142491500D01*
X130507853Y-142491498D01*
X130434215Y-142491048D01*
X130434214Y-142491048D01*
X130430279Y-142491024D01*
X130428935Y-142491408D01*
X130427590Y-142491500D01*
X101604688Y-142491500D01*
X101536567Y-142471498D01*
X101490074Y-142417842D01*
X101479970Y-142347568D01*
X101495852Y-142302012D01*
X102727926Y-140189885D01*
X133954000Y-140189885D01*
X133958475Y-140205124D01*
X133959865Y-140206329D01*
X133967548Y-140208000D01*
X140189885Y-140208000D01*
X140205124Y-140203525D01*
X140206329Y-140202135D01*
X140208000Y-140194452D01*
X140208000Y-140189885D01*
X140716000Y-140189885D01*
X140720475Y-140205124D01*
X140721865Y-140206329D01*
X140729548Y-140208000D01*
X146951884Y-140208000D01*
X146967123Y-140203525D01*
X146968328Y-140202135D01*
X146969999Y-140194452D01*
X146969999Y-137355937D01*
X146969928Y-137352924D01*
X146959538Y-137134543D01*
X146958925Y-137128280D01*
X146904949Y-136764951D01*
X146903611Y-136758372D01*
X146811381Y-136403026D01*
X146809358Y-136396648D01*
X146679888Y-136053111D01*
X146677187Y-136046959D01*
X146511952Y-135719137D01*
X146508627Y-135713329D01*
X146309473Y-135404895D01*
X146305557Y-135399486D01*
X146074749Y-135113952D01*
X146070289Y-135108999D01*
X145810450Y-134849613D01*
X145805479Y-134845152D01*
X145519548Y-134614847D01*
X145514130Y-134610940D01*
X145205353Y-134412328D01*
X145199540Y-134409012D01*
X144871423Y-134244345D01*
X144865269Y-134241657D01*
X144521512Y-134112789D01*
X144515127Y-134110775D01*
X144159612Y-134019164D01*
X144153049Y-134017841D01*
X143789605Y-133964496D01*
X143783358Y-133963895D01*
X143571030Y-133954067D01*
X143568123Y-133954000D01*
X140734115Y-133954000D01*
X140718876Y-133958475D01*
X140717671Y-133959865D01*
X140716000Y-133967548D01*
X140716000Y-140189885D01*
X140208000Y-140189885D01*
X140208000Y-133972116D01*
X140203525Y-133956877D01*
X140202135Y-133955672D01*
X140194452Y-133954001D01*
X137355937Y-133954001D01*
X137352924Y-133954072D01*
X137134543Y-133964462D01*
X137128280Y-133965075D01*
X136764951Y-134019051D01*
X136758372Y-134020389D01*
X136403026Y-134112619D01*
X136396648Y-134114642D01*
X136053111Y-134244112D01*
X136046959Y-134246813D01*
X135719137Y-134412048D01*
X135713329Y-134415373D01*
X135404895Y-134614527D01*
X135399486Y-134618443D01*
X135113952Y-134849251D01*
X135108999Y-134853711D01*
X134849613Y-135113550D01*
X134845152Y-135118521D01*
X134614847Y-135404452D01*
X134610940Y-135409870D01*
X134412328Y-135718647D01*
X134409012Y-135724460D01*
X134244345Y-136052577D01*
X134241657Y-136058731D01*
X134112789Y-136402488D01*
X134110775Y-136408873D01*
X134019164Y-136764388D01*
X134017841Y-136770951D01*
X133964496Y-137134395D01*
X133963895Y-137140642D01*
X133954067Y-137352970D01*
X133954000Y-137355877D01*
X133954000Y-140189885D01*
X102727926Y-140189885D01*
X103461148Y-138932933D01*
X107541001Y-138932933D01*
X107541338Y-138939452D01*
X107551166Y-139034170D01*
X107554058Y-139047564D01*
X107605036Y-139200365D01*
X107611210Y-139213543D01*
X107695744Y-139350149D01*
X107704780Y-139361550D01*
X107818479Y-139475051D01*
X107829890Y-139484063D01*
X107966654Y-139568365D01*
X107979832Y-139574509D01*
X108132740Y-139625227D01*
X108146106Y-139628093D01*
X108239601Y-139637672D01*
X108246016Y-139638000D01*
X108264385Y-139638000D01*
X108279624Y-139633525D01*
X108280829Y-139632135D01*
X108282500Y-139624452D01*
X108282500Y-139619884D01*
X108790500Y-139619884D01*
X108794975Y-139635123D01*
X108796365Y-139636328D01*
X108804048Y-139637999D01*
X108826933Y-139637999D01*
X108833452Y-139637662D01*
X108928170Y-139627834D01*
X108941564Y-139624942D01*
X109094365Y-139573964D01*
X109107543Y-139567790D01*
X109244149Y-139483256D01*
X109255550Y-139474220D01*
X109369051Y-139360521D01*
X109374794Y-139353249D01*
X109432711Y-139312186D01*
X109503634Y-139308954D01*
X109565046Y-139344579D01*
X109570840Y-139351254D01*
X109574203Y-139356689D01*
X109579384Y-139361861D01*
X109601530Y-139383968D01*
X109698347Y-139480617D01*
X109847671Y-139572661D01*
X109854619Y-139574966D01*
X109854620Y-139574966D01*
X110007634Y-139625719D01*
X110007636Y-139625719D01*
X110014165Y-139627885D01*
X110117769Y-139638500D01*
X110409234Y-139638500D01*
X110705230Y-139638499D01*
X110810129Y-139627616D01*
X110816660Y-139625437D01*
X110816665Y-139625436D01*
X110969578Y-139574420D01*
X110976526Y-139572102D01*
X111124138Y-139480757D01*
X111124140Y-139480756D01*
X111125689Y-139479797D01*
X111125853Y-139480062D01*
X111187854Y-139454966D01*
X111257618Y-139468137D01*
X111307453Y-139514046D01*
X111316922Y-139529348D01*
X111322104Y-139534521D01*
X111324189Y-139536602D01*
X111442097Y-139654305D01*
X111448327Y-139658145D01*
X111448328Y-139658146D01*
X111585490Y-139742694D01*
X111592662Y-139747115D01*
X111672405Y-139773564D01*
X111754011Y-139800632D01*
X111754013Y-139800632D01*
X111760539Y-139802797D01*
X111767375Y-139803497D01*
X111767378Y-139803498D01*
X111810431Y-139807909D01*
X111865000Y-139813500D01*
X112590800Y-139813500D01*
X112594046Y-139813163D01*
X112594050Y-139813163D01*
X112689708Y-139803238D01*
X112689712Y-139803237D01*
X112696566Y-139802526D01*
X112703102Y-139800345D01*
X112703104Y-139800345D01*
X112835206Y-139756272D01*
X112864346Y-139746550D01*
X113014748Y-139653478D01*
X113048284Y-139619884D01*
X113134534Y-139533483D01*
X113139705Y-139528303D01*
X113161361Y-139493171D01*
X113228675Y-139383968D01*
X113228676Y-139383966D01*
X113232515Y-139377738D01*
X113288197Y-139209861D01*
X113298900Y-139105400D01*
X113298900Y-137754600D01*
X113298563Y-137751350D01*
X113288638Y-137655692D01*
X113288637Y-137655688D01*
X113287926Y-137648834D01*
X113231950Y-137481054D01*
X113138878Y-137330652D01*
X113013703Y-137205695D01*
X112981687Y-137185960D01*
X112869368Y-137116725D01*
X112869366Y-137116724D01*
X112863138Y-137112885D01*
X112702654Y-137059655D01*
X112701789Y-137059368D01*
X112701787Y-137059368D01*
X112695261Y-137057203D01*
X112688425Y-137056503D01*
X112688422Y-137056502D01*
X112645369Y-137052091D01*
X112590800Y-137046500D01*
X111865000Y-137046500D01*
X111861754Y-137046837D01*
X111861750Y-137046837D01*
X111766092Y-137056762D01*
X111766088Y-137056763D01*
X111759234Y-137057474D01*
X111752698Y-137059655D01*
X111752696Y-137059655D01*
X111620594Y-137103728D01*
X111591454Y-137113450D01*
X111441052Y-137206522D01*
X111435879Y-137211704D01*
X111382029Y-137265648D01*
X111316095Y-137331697D01*
X111307467Y-137345693D01*
X111254697Y-137393186D01*
X111184626Y-137404610D01*
X111124891Y-137379621D01*
X111124653Y-137379383D01*
X110975329Y-137287339D01*
X110968380Y-137285034D01*
X110815366Y-137234281D01*
X110815364Y-137234281D01*
X110808835Y-137232115D01*
X110705231Y-137221500D01*
X110413766Y-137221500D01*
X110117770Y-137221501D01*
X110012871Y-137232384D01*
X110006340Y-137234563D01*
X110006335Y-137234564D01*
X109900067Y-137270018D01*
X109846474Y-137287898D01*
X109697311Y-137380203D01*
X109573383Y-137504347D01*
X109571386Y-137507587D01*
X109514648Y-137547814D01*
X109443725Y-137551047D01*
X109382313Y-137515422D01*
X109374934Y-137506922D01*
X109368218Y-137498448D01*
X109254521Y-137384949D01*
X109243110Y-137375937D01*
X109106346Y-137291635D01*
X109093168Y-137285491D01*
X108940260Y-137234773D01*
X108926894Y-137231907D01*
X108833399Y-137222328D01*
X108826984Y-137222000D01*
X108808615Y-137222000D01*
X108793376Y-137226475D01*
X108792171Y-137227865D01*
X108790500Y-137235548D01*
X108790500Y-139619884D01*
X108282500Y-139619884D01*
X108282500Y-138702115D01*
X108278025Y-138686876D01*
X108276635Y-138685671D01*
X108268952Y-138684000D01*
X107559116Y-138684000D01*
X107543877Y-138688475D01*
X107542672Y-138689865D01*
X107541001Y-138697548D01*
X107541001Y-138932933D01*
X103461148Y-138932933D01*
X103913259Y-138157885D01*
X107541000Y-138157885D01*
X107545475Y-138173124D01*
X107546865Y-138174329D01*
X107554548Y-138176000D01*
X108264385Y-138176000D01*
X108279624Y-138171525D01*
X108280829Y-138170135D01*
X108282500Y-138162452D01*
X108282500Y-137240116D01*
X108278025Y-137224877D01*
X108276635Y-137223672D01*
X108268952Y-137222001D01*
X108246067Y-137222001D01*
X108239548Y-137222338D01*
X108144830Y-137232166D01*
X108131436Y-137235058D01*
X107978635Y-137286036D01*
X107965457Y-137292210D01*
X107828851Y-137376744D01*
X107817450Y-137385780D01*
X107703949Y-137499479D01*
X107694937Y-137510890D01*
X107610635Y-137647654D01*
X107604491Y-137660832D01*
X107553773Y-137813740D01*
X107550907Y-137827106D01*
X107541328Y-137920601D01*
X107541000Y-137927016D01*
X107541000Y-138157885D01*
X103913259Y-138157885D01*
X110207898Y-127367075D01*
X118431288Y-113269836D01*
X118434360Y-113264843D01*
X118466352Y-113215485D01*
X118478554Y-113174683D01*
X118482533Y-113163370D01*
X118495187Y-113132218D01*
X118495188Y-113132214D01*
X118498564Y-113123903D01*
X118499839Y-113111364D01*
X118504474Y-113088011D01*
X118508086Y-113075934D01*
X118508346Y-113033338D01*
X118508990Y-113021366D01*
X118512391Y-112987923D01*
X118513299Y-112978993D01*
X118511004Y-112966602D01*
X118508899Y-112942885D01*
X118508921Y-112939255D01*
X118508976Y-112930279D01*
X118497269Y-112889318D01*
X118494529Y-112877656D01*
X118493410Y-112871611D01*
X118486771Y-112835772D01*
X118481089Y-112824520D01*
X118472411Y-112802344D01*
X118471416Y-112798861D01*
X118468949Y-112790229D01*
X118460590Y-112776980D01*
X118446222Y-112754207D01*
X118440312Y-112743771D01*
X118437603Y-112738406D01*
X118421113Y-112705752D01*
X118412499Y-112696545D01*
X118397946Y-112677696D01*
X118396014Y-112674634D01*
X118391224Y-112667042D01*
X118359301Y-112638849D01*
X118350698Y-112630489D01*
X118327734Y-112605943D01*
X118327732Y-112605941D01*
X118321600Y-112599387D01*
X118313875Y-112594818D01*
X118313872Y-112594815D01*
X118310751Y-112592969D01*
X118291493Y-112578963D01*
X118288777Y-112576564D01*
X118288776Y-112576563D01*
X118282049Y-112570622D01*
X118243494Y-112552520D01*
X118232896Y-112546914D01*
X118196235Y-112525227D01*
X118184021Y-112522112D01*
X118161607Y-112514074D01*
X118158329Y-112512535D01*
X118158325Y-112512534D01*
X118150200Y-112508719D01*
X118141333Y-112507338D01*
X118141332Y-112507338D01*
X118108111Y-112502165D01*
X118096364Y-112499758D01*
X118063788Y-112491451D01*
X118055094Y-112489234D01*
X118046129Y-112489546D01*
X118046128Y-112489546D01*
X117992177Y-112491424D01*
X117987794Y-112491500D01*
X106604688Y-112491500D01*
X106536567Y-112471498D01*
X106490074Y-112417842D01*
X106479970Y-112347568D01*
X106495852Y-112302012D01*
X109037482Y-107944933D01*
X115923001Y-107944933D01*
X115923338Y-107951452D01*
X115933166Y-108046170D01*
X115936058Y-108059564D01*
X115987036Y-108212365D01*
X115993210Y-108225543D01*
X116077744Y-108362149D01*
X116086780Y-108373550D01*
X116200479Y-108487051D01*
X116211890Y-108496063D01*
X116348654Y-108580365D01*
X116361832Y-108586509D01*
X116514740Y-108637227D01*
X116528106Y-108640093D01*
X116621601Y-108649672D01*
X116628016Y-108650000D01*
X116646385Y-108650000D01*
X116661624Y-108645525D01*
X116662829Y-108644135D01*
X116664500Y-108636452D01*
X116664500Y-108631884D01*
X117172500Y-108631884D01*
X117176975Y-108647123D01*
X117178365Y-108648328D01*
X117186048Y-108649999D01*
X117208933Y-108649999D01*
X117215452Y-108649662D01*
X117310170Y-108639834D01*
X117323564Y-108636942D01*
X117476365Y-108585964D01*
X117489543Y-108579790D01*
X117626149Y-108495256D01*
X117637550Y-108486220D01*
X117751051Y-108372521D01*
X117756794Y-108365249D01*
X117814711Y-108324186D01*
X117885634Y-108320954D01*
X117947046Y-108356579D01*
X117952840Y-108363254D01*
X117956203Y-108368689D01*
X118080347Y-108492617D01*
X118229671Y-108584661D01*
X118236619Y-108586966D01*
X118236620Y-108586966D01*
X118389634Y-108637719D01*
X118389636Y-108637719D01*
X118396165Y-108639885D01*
X118499769Y-108650500D01*
X118791234Y-108650500D01*
X119087230Y-108650499D01*
X119192129Y-108639616D01*
X119198660Y-108637437D01*
X119198665Y-108637436D01*
X119351578Y-108586420D01*
X119358526Y-108584102D01*
X119480908Y-108508370D01*
X119549359Y-108489532D01*
X119617129Y-108510693D01*
X119645096Y-108536457D01*
X119648122Y-108541348D01*
X119773297Y-108666305D01*
X119779527Y-108670145D01*
X119779528Y-108670146D01*
X119916690Y-108754694D01*
X119923862Y-108759115D01*
X120003605Y-108785564D01*
X120085211Y-108812632D01*
X120085213Y-108812632D01*
X120091739Y-108814797D01*
X120098575Y-108815497D01*
X120098578Y-108815498D01*
X120141631Y-108819909D01*
X120196200Y-108825500D01*
X120922000Y-108825500D01*
X120925246Y-108825163D01*
X120925250Y-108825163D01*
X121020908Y-108815238D01*
X121020912Y-108815237D01*
X121027766Y-108814526D01*
X121034302Y-108812345D01*
X121034304Y-108812345D01*
X121180850Y-108763453D01*
X121195546Y-108758550D01*
X121345948Y-108665478D01*
X121379484Y-108631884D01*
X121465734Y-108545483D01*
X121470905Y-108540303D01*
X121498429Y-108495651D01*
X121559875Y-108395968D01*
X121559876Y-108395966D01*
X121563715Y-108389738D01*
X121619397Y-108221861D01*
X121630100Y-108117400D01*
X121630100Y-106766600D01*
X121629763Y-106763350D01*
X121619838Y-106667692D01*
X121619837Y-106667688D01*
X121619126Y-106660834D01*
X121616613Y-106653300D01*
X121565468Y-106500002D01*
X121563150Y-106493054D01*
X121470078Y-106342652D01*
X121344903Y-106217695D01*
X121308317Y-106195143D01*
X121200568Y-106128725D01*
X121200566Y-106128724D01*
X121194338Y-106124885D01*
X121090076Y-106090303D01*
X121032989Y-106071368D01*
X121032987Y-106071368D01*
X121026461Y-106069203D01*
X121019625Y-106068503D01*
X121019622Y-106068502D01*
X120976569Y-106064091D01*
X120922000Y-106058500D01*
X120196200Y-106058500D01*
X120192954Y-106058837D01*
X120192950Y-106058837D01*
X120097292Y-106068762D01*
X120097288Y-106068763D01*
X120090434Y-106069474D01*
X120083898Y-106071655D01*
X120083896Y-106071655D01*
X119982433Y-106105506D01*
X119922654Y-106125450D01*
X119772252Y-106218522D01*
X119767079Y-106223704D01*
X119727496Y-106263356D01*
X119647295Y-106343697D01*
X119645105Y-106347250D01*
X119588243Y-106387565D01*
X119517320Y-106390797D01*
X119481163Y-106375670D01*
X119363566Y-106303183D01*
X119363563Y-106303181D01*
X119357329Y-106299339D01*
X119327488Y-106289441D01*
X119197366Y-106246281D01*
X119197364Y-106246281D01*
X119190835Y-106244115D01*
X119087231Y-106233500D01*
X118795766Y-106233500D01*
X118499770Y-106233501D01*
X118394871Y-106244384D01*
X118388340Y-106246563D01*
X118388335Y-106246564D01*
X118242025Y-106295377D01*
X118228474Y-106299898D01*
X118079311Y-106392203D01*
X117955383Y-106516347D01*
X117953386Y-106519587D01*
X117896648Y-106559814D01*
X117825725Y-106563047D01*
X117764313Y-106527422D01*
X117756934Y-106518922D01*
X117750218Y-106510448D01*
X117636521Y-106396949D01*
X117625110Y-106387937D01*
X117488346Y-106303635D01*
X117475168Y-106297491D01*
X117322260Y-106246773D01*
X117308894Y-106243907D01*
X117215399Y-106234328D01*
X117208984Y-106234000D01*
X117190615Y-106234000D01*
X117175376Y-106238475D01*
X117174171Y-106239865D01*
X117172500Y-106247548D01*
X117172500Y-108631884D01*
X116664500Y-108631884D01*
X116664500Y-107714115D01*
X116660025Y-107698876D01*
X116658635Y-107697671D01*
X116650952Y-107696000D01*
X115941116Y-107696000D01*
X115925877Y-107700475D01*
X115924672Y-107701865D01*
X115923001Y-107709548D01*
X115923001Y-107944933D01*
X109037482Y-107944933D01*
X109489593Y-107169885D01*
X115923000Y-107169885D01*
X115927475Y-107185124D01*
X115928865Y-107186329D01*
X115936548Y-107188000D01*
X116646385Y-107188000D01*
X116661624Y-107183525D01*
X116662829Y-107182135D01*
X116664500Y-107174452D01*
X116664500Y-106252116D01*
X116660025Y-106236877D01*
X116658635Y-106235672D01*
X116650952Y-106234001D01*
X116628067Y-106234001D01*
X116621548Y-106234338D01*
X116526830Y-106244166D01*
X116513436Y-106247058D01*
X116360635Y-106298036D01*
X116347457Y-106304210D01*
X116210851Y-106388744D01*
X116199450Y-106397780D01*
X116085949Y-106511479D01*
X116076937Y-106522890D01*
X115992635Y-106659654D01*
X115986491Y-106672832D01*
X115935773Y-106825740D01*
X115932907Y-106839106D01*
X115923328Y-106932601D01*
X115923000Y-106939016D01*
X115923000Y-107169885D01*
X109489593Y-107169885D01*
X114912143Y-97874084D01*
X123431288Y-83269836D01*
X123434360Y-83264843D01*
X123466352Y-83215485D01*
X123478554Y-83174683D01*
X123482533Y-83163370D01*
X123495187Y-83132218D01*
X123495188Y-83132214D01*
X123498564Y-83123903D01*
X123499839Y-83111364D01*
X123504474Y-83088011D01*
X123508086Y-83075934D01*
X123508346Y-83033338D01*
X123508990Y-83021366D01*
X123512391Y-82987923D01*
X123513299Y-82978993D01*
X123511004Y-82966602D01*
X123508899Y-82942885D01*
X123508921Y-82939255D01*
X123508976Y-82930279D01*
X123497269Y-82889318D01*
X123494529Y-82877656D01*
X123493410Y-82871611D01*
X123486771Y-82835772D01*
X123481089Y-82824520D01*
X123472411Y-82802344D01*
X123471416Y-82798861D01*
X123468949Y-82790229D01*
X123459567Y-82775359D01*
X123446222Y-82754207D01*
X123440312Y-82743771D01*
X123432950Y-82729193D01*
X123421113Y-82705752D01*
X123412499Y-82696545D01*
X123397946Y-82677696D01*
X123396014Y-82674634D01*
X123391224Y-82667042D01*
X123379210Y-82656432D01*
X123359301Y-82638849D01*
X123350698Y-82630489D01*
X123327734Y-82605943D01*
X123327732Y-82605941D01*
X123321600Y-82599387D01*
X123313875Y-82594818D01*
X123313872Y-82594815D01*
X123310751Y-82592969D01*
X123291493Y-82578963D01*
X123288777Y-82576564D01*
X123288776Y-82576563D01*
X123282049Y-82570622D01*
X123243494Y-82552520D01*
X123232896Y-82546914D01*
X123196235Y-82525227D01*
X123184021Y-82522112D01*
X123161607Y-82514074D01*
X123158329Y-82512535D01*
X123158325Y-82512534D01*
X123150200Y-82508719D01*
X123141333Y-82507338D01*
X123141332Y-82507338D01*
X123108111Y-82502165D01*
X123096364Y-82499758D01*
X123063788Y-82491451D01*
X123055094Y-82489234D01*
X123046129Y-82489546D01*
X123046128Y-82489546D01*
X122992177Y-82491424D01*
X122987794Y-82491500D01*
X112031817Y-82491500D01*
X111963696Y-82471498D01*
X111917203Y-82417842D01*
X111907099Y-82347568D01*
X111936593Y-82282988D01*
X111942722Y-82276405D01*
X114722194Y-79496933D01*
X118272001Y-79496933D01*
X118272338Y-79503452D01*
X118282166Y-79598170D01*
X118285058Y-79611564D01*
X118336036Y-79764365D01*
X118342210Y-79777543D01*
X118426744Y-79914149D01*
X118435780Y-79925550D01*
X118549479Y-80039051D01*
X118560890Y-80048063D01*
X118697654Y-80132365D01*
X118710832Y-80138509D01*
X118863740Y-80189227D01*
X118877106Y-80192093D01*
X118970601Y-80201672D01*
X118977016Y-80202000D01*
X118995385Y-80202000D01*
X119010624Y-80197525D01*
X119011829Y-80196135D01*
X119013500Y-80188452D01*
X119013500Y-80183884D01*
X119521500Y-80183884D01*
X119525975Y-80199123D01*
X119527365Y-80200328D01*
X119535048Y-80201999D01*
X119557933Y-80201999D01*
X119564452Y-80201662D01*
X119659170Y-80191834D01*
X119672564Y-80188942D01*
X119825365Y-80137964D01*
X119838543Y-80131790D01*
X119975149Y-80047256D01*
X119986550Y-80038220D01*
X120100051Y-79924521D01*
X120105794Y-79917249D01*
X120163711Y-79876186D01*
X120234634Y-79872954D01*
X120296046Y-79908579D01*
X120301840Y-79915254D01*
X120305203Y-79920689D01*
X120429347Y-80044617D01*
X120435577Y-80048457D01*
X120435578Y-80048458D01*
X120468986Y-80069051D01*
X120578671Y-80136661D01*
X120585619Y-80138966D01*
X120585620Y-80138966D01*
X120738634Y-80189719D01*
X120738636Y-80189719D01*
X120745165Y-80191885D01*
X120848769Y-80202500D01*
X121140234Y-80202500D01*
X121436230Y-80202499D01*
X121541129Y-80191616D01*
X121547660Y-80189437D01*
X121547665Y-80189436D01*
X121700578Y-80138420D01*
X121707526Y-80136102D01*
X121856689Y-80043797D01*
X121861862Y-80038615D01*
X121861865Y-80038613D01*
X121867124Y-80033344D01*
X121929405Y-79999262D01*
X122000225Y-80004262D01*
X122057099Y-80046757D01*
X122063440Y-80056049D01*
X122086522Y-80093348D01*
X122211697Y-80218305D01*
X122217927Y-80222145D01*
X122217928Y-80222146D01*
X122355090Y-80306694D01*
X122362262Y-80311115D01*
X122424541Y-80331772D01*
X122523611Y-80364632D01*
X122523613Y-80364632D01*
X122530139Y-80366797D01*
X122536975Y-80367497D01*
X122536978Y-80367498D01*
X122580031Y-80371909D01*
X122634600Y-80377500D01*
X123360400Y-80377500D01*
X123363646Y-80377163D01*
X123363650Y-80377163D01*
X123459308Y-80367238D01*
X123459312Y-80367237D01*
X123466166Y-80366526D01*
X123472702Y-80364345D01*
X123472704Y-80364345D01*
X123604806Y-80320272D01*
X123633946Y-80310550D01*
X123784348Y-80217478D01*
X123817884Y-80183884D01*
X123904134Y-80097483D01*
X123909305Y-80092303D01*
X123936829Y-80047651D01*
X123998275Y-79947968D01*
X123998276Y-79947966D01*
X124002115Y-79941738D01*
X124057797Y-79773861D01*
X124068500Y-79669400D01*
X124068500Y-78318600D01*
X124058647Y-78223635D01*
X124058238Y-78219692D01*
X124058237Y-78219688D01*
X124057526Y-78212834D01*
X124001550Y-78045054D01*
X123908478Y-77894652D01*
X123783303Y-77769695D01*
X123774452Y-77764239D01*
X123638968Y-77680725D01*
X123638966Y-77680724D01*
X123632738Y-77676885D01*
X123472254Y-77623655D01*
X123471389Y-77623368D01*
X123471387Y-77623368D01*
X123464861Y-77621203D01*
X123458025Y-77620503D01*
X123458022Y-77620502D01*
X123414969Y-77616091D01*
X123360400Y-77610500D01*
X122634600Y-77610500D01*
X122631354Y-77610837D01*
X122631350Y-77610837D01*
X122535692Y-77620762D01*
X122535688Y-77620763D01*
X122528834Y-77621474D01*
X122522298Y-77623655D01*
X122522296Y-77623655D01*
X122390194Y-77667728D01*
X122361054Y-77677450D01*
X122210652Y-77770522D01*
X122205479Y-77775704D01*
X122164371Y-77816884D01*
X122085695Y-77895697D01*
X122081854Y-77901928D01*
X122081852Y-77901931D01*
X122063435Y-77931809D01*
X122010664Y-77979303D01*
X121940592Y-77990727D01*
X121875468Y-77962453D01*
X121867157Y-77954867D01*
X121860833Y-77948554D01*
X121855653Y-77943383D01*
X121836877Y-77931809D01*
X121776596Y-77894652D01*
X121706329Y-77851339D01*
X121652028Y-77833328D01*
X121546366Y-77798281D01*
X121546364Y-77798281D01*
X121539835Y-77796115D01*
X121436231Y-77785500D01*
X121144766Y-77785500D01*
X120848770Y-77785501D01*
X120743871Y-77796384D01*
X120737340Y-77798563D01*
X120737335Y-77798564D01*
X120616437Y-77838899D01*
X120577474Y-77851898D01*
X120428311Y-77944203D01*
X120304383Y-78068347D01*
X120302386Y-78071587D01*
X120245648Y-78111814D01*
X120174725Y-78115047D01*
X120113313Y-78079422D01*
X120105934Y-78070922D01*
X120099218Y-78062448D01*
X119985521Y-77948949D01*
X119974110Y-77939937D01*
X119837346Y-77855635D01*
X119824168Y-77849491D01*
X119671260Y-77798773D01*
X119657894Y-77795907D01*
X119564399Y-77786328D01*
X119557984Y-77786000D01*
X119539615Y-77786000D01*
X119524376Y-77790475D01*
X119523171Y-77791865D01*
X119521500Y-77799548D01*
X119521500Y-80183884D01*
X119013500Y-80183884D01*
X119013500Y-79266115D01*
X119009025Y-79250876D01*
X119007635Y-79249671D01*
X118999952Y-79248000D01*
X118290116Y-79248000D01*
X118274877Y-79252475D01*
X118273672Y-79253865D01*
X118272001Y-79261548D01*
X118272001Y-79496933D01*
X114722194Y-79496933D01*
X115497242Y-78721885D01*
X118272000Y-78721885D01*
X118276475Y-78737124D01*
X118277865Y-78738329D01*
X118285548Y-78740000D01*
X118995385Y-78740000D01*
X119010624Y-78735525D01*
X119011829Y-78734135D01*
X119013500Y-78726452D01*
X119013500Y-77804116D01*
X119009025Y-77788877D01*
X119007635Y-77787672D01*
X118999952Y-77786001D01*
X118977067Y-77786001D01*
X118970548Y-77786338D01*
X118875830Y-77796166D01*
X118862436Y-77799058D01*
X118709635Y-77850036D01*
X118696457Y-77856210D01*
X118559851Y-77940744D01*
X118548450Y-77949780D01*
X118434949Y-78063479D01*
X118425937Y-78074890D01*
X118341635Y-78211654D01*
X118335491Y-78224832D01*
X118284773Y-78377740D01*
X118281907Y-78391106D01*
X118272328Y-78484601D01*
X118272000Y-78491016D01*
X118272000Y-78721885D01*
X115497242Y-78721885D01*
X124715033Y-69504095D01*
X137930001Y-69504095D01*
X137930338Y-69510614D01*
X137940257Y-69606206D01*
X137943149Y-69619600D01*
X137994588Y-69773784D01*
X138000761Y-69786962D01*
X138086063Y-69924807D01*
X138095099Y-69936208D01*
X138209829Y-70050739D01*
X138221240Y-70059751D01*
X138359243Y-70144816D01*
X138372424Y-70150963D01*
X138526710Y-70202138D01*
X138540086Y-70205005D01*
X138634438Y-70214672D01*
X138640854Y-70215000D01*
X138665885Y-70215000D01*
X138681124Y-70210525D01*
X138682329Y-70209135D01*
X138684000Y-70201452D01*
X138684000Y-68979115D01*
X138679525Y-68963876D01*
X138678135Y-68962671D01*
X138670452Y-68961000D01*
X137948116Y-68961000D01*
X137932877Y-68965475D01*
X137931672Y-68966865D01*
X137930001Y-68974548D01*
X137930001Y-69504095D01*
X124715033Y-69504095D01*
X125784243Y-68434885D01*
X137930000Y-68434885D01*
X137934475Y-68450124D01*
X137935865Y-68451329D01*
X137943548Y-68453000D01*
X138665885Y-68453000D01*
X138681124Y-68448525D01*
X138682329Y-68447135D01*
X138684000Y-68439452D01*
X138684000Y-67217116D01*
X138679525Y-67201877D01*
X138678135Y-67200672D01*
X138670452Y-67199001D01*
X138640905Y-67199001D01*
X138634386Y-67199338D01*
X138538794Y-67209257D01*
X138525400Y-67212149D01*
X138371216Y-67263588D01*
X138358038Y-67269761D01*
X138220193Y-67355063D01*
X138208792Y-67364099D01*
X138094261Y-67478829D01*
X138085249Y-67490240D01*
X138000184Y-67628243D01*
X137994037Y-67641424D01*
X137942862Y-67795710D01*
X137939995Y-67809086D01*
X137930328Y-67903438D01*
X137930000Y-67909855D01*
X137930000Y-68434885D01*
X125784243Y-68434885D01*
X128525033Y-65694095D01*
X137930001Y-65694095D01*
X137930338Y-65700614D01*
X137940257Y-65796206D01*
X137943149Y-65809600D01*
X137994588Y-65963784D01*
X138000761Y-65976962D01*
X138086063Y-66114807D01*
X138095099Y-66126208D01*
X138209829Y-66240739D01*
X138221240Y-66249751D01*
X138359243Y-66334816D01*
X138372424Y-66340963D01*
X138526710Y-66392138D01*
X138540086Y-66395005D01*
X138634438Y-66404672D01*
X138640854Y-66405000D01*
X138665885Y-66405000D01*
X138681124Y-66400525D01*
X138682329Y-66399135D01*
X138684000Y-66391452D01*
X138684000Y-65169115D01*
X138679525Y-65153876D01*
X138678135Y-65152671D01*
X138670452Y-65151000D01*
X137948116Y-65151000D01*
X137932877Y-65155475D01*
X137931672Y-65156865D01*
X137930001Y-65164548D01*
X137930001Y-65694095D01*
X128525033Y-65694095D01*
X129594243Y-64624885D01*
X137930000Y-64624885D01*
X137934475Y-64640124D01*
X137935865Y-64641329D01*
X137943548Y-64643000D01*
X138665885Y-64643000D01*
X138681124Y-64638525D01*
X138682329Y-64637135D01*
X138684000Y-64629452D01*
X138684000Y-63407116D01*
X138679525Y-63391877D01*
X138678135Y-63390672D01*
X138670452Y-63389001D01*
X138640905Y-63389001D01*
X138634386Y-63389338D01*
X138538794Y-63399257D01*
X138525400Y-63402149D01*
X138371216Y-63453588D01*
X138358038Y-63459761D01*
X138220193Y-63545063D01*
X138208792Y-63554099D01*
X138094261Y-63668829D01*
X138085249Y-63680240D01*
X138000184Y-63818243D01*
X137994037Y-63831424D01*
X137942862Y-63985710D01*
X137939995Y-63999086D01*
X137930328Y-64093438D01*
X137930000Y-64099855D01*
X137930000Y-64624885D01*
X129594243Y-64624885D01*
X132335033Y-61884095D01*
X137930001Y-61884095D01*
X137930338Y-61890614D01*
X137940257Y-61986206D01*
X137943149Y-61999600D01*
X137994588Y-62153784D01*
X138000761Y-62166962D01*
X138086063Y-62304807D01*
X138095099Y-62316208D01*
X138209829Y-62430739D01*
X138221240Y-62439751D01*
X138359243Y-62524816D01*
X138372424Y-62530963D01*
X138526710Y-62582138D01*
X138540086Y-62585005D01*
X138634438Y-62594672D01*
X138640854Y-62595000D01*
X138665885Y-62595000D01*
X138681124Y-62590525D01*
X138682329Y-62589135D01*
X138684000Y-62581452D01*
X138684000Y-61359115D01*
X138679525Y-61343876D01*
X138678135Y-61342671D01*
X138670452Y-61341000D01*
X137948116Y-61341000D01*
X137932877Y-61345475D01*
X137931672Y-61346865D01*
X137930001Y-61354548D01*
X137930001Y-61884095D01*
X132335033Y-61884095D01*
X133404243Y-60814885D01*
X137930000Y-60814885D01*
X137934475Y-60830124D01*
X137935865Y-60831329D01*
X137943548Y-60833000D01*
X138665885Y-60833000D01*
X138681124Y-60828525D01*
X138682329Y-60827135D01*
X138684000Y-60819452D01*
X138684000Y-59597116D01*
X138679525Y-59581877D01*
X138678135Y-59580672D01*
X138670452Y-59579001D01*
X138640905Y-59579001D01*
X138634386Y-59579338D01*
X138538794Y-59589257D01*
X138525400Y-59592149D01*
X138371216Y-59643588D01*
X138358038Y-59649761D01*
X138220193Y-59735063D01*
X138208792Y-59744099D01*
X138094261Y-59858829D01*
X138085249Y-59870240D01*
X138000184Y-60008243D01*
X137994037Y-60021424D01*
X137942862Y-60175710D01*
X137939995Y-60189086D01*
X137930328Y-60283438D01*
X137930000Y-60289855D01*
X137930000Y-60814885D01*
X133404243Y-60814885D01*
X139026405Y-55192723D01*
X139088717Y-55158697D01*
X139159532Y-55163762D01*
X139216368Y-55206309D01*
X139241179Y-55272829D01*
X139241500Y-55281818D01*
X139241500Y-59482672D01*
X139221498Y-59550793D01*
X139210725Y-59565184D01*
X139193671Y-59584865D01*
X139192000Y-59592548D01*
X139192000Y-62576884D01*
X139196475Y-62592123D01*
X139198012Y-62593455D01*
X139236396Y-62653181D01*
X139241500Y-62688680D01*
X139241500Y-63292672D01*
X139221498Y-63360793D01*
X139210725Y-63375184D01*
X139193671Y-63394865D01*
X139192000Y-63402548D01*
X139192000Y-66386884D01*
X139196475Y-66402123D01*
X139198012Y-66403455D01*
X139236396Y-66463181D01*
X139241500Y-66498680D01*
X139241500Y-67102672D01*
X139221498Y-67170793D01*
X139210725Y-67185184D01*
X139193671Y-67204865D01*
X139192000Y-67212548D01*
X139192000Y-70196884D01*
X139196475Y-70212123D01*
X139198012Y-70213455D01*
X139236396Y-70273181D01*
X139241500Y-70308680D01*
X139241500Y-72993999D01*
X139221498Y-73062120D01*
X139167842Y-73108613D01*
X139100581Y-73119113D01*
X138982747Y-73105063D01*
X138943680Y-73100404D01*
X138936677Y-73101140D01*
X138936676Y-73101140D01*
X138770288Y-73118628D01*
X138770286Y-73118629D01*
X138763288Y-73119364D01*
X138591579Y-73177818D01*
X138585575Y-73181512D01*
X138443095Y-73269166D01*
X138443092Y-73269168D01*
X138437088Y-73272862D01*
X138432053Y-73277793D01*
X138432050Y-73277795D01*
X138312525Y-73394843D01*
X138307493Y-73399771D01*
X138209235Y-73552238D01*
X138147197Y-73722685D01*
X138140546Y-73775331D01*
X138112166Y-73840404D01*
X138104636Y-73848631D01*
X137147517Y-74805750D01*
X137139191Y-74813326D01*
X137132697Y-74817447D01*
X137118516Y-74832548D01*
X137085915Y-74867265D01*
X137083160Y-74870107D01*
X137063361Y-74889906D01*
X137060937Y-74893031D01*
X137060929Y-74893040D01*
X137060863Y-74893126D01*
X137053155Y-74902151D01*
X137022783Y-74934494D01*
X137018965Y-74941438D01*
X137018964Y-74941440D01*
X137012978Y-74952329D01*
X137002127Y-74968847D01*
X136989650Y-74984933D01*
X136972024Y-75025666D01*
X136966807Y-75036314D01*
X136945431Y-75075197D01*
X136943460Y-75082872D01*
X136943458Y-75082878D01*
X136940369Y-75094911D01*
X136933966Y-75113613D01*
X136925883Y-75132292D01*
X136924644Y-75140117D01*
X136918940Y-75176127D01*
X136916535Y-75187740D01*
X136905500Y-75230718D01*
X136905500Y-75251065D01*
X136903949Y-75270776D01*
X136900765Y-75290879D01*
X136901511Y-75298771D01*
X136904941Y-75335056D01*
X136905500Y-75346914D01*
X136905500Y-80998395D01*
X136885498Y-81066516D01*
X136831842Y-81113009D01*
X136761568Y-81123113D01*
X136696988Y-81093619D01*
X136663091Y-81046613D01*
X136622247Y-80948007D01*
X136614059Y-80933824D01*
X136526656Y-80819920D01*
X136515080Y-80808344D01*
X136401176Y-80720941D01*
X136386993Y-80712753D01*
X136254350Y-80657810D01*
X136238532Y-80653572D01*
X136131934Y-80639538D01*
X136123725Y-80639000D01*
X135668615Y-80639000D01*
X135653376Y-80643475D01*
X135652171Y-80644865D01*
X135650500Y-80652548D01*
X135650500Y-81162500D01*
X135630498Y-81230621D01*
X135576842Y-81277114D01*
X135524500Y-81288500D01*
X135373128Y-81288500D01*
X135305007Y-81268498D01*
X135258514Y-81214842D01*
X135248410Y-81144568D01*
X135250008Y-81135715D01*
X135250500Y-81133453D01*
X135250500Y-80657116D01*
X135246025Y-80641877D01*
X135244635Y-80640672D01*
X135236952Y-80639001D01*
X134777277Y-80639001D01*
X134769065Y-80639539D01*
X134662467Y-80653572D01*
X134646652Y-80657810D01*
X134514007Y-80712753D01*
X134499824Y-80720941D01*
X134385920Y-80808344D01*
X134374344Y-80819920D01*
X134286941Y-80933824D01*
X134278753Y-80948007D01*
X134223811Y-81080649D01*
X134219572Y-81096469D01*
X134215284Y-81129040D01*
X134217495Y-81143222D01*
X134230652Y-81147000D01*
X134419663Y-81147000D01*
X134487784Y-81167002D01*
X134534277Y-81220658D01*
X134544381Y-81290932D01*
X134514887Y-81355512D01*
X134496368Y-81372962D01*
X134388356Y-81455844D01*
X134379013Y-81463013D01*
X134357496Y-81491055D01*
X134352393Y-81497705D01*
X134295054Y-81539572D01*
X134252431Y-81547000D01*
X134231035Y-81547000D01*
X134217264Y-81551044D01*
X134215235Y-81564583D01*
X134219572Y-81597533D01*
X134223810Y-81613348D01*
X134227860Y-81623126D01*
X134235450Y-81693715D01*
X134227861Y-81719564D01*
X134220162Y-81738150D01*
X134204500Y-81857115D01*
X134204501Y-82136884D01*
X134205039Y-82140969D01*
X134205039Y-82140973D01*
X134219084Y-82247663D01*
X134220162Y-82255850D01*
X134226043Y-82270047D01*
X134227589Y-82273780D01*
X134235179Y-82344370D01*
X134227590Y-82370218D01*
X134220162Y-82388150D01*
X134204500Y-82507115D01*
X134204501Y-82786884D01*
X134205039Y-82790969D01*
X134205039Y-82790973D01*
X134218034Y-82889684D01*
X134220162Y-82905850D01*
X134223322Y-82913478D01*
X134227589Y-82923780D01*
X134235179Y-82994370D01*
X134227589Y-83020220D01*
X134224640Y-83027340D01*
X134220162Y-83038150D01*
X134219084Y-83046338D01*
X134209676Y-83117803D01*
X134204500Y-83157115D01*
X134204501Y-83436884D01*
X134205039Y-83440969D01*
X134205039Y-83440973D01*
X134214399Y-83512074D01*
X134220162Y-83555850D01*
X134223322Y-83563478D01*
X134227589Y-83573780D01*
X134235179Y-83644370D01*
X134227589Y-83670220D01*
X134223765Y-83679452D01*
X134220162Y-83688150D01*
X134204500Y-83807115D01*
X134204501Y-84086884D01*
X134205039Y-84090969D01*
X134205039Y-84090973D01*
X134216066Y-84174738D01*
X134220162Y-84205850D01*
X134227589Y-84223780D01*
X134235179Y-84294370D01*
X134227590Y-84320218D01*
X134220162Y-84338150D01*
X134204500Y-84457115D01*
X134204501Y-84736884D01*
X134205039Y-84740969D01*
X134205039Y-84740973D01*
X134216606Y-84828836D01*
X134220162Y-84855850D01*
X134223322Y-84863478D01*
X134227589Y-84873780D01*
X134235179Y-84944370D01*
X134227590Y-84970218D01*
X134220162Y-84988150D01*
X134204500Y-85107115D01*
X134204500Y-85111236D01*
X134204501Y-85249577D01*
X134184499Y-85317698D01*
X134130844Y-85364191D01*
X134060570Y-85374296D01*
X133995989Y-85344803D01*
X133989406Y-85338673D01*
X133549064Y-84898331D01*
X133515038Y-84836019D01*
X133512944Y-84823282D01*
X133509182Y-84789743D01*
X133509182Y-84789742D01*
X133508397Y-84782745D01*
X133499787Y-84758021D01*
X133451064Y-84618106D01*
X133451062Y-84618103D01*
X133448745Y-84611448D01*
X133352626Y-84457624D01*
X133347664Y-84452627D01*
X133229778Y-84333915D01*
X133229774Y-84333912D01*
X133224815Y-84328918D01*
X133211110Y-84320220D01*
X133135126Y-84272000D01*
X133071666Y-84231727D01*
X133020417Y-84213478D01*
X132907425Y-84173243D01*
X132907420Y-84173242D01*
X132900790Y-84170881D01*
X132893802Y-84170048D01*
X132893799Y-84170047D01*
X132826581Y-84162032D01*
X132761308Y-84134104D01*
X132721495Y-84075321D01*
X132715500Y-84036918D01*
X132715500Y-82744368D01*
X132716933Y-82725417D01*
X132719123Y-82711024D01*
X132719123Y-82711022D01*
X132720223Y-82703792D01*
X132718924Y-82687813D01*
X132715915Y-82650825D01*
X132715500Y-82640611D01*
X132715500Y-82632475D01*
X132714828Y-82626706D01*
X132712190Y-82604088D01*
X132711757Y-82599709D01*
X132706403Y-82533872D01*
X132706402Y-82533869D01*
X132705809Y-82526573D01*
X132703553Y-82519609D01*
X132702355Y-82513614D01*
X132700949Y-82507664D01*
X132700101Y-82500393D01*
X132675057Y-82431398D01*
X132673634Y-82427252D01*
X132653269Y-82364388D01*
X132653268Y-82364386D01*
X132651013Y-82357425D01*
X132647217Y-82351170D01*
X132644682Y-82345633D01*
X132641932Y-82340142D01*
X132639434Y-82333259D01*
X132606475Y-82282988D01*
X132599185Y-82271868D01*
X132596870Y-82268200D01*
X132558773Y-82205419D01*
X132555057Y-82201212D01*
X132555054Y-82201208D01*
X132551332Y-82196995D01*
X132551362Y-82196969D01*
X132548764Y-82194041D01*
X132545960Y-82190687D01*
X132541946Y-82184565D01*
X132485415Y-82131013D01*
X132482972Y-82128635D01*
X131859806Y-81505468D01*
X131847420Y-81491055D01*
X131846730Y-81490117D01*
X131834454Y-81473436D01*
X131793945Y-81439021D01*
X131786429Y-81432091D01*
X131780685Y-81426347D01*
X131777811Y-81424073D01*
X131777804Y-81424067D01*
X131758289Y-81408628D01*
X131754885Y-81405837D01*
X131704528Y-81363055D01*
X131704524Y-81363052D01*
X131698949Y-81358316D01*
X131692432Y-81354988D01*
X131687368Y-81351611D01*
X131682144Y-81348384D01*
X131676400Y-81343840D01*
X131637681Y-81325744D01*
X131609918Y-81312768D01*
X131605967Y-81310837D01*
X131547117Y-81280787D01*
X131540596Y-81277457D01*
X131533481Y-81275716D01*
X131527735Y-81273579D01*
X131521952Y-81271655D01*
X131515321Y-81268556D01*
X131443443Y-81253606D01*
X131439171Y-81252639D01*
X131367888Y-81235196D01*
X131362289Y-81234849D01*
X131362285Y-81234848D01*
X131356670Y-81234500D01*
X131356672Y-81234461D01*
X131352771Y-81234228D01*
X131348412Y-81233839D01*
X131341244Y-81232348D01*
X131333927Y-81232546D01*
X131263423Y-81234454D01*
X131260014Y-81234500D01*
X131085604Y-81234500D01*
X131017483Y-81214498D01*
X130970990Y-81160842D01*
X130960682Y-81124946D01*
X130956916Y-81096337D01*
X130956916Y-81096335D01*
X130955838Y-81088150D01*
X130925181Y-81014137D01*
X130897684Y-80947752D01*
X130897683Y-80947750D01*
X130894524Y-80940124D01*
X130877730Y-80918238D01*
X130802014Y-80819564D01*
X130802013Y-80819563D01*
X130796987Y-80813013D01*
X130790436Y-80807986D01*
X130790434Y-80807984D01*
X130700679Y-80739113D01*
X130669875Y-80715476D01*
X130521850Y-80654162D01*
X130513662Y-80653084D01*
X130406972Y-80639038D01*
X130406971Y-80639038D01*
X130402885Y-80638500D01*
X129725583Y-80638500D01*
X129048116Y-80638501D01*
X129044031Y-80639039D01*
X129044027Y-80639039D01*
X128937337Y-80653084D01*
X128937335Y-80653084D01*
X128929150Y-80654162D01*
X128872824Y-80677493D01*
X128788752Y-80712316D01*
X128788750Y-80712317D01*
X128781124Y-80715476D01*
X128774574Y-80720502D01*
X128707862Y-80771693D01*
X128654013Y-80813013D01*
X128648987Y-80819563D01*
X128648984Y-80819566D01*
X128605244Y-80876569D01*
X128556476Y-80940125D01*
X128495162Y-81088150D01*
X128479500Y-81207115D01*
X128479501Y-81486884D01*
X128480039Y-81490969D01*
X128480039Y-81490973D01*
X128492897Y-81588645D01*
X128495162Y-81605850D01*
X128502318Y-81623126D01*
X128502589Y-81623780D01*
X128510179Y-81694370D01*
X128502590Y-81720218D01*
X128495162Y-81738150D01*
X128479500Y-81857115D01*
X128479500Y-81901568D01*
X128459498Y-81969689D01*
X128405842Y-82016182D01*
X128384837Y-82023609D01*
X128377160Y-82025580D01*
X128369301Y-82026573D01*
X128361933Y-82029490D01*
X128361930Y-82029491D01*
X128328044Y-82042907D01*
X128316815Y-82046752D01*
X128302841Y-82050812D01*
X128274207Y-82059131D01*
X128267381Y-82063168D01*
X128256691Y-82069490D01*
X128238941Y-82078187D01*
X128220012Y-82085681D01*
X128213596Y-82090342D01*
X128213595Y-82090343D01*
X128184119Y-82111759D01*
X128174195Y-82118278D01*
X128142824Y-82136830D01*
X128142819Y-82136834D01*
X128136001Y-82140866D01*
X128121614Y-82155253D01*
X128106580Y-82168094D01*
X128090113Y-82180058D01*
X128065164Y-82210217D01*
X128061828Y-82214249D01*
X128053838Y-82223029D01*
X127952195Y-82324672D01*
X127889883Y-82358698D01*
X127819068Y-82353633D01*
X127762232Y-82311086D01*
X127737421Y-82244566D01*
X127737100Y-82235577D01*
X127737100Y-81460620D01*
X127737630Y-81449386D01*
X127739308Y-81441881D01*
X127737162Y-81373588D01*
X127737100Y-81369631D01*
X127737100Y-81341617D01*
X127736592Y-81337596D01*
X127735658Y-81325744D01*
X127735251Y-81312768D01*
X127734265Y-81281395D01*
X127728587Y-81261851D01*
X127724577Y-81242488D01*
X127723020Y-81230160D01*
X127723020Y-81230158D01*
X127722027Y-81222301D01*
X127719111Y-81214937D01*
X127719110Y-81214932D01*
X127705693Y-81181044D01*
X127701848Y-81169815D01*
X127694513Y-81144568D01*
X127689469Y-81127207D01*
X127679110Y-81109691D01*
X127670413Y-81091941D01*
X127662919Y-81073012D01*
X127658200Y-81066516D01*
X127636841Y-81037119D01*
X127630322Y-81027195D01*
X127611770Y-80995824D01*
X127611766Y-80995819D01*
X127607734Y-80989001D01*
X127593347Y-80974614D01*
X127580506Y-80959580D01*
X127573202Y-80949527D01*
X127568542Y-80943113D01*
X127534350Y-80914827D01*
X127525571Y-80906838D01*
X126857724Y-80238991D01*
X126823698Y-80176679D01*
X126828763Y-80105864D01*
X126839559Y-80083780D01*
X126923275Y-79947968D01*
X126923276Y-79947966D01*
X126927115Y-79941738D01*
X126982797Y-79773861D01*
X126993500Y-79669400D01*
X126993500Y-78318600D01*
X126983647Y-78223635D01*
X126983238Y-78219692D01*
X126983237Y-78219688D01*
X126982526Y-78212834D01*
X126926550Y-78045054D01*
X126833478Y-77894652D01*
X126708303Y-77769695D01*
X126699452Y-77764239D01*
X126563968Y-77680725D01*
X126563966Y-77680724D01*
X126557738Y-77676885D01*
X126397254Y-77623655D01*
X126396389Y-77623368D01*
X126396387Y-77623368D01*
X126389861Y-77621203D01*
X126383025Y-77620503D01*
X126383022Y-77620502D01*
X126339969Y-77616091D01*
X126285400Y-77610500D01*
X125559600Y-77610500D01*
X125556354Y-77610837D01*
X125556350Y-77610837D01*
X125460692Y-77620762D01*
X125460688Y-77620763D01*
X125453834Y-77621474D01*
X125447298Y-77623655D01*
X125447296Y-77623655D01*
X125315194Y-77667728D01*
X125286054Y-77677450D01*
X125135652Y-77770522D01*
X125130479Y-77775704D01*
X125089371Y-77816884D01*
X125010695Y-77895697D01*
X125006855Y-77901927D01*
X125006854Y-77901928D01*
X124956426Y-77983738D01*
X124917885Y-78046262D01*
X124862203Y-78214139D01*
X124851500Y-78318600D01*
X124851500Y-79669400D01*
X124862474Y-79775166D01*
X124918450Y-79942946D01*
X125011522Y-80093348D01*
X125136697Y-80218305D01*
X125247336Y-80286504D01*
X125294828Y-80339275D01*
X125301564Y-80357772D01*
X125302073Y-80361799D01*
X125304989Y-80369165D01*
X125304991Y-80369171D01*
X125318407Y-80403056D01*
X125322252Y-80414285D01*
X125325022Y-80423820D01*
X125334631Y-80456893D01*
X125338669Y-80463720D01*
X125338670Y-80463723D01*
X125344988Y-80474406D01*
X125353688Y-80492164D01*
X125358261Y-80503715D01*
X125358265Y-80503721D01*
X125361181Y-80511088D01*
X125383259Y-80541476D01*
X125407116Y-80608341D01*
X125391036Y-80677493D01*
X125369480Y-80705558D01*
X125313025Y-80760843D01*
X125307993Y-80765771D01*
X125209735Y-80918238D01*
X125207326Y-80924858D01*
X125207324Y-80924861D01*
X125150719Y-81080381D01*
X125147697Y-81088685D01*
X125124963Y-81268640D01*
X125142663Y-81449160D01*
X125199918Y-81621273D01*
X125203565Y-81627295D01*
X125203566Y-81627297D01*
X125270701Y-81738150D01*
X125293880Y-81776424D01*
X125419882Y-81906902D01*
X125571659Y-82006222D01*
X125578263Y-82008678D01*
X125578265Y-82008679D01*
X125616182Y-82022780D01*
X125741668Y-82069448D01*
X125748651Y-82070380D01*
X125748652Y-82070380D01*
X125800424Y-82077288D01*
X125865301Y-82106124D01*
X125872854Y-82113086D01*
X125921195Y-82161427D01*
X125955221Y-82223739D01*
X125958100Y-82250522D01*
X125958100Y-104103977D01*
X125938098Y-104172098D01*
X125921195Y-104193073D01*
X125336512Y-104777755D01*
X125328193Y-104785325D01*
X125321697Y-104789447D01*
X125316271Y-104795225D01*
X125316270Y-104795226D01*
X125274915Y-104839265D01*
X125272160Y-104842107D01*
X125252361Y-104861906D01*
X125249937Y-104865031D01*
X125249929Y-104865040D01*
X125249863Y-104865126D01*
X125242155Y-104874151D01*
X125211783Y-104906494D01*
X125207965Y-104913438D01*
X125207964Y-104913440D01*
X125201978Y-104924329D01*
X125191127Y-104940847D01*
X125178650Y-104956933D01*
X125161024Y-104997666D01*
X125155807Y-105008314D01*
X125134431Y-105047197D01*
X125132460Y-105054872D01*
X125132458Y-105054878D01*
X125129369Y-105066911D01*
X125122966Y-105085613D01*
X125114883Y-105104292D01*
X125113644Y-105112117D01*
X125107940Y-105148127D01*
X125105535Y-105159740D01*
X125094500Y-105202718D01*
X125094500Y-105223065D01*
X125092949Y-105242776D01*
X125091005Y-105255050D01*
X125089765Y-105262879D01*
X125090511Y-105270771D01*
X125093941Y-105307056D01*
X125094500Y-105318914D01*
X125094500Y-106499380D01*
X125093970Y-106510614D01*
X125092292Y-106518119D01*
X125093928Y-106570171D01*
X125094438Y-106586412D01*
X125094500Y-106590369D01*
X125094500Y-106618383D01*
X125094996Y-106622308D01*
X125094996Y-106622309D01*
X125095008Y-106622404D01*
X125095941Y-106634250D01*
X125096540Y-106653300D01*
X125097270Y-106676545D01*
X125079416Y-106745260D01*
X125027246Y-106793414D01*
X124971332Y-106806500D01*
X124672843Y-106806500D01*
X124604722Y-106786498D01*
X124558229Y-106732842D01*
X124547516Y-106693505D01*
X124545371Y-106672832D01*
X124544126Y-106660834D01*
X124541613Y-106653300D01*
X124490468Y-106500002D01*
X124488150Y-106493054D01*
X124395078Y-106342652D01*
X124269903Y-106217695D01*
X124233317Y-106195143D01*
X124125568Y-106128725D01*
X124125566Y-106128724D01*
X124119338Y-106124885D01*
X124015076Y-106090303D01*
X123957989Y-106071368D01*
X123957987Y-106071368D01*
X123951461Y-106069203D01*
X123944625Y-106068503D01*
X123944622Y-106068502D01*
X123901569Y-106064091D01*
X123847000Y-106058500D01*
X123121200Y-106058500D01*
X123117954Y-106058837D01*
X123117950Y-106058837D01*
X123022292Y-106068762D01*
X123022288Y-106068763D01*
X123015434Y-106069474D01*
X123008898Y-106071655D01*
X123008896Y-106071655D01*
X122907433Y-106105506D01*
X122847654Y-106125450D01*
X122697252Y-106218522D01*
X122692079Y-106223704D01*
X122652496Y-106263356D01*
X122572295Y-106343697D01*
X122568455Y-106349927D01*
X122568454Y-106349928D01*
X122500523Y-106460133D01*
X122479485Y-106494262D01*
X122456670Y-106563047D01*
X122427110Y-106652170D01*
X122423803Y-106662139D01*
X122413100Y-106766600D01*
X122413100Y-108117400D01*
X122424074Y-108223166D01*
X122480050Y-108390946D01*
X122573122Y-108541348D01*
X122698297Y-108666305D01*
X122704527Y-108670145D01*
X122704528Y-108670146D01*
X122841690Y-108754694D01*
X122848862Y-108759115D01*
X122928605Y-108785564D01*
X123010211Y-108812632D01*
X123010213Y-108812632D01*
X123016739Y-108814797D01*
X123023575Y-108815497D01*
X123023578Y-108815498D01*
X123066631Y-108819909D01*
X123121200Y-108825500D01*
X123847000Y-108825500D01*
X123850246Y-108825163D01*
X123850250Y-108825163D01*
X123945908Y-108815238D01*
X123945912Y-108815237D01*
X123952766Y-108814526D01*
X123959302Y-108812345D01*
X123959304Y-108812345D01*
X124105850Y-108763453D01*
X124120546Y-108758550D01*
X124270948Y-108665478D01*
X124271594Y-108666522D01*
X124330603Y-108642639D01*
X124400367Y-108655811D01*
X124451935Y-108704609D01*
X124468934Y-108773541D01*
X124445968Y-108840720D01*
X124432150Y-108857117D01*
X124066517Y-109222750D01*
X124058191Y-109230326D01*
X124051697Y-109234447D01*
X124027609Y-109260098D01*
X124004915Y-109284265D01*
X124002160Y-109287107D01*
X123982361Y-109306906D01*
X123979937Y-109310031D01*
X123979929Y-109310040D01*
X123979863Y-109310126D01*
X123972155Y-109319151D01*
X123941783Y-109351494D01*
X123937965Y-109358438D01*
X123937964Y-109358440D01*
X123931978Y-109369329D01*
X123921127Y-109385847D01*
X123908650Y-109401933D01*
X123891024Y-109442666D01*
X123885807Y-109453314D01*
X123879415Y-109464942D01*
X123864431Y-109492197D01*
X123862460Y-109499872D01*
X123862458Y-109499878D01*
X123859369Y-109511911D01*
X123852966Y-109530613D01*
X123844883Y-109549292D01*
X123841799Y-109568762D01*
X123837940Y-109593127D01*
X123835535Y-109604740D01*
X123824500Y-109647718D01*
X123824500Y-109668065D01*
X123822949Y-109687776D01*
X123819765Y-109707879D01*
X123820511Y-109715771D01*
X123823941Y-109752056D01*
X123824500Y-109763914D01*
X123824500Y-134304577D01*
X123804498Y-134372698D01*
X123787595Y-134393672D01*
X120423672Y-137757595D01*
X120361360Y-137791621D01*
X120334577Y-137794500D01*
X116341643Y-137794500D01*
X116273522Y-137774498D01*
X116227029Y-137720842D01*
X116216316Y-137681505D01*
X116214171Y-137660832D01*
X116212926Y-137648834D01*
X116156950Y-137481054D01*
X116063878Y-137330652D01*
X115938703Y-137205695D01*
X115906687Y-137185960D01*
X115794368Y-137116725D01*
X115794366Y-137116724D01*
X115788138Y-137112885D01*
X115627654Y-137059655D01*
X115626789Y-137059368D01*
X115626787Y-137059368D01*
X115620261Y-137057203D01*
X115613425Y-137056503D01*
X115613422Y-137056502D01*
X115570369Y-137052091D01*
X115515800Y-137046500D01*
X114790000Y-137046500D01*
X114786754Y-137046837D01*
X114786750Y-137046837D01*
X114691092Y-137056762D01*
X114691088Y-137056763D01*
X114684234Y-137057474D01*
X114677698Y-137059655D01*
X114677696Y-137059655D01*
X114545594Y-137103728D01*
X114516454Y-137113450D01*
X114366052Y-137206522D01*
X114360879Y-137211704D01*
X114307029Y-137265648D01*
X114241095Y-137331697D01*
X114237256Y-137337925D01*
X114237254Y-137337928D01*
X114196151Y-137404610D01*
X114148285Y-137482262D01*
X114092603Y-137650139D01*
X114081900Y-137754600D01*
X114081900Y-139105400D01*
X114082237Y-139108646D01*
X114082237Y-139108650D01*
X114092162Y-139204308D01*
X114092163Y-139204312D01*
X114092874Y-139211166D01*
X114148850Y-139378946D01*
X114241922Y-139529348D01*
X114247104Y-139534521D01*
X114249189Y-139536602D01*
X114367097Y-139654305D01*
X114373327Y-139658145D01*
X114373328Y-139658146D01*
X114510490Y-139742694D01*
X114517662Y-139747115D01*
X114597405Y-139773564D01*
X114679011Y-139800632D01*
X114679013Y-139800632D01*
X114685539Y-139802797D01*
X114692375Y-139803497D01*
X114692378Y-139803498D01*
X114735431Y-139807909D01*
X114790000Y-139813500D01*
X115515800Y-139813500D01*
X115519046Y-139813163D01*
X115519050Y-139813163D01*
X115614708Y-139803238D01*
X115614712Y-139803237D01*
X115621566Y-139802526D01*
X115628102Y-139800345D01*
X115628104Y-139800345D01*
X115760206Y-139756272D01*
X115789346Y-139746550D01*
X115939748Y-139653478D01*
X115944921Y-139648296D01*
X115944926Y-139648292D01*
X116024204Y-139568875D01*
X116086486Y-139534795D01*
X116157306Y-139539798D01*
X116204013Y-139570365D01*
X116316483Y-139686830D01*
X116316488Y-139686834D01*
X116321382Y-139691902D01*
X116473159Y-139791222D01*
X116479763Y-139793678D01*
X116479765Y-139793679D01*
X116636558Y-139851990D01*
X116636560Y-139851990D01*
X116643168Y-139854448D01*
X116726995Y-139865633D01*
X116815980Y-139877507D01*
X116815984Y-139877507D01*
X116822961Y-139878438D01*
X116829972Y-139877800D01*
X116829976Y-139877800D01*
X116972459Y-139864832D01*
X117003600Y-139861998D01*
X117010302Y-139859820D01*
X117010304Y-139859820D01*
X117169409Y-139808124D01*
X117169412Y-139808123D01*
X117176108Y-139805947D01*
X117323185Y-139718271D01*
X117387703Y-139700500D01*
X120697980Y-139700500D01*
X120709214Y-139701030D01*
X120716719Y-139702708D01*
X120785012Y-139700562D01*
X120788969Y-139700500D01*
X120816983Y-139700500D01*
X120820908Y-139700004D01*
X120820909Y-139700004D01*
X120821004Y-139699992D01*
X120832849Y-139699059D01*
X120862670Y-139698122D01*
X120869282Y-139697914D01*
X120869283Y-139697914D01*
X120877205Y-139697665D01*
X120896749Y-139691987D01*
X120916112Y-139687977D01*
X120928440Y-139686420D01*
X120928442Y-139686420D01*
X120936299Y-139685427D01*
X120943663Y-139682511D01*
X120943668Y-139682510D01*
X120977556Y-139669093D01*
X120988785Y-139665248D01*
X121013229Y-139658146D01*
X121031393Y-139652869D01*
X121038220Y-139648831D01*
X121038223Y-139648830D01*
X121048906Y-139642512D01*
X121066664Y-139633812D01*
X121078215Y-139629239D01*
X121078221Y-139629235D01*
X121085588Y-139626319D01*
X121121491Y-139600234D01*
X121131410Y-139593719D01*
X121162768Y-139575174D01*
X121162772Y-139575171D01*
X121169598Y-139571134D01*
X121183982Y-139556750D01*
X121199016Y-139543909D01*
X121209073Y-139536602D01*
X121215487Y-139531942D01*
X121243778Y-139497744D01*
X121251767Y-139488965D01*
X125361483Y-135379250D01*
X125369809Y-135371674D01*
X125376303Y-135367553D01*
X125423086Y-135317734D01*
X125425840Y-135314893D01*
X125445639Y-135295094D01*
X125448063Y-135291969D01*
X125448071Y-135291960D01*
X125448137Y-135291874D01*
X125455845Y-135282849D01*
X125480790Y-135256285D01*
X125486217Y-135250506D01*
X125496023Y-135232669D01*
X125506873Y-135216153D01*
X125519350Y-135200067D01*
X125536976Y-135159334D01*
X125542193Y-135148686D01*
X125559749Y-135116751D01*
X125563569Y-135109803D01*
X125565540Y-135102128D01*
X125565542Y-135102122D01*
X125568631Y-135090089D01*
X125575034Y-135071387D01*
X125583117Y-135052708D01*
X125590060Y-135008873D01*
X125592467Y-134997251D01*
X125603500Y-134954282D01*
X125603500Y-134933935D01*
X125605051Y-134914224D01*
X125606995Y-134901950D01*
X125608235Y-134894121D01*
X125604059Y-134849944D01*
X125603500Y-134838086D01*
X125603500Y-128147095D01*
X134397001Y-128147095D01*
X134397338Y-128153614D01*
X134407257Y-128249206D01*
X134410149Y-128262600D01*
X134461588Y-128416784D01*
X134467761Y-128429962D01*
X134553063Y-128567807D01*
X134562099Y-128579208D01*
X134676829Y-128693739D01*
X134688240Y-128702751D01*
X134826243Y-128787816D01*
X134839424Y-128793963D01*
X134993710Y-128845138D01*
X135007086Y-128848005D01*
X135101438Y-128857672D01*
X135107854Y-128858000D01*
X135207885Y-128858000D01*
X135223124Y-128853525D01*
X135224329Y-128852135D01*
X135226000Y-128844452D01*
X135226000Y-128839884D01*
X135734000Y-128839884D01*
X135738475Y-128855123D01*
X135739865Y-128856328D01*
X135747548Y-128857999D01*
X135852095Y-128857999D01*
X135858614Y-128857662D01*
X135954206Y-128847743D01*
X135967600Y-128844851D01*
X136121784Y-128793412D01*
X136134962Y-128787239D01*
X136272807Y-128701937D01*
X136284208Y-128692901D01*
X136398739Y-128578171D01*
X136407751Y-128566760D01*
X136492816Y-128428757D01*
X136498963Y-128415576D01*
X136550138Y-128261290D01*
X136553005Y-128247914D01*
X136562672Y-128153562D01*
X136563000Y-128147146D01*
X136563000Y-127272115D01*
X136558525Y-127256876D01*
X136557135Y-127255671D01*
X136549452Y-127254000D01*
X135752115Y-127254000D01*
X135736876Y-127258475D01*
X135735671Y-127259865D01*
X135734000Y-127267548D01*
X135734000Y-128839884D01*
X135226000Y-128839884D01*
X135226000Y-127272115D01*
X135221525Y-127256876D01*
X135220135Y-127255671D01*
X135212452Y-127254000D01*
X134415116Y-127254000D01*
X134399877Y-127258475D01*
X134398672Y-127259865D01*
X134397001Y-127267548D01*
X134397001Y-128147095D01*
X125603500Y-128147095D01*
X125603500Y-126727885D01*
X134397000Y-126727885D01*
X134401475Y-126743124D01*
X134402865Y-126744329D01*
X134410548Y-126746000D01*
X135207885Y-126746000D01*
X135223124Y-126741525D01*
X135224329Y-126740135D01*
X135226000Y-126732452D01*
X135226000Y-126727885D01*
X135734000Y-126727885D01*
X135738475Y-126743124D01*
X135739865Y-126744329D01*
X135747548Y-126746000D01*
X136544884Y-126746000D01*
X136560123Y-126741525D01*
X136561328Y-126740135D01*
X136562999Y-126732452D01*
X136562999Y-125852905D01*
X136562662Y-125846386D01*
X136552743Y-125750794D01*
X136549851Y-125737400D01*
X136498412Y-125583216D01*
X136492239Y-125570038D01*
X136406937Y-125432193D01*
X136397901Y-125420792D01*
X136283171Y-125306261D01*
X136271760Y-125297249D01*
X136133757Y-125212184D01*
X136120576Y-125206037D01*
X135966290Y-125154862D01*
X135952914Y-125151995D01*
X135858562Y-125142328D01*
X135852145Y-125142000D01*
X135752115Y-125142000D01*
X135736876Y-125146475D01*
X135735671Y-125147865D01*
X135734000Y-125155548D01*
X135734000Y-126727885D01*
X135226000Y-126727885D01*
X135226000Y-125160116D01*
X135221525Y-125144877D01*
X135220135Y-125143672D01*
X135212452Y-125142001D01*
X135107905Y-125142001D01*
X135101386Y-125142338D01*
X135005794Y-125152257D01*
X134992400Y-125155149D01*
X134838216Y-125206588D01*
X134825038Y-125212761D01*
X134687193Y-125298063D01*
X134675792Y-125307099D01*
X134561261Y-125421829D01*
X134552249Y-125433240D01*
X134467184Y-125571243D01*
X134461037Y-125584424D01*
X134409862Y-125738710D01*
X134406995Y-125752086D01*
X134397328Y-125846438D01*
X134397000Y-125852855D01*
X134397000Y-126727885D01*
X125603500Y-126727885D01*
X125603500Y-124114095D01*
X137930001Y-124114095D01*
X137930338Y-124120614D01*
X137940257Y-124216206D01*
X137943149Y-124229600D01*
X137994588Y-124383784D01*
X138000761Y-124396962D01*
X138086063Y-124534807D01*
X138095099Y-124546208D01*
X138209829Y-124660739D01*
X138221240Y-124669751D01*
X138359243Y-124754816D01*
X138372424Y-124760963D01*
X138526710Y-124812138D01*
X138540086Y-124815005D01*
X138634438Y-124824672D01*
X138640854Y-124825000D01*
X138665885Y-124825000D01*
X138681124Y-124820525D01*
X138682329Y-124819135D01*
X138684000Y-124811452D01*
X138684000Y-123589115D01*
X138679525Y-123573876D01*
X138678135Y-123572671D01*
X138670452Y-123571000D01*
X137948116Y-123571000D01*
X137932877Y-123575475D01*
X137931672Y-123576865D01*
X137930001Y-123584548D01*
X137930001Y-124114095D01*
X125603500Y-124114095D01*
X125603500Y-123044885D01*
X137930000Y-123044885D01*
X137934475Y-123060124D01*
X137935865Y-123061329D01*
X137943548Y-123063000D01*
X138665885Y-123063000D01*
X138681124Y-123058525D01*
X138682329Y-123057135D01*
X138684000Y-123049452D01*
X138684000Y-121827116D01*
X138679525Y-121811877D01*
X138678135Y-121810672D01*
X138670452Y-121809001D01*
X138640905Y-121809001D01*
X138634386Y-121809338D01*
X138538794Y-121819257D01*
X138525400Y-121822149D01*
X138371216Y-121873588D01*
X138358038Y-121879761D01*
X138220193Y-121965063D01*
X138208792Y-121974099D01*
X138094261Y-122088829D01*
X138085249Y-122100240D01*
X138000184Y-122238243D01*
X137994037Y-122251424D01*
X137942862Y-122405710D01*
X137939995Y-122419086D01*
X137930328Y-122513438D01*
X137930000Y-122519855D01*
X137930000Y-123044885D01*
X125603500Y-123044885D01*
X125603500Y-117256095D01*
X137930001Y-117256095D01*
X137930338Y-117262614D01*
X137940257Y-117358206D01*
X137943149Y-117371600D01*
X137994588Y-117525784D01*
X138000761Y-117538962D01*
X138086063Y-117676807D01*
X138095099Y-117688208D01*
X138209829Y-117802739D01*
X138221240Y-117811751D01*
X138359243Y-117896816D01*
X138372424Y-117902963D01*
X138526710Y-117954138D01*
X138540086Y-117957005D01*
X138634438Y-117966672D01*
X138640854Y-117967000D01*
X138665885Y-117967000D01*
X138681124Y-117962525D01*
X138682329Y-117961135D01*
X138684000Y-117953452D01*
X138684000Y-116731115D01*
X138679525Y-116715876D01*
X138678135Y-116714671D01*
X138670452Y-116713000D01*
X137948116Y-116713000D01*
X137932877Y-116717475D01*
X137931672Y-116718865D01*
X137930001Y-116726548D01*
X137930001Y-117256095D01*
X125603500Y-117256095D01*
X125603500Y-116186885D01*
X137930000Y-116186885D01*
X137934475Y-116202124D01*
X137935865Y-116203329D01*
X137943548Y-116205000D01*
X138665885Y-116205000D01*
X138681124Y-116200525D01*
X138682329Y-116199135D01*
X138684000Y-116191452D01*
X138684000Y-114969116D01*
X138679525Y-114953877D01*
X138678135Y-114952672D01*
X138670452Y-114951001D01*
X138640905Y-114951001D01*
X138634386Y-114951338D01*
X138538794Y-114961257D01*
X138525400Y-114964149D01*
X138371216Y-115015588D01*
X138358038Y-115021761D01*
X138220193Y-115107063D01*
X138208792Y-115116099D01*
X138094261Y-115230829D01*
X138085249Y-115242240D01*
X138000184Y-115380243D01*
X137994037Y-115393424D01*
X137942862Y-115547710D01*
X137939995Y-115561086D01*
X137930328Y-115655438D01*
X137930000Y-115661855D01*
X137930000Y-116186885D01*
X125603500Y-116186885D01*
X125603500Y-113473095D01*
X127236001Y-113473095D01*
X127236338Y-113479614D01*
X127246257Y-113575206D01*
X127249149Y-113588600D01*
X127300588Y-113742784D01*
X127306761Y-113755962D01*
X127392063Y-113893807D01*
X127401099Y-113905208D01*
X127515829Y-114019739D01*
X127527240Y-114028751D01*
X127665243Y-114113816D01*
X127678424Y-114119963D01*
X127832710Y-114171138D01*
X127846086Y-114174005D01*
X127940438Y-114183672D01*
X127946854Y-114184000D01*
X128046885Y-114184000D01*
X128062124Y-114179525D01*
X128063329Y-114178135D01*
X128065000Y-114170452D01*
X128065000Y-114165884D01*
X128573000Y-114165884D01*
X128577475Y-114181123D01*
X128578865Y-114182328D01*
X128586548Y-114183999D01*
X128691095Y-114183999D01*
X128697614Y-114183662D01*
X128793206Y-114173743D01*
X128806600Y-114170851D01*
X128960784Y-114119412D01*
X128973962Y-114113239D01*
X129111807Y-114027937D01*
X129123208Y-114018901D01*
X129237739Y-113904171D01*
X129246751Y-113892760D01*
X129331816Y-113754757D01*
X129337963Y-113741576D01*
X129389138Y-113587290D01*
X129392005Y-113573914D01*
X129401672Y-113479562D01*
X129402000Y-113473146D01*
X129402000Y-113048115D01*
X129397525Y-113032876D01*
X129396135Y-113031671D01*
X129388452Y-113030000D01*
X128591115Y-113030000D01*
X128575876Y-113034475D01*
X128574671Y-113035865D01*
X128573000Y-113043548D01*
X128573000Y-114165884D01*
X128065000Y-114165884D01*
X128065000Y-113048115D01*
X128060525Y-113032876D01*
X128059135Y-113031671D01*
X128051452Y-113030000D01*
X127254116Y-113030000D01*
X127238877Y-113034475D01*
X127237672Y-113035865D01*
X127236001Y-113043548D01*
X127236001Y-113473095D01*
X125603500Y-113473095D01*
X125603500Y-111262054D01*
X125623502Y-111193933D01*
X125677158Y-111147440D01*
X125747432Y-111137336D01*
X125812012Y-111166830D01*
X125829462Y-111185350D01*
X125855344Y-111219080D01*
X125866920Y-111230656D01*
X125980824Y-111318059D01*
X125995007Y-111326247D01*
X126127650Y-111381190D01*
X126143468Y-111385428D01*
X126250066Y-111399462D01*
X126258275Y-111400000D01*
X126713385Y-111400000D01*
X126728624Y-111395525D01*
X126729829Y-111394135D01*
X126731500Y-111386452D01*
X126731500Y-110876500D01*
X126751502Y-110808379D01*
X126805158Y-110761886D01*
X126857499Y-110750500D01*
X126931499Y-110750500D01*
X127005501Y-110750499D01*
X127073620Y-110770501D01*
X127120113Y-110824156D01*
X127131500Y-110876499D01*
X127131500Y-111381884D01*
X127135975Y-111397123D01*
X127137365Y-111398328D01*
X127145048Y-111399999D01*
X127343843Y-111399999D01*
X127411964Y-111420001D01*
X127458457Y-111473657D01*
X127468561Y-111543931D01*
X127439067Y-111608511D01*
X127433016Y-111615017D01*
X127400261Y-111647829D01*
X127391249Y-111659240D01*
X127306184Y-111797243D01*
X127300037Y-111810424D01*
X127248862Y-111964710D01*
X127245995Y-111978086D01*
X127236328Y-112072438D01*
X127236000Y-112078855D01*
X127236000Y-112503885D01*
X127240475Y-112519124D01*
X127241865Y-112520329D01*
X127249548Y-112522000D01*
X128046885Y-112522000D01*
X128062124Y-112517525D01*
X128063329Y-112516135D01*
X128065000Y-112508452D01*
X128065000Y-112503885D01*
X128573000Y-112503885D01*
X128577475Y-112519124D01*
X128578865Y-112520329D01*
X128586548Y-112522000D01*
X129383884Y-112522000D01*
X129399123Y-112517525D01*
X129400328Y-112516135D01*
X129401999Y-112508452D01*
X129401999Y-112078905D01*
X129401662Y-112072386D01*
X129391743Y-111976794D01*
X129388851Y-111963400D01*
X129337412Y-111809216D01*
X129331239Y-111796038D01*
X129245937Y-111658193D01*
X129236901Y-111646792D01*
X129122171Y-111532261D01*
X129110760Y-111523249D01*
X128972757Y-111438184D01*
X128959576Y-111432037D01*
X128805290Y-111380862D01*
X128791914Y-111377995D01*
X128697562Y-111368328D01*
X128691145Y-111368000D01*
X128591115Y-111368000D01*
X128575876Y-111372475D01*
X128574671Y-111373865D01*
X128573000Y-111381548D01*
X128573000Y-112503885D01*
X128065000Y-112503885D01*
X128065000Y-111386116D01*
X128060525Y-111370877D01*
X128048530Y-111360483D01*
X128010146Y-111300756D01*
X128010146Y-111229760D01*
X128031080Y-111188554D01*
X128095059Y-111105176D01*
X128103247Y-111090993D01*
X128158190Y-110958350D01*
X128162428Y-110942532D01*
X128176462Y-110835934D01*
X128177000Y-110827724D01*
X128177000Y-110803500D01*
X128197002Y-110735379D01*
X128250658Y-110688886D01*
X128303000Y-110677500D01*
X129908980Y-110677500D01*
X129920214Y-110678030D01*
X129927719Y-110679708D01*
X129996012Y-110677562D01*
X129999969Y-110677500D01*
X130027983Y-110677500D01*
X130031908Y-110677004D01*
X130031909Y-110677004D01*
X130032004Y-110676992D01*
X130043849Y-110676059D01*
X130073670Y-110675122D01*
X130080282Y-110674914D01*
X130080283Y-110674914D01*
X130088205Y-110674665D01*
X130107749Y-110668987D01*
X130127112Y-110664977D01*
X130139440Y-110663420D01*
X130139442Y-110663420D01*
X130147299Y-110662427D01*
X130154663Y-110659511D01*
X130154668Y-110659510D01*
X130188556Y-110646093D01*
X130199785Y-110642248D01*
X130216465Y-110637402D01*
X130242393Y-110629869D01*
X130249220Y-110625831D01*
X130249223Y-110625830D01*
X130259906Y-110619512D01*
X130277664Y-110610812D01*
X130289215Y-110606239D01*
X130289221Y-110606235D01*
X130296588Y-110603319D01*
X130308440Y-110594708D01*
X130375309Y-110570850D01*
X130444460Y-110586932D01*
X130493939Y-110637846D01*
X130508500Y-110696645D01*
X130508500Y-111436902D01*
X130488498Y-111505023D01*
X130468849Y-111526721D01*
X130469652Y-111527522D01*
X130344695Y-111652697D01*
X130251885Y-111803262D01*
X130196203Y-111971139D01*
X130185500Y-112075600D01*
X130185500Y-113476400D01*
X130185837Y-113479646D01*
X130185837Y-113479650D01*
X130195752Y-113575206D01*
X130196474Y-113582166D01*
X130252450Y-113749946D01*
X130345522Y-113900348D01*
X130470697Y-114025305D01*
X130476927Y-114029145D01*
X130476928Y-114029146D01*
X130614288Y-114113816D01*
X130621262Y-114118115D01*
X130701005Y-114144564D01*
X130782611Y-114171632D01*
X130782613Y-114171632D01*
X130789139Y-114173797D01*
X130795975Y-114174497D01*
X130795978Y-114174498D01*
X130839031Y-114178909D01*
X130893600Y-114184500D01*
X131644400Y-114184500D01*
X131647646Y-114184163D01*
X131647650Y-114184163D01*
X131743308Y-114174238D01*
X131743312Y-114174237D01*
X131750166Y-114173526D01*
X131756702Y-114171345D01*
X131756704Y-114171345D01*
X131888806Y-114127272D01*
X131917946Y-114117550D01*
X132068348Y-114024478D01*
X132073521Y-114019296D01*
X132073526Y-114019292D01*
X132136225Y-113956483D01*
X132198507Y-113922403D01*
X132225398Y-113919500D01*
X139192500Y-113919500D01*
X139260621Y-113939502D01*
X139307114Y-113993158D01*
X139318500Y-114045500D01*
X139318500Y-114825000D01*
X139298498Y-114893121D01*
X139244842Y-114939614D01*
X139226805Y-114943537D01*
X139227498Y-114945896D01*
X139194876Y-114955475D01*
X139193671Y-114956865D01*
X139192000Y-114964548D01*
X139192000Y-117948884D01*
X139196475Y-117964123D01*
X139197865Y-117965328D01*
X139218783Y-117969878D01*
X139217794Y-117974426D01*
X139260621Y-117987001D01*
X139307114Y-118040657D01*
X139318500Y-118092999D01*
X139318500Y-121683000D01*
X139298498Y-121751121D01*
X139244842Y-121797614D01*
X139226805Y-121801537D01*
X139227498Y-121803896D01*
X139194876Y-121813475D01*
X139193671Y-121814865D01*
X139192000Y-121822548D01*
X139192000Y-124806884D01*
X139196475Y-124822123D01*
X139197865Y-124823328D01*
X139218783Y-124827878D01*
X139217794Y-124832426D01*
X139260621Y-124845001D01*
X139307114Y-124898657D01*
X139318500Y-124950999D01*
X139318500Y-125130611D01*
X139298498Y-125198732D01*
X139244842Y-125245225D01*
X139174568Y-125255329D01*
X139126384Y-125237871D01*
X139083968Y-125211725D01*
X139083966Y-125211724D01*
X139077738Y-125207885D01*
X138997995Y-125181436D01*
X138916389Y-125154368D01*
X138916387Y-125154368D01*
X138909861Y-125152203D01*
X138903025Y-125151503D01*
X138903022Y-125151502D01*
X138859969Y-125147091D01*
X138805400Y-125141500D01*
X138054600Y-125141500D01*
X138051354Y-125141837D01*
X138051350Y-125141837D01*
X137955692Y-125151762D01*
X137955688Y-125151763D01*
X137948834Y-125152474D01*
X137942298Y-125154655D01*
X137942296Y-125154655D01*
X137925928Y-125160116D01*
X137781054Y-125208450D01*
X137630652Y-125301522D01*
X137505695Y-125426697D01*
X137412885Y-125577262D01*
X137403799Y-125604655D01*
X137370010Y-125706528D01*
X137357203Y-125745139D01*
X137356503Y-125751975D01*
X137356502Y-125751978D01*
X137352091Y-125795031D01*
X137346500Y-125849600D01*
X137346500Y-126605496D01*
X137337531Y-126652184D01*
X137328892Y-126673837D01*
X137327767Y-126679494D01*
X137327765Y-126679500D01*
X137315428Y-126741525D01*
X137287892Y-126879960D01*
X137287816Y-126885735D01*
X137287816Y-126885739D01*
X137287500Y-126909898D01*
X137285141Y-127090102D01*
X137320732Y-127297228D01*
X137322733Y-127302651D01*
X137338712Y-127345965D01*
X137346500Y-127389576D01*
X137346500Y-128150400D01*
X137346837Y-128153646D01*
X137346837Y-128153650D01*
X137356752Y-128249206D01*
X137357474Y-128256166D01*
X137413450Y-128423946D01*
X137506522Y-128574348D01*
X137631697Y-128699305D01*
X137637927Y-128703145D01*
X137637928Y-128703146D01*
X137720633Y-128754126D01*
X137768126Y-128806898D01*
X137779550Y-128876970D01*
X137751276Y-128942094D01*
X137749359Y-128944192D01*
X137746593Y-128947500D01*
X137742620Y-128951473D01*
X137614409Y-129135945D01*
X137520890Y-129340206D01*
X137465022Y-129557800D01*
X137453500Y-129699458D01*
X137453500Y-131324542D01*
X137465022Y-131466200D01*
X137520890Y-131683794D01*
X137614409Y-131888055D01*
X137742620Y-132072527D01*
X137901473Y-132231380D01*
X138085945Y-132359591D01*
X138290206Y-132453110D01*
X138507800Y-132508978D01*
X138561705Y-132513362D01*
X138646908Y-132520293D01*
X138646918Y-132520293D01*
X138649458Y-132520500D01*
X142274542Y-132520500D01*
X142277082Y-132520293D01*
X142277092Y-132520293D01*
X142362295Y-132513362D01*
X142416200Y-132508978D01*
X142633794Y-132453110D01*
X142838055Y-132359591D01*
X143022527Y-132231380D01*
X143181380Y-132072527D01*
X143309591Y-131888055D01*
X143403110Y-131683794D01*
X143458978Y-131466200D01*
X143470500Y-131324542D01*
X143470500Y-129699458D01*
X143458978Y-129557800D01*
X143403110Y-129340206D01*
X143309591Y-129135945D01*
X143181380Y-128951473D01*
X143022527Y-128792620D01*
X142880824Y-128694134D01*
X142842661Y-128667610D01*
X142842659Y-128667609D01*
X142838055Y-128664409D01*
X142804539Y-128649064D01*
X142750928Y-128602519D01*
X142730991Y-128534379D01*
X142751058Y-128466278D01*
X142804758Y-128419836D01*
X142856991Y-128408500D01*
X142869400Y-128408500D01*
X142872646Y-128408163D01*
X142872650Y-128408163D01*
X142968308Y-128398238D01*
X142968312Y-128398237D01*
X142975166Y-128397526D01*
X142981702Y-128395345D01*
X142981704Y-128395345D01*
X143135998Y-128343868D01*
X143142946Y-128341550D01*
X143293348Y-128248478D01*
X143418305Y-128123303D01*
X143511115Y-127972738D01*
X143566797Y-127804861D01*
X143577500Y-127700400D01*
X143577500Y-127697095D01*
X144361001Y-127697095D01*
X144361338Y-127703614D01*
X144371257Y-127799206D01*
X144374149Y-127812600D01*
X144425588Y-127966784D01*
X144431761Y-127979962D01*
X144517063Y-128117807D01*
X144526099Y-128129208D01*
X144640829Y-128243739D01*
X144652240Y-128252751D01*
X144790243Y-128337816D01*
X144803424Y-128343963D01*
X144957710Y-128395138D01*
X144971086Y-128398005D01*
X145065438Y-128407672D01*
X145071854Y-128408000D01*
X145171885Y-128408000D01*
X145187124Y-128403525D01*
X145188329Y-128402135D01*
X145190000Y-128394452D01*
X145190000Y-128389884D01*
X145698000Y-128389884D01*
X145702475Y-128405123D01*
X145703865Y-128406328D01*
X145711548Y-128407999D01*
X145816095Y-128407999D01*
X145822614Y-128407662D01*
X145918206Y-128397743D01*
X145931600Y-128394851D01*
X146085784Y-128343412D01*
X146098962Y-128337239D01*
X146236807Y-128251937D01*
X146248208Y-128242901D01*
X146362739Y-128128171D01*
X146371751Y-128116760D01*
X146456816Y-127978757D01*
X146462963Y-127965576D01*
X146514138Y-127811290D01*
X146517005Y-127797914D01*
X146526672Y-127703562D01*
X146527000Y-127697146D01*
X146527000Y-127272115D01*
X146522525Y-127256876D01*
X146521135Y-127255671D01*
X146513452Y-127254000D01*
X145716115Y-127254000D01*
X145700876Y-127258475D01*
X145699671Y-127259865D01*
X145698000Y-127267548D01*
X145698000Y-128389884D01*
X145190000Y-128389884D01*
X145190000Y-127272115D01*
X145185525Y-127256876D01*
X145184135Y-127255671D01*
X145176452Y-127254000D01*
X144379116Y-127254000D01*
X144363877Y-127258475D01*
X144362672Y-127259865D01*
X144361001Y-127267548D01*
X144361001Y-127697095D01*
X143577500Y-127697095D01*
X143577500Y-127394504D01*
X143586469Y-127347816D01*
X143595108Y-127326163D01*
X143596233Y-127320506D01*
X143596235Y-127320500D01*
X143634981Y-127125707D01*
X143634981Y-127125705D01*
X143636108Y-127120040D01*
X143636426Y-127095800D01*
X143638783Y-126915680D01*
X143638859Y-126909898D01*
X143607583Y-126727885D01*
X144361000Y-126727885D01*
X144365475Y-126743124D01*
X144366865Y-126744329D01*
X144374548Y-126746000D01*
X145171885Y-126746000D01*
X145187124Y-126741525D01*
X145188329Y-126740135D01*
X145190000Y-126732452D01*
X145190000Y-126727885D01*
X145698000Y-126727885D01*
X145702475Y-126743124D01*
X145703865Y-126744329D01*
X145711548Y-126746000D01*
X146508884Y-126746000D01*
X146524123Y-126741525D01*
X146525328Y-126740135D01*
X146526999Y-126732452D01*
X146526999Y-126302905D01*
X146526662Y-126296386D01*
X146516743Y-126200794D01*
X146513851Y-126187400D01*
X146462412Y-126033216D01*
X146456239Y-126020038D01*
X146370937Y-125882193D01*
X146361901Y-125870792D01*
X146247171Y-125756261D01*
X146235760Y-125747249D01*
X146097757Y-125662184D01*
X146084576Y-125656037D01*
X145930290Y-125604862D01*
X145916914Y-125601995D01*
X145822562Y-125592328D01*
X145816145Y-125592000D01*
X145716115Y-125592000D01*
X145700876Y-125596475D01*
X145699671Y-125597865D01*
X145698000Y-125605548D01*
X145698000Y-126727885D01*
X145190000Y-126727885D01*
X145190000Y-125610116D01*
X145185525Y-125594877D01*
X145184135Y-125593672D01*
X145176452Y-125592001D01*
X145071905Y-125592001D01*
X145065386Y-125592338D01*
X144969794Y-125602257D01*
X144956400Y-125605149D01*
X144802216Y-125656588D01*
X144789038Y-125662761D01*
X144651193Y-125748063D01*
X144639792Y-125757099D01*
X144525261Y-125871829D01*
X144516249Y-125883240D01*
X144431184Y-126021243D01*
X144425037Y-126034424D01*
X144373862Y-126188710D01*
X144370995Y-126202086D01*
X144361328Y-126296438D01*
X144361000Y-126302855D01*
X144361000Y-126727885D01*
X143607583Y-126727885D01*
X143603268Y-126702772D01*
X143585288Y-126654035D01*
X143577500Y-126610424D01*
X143577500Y-126299600D01*
X143577163Y-126296350D01*
X143567238Y-126200692D01*
X143567237Y-126200688D01*
X143566526Y-126193834D01*
X143510550Y-126026054D01*
X143417478Y-125875652D01*
X143292303Y-125750695D01*
X143220651Y-125706528D01*
X143147968Y-125661725D01*
X143147966Y-125661724D01*
X143141738Y-125657885D01*
X143060459Y-125630926D01*
X142980389Y-125604368D01*
X142980387Y-125604368D01*
X142973861Y-125602203D01*
X142967025Y-125601503D01*
X142967022Y-125601502D01*
X142923969Y-125597091D01*
X142869400Y-125591500D01*
X142118600Y-125591500D01*
X142115354Y-125591837D01*
X142115350Y-125591837D01*
X142019692Y-125601762D01*
X142019688Y-125601763D01*
X142012834Y-125602474D01*
X142006298Y-125604655D01*
X142006296Y-125604655D01*
X141989928Y-125610116D01*
X141845054Y-125658450D01*
X141801557Y-125685367D01*
X141797803Y-125687690D01*
X141729351Y-125706528D01*
X141661582Y-125685367D01*
X141616010Y-125630926D01*
X141605500Y-125580546D01*
X141605500Y-124943347D01*
X141625502Y-124875226D01*
X141679158Y-124828733D01*
X141744342Y-124818003D01*
X141809438Y-124824672D01*
X141815854Y-124825000D01*
X141840885Y-124825000D01*
X141856124Y-124820525D01*
X141857329Y-124819135D01*
X141859000Y-124811452D01*
X141859000Y-124806884D01*
X142367000Y-124806884D01*
X142371475Y-124822123D01*
X142372865Y-124823328D01*
X142380548Y-124824999D01*
X142410095Y-124824999D01*
X142416614Y-124824662D01*
X142512206Y-124814743D01*
X142525600Y-124811851D01*
X142679784Y-124760412D01*
X142692962Y-124754239D01*
X142830807Y-124668937D01*
X142842208Y-124659901D01*
X142956739Y-124545171D01*
X142965751Y-124533760D01*
X143050816Y-124395757D01*
X143056963Y-124382576D01*
X143108138Y-124228290D01*
X143111005Y-124214914D01*
X143120672Y-124120562D01*
X143121000Y-124114146D01*
X143121000Y-123589115D01*
X143116525Y-123573876D01*
X143115135Y-123572671D01*
X143107452Y-123571000D01*
X142385115Y-123571000D01*
X142369876Y-123575475D01*
X142368671Y-123576865D01*
X142367000Y-123584548D01*
X142367000Y-124806884D01*
X141859000Y-124806884D01*
X141859000Y-123044885D01*
X142367000Y-123044885D01*
X142371475Y-123060124D01*
X142372865Y-123061329D01*
X142380548Y-123063000D01*
X143102884Y-123063000D01*
X143118123Y-123058525D01*
X143119328Y-123057135D01*
X143120999Y-123049452D01*
X143120999Y-122519905D01*
X143120662Y-122513386D01*
X143110743Y-122417794D01*
X143107851Y-122404400D01*
X143056412Y-122250216D01*
X143050239Y-122237038D01*
X142964937Y-122099193D01*
X142955901Y-122087792D01*
X142841171Y-121973261D01*
X142829760Y-121964249D01*
X142691757Y-121879184D01*
X142678576Y-121873037D01*
X142524290Y-121821862D01*
X142510914Y-121818995D01*
X142416562Y-121809328D01*
X142410145Y-121809000D01*
X142385115Y-121809000D01*
X142369876Y-121813475D01*
X142368671Y-121814865D01*
X142367000Y-121822548D01*
X142367000Y-123044885D01*
X141859000Y-123044885D01*
X141859000Y-121827116D01*
X141854525Y-121811877D01*
X141853135Y-121810672D01*
X141845452Y-121809001D01*
X141815905Y-121809001D01*
X141809386Y-121809338D01*
X141744503Y-121816070D01*
X141674682Y-121803205D01*
X141622900Y-121754634D01*
X141605500Y-121690743D01*
X141605500Y-118085347D01*
X141625502Y-118017226D01*
X141679158Y-117970733D01*
X141744342Y-117960003D01*
X141809438Y-117966672D01*
X141815854Y-117967000D01*
X141840885Y-117967000D01*
X141856124Y-117962525D01*
X141857329Y-117961135D01*
X141859000Y-117953452D01*
X141859000Y-117948884D01*
X142367000Y-117948884D01*
X142371475Y-117964123D01*
X142372865Y-117965328D01*
X142380548Y-117966999D01*
X142410095Y-117966999D01*
X142416614Y-117966662D01*
X142512206Y-117956743D01*
X142525600Y-117953851D01*
X142679784Y-117902412D01*
X142692962Y-117896239D01*
X142830807Y-117810937D01*
X142842208Y-117801901D01*
X142956739Y-117687171D01*
X142965751Y-117675760D01*
X143050816Y-117537757D01*
X143056963Y-117524576D01*
X143108138Y-117370290D01*
X143111005Y-117356914D01*
X143120672Y-117262562D01*
X143121000Y-117256146D01*
X143121000Y-116731115D01*
X143116525Y-116715876D01*
X143115135Y-116714671D01*
X143107452Y-116713000D01*
X142385115Y-116713000D01*
X142369876Y-116717475D01*
X142368671Y-116718865D01*
X142367000Y-116726548D01*
X142367000Y-117948884D01*
X141859000Y-117948884D01*
X141859000Y-116186885D01*
X142367000Y-116186885D01*
X142371475Y-116202124D01*
X142372865Y-116203329D01*
X142380548Y-116205000D01*
X143102884Y-116205000D01*
X143118123Y-116200525D01*
X143119328Y-116199135D01*
X143120999Y-116191452D01*
X143120999Y-115661905D01*
X143120662Y-115655386D01*
X143110743Y-115559794D01*
X143107851Y-115546400D01*
X143056412Y-115392216D01*
X143050239Y-115379038D01*
X142964937Y-115241193D01*
X142955901Y-115229792D01*
X142841171Y-115115261D01*
X142829760Y-115106249D01*
X142691757Y-115021184D01*
X142678576Y-115015037D01*
X142524290Y-114963862D01*
X142510914Y-114960995D01*
X142416562Y-114951328D01*
X142410145Y-114951000D01*
X142385115Y-114951000D01*
X142369876Y-114955475D01*
X142368671Y-114956865D01*
X142367000Y-114964548D01*
X142367000Y-116186885D01*
X141859000Y-116186885D01*
X141859000Y-114969116D01*
X141854525Y-114953877D01*
X141853135Y-114952672D01*
X141845452Y-114951001D01*
X141815905Y-114951001D01*
X141809386Y-114951338D01*
X141744503Y-114958070D01*
X141674682Y-114945205D01*
X141622900Y-114896634D01*
X141605500Y-114832743D01*
X141605500Y-114045500D01*
X141625502Y-113977379D01*
X141679158Y-113930886D01*
X141731500Y-113919500D01*
X147682580Y-113919500D01*
X147750701Y-113939502D01*
X147771597Y-113956327D01*
X147835512Y-114020130D01*
X147835517Y-114020134D01*
X147840697Y-114025305D01*
X147846927Y-114029145D01*
X147846928Y-114029146D01*
X147984288Y-114113816D01*
X147991262Y-114118115D01*
X148071005Y-114144564D01*
X148152611Y-114171632D01*
X148152613Y-114171632D01*
X148159139Y-114173797D01*
X148165975Y-114174497D01*
X148165978Y-114174498D01*
X148209031Y-114178909D01*
X148263600Y-114184500D01*
X149014400Y-114184500D01*
X149017646Y-114184163D01*
X149017650Y-114184163D01*
X149113308Y-114174238D01*
X149113312Y-114174237D01*
X149120166Y-114173526D01*
X149126702Y-114171345D01*
X149126704Y-114171345D01*
X149258806Y-114127272D01*
X149287946Y-114117550D01*
X149438348Y-114024478D01*
X149563305Y-113899303D01*
X149656115Y-113748738D01*
X149711797Y-113580861D01*
X149722500Y-113476400D01*
X149722500Y-113473095D01*
X150506001Y-113473095D01*
X150506338Y-113479614D01*
X150516257Y-113575206D01*
X150519149Y-113588600D01*
X150570588Y-113742784D01*
X150576761Y-113755962D01*
X150662063Y-113893807D01*
X150671099Y-113905208D01*
X150785829Y-114019739D01*
X150797240Y-114028751D01*
X150935243Y-114113816D01*
X150948424Y-114119963D01*
X151102710Y-114171138D01*
X151116086Y-114174005D01*
X151210438Y-114183672D01*
X151216854Y-114184000D01*
X151316885Y-114184000D01*
X151332124Y-114179525D01*
X151333329Y-114178135D01*
X151335000Y-114170452D01*
X151335000Y-114165884D01*
X151843000Y-114165884D01*
X151847475Y-114181123D01*
X151848865Y-114182328D01*
X151856548Y-114183999D01*
X151961095Y-114183999D01*
X151967614Y-114183662D01*
X152063206Y-114173743D01*
X152076600Y-114170851D01*
X152230784Y-114119412D01*
X152243962Y-114113239D01*
X152381807Y-114027937D01*
X152393208Y-114018901D01*
X152507739Y-113904171D01*
X152516751Y-113892760D01*
X152601816Y-113754757D01*
X152607963Y-113741576D01*
X152659138Y-113587290D01*
X152662005Y-113573914D01*
X152671672Y-113479562D01*
X152672000Y-113473146D01*
X152672000Y-113048115D01*
X152667525Y-113032876D01*
X152666135Y-113031671D01*
X152658452Y-113030000D01*
X151861115Y-113030000D01*
X151845876Y-113034475D01*
X151844671Y-113035865D01*
X151843000Y-113043548D01*
X151843000Y-114165884D01*
X151335000Y-114165884D01*
X151335000Y-113048115D01*
X151330525Y-113032876D01*
X151329135Y-113031671D01*
X151321452Y-113030000D01*
X150524116Y-113030000D01*
X150508877Y-113034475D01*
X150507672Y-113035865D01*
X150506001Y-113043548D01*
X150506001Y-113473095D01*
X149722500Y-113473095D01*
X149722500Y-113170504D01*
X149731469Y-113123816D01*
X149740108Y-113102163D01*
X149741233Y-113096506D01*
X149741235Y-113096500D01*
X149779981Y-112901707D01*
X149779981Y-112901705D01*
X149781108Y-112896040D01*
X149781276Y-112883258D01*
X149783102Y-112743735D01*
X149783859Y-112685898D01*
X149781924Y-112674634D01*
X149749247Y-112484469D01*
X149749247Y-112484468D01*
X149748268Y-112478772D01*
X149730288Y-112430035D01*
X149722500Y-112386424D01*
X149722500Y-112075600D01*
X149722163Y-112072350D01*
X149712238Y-111976692D01*
X149712237Y-111976688D01*
X149711526Y-111969834D01*
X149655550Y-111802054D01*
X149562478Y-111651652D01*
X149438482Y-111527872D01*
X149404403Y-111465590D01*
X149401500Y-111438699D01*
X149401500Y-110860376D01*
X149402933Y-110841426D01*
X149405124Y-110827027D01*
X149405124Y-110827021D01*
X149406224Y-110819792D01*
X149403303Y-110783878D01*
X149403266Y-110766955D01*
X149403299Y-110766717D01*
X149403429Y-110757436D01*
X149403561Y-110747962D01*
X149403561Y-110747957D01*
X149403616Y-110744000D01*
X149383397Y-110563745D01*
X149377961Y-110548134D01*
X149326064Y-110399106D01*
X149326062Y-110399103D01*
X149323745Y-110392448D01*
X149283233Y-110327615D01*
X149231359Y-110244598D01*
X149227626Y-110238624D01*
X149222664Y-110233627D01*
X149104778Y-110114915D01*
X149104774Y-110114912D01*
X149099815Y-110109918D01*
X148946666Y-110012727D01*
X148917463Y-110002328D01*
X148782425Y-109954243D01*
X148782420Y-109954242D01*
X148775790Y-109951881D01*
X148768802Y-109951048D01*
X148768799Y-109951047D01*
X148645698Y-109936368D01*
X148595680Y-109930404D01*
X148588677Y-109931140D01*
X148588676Y-109931140D01*
X148560074Y-109934146D01*
X148493993Y-109941092D01*
X148424156Y-109928320D01*
X148372309Y-109879818D01*
X148358636Y-109840158D01*
X148358053Y-109840314D01*
X148355916Y-109832337D01*
X148354838Y-109824150D01*
X148347411Y-109806219D01*
X148339821Y-109735630D01*
X148347411Y-109709780D01*
X148351678Y-109699480D01*
X148351679Y-109699477D01*
X148354838Y-109691850D01*
X148355916Y-109683662D01*
X148369962Y-109576972D01*
X148369962Y-109576971D01*
X148370500Y-109572885D01*
X148370499Y-109293116D01*
X148368752Y-109279841D01*
X148355916Y-109182337D01*
X148355916Y-109182335D01*
X148354838Y-109174150D01*
X148347140Y-109155565D01*
X148339550Y-109084977D01*
X148347140Y-109059126D01*
X148351190Y-109049350D01*
X148355428Y-109033532D01*
X148369462Y-108926934D01*
X148370000Y-108918724D01*
X148370000Y-108894500D01*
X148390002Y-108826379D01*
X148443658Y-108779886D01*
X148496000Y-108768500D01*
X149089980Y-108768500D01*
X149101214Y-108769030D01*
X149108719Y-108770708D01*
X149177012Y-108768562D01*
X149180969Y-108768500D01*
X149208983Y-108768500D01*
X149212908Y-108768004D01*
X149212909Y-108768004D01*
X149213004Y-108767992D01*
X149224849Y-108767059D01*
X149254670Y-108766122D01*
X149261282Y-108765914D01*
X149261283Y-108765914D01*
X149269205Y-108765665D01*
X149288749Y-108759987D01*
X149308112Y-108755977D01*
X149320440Y-108754420D01*
X149320442Y-108754420D01*
X149328299Y-108753427D01*
X149335663Y-108750511D01*
X149335668Y-108750510D01*
X149369556Y-108737093D01*
X149380785Y-108733248D01*
X149397465Y-108728402D01*
X149423393Y-108720869D01*
X149430220Y-108716831D01*
X149430223Y-108716830D01*
X149440906Y-108710512D01*
X149458664Y-108701812D01*
X149470215Y-108697239D01*
X149470221Y-108697235D01*
X149477588Y-108694319D01*
X149513491Y-108668234D01*
X149523410Y-108661719D01*
X149554768Y-108643174D01*
X149554772Y-108643171D01*
X149561598Y-108639134D01*
X149575982Y-108624750D01*
X149591016Y-108611909D01*
X149601073Y-108604602D01*
X149607487Y-108599942D01*
X149635778Y-108565744D01*
X149643767Y-108556965D01*
X149644405Y-108556327D01*
X149706717Y-108522301D01*
X149777532Y-108527366D01*
X149834368Y-108569913D01*
X149859179Y-108636433D01*
X149859500Y-108645422D01*
X149859500Y-109267980D01*
X149858970Y-109279214D01*
X149857292Y-109286719D01*
X149857541Y-109294638D01*
X149859438Y-109355012D01*
X149859500Y-109358969D01*
X149859500Y-109386983D01*
X149859996Y-109390908D01*
X149859996Y-109390909D01*
X149860008Y-109391004D01*
X149860941Y-109402849D01*
X149862335Y-109447205D01*
X149868013Y-109466748D01*
X149872023Y-109486112D01*
X149874573Y-109506299D01*
X149877489Y-109513663D01*
X149877490Y-109513668D01*
X149890907Y-109547556D01*
X149894752Y-109558785D01*
X149907131Y-109601393D01*
X149911169Y-109608220D01*
X149911170Y-109608223D01*
X149917488Y-109618906D01*
X149926188Y-109636664D01*
X149930761Y-109648215D01*
X149930765Y-109648221D01*
X149933681Y-109655588D01*
X149938339Y-109661999D01*
X149938340Y-109662001D01*
X149959764Y-109691488D01*
X149966281Y-109701410D01*
X149984826Y-109732768D01*
X149984829Y-109732772D01*
X149988866Y-109739598D01*
X150003250Y-109753982D01*
X150016091Y-109769016D01*
X150028058Y-109785487D01*
X150034166Y-109790540D01*
X150062255Y-109813777D01*
X150071035Y-109821767D01*
X151375750Y-111126483D01*
X151383326Y-111134809D01*
X151387447Y-111141303D01*
X151393223Y-111146727D01*
X151396870Y-111150152D01*
X151432835Y-111211365D01*
X151429996Y-111282305D01*
X151389255Y-111340448D01*
X151323547Y-111367336D01*
X151310616Y-111368001D01*
X151216905Y-111368001D01*
X151210386Y-111368338D01*
X151114794Y-111378257D01*
X151101400Y-111381149D01*
X150947216Y-111432588D01*
X150934038Y-111438761D01*
X150796193Y-111524063D01*
X150784792Y-111533099D01*
X150670261Y-111647829D01*
X150661249Y-111659240D01*
X150576184Y-111797243D01*
X150570037Y-111810424D01*
X150518862Y-111964710D01*
X150515995Y-111978086D01*
X150506328Y-112072438D01*
X150506000Y-112078855D01*
X150506000Y-112503885D01*
X150510475Y-112519124D01*
X150511865Y-112520329D01*
X150519548Y-112522000D01*
X152653884Y-112522000D01*
X152669123Y-112517525D01*
X152670328Y-112516135D01*
X152671999Y-112508452D01*
X152671999Y-112078905D01*
X152671662Y-112072386D01*
X152661743Y-111976794D01*
X152658851Y-111963400D01*
X152607412Y-111809216D01*
X152601239Y-111796038D01*
X152515936Y-111658191D01*
X152506087Y-111645765D01*
X152479449Y-111579955D01*
X152492620Y-111510190D01*
X152541417Y-111458621D01*
X152604832Y-111441500D01*
X153514097Y-111441499D01*
X153526884Y-111441499D01*
X153530969Y-111440961D01*
X153530973Y-111440961D01*
X153637663Y-111426916D01*
X153637665Y-111426916D01*
X153645850Y-111425838D01*
X153722388Y-111394135D01*
X153786248Y-111367684D01*
X153786250Y-111367683D01*
X153793876Y-111364524D01*
X153830924Y-111336096D01*
X153914436Y-111272014D01*
X153914437Y-111272013D01*
X153920987Y-111266987D01*
X153926014Y-111260436D01*
X153926016Y-111260434D01*
X153973820Y-111198134D01*
X154018524Y-111139875D01*
X154079838Y-110991850D01*
X154095500Y-110872885D01*
X154095499Y-110593116D01*
X154089578Y-110548134D01*
X154080916Y-110482337D01*
X154080916Y-110482335D01*
X154079838Y-110474150D01*
X154072411Y-110456219D01*
X154064821Y-110385630D01*
X154072411Y-110359780D01*
X154076678Y-110349480D01*
X154076679Y-110349477D01*
X154079838Y-110341850D01*
X154095500Y-110222885D01*
X154095499Y-109943116D01*
X154093936Y-109931238D01*
X154080916Y-109832337D01*
X154080916Y-109832335D01*
X154079838Y-109824150D01*
X154072411Y-109806219D01*
X154064821Y-109735630D01*
X154072411Y-109709780D01*
X154076678Y-109699480D01*
X154076679Y-109699477D01*
X154079838Y-109691850D01*
X154080916Y-109683662D01*
X154094962Y-109576972D01*
X154094962Y-109576971D01*
X154095500Y-109572885D01*
X154095500Y-109544500D01*
X154115502Y-109476379D01*
X154169158Y-109429886D01*
X154221500Y-109418500D01*
X155305178Y-109418500D01*
X155373299Y-109438502D01*
X155394273Y-109455405D01*
X156807595Y-110868728D01*
X156841621Y-110931040D01*
X156844500Y-110957823D01*
X156844500Y-131848580D01*
X156843970Y-131859814D01*
X156842292Y-131867319D01*
X156842944Y-131888055D01*
X156844438Y-131935612D01*
X156844500Y-131939569D01*
X156844500Y-131967583D01*
X156844996Y-131971508D01*
X156844996Y-131971509D01*
X156845008Y-131971604D01*
X156845941Y-131983449D01*
X156847335Y-132027805D01*
X156849547Y-132035417D01*
X156853013Y-132047348D01*
X156857023Y-132066712D01*
X156857758Y-132072527D01*
X156859573Y-132086899D01*
X156862489Y-132094263D01*
X156862490Y-132094268D01*
X156875907Y-132128156D01*
X156879752Y-132139385D01*
X156892131Y-132181993D01*
X156896169Y-132188820D01*
X156896170Y-132188823D01*
X156902488Y-132199506D01*
X156911188Y-132217264D01*
X156915761Y-132228815D01*
X156915765Y-132228821D01*
X156918681Y-132236188D01*
X156923339Y-132242599D01*
X156923340Y-132242601D01*
X156944764Y-132272088D01*
X156951281Y-132282010D01*
X156969826Y-132313368D01*
X156969829Y-132313372D01*
X156973866Y-132320198D01*
X156988250Y-132334582D01*
X157001091Y-132349616D01*
X157013058Y-132366087D01*
X157019166Y-132371140D01*
X157047255Y-132394377D01*
X157056035Y-132402367D01*
X163477145Y-138823477D01*
X163484722Y-138831803D01*
X163488847Y-138838303D01*
X163494625Y-138843729D01*
X163494626Y-138843730D01*
X163538681Y-138885100D01*
X163541523Y-138887855D01*
X163561306Y-138907638D01*
X163564514Y-138910126D01*
X163573543Y-138917837D01*
X163605894Y-138948217D01*
X163612843Y-138952037D01*
X163623729Y-138958022D01*
X163640253Y-138968876D01*
X163656333Y-138981349D01*
X163663610Y-138984498D01*
X163697050Y-138998969D01*
X163707711Y-139004192D01*
X163739647Y-139021749D01*
X163739652Y-139021751D01*
X163746597Y-139025569D01*
X163754271Y-139027539D01*
X163754278Y-139027542D01*
X163766313Y-139030632D01*
X163785018Y-139037036D01*
X163796413Y-139041967D01*
X163803692Y-139045117D01*
X163819142Y-139047564D01*
X163847527Y-139052060D01*
X163859140Y-139054465D01*
X163902118Y-139065500D01*
X163922465Y-139065500D01*
X163942177Y-139067051D01*
X163962279Y-139070235D01*
X163970171Y-139069489D01*
X164006456Y-139066059D01*
X164018314Y-139065500D01*
X164582357Y-139065500D01*
X164650478Y-139085502D01*
X164696971Y-139139158D01*
X164707684Y-139178495D01*
X164711074Y-139211166D01*
X164767050Y-139378946D01*
X164860122Y-139529348D01*
X164865304Y-139534521D01*
X164867389Y-139536602D01*
X164985297Y-139654305D01*
X164991527Y-139658145D01*
X164991528Y-139658146D01*
X165128690Y-139742694D01*
X165135862Y-139747115D01*
X165215605Y-139773564D01*
X165297211Y-139800632D01*
X165297213Y-139800632D01*
X165303739Y-139802797D01*
X165310575Y-139803497D01*
X165310578Y-139803498D01*
X165353631Y-139807909D01*
X165408200Y-139813500D01*
X166134000Y-139813500D01*
X166137246Y-139813163D01*
X166137250Y-139813163D01*
X166232908Y-139803238D01*
X166232912Y-139803237D01*
X166239766Y-139802526D01*
X166246302Y-139800345D01*
X166246304Y-139800345D01*
X166378406Y-139756272D01*
X166407546Y-139746550D01*
X166557948Y-139653478D01*
X166591484Y-139619884D01*
X166677734Y-139533483D01*
X166682905Y-139528303D01*
X166704561Y-139493171D01*
X166771875Y-139383968D01*
X166771876Y-139383966D01*
X166775715Y-139377738D01*
X166831397Y-139209861D01*
X166842100Y-139105400D01*
X167625100Y-139105400D01*
X167625437Y-139108646D01*
X167625437Y-139108650D01*
X167635362Y-139204308D01*
X167635363Y-139204312D01*
X167636074Y-139211166D01*
X167692050Y-139378946D01*
X167785122Y-139529348D01*
X167790304Y-139534521D01*
X167792389Y-139536602D01*
X167910297Y-139654305D01*
X167916527Y-139658145D01*
X167916528Y-139658146D01*
X168053690Y-139742694D01*
X168060862Y-139747115D01*
X168140605Y-139773564D01*
X168222211Y-139800632D01*
X168222213Y-139800632D01*
X168228739Y-139802797D01*
X168235575Y-139803497D01*
X168235578Y-139803498D01*
X168278631Y-139807909D01*
X168333200Y-139813500D01*
X169059000Y-139813500D01*
X169062246Y-139813163D01*
X169062250Y-139813163D01*
X169157908Y-139803238D01*
X169157912Y-139803237D01*
X169164766Y-139802526D01*
X169171302Y-139800345D01*
X169171304Y-139800345D01*
X169303406Y-139756272D01*
X169332546Y-139746550D01*
X169482948Y-139653478D01*
X169516484Y-139619884D01*
X169602734Y-139533483D01*
X169607905Y-139528303D01*
X169616533Y-139514307D01*
X169669303Y-139466814D01*
X169739374Y-139455390D01*
X169799109Y-139480379D01*
X169799347Y-139480617D01*
X169948671Y-139572661D01*
X169955619Y-139574966D01*
X169955620Y-139574966D01*
X170108634Y-139625719D01*
X170108636Y-139625719D01*
X170115165Y-139627885D01*
X170218769Y-139638500D01*
X170510234Y-139638500D01*
X170806230Y-139638499D01*
X170911129Y-139627616D01*
X170917660Y-139625437D01*
X170917665Y-139625436D01*
X171070578Y-139574420D01*
X171077526Y-139572102D01*
X171226689Y-139479797D01*
X171350617Y-139355653D01*
X171352614Y-139352413D01*
X171409352Y-139312186D01*
X171480275Y-139308953D01*
X171541687Y-139344578D01*
X171549066Y-139353078D01*
X171555782Y-139361552D01*
X171669479Y-139475051D01*
X171680890Y-139484063D01*
X171817654Y-139568365D01*
X171830832Y-139574509D01*
X171983740Y-139625227D01*
X171997106Y-139628093D01*
X172090601Y-139637672D01*
X172097016Y-139638000D01*
X172115385Y-139638000D01*
X172130624Y-139633525D01*
X172131829Y-139632135D01*
X172133500Y-139624452D01*
X172133500Y-139619884D01*
X172641500Y-139619884D01*
X172645975Y-139635123D01*
X172647365Y-139636328D01*
X172655048Y-139637999D01*
X172677933Y-139637999D01*
X172684452Y-139637662D01*
X172779170Y-139627834D01*
X172792564Y-139624942D01*
X172945365Y-139573964D01*
X172958543Y-139567790D01*
X173095149Y-139483256D01*
X173106550Y-139474220D01*
X173220051Y-139360521D01*
X173229063Y-139349110D01*
X173313365Y-139212346D01*
X173319509Y-139199168D01*
X173370227Y-139046260D01*
X173373093Y-139032894D01*
X173382672Y-138939399D01*
X173383000Y-138932984D01*
X173383000Y-138702115D01*
X173378525Y-138686876D01*
X173377135Y-138685671D01*
X173369452Y-138684000D01*
X172659615Y-138684000D01*
X172644376Y-138688475D01*
X172643171Y-138689865D01*
X172641500Y-138697548D01*
X172641500Y-139619884D01*
X172133500Y-139619884D01*
X172133500Y-138157885D01*
X172641500Y-138157885D01*
X172645975Y-138173124D01*
X172647365Y-138174329D01*
X172655048Y-138176000D01*
X173364884Y-138176000D01*
X173380123Y-138171525D01*
X173381328Y-138170135D01*
X173382999Y-138162452D01*
X173382999Y-137927067D01*
X173382662Y-137920548D01*
X173372834Y-137825830D01*
X173369942Y-137812436D01*
X173318964Y-137659635D01*
X173312790Y-137646457D01*
X173228256Y-137509851D01*
X173219220Y-137498450D01*
X173105521Y-137384949D01*
X173094110Y-137375937D01*
X172957346Y-137291635D01*
X172944168Y-137285491D01*
X172791260Y-137234773D01*
X172777894Y-137231907D01*
X172684399Y-137222328D01*
X172677984Y-137222000D01*
X172659615Y-137222000D01*
X172644376Y-137226475D01*
X172643171Y-137227865D01*
X172641500Y-137235548D01*
X172641500Y-138157885D01*
X172133500Y-138157885D01*
X172133500Y-137240116D01*
X172129025Y-137224877D01*
X172127635Y-137223672D01*
X172119952Y-137222001D01*
X172097067Y-137222001D01*
X172090548Y-137222338D01*
X171995830Y-137232166D01*
X171982436Y-137235058D01*
X171829635Y-137286036D01*
X171816457Y-137292210D01*
X171679851Y-137376744D01*
X171668450Y-137385780D01*
X171554949Y-137499479D01*
X171549206Y-137506751D01*
X171491289Y-137547814D01*
X171420366Y-137551046D01*
X171358954Y-137515421D01*
X171353160Y-137508746D01*
X171349797Y-137503311D01*
X171325944Y-137479499D01*
X171230833Y-137384554D01*
X171225653Y-137379383D01*
X171076329Y-137287339D01*
X171069380Y-137285034D01*
X170916366Y-137234281D01*
X170916364Y-137234281D01*
X170909835Y-137232115D01*
X170806231Y-137221500D01*
X170514766Y-137221500D01*
X170218770Y-137221501D01*
X170113871Y-137232384D01*
X170107340Y-137234563D01*
X170107335Y-137234564D01*
X170001067Y-137270018D01*
X169947474Y-137287898D01*
X169799862Y-137379243D01*
X169799860Y-137379244D01*
X169798311Y-137380203D01*
X169798147Y-137379938D01*
X169736146Y-137405034D01*
X169666382Y-137391863D01*
X169616547Y-137345954D01*
X169607078Y-137330652D01*
X169481903Y-137205695D01*
X169449887Y-137185960D01*
X169337568Y-137116725D01*
X169337566Y-137116724D01*
X169331338Y-137112885D01*
X169170854Y-137059655D01*
X169169989Y-137059368D01*
X169169987Y-137059368D01*
X169163461Y-137057203D01*
X169156625Y-137056503D01*
X169156622Y-137056502D01*
X169113569Y-137052091D01*
X169059000Y-137046500D01*
X168333200Y-137046500D01*
X168329954Y-137046837D01*
X168329950Y-137046837D01*
X168234292Y-137056762D01*
X168234288Y-137056763D01*
X168227434Y-137057474D01*
X168220898Y-137059655D01*
X168220896Y-137059655D01*
X168088794Y-137103728D01*
X168059654Y-137113450D01*
X167909252Y-137206522D01*
X167904079Y-137211704D01*
X167850229Y-137265648D01*
X167784295Y-137331697D01*
X167780456Y-137337925D01*
X167780454Y-137337928D01*
X167739351Y-137404610D01*
X167691485Y-137482262D01*
X167635803Y-137650139D01*
X167625100Y-137754600D01*
X167625100Y-139105400D01*
X166842100Y-139105400D01*
X166842100Y-137754600D01*
X166841763Y-137751350D01*
X166831838Y-137655692D01*
X166831837Y-137655688D01*
X166831126Y-137648834D01*
X166775150Y-137481054D01*
X166682078Y-137330652D01*
X166556903Y-137205695D01*
X166524887Y-137185960D01*
X166412568Y-137116725D01*
X166412566Y-137116724D01*
X166406338Y-137112885D01*
X166245854Y-137059655D01*
X166244989Y-137059368D01*
X166244987Y-137059368D01*
X166238461Y-137057203D01*
X166231625Y-137056503D01*
X166231622Y-137056502D01*
X166188569Y-137052091D01*
X166134000Y-137046500D01*
X165408200Y-137046500D01*
X165404954Y-137046837D01*
X165404950Y-137046837D01*
X165309292Y-137056762D01*
X165309288Y-137056763D01*
X165302434Y-137057474D01*
X165295898Y-137059655D01*
X165295896Y-137059655D01*
X165163794Y-137103728D01*
X165134654Y-137113450D01*
X165128422Y-137117306D01*
X165128423Y-137117306D01*
X165017479Y-137185960D01*
X164949027Y-137204798D01*
X164881257Y-137183637D01*
X164844322Y-137145585D01*
X164826959Y-137117798D01*
X164823226Y-137111824D01*
X164758682Y-137046828D01*
X164700378Y-136988115D01*
X164700374Y-136988112D01*
X164695415Y-136983118D01*
X164542266Y-136885927D01*
X164513063Y-136875528D01*
X164378025Y-136827443D01*
X164378020Y-136827442D01*
X164371390Y-136825081D01*
X164324815Y-136819527D01*
X164259542Y-136791599D01*
X164250640Y-136783508D01*
X158660405Y-131193272D01*
X158626379Y-131130960D01*
X158623500Y-131104177D01*
X158623500Y-110416620D01*
X158624030Y-110405386D01*
X158625708Y-110397881D01*
X158623562Y-110329588D01*
X158623500Y-110325631D01*
X158623500Y-110297617D01*
X158622992Y-110293596D01*
X158622058Y-110281744D01*
X158620914Y-110245318D01*
X158620914Y-110245317D01*
X158620665Y-110237395D01*
X158614987Y-110217851D01*
X158610977Y-110198488D01*
X158609420Y-110186160D01*
X158609420Y-110186158D01*
X158608427Y-110178301D01*
X158605511Y-110170937D01*
X158605510Y-110170932D01*
X158592093Y-110137044D01*
X158588248Y-110125815D01*
X158578080Y-110090819D01*
X158575869Y-110083207D01*
X158565510Y-110065691D01*
X158556813Y-110047941D01*
X158549319Y-110029012D01*
X158523240Y-109993117D01*
X158516722Y-109983195D01*
X158498170Y-109951824D01*
X158498166Y-109951819D01*
X158494134Y-109945001D01*
X158479747Y-109930614D01*
X158466906Y-109915580D01*
X158459602Y-109905527D01*
X158454942Y-109899113D01*
X158420750Y-109870827D01*
X158411971Y-109862838D01*
X157589728Y-109040595D01*
X157555702Y-108978283D01*
X157560767Y-108907468D01*
X157603314Y-108850632D01*
X157669834Y-108825821D01*
X157678823Y-108825500D01*
X157802800Y-108825500D01*
X157806046Y-108825163D01*
X157806050Y-108825163D01*
X157901708Y-108815238D01*
X157901712Y-108815237D01*
X157908566Y-108814526D01*
X157915102Y-108812345D01*
X157915104Y-108812345D01*
X158061650Y-108763453D01*
X158076346Y-108758550D01*
X158226748Y-108665478D01*
X158260284Y-108631884D01*
X158346534Y-108545483D01*
X158351705Y-108540303D01*
X158379229Y-108495651D01*
X158440675Y-108395968D01*
X158440676Y-108395966D01*
X158444515Y-108389738D01*
X158500197Y-108221861D01*
X158510900Y-108117400D01*
X159293900Y-108117400D01*
X159304874Y-108223166D01*
X159360850Y-108390946D01*
X159453922Y-108541348D01*
X159579097Y-108666305D01*
X159585327Y-108670145D01*
X159585328Y-108670146D01*
X159722490Y-108754694D01*
X159729662Y-108759115D01*
X159809405Y-108785564D01*
X159891011Y-108812632D01*
X159891013Y-108812632D01*
X159897539Y-108814797D01*
X159904375Y-108815497D01*
X159904378Y-108815498D01*
X159947431Y-108819909D01*
X160002000Y-108825500D01*
X160727800Y-108825500D01*
X160731046Y-108825163D01*
X160731050Y-108825163D01*
X160826708Y-108815238D01*
X160826712Y-108815237D01*
X160833566Y-108814526D01*
X160840102Y-108812345D01*
X160840104Y-108812345D01*
X160986650Y-108763453D01*
X161001346Y-108758550D01*
X161151748Y-108665478D01*
X161185284Y-108631884D01*
X161271533Y-108545484D01*
X161271534Y-108545483D01*
X161276705Y-108540303D01*
X161278895Y-108536750D01*
X161335757Y-108496435D01*
X161406680Y-108493203D01*
X161442837Y-108508330D01*
X161560434Y-108580817D01*
X161560437Y-108580819D01*
X161566671Y-108584661D01*
X161573619Y-108586966D01*
X161573620Y-108586966D01*
X161726634Y-108637719D01*
X161726636Y-108637719D01*
X161733165Y-108639885D01*
X161836769Y-108650500D01*
X162128234Y-108650500D01*
X162424230Y-108650499D01*
X162529129Y-108639616D01*
X162535660Y-108637437D01*
X162535665Y-108637436D01*
X162688578Y-108586420D01*
X162695526Y-108584102D01*
X162844689Y-108491797D01*
X162968617Y-108367653D01*
X162970614Y-108364413D01*
X163027352Y-108324186D01*
X163098275Y-108320953D01*
X163159687Y-108356578D01*
X163167066Y-108365078D01*
X163173782Y-108373552D01*
X163287479Y-108487051D01*
X163298890Y-108496063D01*
X163435654Y-108580365D01*
X163448832Y-108586509D01*
X163601740Y-108637227D01*
X163615106Y-108640093D01*
X163708601Y-108649672D01*
X163715016Y-108650000D01*
X163733385Y-108650000D01*
X163748624Y-108645525D01*
X163749829Y-108644135D01*
X163751500Y-108636452D01*
X163751500Y-108631884D01*
X164259500Y-108631884D01*
X164263975Y-108647123D01*
X164265365Y-108648328D01*
X164273048Y-108649999D01*
X164295933Y-108649999D01*
X164302452Y-108649662D01*
X164397170Y-108639834D01*
X164410564Y-108636942D01*
X164563365Y-108585964D01*
X164576543Y-108579790D01*
X164713149Y-108495256D01*
X164724550Y-108486220D01*
X164838051Y-108372521D01*
X164847063Y-108361110D01*
X164931365Y-108224346D01*
X164937509Y-108211168D01*
X164988227Y-108058260D01*
X164991093Y-108044894D01*
X165000672Y-107951399D01*
X165001000Y-107944984D01*
X165001000Y-107714115D01*
X164996525Y-107698876D01*
X164995135Y-107697671D01*
X164987452Y-107696000D01*
X164277615Y-107696000D01*
X164262376Y-107700475D01*
X164261171Y-107701865D01*
X164259500Y-107709548D01*
X164259500Y-108631884D01*
X163751500Y-108631884D01*
X163751500Y-107169885D01*
X164259500Y-107169885D01*
X164263975Y-107185124D01*
X164265365Y-107186329D01*
X164273048Y-107188000D01*
X164982884Y-107188000D01*
X164998123Y-107183525D01*
X164999328Y-107182135D01*
X165000999Y-107174452D01*
X165000999Y-106939067D01*
X165000662Y-106932548D01*
X164990834Y-106837830D01*
X164987942Y-106824436D01*
X164936964Y-106671635D01*
X164930790Y-106658457D01*
X164846256Y-106521851D01*
X164837220Y-106510450D01*
X164723521Y-106396949D01*
X164712110Y-106387937D01*
X164575346Y-106303635D01*
X164562168Y-106297491D01*
X164409260Y-106246773D01*
X164395894Y-106243907D01*
X164302399Y-106234328D01*
X164295984Y-106234000D01*
X164277615Y-106234000D01*
X164262376Y-106238475D01*
X164261171Y-106239865D01*
X164259500Y-106247548D01*
X164259500Y-107169885D01*
X163751500Y-107169885D01*
X163751500Y-106252116D01*
X163747025Y-106236877D01*
X163745635Y-106235672D01*
X163737952Y-106234001D01*
X163715067Y-106234001D01*
X163708548Y-106234338D01*
X163613830Y-106244166D01*
X163600436Y-106247058D01*
X163447635Y-106298036D01*
X163434457Y-106304210D01*
X163297851Y-106388744D01*
X163286450Y-106397780D01*
X163172949Y-106511479D01*
X163167206Y-106518751D01*
X163109289Y-106559814D01*
X163038366Y-106563046D01*
X162976954Y-106527421D01*
X162971160Y-106520746D01*
X162967797Y-106515311D01*
X162843653Y-106391383D01*
X162694329Y-106299339D01*
X162664488Y-106289441D01*
X162534366Y-106246281D01*
X162534364Y-106246281D01*
X162527835Y-106244115D01*
X162424231Y-106233500D01*
X162132766Y-106233500D01*
X161836770Y-106233501D01*
X161731871Y-106244384D01*
X161725340Y-106246563D01*
X161725335Y-106246564D01*
X161579025Y-106295377D01*
X161565474Y-106299898D01*
X161446847Y-106373307D01*
X161443093Y-106375630D01*
X161374641Y-106394468D01*
X161306871Y-106373307D01*
X161278904Y-106347543D01*
X161275878Y-106342652D01*
X161150703Y-106217695D01*
X161114117Y-106195143D01*
X161006368Y-106128725D01*
X161006366Y-106128724D01*
X161000138Y-106124885D01*
X160895876Y-106090303D01*
X160838789Y-106071368D01*
X160838787Y-106071368D01*
X160832261Y-106069203D01*
X160825425Y-106068503D01*
X160825422Y-106068502D01*
X160782369Y-106064091D01*
X160727800Y-106058500D01*
X160002000Y-106058500D01*
X159998754Y-106058837D01*
X159998750Y-106058837D01*
X159903092Y-106068762D01*
X159903088Y-106068763D01*
X159896234Y-106069474D01*
X159889698Y-106071655D01*
X159889696Y-106071655D01*
X159788233Y-106105506D01*
X159728454Y-106125450D01*
X159578052Y-106218522D01*
X159572879Y-106223704D01*
X159533296Y-106263356D01*
X159453095Y-106343697D01*
X159449255Y-106349927D01*
X159449254Y-106349928D01*
X159381323Y-106460133D01*
X159360285Y-106494262D01*
X159337470Y-106563047D01*
X159307910Y-106652170D01*
X159304603Y-106662139D01*
X159293900Y-106766600D01*
X159293900Y-108117400D01*
X158510900Y-108117400D01*
X158510900Y-106766600D01*
X158510563Y-106763350D01*
X158500638Y-106667692D01*
X158500637Y-106667688D01*
X158499926Y-106660834D01*
X158497413Y-106653300D01*
X158446268Y-106500002D01*
X158443950Y-106493054D01*
X158350878Y-106342652D01*
X158225703Y-106217695D01*
X158189117Y-106195143D01*
X158081368Y-106128725D01*
X158081366Y-106128724D01*
X158075138Y-106124885D01*
X157970876Y-106090303D01*
X157913789Y-106071368D01*
X157913787Y-106071368D01*
X157907261Y-106069203D01*
X157900425Y-106068503D01*
X157900422Y-106068502D01*
X157857369Y-106064091D01*
X157802800Y-106058500D01*
X157077000Y-106058500D01*
X157073754Y-106058837D01*
X157073750Y-106058837D01*
X156978092Y-106068762D01*
X156978088Y-106068763D01*
X156971234Y-106069474D01*
X156964698Y-106071655D01*
X156964696Y-106071655D01*
X156863233Y-106105506D01*
X156803454Y-106125450D01*
X156653052Y-106218522D01*
X156647879Y-106223704D01*
X156647874Y-106223708D01*
X156582256Y-106289441D01*
X156519974Y-106323521D01*
X156449154Y-106318518D01*
X156403677Y-106289208D01*
X156318978Y-106203915D01*
X156318974Y-106203912D01*
X156314015Y-106198918D01*
X156302897Y-106191862D01*
X156212341Y-106134394D01*
X156160866Y-106101727D01*
X156076414Y-106071655D01*
X155996625Y-106043243D01*
X155996620Y-106043242D01*
X155989990Y-106040881D01*
X155983002Y-106040048D01*
X155982999Y-106040047D01*
X155859898Y-106025368D01*
X155809880Y-106019404D01*
X155802877Y-106020140D01*
X155802876Y-106020140D01*
X155636488Y-106037628D01*
X155636486Y-106037629D01*
X155629488Y-106038364D01*
X155457779Y-106096818D01*
X155387832Y-106139850D01*
X155324492Y-106178817D01*
X155258470Y-106197500D01*
X154220999Y-106197500D01*
X154152878Y-106177498D01*
X154106385Y-106123842D01*
X154094999Y-106071500D01*
X154094999Y-106047276D01*
X154094461Y-106039065D01*
X154080428Y-105932467D01*
X154076190Y-105916652D01*
X154021247Y-105784007D01*
X154013059Y-105769824D01*
X153925656Y-105655920D01*
X153914080Y-105644344D01*
X153800176Y-105556941D01*
X153785993Y-105548753D01*
X153653350Y-105493810D01*
X153637532Y-105489572D01*
X153530934Y-105475538D01*
X153522725Y-105475000D01*
X153067615Y-105475000D01*
X153052376Y-105479475D01*
X153051171Y-105480865D01*
X153049500Y-105488548D01*
X153049500Y-105998500D01*
X153029498Y-106066621D01*
X152975842Y-106113114D01*
X152923501Y-106124500D01*
X152832227Y-106124501D01*
X152775500Y-106124501D01*
X152707380Y-106104499D01*
X152660887Y-106050844D01*
X152649500Y-105998501D01*
X152649500Y-105493116D01*
X152645025Y-105477877D01*
X152643635Y-105476672D01*
X152635952Y-105475001D01*
X152526500Y-105475001D01*
X152458379Y-105454999D01*
X152411886Y-105401343D01*
X152400500Y-105349001D01*
X152400500Y-105320895D01*
X152420502Y-105252774D01*
X152474158Y-105206281D01*
X152515079Y-105195414D01*
X152556579Y-105191637D01*
X152563600Y-105190998D01*
X152570302Y-105188820D01*
X152570304Y-105188820D01*
X152729409Y-105137124D01*
X152729412Y-105137123D01*
X152736108Y-105134947D01*
X152850239Y-105066911D01*
X152885860Y-105045677D01*
X152885862Y-105045676D01*
X152891912Y-105042069D01*
X153023266Y-104916982D01*
X153123643Y-104765902D01*
X153188055Y-104596338D01*
X153213299Y-104416717D01*
X153213616Y-104394000D01*
X153193397Y-104213745D01*
X153169509Y-104145148D01*
X153162500Y-104103711D01*
X153162500Y-103727388D01*
X153182502Y-103659267D01*
X153236158Y-103612774D01*
X153306432Y-103602670D01*
X153371012Y-103632164D01*
X153377516Y-103638213D01*
X153428697Y-103689305D01*
X153434927Y-103693145D01*
X153434928Y-103693146D01*
X153572288Y-103777816D01*
X153579262Y-103782115D01*
X153659005Y-103808564D01*
X153740611Y-103835632D01*
X153740613Y-103835632D01*
X153747139Y-103837797D01*
X153753975Y-103838497D01*
X153753978Y-103838498D01*
X153797031Y-103842909D01*
X153851600Y-103848500D01*
X154602400Y-103848500D01*
X154605646Y-103848163D01*
X154605650Y-103848163D01*
X154701308Y-103838238D01*
X154701312Y-103838237D01*
X154708166Y-103837526D01*
X154714702Y-103835345D01*
X154714704Y-103835345D01*
X154846806Y-103791272D01*
X154875946Y-103781550D01*
X155026348Y-103688478D01*
X155046124Y-103668668D01*
X155146134Y-103568483D01*
X155151305Y-103563303D01*
X155159513Y-103549988D01*
X155240275Y-103418968D01*
X155240276Y-103418966D01*
X155244115Y-103412738D01*
X155286953Y-103283584D01*
X155297632Y-103251389D01*
X155297632Y-103251387D01*
X155299797Y-103244861D01*
X155302359Y-103219861D01*
X155307717Y-103167562D01*
X155310500Y-103140400D01*
X155310500Y-103137095D01*
X156094001Y-103137095D01*
X156094338Y-103143614D01*
X156104257Y-103239206D01*
X156107149Y-103252600D01*
X156158588Y-103406784D01*
X156164761Y-103419962D01*
X156250063Y-103557807D01*
X156259099Y-103569208D01*
X156373829Y-103683739D01*
X156385240Y-103692751D01*
X156523243Y-103777816D01*
X156536424Y-103783963D01*
X156690710Y-103835138D01*
X156704086Y-103838005D01*
X156798438Y-103847672D01*
X156804854Y-103848000D01*
X156904885Y-103848000D01*
X156920124Y-103843525D01*
X156921329Y-103842135D01*
X156923000Y-103834452D01*
X156923000Y-102712115D01*
X156918525Y-102696876D01*
X156917135Y-102695671D01*
X156909452Y-102694000D01*
X156112116Y-102694000D01*
X156096877Y-102698475D01*
X156095672Y-102699865D01*
X156094001Y-102707548D01*
X156094001Y-103137095D01*
X155310500Y-103137095D01*
X155310500Y-101739600D01*
X155308402Y-101719375D01*
X155300238Y-101640692D01*
X155300237Y-101640688D01*
X155299526Y-101633834D01*
X155243550Y-101466054D01*
X155209977Y-101411801D01*
X155191140Y-101343352D01*
X155212301Y-101275582D01*
X155266741Y-101230011D01*
X155317122Y-101219500D01*
X156087514Y-101219500D01*
X156155635Y-101239502D01*
X156202128Y-101293158D01*
X156212232Y-101363432D01*
X156194774Y-101411616D01*
X156164184Y-101461243D01*
X156158037Y-101474424D01*
X156106862Y-101628710D01*
X156103995Y-101642086D01*
X156094328Y-101736438D01*
X156094000Y-101742855D01*
X156094000Y-102167885D01*
X156098475Y-102183124D01*
X156099865Y-102184329D01*
X156107548Y-102186000D01*
X157305000Y-102186000D01*
X157373121Y-102206002D01*
X157419614Y-102259658D01*
X157431000Y-102312000D01*
X157431000Y-103829884D01*
X157435475Y-103845123D01*
X157436865Y-103846328D01*
X157444548Y-103847999D01*
X157549095Y-103847999D01*
X157555614Y-103847662D01*
X157651206Y-103837743D01*
X157664600Y-103834851D01*
X157818784Y-103783412D01*
X157831962Y-103777239D01*
X157969807Y-103691937D01*
X157981208Y-103682901D01*
X158095739Y-103568171D01*
X158104751Y-103556760D01*
X158121980Y-103528809D01*
X158174752Y-103481316D01*
X158244824Y-103469892D01*
X158309947Y-103498166D01*
X158336382Y-103528618D01*
X158343022Y-103539348D01*
X158468197Y-103664305D01*
X158474427Y-103668145D01*
X158474428Y-103668146D01*
X158611590Y-103752694D01*
X158618762Y-103757115D01*
X158643575Y-103765345D01*
X158780111Y-103810632D01*
X158780113Y-103810632D01*
X158786639Y-103812797D01*
X158793475Y-103813497D01*
X158793478Y-103813498D01*
X158836531Y-103817909D01*
X158891100Y-103823500D01*
X159616900Y-103823500D01*
X159620146Y-103823163D01*
X159620150Y-103823163D01*
X159715808Y-103813238D01*
X159715812Y-103813237D01*
X159722666Y-103812526D01*
X159729202Y-103810345D01*
X159729204Y-103810345D01*
X159879889Y-103760072D01*
X159890446Y-103756550D01*
X160040848Y-103663478D01*
X160165805Y-103538303D01*
X160186016Y-103505515D01*
X160254775Y-103393968D01*
X160254776Y-103393966D01*
X160258615Y-103387738D01*
X160314297Y-103219861D01*
X160315627Y-103206887D01*
X160320602Y-103158324D01*
X160325000Y-103115400D01*
X160325000Y-101764600D01*
X160324663Y-101761350D01*
X160314738Y-101665692D01*
X160314737Y-101665688D01*
X160314026Y-101658834D01*
X160308439Y-101642086D01*
X160260368Y-101498002D01*
X160258050Y-101491054D01*
X160164978Y-101340652D01*
X160039803Y-101215695D01*
X160033569Y-101211852D01*
X159895468Y-101126725D01*
X159895466Y-101126724D01*
X159889238Y-101122885D01*
X159887240Y-101122222D01*
X159833549Y-101073539D01*
X159831511Y-101070093D01*
X159822812Y-101052336D01*
X159818239Y-101040785D01*
X159818235Y-101040779D01*
X159815319Y-101033412D01*
X159789234Y-100997509D01*
X159782719Y-100987590D01*
X159764174Y-100956232D01*
X159764171Y-100956228D01*
X159760134Y-100949402D01*
X159745750Y-100935018D01*
X159732909Y-100919984D01*
X159725602Y-100909927D01*
X159720942Y-100903513D01*
X159686750Y-100875227D01*
X159677970Y-100867237D01*
X159511328Y-100700595D01*
X159477302Y-100638283D01*
X159482367Y-100567468D01*
X159524914Y-100510632D01*
X159591434Y-100485821D01*
X159600423Y-100485500D01*
X160750134Y-100485500D01*
X160812316Y-100478745D01*
X160948705Y-100427615D01*
X161065261Y-100340261D01*
X161074606Y-100327793D01*
X161131463Y-100285276D01*
X161202282Y-100280249D01*
X161264528Y-100314260D01*
X161506595Y-100556327D01*
X161540621Y-100618639D01*
X161543500Y-100645422D01*
X161543500Y-101052662D01*
X161523498Y-101120783D01*
X161483803Y-101159806D01*
X161434167Y-101190522D01*
X161392152Y-101216522D01*
X161267195Y-101341697D01*
X161263355Y-101347927D01*
X161263354Y-101347928D01*
X161185381Y-101474424D01*
X161174385Y-101492262D01*
X161172081Y-101499209D01*
X161123626Y-101645298D01*
X161118703Y-101660139D01*
X161118003Y-101666975D01*
X161118002Y-101666978D01*
X161115506Y-101691340D01*
X161108000Y-101764600D01*
X161108000Y-103115400D01*
X161108337Y-103118646D01*
X161108337Y-103118650D01*
X161117792Y-103209771D01*
X161118974Y-103221166D01*
X161121155Y-103227702D01*
X161121155Y-103227704D01*
X161125939Y-103242042D01*
X161174950Y-103388946D01*
X161268022Y-103539348D01*
X161393197Y-103664305D01*
X161399427Y-103668145D01*
X161399428Y-103668146D01*
X161536590Y-103752694D01*
X161543762Y-103757115D01*
X161568575Y-103765345D01*
X161705111Y-103810632D01*
X161705113Y-103810632D01*
X161711639Y-103812797D01*
X161718475Y-103813497D01*
X161718478Y-103813498D01*
X161761531Y-103817909D01*
X161816100Y-103823500D01*
X162541900Y-103823500D01*
X162545146Y-103823163D01*
X162545150Y-103823163D01*
X162640808Y-103813238D01*
X162640812Y-103813237D01*
X162647666Y-103812526D01*
X162654202Y-103810345D01*
X162654204Y-103810345D01*
X162804889Y-103760072D01*
X162815446Y-103756550D01*
X162965848Y-103663478D01*
X163090805Y-103538303D01*
X163111016Y-103505515D01*
X163179775Y-103393968D01*
X163179776Y-103393966D01*
X163183615Y-103387738D01*
X163239297Y-103219861D01*
X163240627Y-103206887D01*
X163245602Y-103158324D01*
X163250000Y-103115400D01*
X163250000Y-101764600D01*
X163249663Y-101761350D01*
X163239738Y-101665692D01*
X163239737Y-101665688D01*
X163239026Y-101658834D01*
X163233439Y-101642086D01*
X163185368Y-101498002D01*
X163183050Y-101491054D01*
X163089978Y-101340652D01*
X162964803Y-101215695D01*
X162925588Y-101191522D01*
X162874383Y-101159958D01*
X162826890Y-101107186D01*
X162814500Y-101052699D01*
X162814500Y-100409020D01*
X162815030Y-100397786D01*
X162816708Y-100390281D01*
X162814562Y-100321988D01*
X162814500Y-100318031D01*
X162814500Y-100290017D01*
X162813992Y-100285996D01*
X162813058Y-100274144D01*
X162811914Y-100237718D01*
X162811914Y-100237717D01*
X162811665Y-100229795D01*
X162805987Y-100210251D01*
X162801977Y-100190888D01*
X162800420Y-100178560D01*
X162800420Y-100178558D01*
X162799427Y-100170701D01*
X162796511Y-100163337D01*
X162796510Y-100163332D01*
X162783093Y-100129444D01*
X162779248Y-100118215D01*
X162769080Y-100083219D01*
X162766869Y-100075607D01*
X162756510Y-100058091D01*
X162747813Y-100040341D01*
X162740319Y-100021412D01*
X162714240Y-99985517D01*
X162707722Y-99975595D01*
X162689170Y-99944224D01*
X162689166Y-99944219D01*
X162685134Y-99937401D01*
X162670747Y-99923014D01*
X162657906Y-99907980D01*
X162650602Y-99897927D01*
X162645942Y-99891513D01*
X162611750Y-99863227D01*
X162602971Y-99855238D01*
X161531250Y-98783517D01*
X161523674Y-98775191D01*
X161519553Y-98768697D01*
X161469734Y-98721914D01*
X161466893Y-98719160D01*
X161447094Y-98699361D01*
X161443969Y-98696937D01*
X161443960Y-98696929D01*
X161443874Y-98696863D01*
X161434849Y-98689155D01*
X161430923Y-98685468D01*
X161402506Y-98658783D01*
X161384669Y-98648977D01*
X161368153Y-98638127D01*
X161352067Y-98625650D01*
X161311334Y-98608024D01*
X161300685Y-98602806D01*
X161275797Y-98589123D01*
X161225739Y-98538777D01*
X161210500Y-98478710D01*
X161210500Y-98328866D01*
X161203745Y-98266684D01*
X161152615Y-98130295D01*
X161065261Y-98013739D01*
X160948705Y-97926385D01*
X160812316Y-97875255D01*
X160801526Y-97874083D01*
X160799394Y-97873197D01*
X160796778Y-97872575D01*
X160796879Y-97872152D01*
X160735965Y-97846845D01*
X160695537Y-97788483D01*
X160693078Y-97717529D01*
X160729371Y-97656510D01*
X160738031Y-97649511D01*
X160741793Y-97646354D01*
X160746300Y-97643198D01*
X160908198Y-97481300D01*
X161039523Y-97293749D01*
X161041846Y-97288767D01*
X161041849Y-97288762D01*
X161133961Y-97091225D01*
X161133961Y-97091224D01*
X161136284Y-97086243D01*
X161160703Y-96995113D01*
X161194119Y-96870402D01*
X161194119Y-96870400D01*
X161195543Y-96865087D01*
X161215498Y-96637000D01*
X161195543Y-96408913D01*
X161136284Y-96187757D01*
X161065097Y-96035094D01*
X161041849Y-95985238D01*
X161041846Y-95985233D01*
X161039523Y-95980251D01*
X160908198Y-95792700D01*
X160746300Y-95630802D01*
X160741792Y-95627645D01*
X160741789Y-95627643D01*
X160658862Y-95569577D01*
X160558749Y-95499477D01*
X160553767Y-95497154D01*
X160553762Y-95497151D01*
X160519543Y-95481195D01*
X160466258Y-95434278D01*
X160446797Y-95366001D01*
X160467339Y-95298041D01*
X160519543Y-95252805D01*
X160553762Y-95236849D01*
X160553767Y-95236846D01*
X160558749Y-95234523D01*
X160684990Y-95146128D01*
X160741789Y-95106357D01*
X160741792Y-95106355D01*
X160746300Y-95103198D01*
X160908198Y-94941300D01*
X160925739Y-94916250D01*
X161021481Y-94779515D01*
X161039523Y-94753749D01*
X161041846Y-94748767D01*
X161041849Y-94748762D01*
X161133961Y-94551225D01*
X161133961Y-94551224D01*
X161136284Y-94546243D01*
X161195543Y-94325087D01*
X161215498Y-94097000D01*
X161195543Y-93868913D01*
X161174050Y-93788699D01*
X161137707Y-93653067D01*
X161137706Y-93653065D01*
X161136284Y-93647757D01*
X161112372Y-93596477D01*
X161041849Y-93445238D01*
X161041846Y-93445233D01*
X161039523Y-93440251D01*
X160926909Y-93279422D01*
X160911357Y-93257211D01*
X160911355Y-93257208D01*
X160908198Y-93252700D01*
X160746300Y-93090802D01*
X160741792Y-93087645D01*
X160741789Y-93087643D01*
X160660290Y-93030577D01*
X160558749Y-92959477D01*
X160553767Y-92957154D01*
X160553762Y-92957151D01*
X160518951Y-92940919D01*
X160465666Y-92894002D01*
X160446205Y-92825725D01*
X160466747Y-92757765D01*
X160518951Y-92712529D01*
X160553511Y-92696414D01*
X160563007Y-92690931D01*
X160741467Y-92565972D01*
X160749875Y-92558916D01*
X160903916Y-92404875D01*
X160910972Y-92396467D01*
X161035931Y-92218007D01*
X161041414Y-92208511D01*
X161133490Y-92011053D01*
X161137236Y-92000761D01*
X161183394Y-91828497D01*
X161183058Y-91814401D01*
X161175116Y-91811000D01*
X157834033Y-91811000D01*
X157820502Y-91814973D01*
X157819273Y-91823522D01*
X157866764Y-92000761D01*
X157870510Y-92011053D01*
X157962586Y-92208511D01*
X157968069Y-92218007D01*
X158093028Y-92396467D01*
X158100084Y-92404875D01*
X158254125Y-92558916D01*
X158262533Y-92565972D01*
X158440993Y-92690931D01*
X158450489Y-92696414D01*
X158485049Y-92712529D01*
X158538334Y-92759446D01*
X158557795Y-92827723D01*
X158537253Y-92895683D01*
X158485049Y-92940919D01*
X158450238Y-92957151D01*
X158450233Y-92957154D01*
X158445251Y-92959477D01*
X158343710Y-93030577D01*
X158262211Y-93087643D01*
X158262208Y-93087645D01*
X158257700Y-93090802D01*
X158095802Y-93252700D01*
X158092645Y-93257208D01*
X158092643Y-93257211D01*
X158077091Y-93279422D01*
X157964477Y-93440251D01*
X157962154Y-93445233D01*
X157962151Y-93445238D01*
X157891628Y-93596477D01*
X157867716Y-93647757D01*
X157866294Y-93653065D01*
X157866293Y-93653067D01*
X157829950Y-93788699D01*
X157808457Y-93868913D01*
X157788502Y-94097000D01*
X157808457Y-94325087D01*
X157867716Y-94546243D01*
X157870039Y-94551224D01*
X157870039Y-94551225D01*
X157962151Y-94748762D01*
X157962154Y-94748767D01*
X157964477Y-94753749D01*
X157982519Y-94779515D01*
X158078262Y-94916250D01*
X158095802Y-94941300D01*
X158257700Y-95103198D01*
X158262208Y-95106355D01*
X158262211Y-95106357D01*
X158319010Y-95146128D01*
X158445251Y-95234523D01*
X158450233Y-95236846D01*
X158450238Y-95236849D01*
X158484457Y-95252805D01*
X158537742Y-95299722D01*
X158557203Y-95367999D01*
X158536661Y-95435959D01*
X158484457Y-95481195D01*
X158450238Y-95497151D01*
X158450233Y-95497154D01*
X158445251Y-95499477D01*
X158345138Y-95569577D01*
X158262211Y-95627643D01*
X158262208Y-95627645D01*
X158257700Y-95630802D01*
X158095802Y-95792700D01*
X157964477Y-95980251D01*
X157962154Y-95985233D01*
X157962151Y-95985238D01*
X157938903Y-96035094D01*
X157867716Y-96187757D01*
X157808457Y-96408913D01*
X157788502Y-96637000D01*
X157808457Y-96865087D01*
X157809881Y-96870400D01*
X157809881Y-96870402D01*
X157843298Y-96995113D01*
X157867716Y-97086243D01*
X157870039Y-97091224D01*
X157870039Y-97091225D01*
X157962151Y-97288762D01*
X157962154Y-97288767D01*
X157964477Y-97293749D01*
X158095802Y-97481300D01*
X158257700Y-97643198D01*
X158262211Y-97646357D01*
X158266424Y-97649892D01*
X158265473Y-97651026D01*
X158305471Y-97701071D01*
X158312776Y-97771690D01*
X158280742Y-97835049D01*
X158219538Y-97871030D01*
X158202483Y-97874082D01*
X158191684Y-97875255D01*
X158055295Y-97926385D01*
X157938739Y-98013739D01*
X157851385Y-98130295D01*
X157800255Y-98266684D01*
X157793500Y-98328866D01*
X157793500Y-99822500D01*
X157773498Y-99890621D01*
X157719842Y-99937114D01*
X157667500Y-99948500D01*
X155115269Y-99948500D01*
X155047148Y-99928498D01*
X155000655Y-99874842D01*
X154989500Y-99829886D01*
X154989500Y-99826475D01*
X154986190Y-99798084D01*
X154985757Y-99793709D01*
X154980403Y-99727872D01*
X154980402Y-99727869D01*
X154979809Y-99720573D01*
X154977553Y-99713609D01*
X154976355Y-99707614D01*
X154974949Y-99701664D01*
X154974101Y-99694393D01*
X154949057Y-99625398D01*
X154947634Y-99621252D01*
X154927269Y-99558388D01*
X154927268Y-99558386D01*
X154925013Y-99551425D01*
X154921217Y-99545170D01*
X154918682Y-99539633D01*
X154915932Y-99534142D01*
X154913434Y-99527259D01*
X154873185Y-99465868D01*
X154870870Y-99462200D01*
X154832773Y-99399419D01*
X154829057Y-99395212D01*
X154829054Y-99395208D01*
X154825332Y-99390995D01*
X154825362Y-99390969D01*
X154822764Y-99388041D01*
X154819960Y-99384687D01*
X154815946Y-99378565D01*
X154759415Y-99325013D01*
X154756972Y-99322635D01*
X154119806Y-98685468D01*
X154107420Y-98671055D01*
X154098795Y-98659335D01*
X154094454Y-98653436D01*
X154053945Y-98619021D01*
X154046429Y-98612091D01*
X154040685Y-98606347D01*
X154037811Y-98604073D01*
X154037804Y-98604067D01*
X154018289Y-98588628D01*
X154014885Y-98585837D01*
X153964528Y-98543055D01*
X153964524Y-98543052D01*
X153958949Y-98538316D01*
X153952432Y-98534988D01*
X153947368Y-98531611D01*
X153942144Y-98528384D01*
X153936400Y-98523840D01*
X153910109Y-98511552D01*
X153869918Y-98492768D01*
X153865967Y-98490837D01*
X153807117Y-98460787D01*
X153800596Y-98457457D01*
X153793481Y-98455716D01*
X153787735Y-98453579D01*
X153781952Y-98451655D01*
X153775321Y-98448556D01*
X153703443Y-98433606D01*
X153699171Y-98432639D01*
X153627888Y-98415196D01*
X153622289Y-98414849D01*
X153622285Y-98414848D01*
X153616670Y-98414500D01*
X153616672Y-98414461D01*
X153612771Y-98414228D01*
X153608412Y-98413839D01*
X153601244Y-98412348D01*
X153593927Y-98412546D01*
X153523423Y-98414454D01*
X153520014Y-98414500D01*
X153411067Y-98414500D01*
X153342946Y-98394498D01*
X153307855Y-98360772D01*
X153291359Y-98337214D01*
X153291357Y-98337212D01*
X153288198Y-98332700D01*
X153126300Y-98170802D01*
X153121792Y-98167645D01*
X153121789Y-98167643D01*
X153004012Y-98085175D01*
X152938749Y-98039477D01*
X152933767Y-98037154D01*
X152933762Y-98037151D01*
X152899543Y-98021195D01*
X152846258Y-97974278D01*
X152826797Y-97906001D01*
X152847339Y-97838041D01*
X152899543Y-97792805D01*
X152933762Y-97776849D01*
X152933767Y-97776846D01*
X152938749Y-97774523D01*
X153043649Y-97701071D01*
X153121789Y-97646357D01*
X153121792Y-97646355D01*
X153126300Y-97643198D01*
X153288198Y-97481300D01*
X153419523Y-97293749D01*
X153421846Y-97288767D01*
X153421849Y-97288762D01*
X153513961Y-97091225D01*
X153513961Y-97091224D01*
X153516284Y-97086243D01*
X153540703Y-96995113D01*
X153574119Y-96870402D01*
X153574119Y-96870400D01*
X153575543Y-96865087D01*
X153595498Y-96637000D01*
X153575543Y-96408913D01*
X153516284Y-96187757D01*
X153445097Y-96035094D01*
X153421849Y-95985238D01*
X153421846Y-95985233D01*
X153419523Y-95980251D01*
X153288198Y-95792700D01*
X153126300Y-95630802D01*
X153121792Y-95627645D01*
X153121789Y-95627643D01*
X153038862Y-95569577D01*
X152938749Y-95499477D01*
X152933767Y-95497154D01*
X152933762Y-95497151D01*
X152899543Y-95481195D01*
X152846258Y-95434278D01*
X152826797Y-95366001D01*
X152847339Y-95298041D01*
X152899543Y-95252805D01*
X152933762Y-95236849D01*
X152933767Y-95236846D01*
X152938749Y-95234523D01*
X153064990Y-95146128D01*
X153121789Y-95106357D01*
X153121792Y-95106355D01*
X153126300Y-95103198D01*
X153288198Y-94941300D01*
X153305739Y-94916250D01*
X153401481Y-94779515D01*
X153419523Y-94753749D01*
X153421846Y-94748767D01*
X153421849Y-94748762D01*
X153513961Y-94551225D01*
X153513961Y-94551224D01*
X153516284Y-94546243D01*
X153575543Y-94325087D01*
X153595498Y-94097000D01*
X153575543Y-93868913D01*
X153554050Y-93788699D01*
X153517707Y-93653067D01*
X153517706Y-93653065D01*
X153516284Y-93647757D01*
X153492372Y-93596477D01*
X153421849Y-93445238D01*
X153421846Y-93445233D01*
X153419523Y-93440251D01*
X153306909Y-93279422D01*
X153291357Y-93257211D01*
X153291355Y-93257208D01*
X153288198Y-93252700D01*
X153126300Y-93090802D01*
X153121792Y-93087645D01*
X153121789Y-93087643D01*
X153040290Y-93030577D01*
X152938749Y-92959477D01*
X152933767Y-92957154D01*
X152933762Y-92957151D01*
X152899543Y-92941195D01*
X152846258Y-92894278D01*
X152826797Y-92826001D01*
X152847339Y-92758041D01*
X152899543Y-92712805D01*
X152933762Y-92696849D01*
X152933767Y-92696846D01*
X152938749Y-92694523D01*
X153043611Y-92621098D01*
X153121789Y-92566357D01*
X153121792Y-92566355D01*
X153126300Y-92563198D01*
X153288198Y-92401300D01*
X153419523Y-92213749D01*
X153421846Y-92208767D01*
X153421849Y-92208762D01*
X153513961Y-92011225D01*
X153513961Y-92011224D01*
X153516284Y-92006243D01*
X153575543Y-91785087D01*
X153595498Y-91557000D01*
X153575543Y-91328913D01*
X153565244Y-91290478D01*
X153563911Y-91285503D01*
X157820606Y-91285503D01*
X157820942Y-91299599D01*
X157828884Y-91303000D01*
X159229885Y-91303000D01*
X159245124Y-91298525D01*
X159246329Y-91297135D01*
X159248000Y-91289452D01*
X159248000Y-91284885D01*
X159756000Y-91284885D01*
X159760475Y-91300124D01*
X159761865Y-91301329D01*
X159769548Y-91303000D01*
X161169967Y-91303000D01*
X161183498Y-91299027D01*
X161184727Y-91290478D01*
X161137236Y-91113239D01*
X161133490Y-91102947D01*
X161041414Y-90905489D01*
X161035931Y-90895993D01*
X160910972Y-90717533D01*
X160903916Y-90709125D01*
X160749875Y-90555084D01*
X160741467Y-90548028D01*
X160563007Y-90423069D01*
X160553511Y-90417586D01*
X160356053Y-90325510D01*
X160345761Y-90321764D01*
X160135312Y-90265375D01*
X160124519Y-90263472D01*
X159961830Y-90249238D01*
X159956365Y-90249000D01*
X159774115Y-90249000D01*
X159758876Y-90253475D01*
X159757671Y-90254865D01*
X159756000Y-90262548D01*
X159756000Y-91284885D01*
X159248000Y-91284885D01*
X159248000Y-90267115D01*
X159243525Y-90251876D01*
X159242135Y-90250671D01*
X159234452Y-90249000D01*
X159047635Y-90249000D01*
X159042170Y-90249238D01*
X158879481Y-90263472D01*
X158868688Y-90265375D01*
X158658239Y-90321764D01*
X158647947Y-90325510D01*
X158450489Y-90417586D01*
X158440993Y-90423069D01*
X158262533Y-90548028D01*
X158254125Y-90555084D01*
X158100084Y-90709125D01*
X158093028Y-90717533D01*
X157968069Y-90895993D01*
X157962586Y-90905489D01*
X157870510Y-91102947D01*
X157866764Y-91113239D01*
X157820606Y-91285503D01*
X153563911Y-91285503D01*
X153517707Y-91113067D01*
X153517706Y-91113065D01*
X153516284Y-91107757D01*
X153510879Y-91096166D01*
X153421849Y-90905238D01*
X153421846Y-90905233D01*
X153419523Y-90900251D01*
X153319767Y-90757785D01*
X153291357Y-90717211D01*
X153291355Y-90717208D01*
X153288198Y-90712700D01*
X153126300Y-90550802D01*
X153121792Y-90547645D01*
X153121789Y-90547643D01*
X153043611Y-90492902D01*
X152938749Y-90419477D01*
X152933767Y-90417154D01*
X152933762Y-90417151D01*
X152736225Y-90325039D01*
X152736224Y-90325039D01*
X152731243Y-90322716D01*
X152725935Y-90321294D01*
X152725933Y-90321293D01*
X152515402Y-90264881D01*
X152515400Y-90264881D01*
X152510087Y-90263457D01*
X152410520Y-90254746D01*
X152341851Y-90248738D01*
X152341844Y-90248738D01*
X152339127Y-90248500D01*
X151424873Y-90248500D01*
X151422156Y-90248738D01*
X151422149Y-90248738D01*
X151353480Y-90254746D01*
X151253913Y-90263457D01*
X151248600Y-90264881D01*
X151248598Y-90264881D01*
X151038067Y-90321293D01*
X151038065Y-90321294D01*
X151032757Y-90322716D01*
X151027776Y-90325039D01*
X151027775Y-90325039D01*
X150830238Y-90417151D01*
X150830233Y-90417154D01*
X150825251Y-90419477D01*
X150720389Y-90492902D01*
X150642211Y-90547643D01*
X150642208Y-90547645D01*
X150637700Y-90550802D01*
X150475802Y-90712700D01*
X150472644Y-90717210D01*
X150472639Y-90717216D01*
X150367782Y-90866968D01*
X150312325Y-90911297D01*
X150268527Y-90920636D01*
X150245163Y-90921370D01*
X150243001Y-90921438D01*
X150239044Y-90921500D01*
X150211017Y-90921500D01*
X150206971Y-90922011D01*
X150195143Y-90922942D01*
X150150795Y-90924336D01*
X150143178Y-90926549D01*
X150131253Y-90930013D01*
X150111894Y-90934022D01*
X150110633Y-90934181D01*
X150091701Y-90936573D01*
X150084337Y-90939489D01*
X150084332Y-90939490D01*
X150062421Y-90948166D01*
X150050428Y-90952914D01*
X150039224Y-90956751D01*
X149996607Y-90969132D01*
X149987630Y-90974441D01*
X149979094Y-90979489D01*
X149961343Y-90988185D01*
X149949785Y-90992761D01*
X149949780Y-90992764D01*
X149942412Y-90995681D01*
X149935997Y-91000342D01*
X149906507Y-91021767D01*
X149896585Y-91028284D01*
X149865228Y-91046828D01*
X149865225Y-91046830D01*
X149858401Y-91050866D01*
X149844014Y-91065253D01*
X149828980Y-91078094D01*
X149812513Y-91090058D01*
X149807460Y-91096166D01*
X149784228Y-91124249D01*
X149776238Y-91133029D01*
X149186595Y-91722672D01*
X149124283Y-91756698D01*
X149053468Y-91751633D01*
X148996632Y-91709086D01*
X148971821Y-91642566D01*
X148971500Y-91633577D01*
X148971500Y-82103422D01*
X148991502Y-82035301D01*
X149008405Y-82014327D01*
X150721328Y-80301405D01*
X150783640Y-80267379D01*
X150810423Y-80264500D01*
X152745959Y-80264500D01*
X152814952Y-80285068D01*
X152886324Y-80331772D01*
X152922159Y-80355222D01*
X152928763Y-80357678D01*
X152928765Y-80357679D01*
X153085558Y-80415990D01*
X153085560Y-80415990D01*
X153092168Y-80418448D01*
X153175995Y-80429633D01*
X153264980Y-80441507D01*
X153264984Y-80441507D01*
X153271961Y-80442438D01*
X153278972Y-80441800D01*
X153278976Y-80441800D01*
X153421459Y-80428832D01*
X153452600Y-80425998D01*
X153459302Y-80423820D01*
X153459304Y-80423820D01*
X153618409Y-80372124D01*
X153618412Y-80372123D01*
X153625108Y-80369947D01*
X153740088Y-80301405D01*
X153774860Y-80280677D01*
X153774862Y-80280676D01*
X153780912Y-80277069D01*
X153912266Y-80151982D01*
X153921655Y-80137850D01*
X153976011Y-80092180D01*
X154046431Y-80083147D01*
X154115620Y-80118404D01*
X154210512Y-80213130D01*
X154210517Y-80213134D01*
X154215697Y-80218305D01*
X154221927Y-80222145D01*
X154221928Y-80222146D01*
X154359090Y-80306694D01*
X154366262Y-80311115D01*
X154428541Y-80331772D01*
X154527611Y-80364632D01*
X154527613Y-80364632D01*
X154534139Y-80366797D01*
X154540975Y-80367497D01*
X154540978Y-80367498D01*
X154584031Y-80371909D01*
X154638600Y-80377500D01*
X155364400Y-80377500D01*
X155367646Y-80377163D01*
X155367650Y-80377163D01*
X155463308Y-80367238D01*
X155463312Y-80367237D01*
X155470166Y-80366526D01*
X155476702Y-80364345D01*
X155476704Y-80364345D01*
X155608806Y-80320272D01*
X155637946Y-80310550D01*
X155788348Y-80217478D01*
X155821884Y-80183884D01*
X155908134Y-80097483D01*
X155913305Y-80092303D01*
X155940829Y-80047651D01*
X156002275Y-79947968D01*
X156002276Y-79947966D01*
X156006115Y-79941738D01*
X156061797Y-79773861D01*
X156072500Y-79669400D01*
X156855500Y-79669400D01*
X156866474Y-79775166D01*
X156922450Y-79942946D01*
X157015522Y-80093348D01*
X157140697Y-80218305D01*
X157146927Y-80222145D01*
X157146928Y-80222146D01*
X157284090Y-80306694D01*
X157291262Y-80311115D01*
X157353541Y-80331772D01*
X157452611Y-80364632D01*
X157452613Y-80364632D01*
X157459139Y-80366797D01*
X157465975Y-80367497D01*
X157465978Y-80367498D01*
X157509031Y-80371909D01*
X157563600Y-80377500D01*
X158289400Y-80377500D01*
X158292646Y-80377163D01*
X158292650Y-80377163D01*
X158388308Y-80367238D01*
X158388312Y-80367237D01*
X158395166Y-80366526D01*
X158401702Y-80364345D01*
X158401704Y-80364345D01*
X158533806Y-80320272D01*
X158562946Y-80310550D01*
X158713348Y-80217478D01*
X158746884Y-80183884D01*
X158833134Y-80097483D01*
X158838305Y-80092303D01*
X158860565Y-80056191D01*
X158913336Y-80008697D01*
X158983408Y-79997273D01*
X159048532Y-80025547D01*
X159056843Y-80033133D01*
X159068347Y-80044617D01*
X159074577Y-80048457D01*
X159074578Y-80048458D01*
X159107986Y-80069051D01*
X159217671Y-80136661D01*
X159224619Y-80138966D01*
X159224620Y-80138966D01*
X159377634Y-80189719D01*
X159377636Y-80189719D01*
X159384165Y-80191885D01*
X159487769Y-80202500D01*
X159779234Y-80202500D01*
X160075230Y-80202499D01*
X160180129Y-80191616D01*
X160186660Y-80189437D01*
X160186665Y-80189436D01*
X160339578Y-80138420D01*
X160346526Y-80136102D01*
X160495689Y-80043797D01*
X160619617Y-79919653D01*
X160621614Y-79916413D01*
X160678352Y-79876186D01*
X160749275Y-79872953D01*
X160810687Y-79908578D01*
X160818066Y-79917078D01*
X160824782Y-79925552D01*
X160938479Y-80039051D01*
X160949890Y-80048063D01*
X161086654Y-80132365D01*
X161099832Y-80138509D01*
X161252740Y-80189227D01*
X161266106Y-80192093D01*
X161359601Y-80201672D01*
X161366016Y-80202000D01*
X161384385Y-80202000D01*
X161399624Y-80197525D01*
X161400829Y-80196135D01*
X161402500Y-80188452D01*
X161402500Y-80183884D01*
X161910500Y-80183884D01*
X161914975Y-80199123D01*
X161916365Y-80200328D01*
X161924048Y-80201999D01*
X161946933Y-80201999D01*
X161953452Y-80201662D01*
X162048170Y-80191834D01*
X162061564Y-80188942D01*
X162214365Y-80137964D01*
X162227543Y-80131790D01*
X162364149Y-80047256D01*
X162375550Y-80038220D01*
X162489051Y-79924521D01*
X162498063Y-79913110D01*
X162582365Y-79776346D01*
X162588509Y-79763168D01*
X162639227Y-79610260D01*
X162642093Y-79596894D01*
X162651672Y-79503399D01*
X162652000Y-79496984D01*
X162652000Y-79266115D01*
X162647525Y-79250876D01*
X162646135Y-79249671D01*
X162638452Y-79248000D01*
X161928615Y-79248000D01*
X161913376Y-79252475D01*
X161912171Y-79253865D01*
X161910500Y-79261548D01*
X161910500Y-80183884D01*
X161402500Y-80183884D01*
X161402500Y-78721885D01*
X161910500Y-78721885D01*
X161914975Y-78737124D01*
X161916365Y-78738329D01*
X161924048Y-78740000D01*
X162633884Y-78740000D01*
X162649123Y-78735525D01*
X162650328Y-78734135D01*
X162651999Y-78726452D01*
X162651999Y-78491067D01*
X162651662Y-78484548D01*
X162641834Y-78389830D01*
X162638942Y-78376436D01*
X162587964Y-78223635D01*
X162581790Y-78210457D01*
X162497256Y-78073851D01*
X162488220Y-78062450D01*
X162374521Y-77948949D01*
X162363110Y-77939937D01*
X162226346Y-77855635D01*
X162213168Y-77849491D01*
X162060260Y-77798773D01*
X162046894Y-77795907D01*
X161953399Y-77786328D01*
X161946984Y-77786000D01*
X161928615Y-77786000D01*
X161913376Y-77790475D01*
X161912171Y-77791865D01*
X161910500Y-77799548D01*
X161910500Y-78721885D01*
X161402500Y-78721885D01*
X161402500Y-77804116D01*
X161398025Y-77788877D01*
X161396635Y-77787672D01*
X161388952Y-77786001D01*
X161366067Y-77786001D01*
X161359548Y-77786338D01*
X161264830Y-77796166D01*
X161251436Y-77799058D01*
X161098635Y-77850036D01*
X161085457Y-77856210D01*
X160948851Y-77940744D01*
X160937450Y-77949780D01*
X160823949Y-78063479D01*
X160818206Y-78070751D01*
X160760289Y-78111814D01*
X160689366Y-78115046D01*
X160627954Y-78079421D01*
X160622160Y-78072746D01*
X160618797Y-78067311D01*
X160494653Y-77943383D01*
X160475877Y-77931809D01*
X160415596Y-77894652D01*
X160345329Y-77851339D01*
X160291028Y-77833328D01*
X160185366Y-77798281D01*
X160185364Y-77798281D01*
X160178835Y-77796115D01*
X160075231Y-77785500D01*
X159783766Y-77785500D01*
X159487770Y-77785501D01*
X159382871Y-77796384D01*
X159376340Y-77798563D01*
X159376335Y-77798564D01*
X159255437Y-77838899D01*
X159216474Y-77851898D01*
X159067311Y-77944203D01*
X159062140Y-77949383D01*
X159062135Y-77949387D01*
X159056876Y-77954656D01*
X158994595Y-77988738D01*
X158923775Y-77983738D01*
X158866901Y-77941243D01*
X158860556Y-77931946D01*
X158837478Y-77894652D01*
X158712303Y-77769695D01*
X158703452Y-77764239D01*
X158567968Y-77680725D01*
X158567966Y-77680724D01*
X158561738Y-77676885D01*
X158401254Y-77623655D01*
X158400389Y-77623368D01*
X158400387Y-77623368D01*
X158393861Y-77621203D01*
X158387025Y-77620503D01*
X158387022Y-77620502D01*
X158343969Y-77616091D01*
X158289400Y-77610500D01*
X157563600Y-77610500D01*
X157560354Y-77610837D01*
X157560350Y-77610837D01*
X157464692Y-77620762D01*
X157464688Y-77620763D01*
X157457834Y-77621474D01*
X157451298Y-77623655D01*
X157451296Y-77623655D01*
X157319194Y-77667728D01*
X157290054Y-77677450D01*
X157139652Y-77770522D01*
X157134479Y-77775704D01*
X157093371Y-77816884D01*
X157014695Y-77895697D01*
X157010855Y-77901927D01*
X157010854Y-77901928D01*
X156960426Y-77983738D01*
X156921885Y-78046262D01*
X156866203Y-78214139D01*
X156855500Y-78318600D01*
X156855500Y-79669400D01*
X156072500Y-79669400D01*
X156072500Y-78318600D01*
X156062647Y-78223635D01*
X156062238Y-78219692D01*
X156062237Y-78219688D01*
X156061526Y-78212834D01*
X156005550Y-78045054D01*
X155912478Y-77894652D01*
X155787303Y-77769695D01*
X155778452Y-77764239D01*
X155642968Y-77680725D01*
X155642966Y-77680724D01*
X155636738Y-77676885D01*
X155476254Y-77623655D01*
X155475389Y-77623368D01*
X155475387Y-77623368D01*
X155468861Y-77621203D01*
X155462025Y-77620503D01*
X155462022Y-77620502D01*
X155418969Y-77616091D01*
X155364400Y-77610500D01*
X154638600Y-77610500D01*
X154635354Y-77610837D01*
X154635350Y-77610837D01*
X154539692Y-77620762D01*
X154539688Y-77620763D01*
X154532834Y-77621474D01*
X154526298Y-77623655D01*
X154526296Y-77623655D01*
X154394194Y-77667728D01*
X154365054Y-77677450D01*
X154214652Y-77770522D01*
X154209479Y-77775704D01*
X154168371Y-77816884D01*
X154089695Y-77895697D01*
X154085855Y-77901927D01*
X154085854Y-77901928D01*
X154035426Y-77983738D01*
X153996885Y-78046262D01*
X153941203Y-78214139D01*
X153940502Y-78220977D01*
X153940502Y-78220979D01*
X153938006Y-78245342D01*
X153911165Y-78311069D01*
X153853050Y-78351852D01*
X153812662Y-78358500D01*
X150574032Y-78358500D01*
X150562793Y-78357970D01*
X150555281Y-78356291D01*
X150547356Y-78356540D01*
X150547355Y-78356540D01*
X150486970Y-78358438D01*
X150483012Y-78358500D01*
X150455017Y-78358500D01*
X150451083Y-78358997D01*
X150451081Y-78358997D01*
X150450994Y-78359008D01*
X150439160Y-78359940D01*
X150394795Y-78361335D01*
X150387182Y-78363547D01*
X150387181Y-78363547D01*
X150375252Y-78367013D01*
X150355888Y-78371023D01*
X150343560Y-78372580D01*
X150343558Y-78372580D01*
X150335701Y-78373573D01*
X150328337Y-78376489D01*
X150328332Y-78376490D01*
X150294444Y-78389907D01*
X150283215Y-78393752D01*
X150269241Y-78397812D01*
X150240607Y-78406131D01*
X150233781Y-78410168D01*
X150223091Y-78416490D01*
X150205341Y-78425187D01*
X150186412Y-78432681D01*
X150179998Y-78437341D01*
X150150514Y-78458762D01*
X150140594Y-78465278D01*
X150109229Y-78483827D01*
X150109226Y-78483829D01*
X150102402Y-78487865D01*
X150088014Y-78502253D01*
X150072980Y-78515094D01*
X150056513Y-78527058D01*
X150051460Y-78533166D01*
X150028228Y-78561249D01*
X150020238Y-78570029D01*
X147434517Y-81155750D01*
X147426191Y-81163326D01*
X147419697Y-81167447D01*
X147378576Y-81211237D01*
X147372915Y-81217265D01*
X147370160Y-81220107D01*
X147350361Y-81239906D01*
X147347937Y-81243031D01*
X147347929Y-81243040D01*
X147347863Y-81243126D01*
X147340155Y-81252151D01*
X147309783Y-81284494D01*
X147305965Y-81291438D01*
X147305964Y-81291440D01*
X147299978Y-81302329D01*
X147289127Y-81318847D01*
X147276650Y-81334933D01*
X147259024Y-81375666D01*
X147253807Y-81386314D01*
X147232431Y-81425197D01*
X147230460Y-81432872D01*
X147230458Y-81432878D01*
X147227369Y-81444911D01*
X147220966Y-81463613D01*
X147212883Y-81482292D01*
X147209212Y-81505468D01*
X147205940Y-81526127D01*
X147203535Y-81537740D01*
X147192500Y-81580718D01*
X147192500Y-81601065D01*
X147190949Y-81620776D01*
X147187765Y-81640879D01*
X147188511Y-81648771D01*
X147191941Y-81685056D01*
X147192500Y-81696914D01*
X147192500Y-100546603D01*
X147172498Y-100614724D01*
X147118842Y-100661217D01*
X147079672Y-100671912D01*
X147018288Y-100678364D01*
X146846579Y-100736818D01*
X146840575Y-100740512D01*
X146713292Y-100818817D01*
X146647270Y-100837500D01*
X146365422Y-100837500D01*
X146297301Y-100817498D01*
X146276327Y-100800595D01*
X144690405Y-99214672D01*
X144656379Y-99152360D01*
X144653500Y-99125577D01*
X144653500Y-91138032D01*
X144654030Y-91126793D01*
X144655709Y-91119281D01*
X144653562Y-91050969D01*
X144653500Y-91047012D01*
X144653500Y-91019017D01*
X144652992Y-91014994D01*
X144652059Y-91003152D01*
X144651825Y-90995681D01*
X144650665Y-90958795D01*
X144644987Y-90939251D01*
X144640977Y-90919888D01*
X144639420Y-90907560D01*
X144639420Y-90907558D01*
X144638427Y-90899701D01*
X144635511Y-90892337D01*
X144635510Y-90892332D01*
X144622093Y-90858444D01*
X144618248Y-90847215D01*
X144608081Y-90812222D01*
X144605869Y-90804607D01*
X144601830Y-90797777D01*
X144595512Y-90787094D01*
X144586812Y-90769336D01*
X144582239Y-90757785D01*
X144582235Y-90757779D01*
X144579319Y-90750412D01*
X144553234Y-90714509D01*
X144546719Y-90704590D01*
X144528174Y-90673232D01*
X144528171Y-90673228D01*
X144524134Y-90666402D01*
X144509750Y-90652018D01*
X144496909Y-90636984D01*
X144489602Y-90626927D01*
X144484942Y-90620513D01*
X144450744Y-90592222D01*
X144441965Y-90584233D01*
X142985342Y-89127609D01*
X142951316Y-89065297D01*
X142956381Y-88994481D01*
X142967172Y-88972408D01*
X143055115Y-88829738D01*
X143110797Y-88661861D01*
X143121500Y-88557400D01*
X143121500Y-86956600D01*
X143120484Y-86946810D01*
X143111238Y-86857692D01*
X143111237Y-86857688D01*
X143110526Y-86850834D01*
X143107541Y-86841885D01*
X143056868Y-86690002D01*
X143054550Y-86683054D01*
X142961478Y-86532652D01*
X142836303Y-86407695D01*
X142685738Y-86314885D01*
X142605995Y-86288436D01*
X142524389Y-86261368D01*
X142524387Y-86261368D01*
X142517861Y-86259203D01*
X142511025Y-86258503D01*
X142511022Y-86258502D01*
X142467969Y-86254091D01*
X142413400Y-86248500D01*
X141884500Y-86248500D01*
X141816379Y-86228498D01*
X141769886Y-86174842D01*
X141758500Y-86122500D01*
X141758500Y-85573513D01*
X141778502Y-85505392D01*
X141832158Y-85458899D01*
X141849001Y-85452617D01*
X141856124Y-85450525D01*
X141857329Y-85449135D01*
X141859000Y-85441452D01*
X141859000Y-85436884D01*
X142367000Y-85436884D01*
X142371475Y-85452123D01*
X142372865Y-85453328D01*
X142380548Y-85454999D01*
X142410095Y-85454999D01*
X142416614Y-85454662D01*
X142512206Y-85444743D01*
X142525600Y-85441851D01*
X142679784Y-85390412D01*
X142692962Y-85384239D01*
X142830807Y-85298937D01*
X142842208Y-85289901D01*
X142956739Y-85175171D01*
X142965751Y-85163760D01*
X143050816Y-85025757D01*
X143056963Y-85012576D01*
X143108138Y-84858290D01*
X143111005Y-84844914D01*
X143120672Y-84750562D01*
X143121000Y-84744146D01*
X143121000Y-84219115D01*
X143116525Y-84203876D01*
X143115135Y-84202671D01*
X143107452Y-84201000D01*
X142385115Y-84201000D01*
X142369876Y-84205475D01*
X142368671Y-84206865D01*
X142367000Y-84214548D01*
X142367000Y-85436884D01*
X141859000Y-85436884D01*
X141859000Y-83674885D01*
X142367000Y-83674885D01*
X142371475Y-83690124D01*
X142372865Y-83691329D01*
X142380548Y-83693000D01*
X143102884Y-83693000D01*
X143118123Y-83688525D01*
X143119328Y-83687135D01*
X143120999Y-83679452D01*
X143120999Y-83149905D01*
X143120662Y-83143386D01*
X143110743Y-83047794D01*
X143107851Y-83034400D01*
X143056412Y-82880216D01*
X143050239Y-82867038D01*
X142964937Y-82729193D01*
X142955901Y-82717792D01*
X142841171Y-82603261D01*
X142829760Y-82594249D01*
X142691757Y-82509184D01*
X142678576Y-82503037D01*
X142524290Y-82451862D01*
X142510914Y-82448995D01*
X142416562Y-82439328D01*
X142410145Y-82439000D01*
X142385115Y-82439000D01*
X142369876Y-82443475D01*
X142368671Y-82444865D01*
X142367000Y-82452548D01*
X142367000Y-83674885D01*
X141859000Y-83674885D01*
X141859000Y-82457116D01*
X141854525Y-82441877D01*
X141848438Y-82436602D01*
X141795405Y-82407644D01*
X141761380Y-82345332D01*
X141758500Y-82318548D01*
X141758500Y-77953513D01*
X141778502Y-77885392D01*
X141832158Y-77838899D01*
X141849001Y-77832617D01*
X141856124Y-77830525D01*
X141857329Y-77829135D01*
X141859000Y-77821452D01*
X141859000Y-77816884D01*
X142367000Y-77816884D01*
X142371475Y-77832123D01*
X142372865Y-77833328D01*
X142380548Y-77834999D01*
X142410095Y-77834999D01*
X142416614Y-77834662D01*
X142512206Y-77824743D01*
X142525600Y-77821851D01*
X142679784Y-77770412D01*
X142692962Y-77764239D01*
X142830807Y-77678937D01*
X142842208Y-77669901D01*
X142956739Y-77555171D01*
X142965751Y-77543760D01*
X143050816Y-77405757D01*
X143056963Y-77392576D01*
X143108138Y-77238290D01*
X143111005Y-77224914D01*
X143120672Y-77130562D01*
X143121000Y-77124146D01*
X143121000Y-76599115D01*
X143116525Y-76583876D01*
X143115135Y-76582671D01*
X143107452Y-76581000D01*
X142385115Y-76581000D01*
X142369876Y-76585475D01*
X142368671Y-76586865D01*
X142367000Y-76594548D01*
X142367000Y-77816884D01*
X141859000Y-77816884D01*
X141859000Y-76054885D01*
X142367000Y-76054885D01*
X142371475Y-76070124D01*
X142372865Y-76071329D01*
X142380548Y-76073000D01*
X143102884Y-76073000D01*
X143118123Y-76068525D01*
X143119328Y-76067135D01*
X143120999Y-76059452D01*
X143120999Y-75529905D01*
X143120662Y-75523386D01*
X143110743Y-75427794D01*
X143107851Y-75414400D01*
X143056412Y-75260216D01*
X143050239Y-75247038D01*
X142964937Y-75109193D01*
X142955901Y-75097792D01*
X142841171Y-74983261D01*
X142829760Y-74974249D01*
X142691757Y-74889184D01*
X142678576Y-74883037D01*
X142524290Y-74831862D01*
X142510914Y-74828995D01*
X142416562Y-74819328D01*
X142410145Y-74819000D01*
X142385115Y-74819000D01*
X142369876Y-74823475D01*
X142368671Y-74824865D01*
X142367000Y-74832548D01*
X142367000Y-76054885D01*
X141859000Y-76054885D01*
X141859000Y-74837116D01*
X141854525Y-74821877D01*
X141848438Y-74816602D01*
X141795405Y-74787644D01*
X141761380Y-74725332D01*
X141758500Y-74698548D01*
X141758500Y-70333513D01*
X141778502Y-70265392D01*
X141832158Y-70218899D01*
X141849001Y-70212617D01*
X141856124Y-70210525D01*
X141857329Y-70209135D01*
X141859000Y-70201452D01*
X141859000Y-70196884D01*
X142367000Y-70196884D01*
X142371475Y-70212123D01*
X142372865Y-70213328D01*
X142380548Y-70214999D01*
X142410095Y-70214999D01*
X142416614Y-70214662D01*
X142512206Y-70204743D01*
X142525600Y-70201851D01*
X142679784Y-70150412D01*
X142692962Y-70144239D01*
X142830807Y-70058937D01*
X142842208Y-70049901D01*
X142956739Y-69935171D01*
X142965751Y-69923760D01*
X143050816Y-69785757D01*
X143056963Y-69772576D01*
X143108138Y-69618290D01*
X143111005Y-69604914D01*
X143120672Y-69510562D01*
X143121000Y-69504146D01*
X143121000Y-68979115D01*
X143116525Y-68963876D01*
X143115135Y-68962671D01*
X143107452Y-68961000D01*
X142385115Y-68961000D01*
X142369876Y-68965475D01*
X142368671Y-68966865D01*
X142367000Y-68974548D01*
X142367000Y-70196884D01*
X141859000Y-70196884D01*
X141859000Y-68434885D01*
X142367000Y-68434885D01*
X142371475Y-68450124D01*
X142372865Y-68451329D01*
X142380548Y-68453000D01*
X143102884Y-68453000D01*
X143118123Y-68448525D01*
X143119328Y-68447135D01*
X143120999Y-68439452D01*
X143120999Y-67909905D01*
X143120662Y-67903386D01*
X143110743Y-67807794D01*
X143107851Y-67794400D01*
X143056412Y-67640216D01*
X143050239Y-67627038D01*
X142964937Y-67489193D01*
X142955901Y-67477792D01*
X142841171Y-67363261D01*
X142829760Y-67354249D01*
X142691757Y-67269184D01*
X142678576Y-67263037D01*
X142524290Y-67211862D01*
X142510914Y-67208995D01*
X142416562Y-67199328D01*
X142410145Y-67199000D01*
X142385115Y-67199000D01*
X142369876Y-67203475D01*
X142368671Y-67204865D01*
X142367000Y-67212548D01*
X142367000Y-68434885D01*
X141859000Y-68434885D01*
X141859000Y-67217116D01*
X141854525Y-67201877D01*
X141848438Y-67196602D01*
X141795405Y-67167644D01*
X141761380Y-67105332D01*
X141758500Y-67078548D01*
X141758500Y-62713513D01*
X141778502Y-62645392D01*
X141832158Y-62598899D01*
X141849001Y-62592617D01*
X141856124Y-62590525D01*
X141857329Y-62589135D01*
X141859000Y-62581452D01*
X141859000Y-62576884D01*
X142367000Y-62576884D01*
X142371475Y-62592123D01*
X142372865Y-62593328D01*
X142380548Y-62594999D01*
X142410095Y-62594999D01*
X142416614Y-62594662D01*
X142512206Y-62584743D01*
X142525600Y-62581851D01*
X142679784Y-62530412D01*
X142692962Y-62524239D01*
X142830807Y-62438937D01*
X142842208Y-62429901D01*
X142956739Y-62315171D01*
X142965751Y-62303760D01*
X143050816Y-62165757D01*
X143056963Y-62152576D01*
X143108138Y-61998290D01*
X143111005Y-61984914D01*
X143120672Y-61890562D01*
X143121000Y-61884146D01*
X143121000Y-61359115D01*
X143116525Y-61343876D01*
X143115135Y-61342671D01*
X143107452Y-61341000D01*
X142385115Y-61341000D01*
X142369876Y-61345475D01*
X142368671Y-61346865D01*
X142367000Y-61354548D01*
X142367000Y-62576884D01*
X141859000Y-62576884D01*
X141859000Y-60814885D01*
X142367000Y-60814885D01*
X142371475Y-60830124D01*
X142372865Y-60831329D01*
X142380548Y-60833000D01*
X143102884Y-60833000D01*
X143118123Y-60828525D01*
X143119328Y-60827135D01*
X143120999Y-60819452D01*
X143120999Y-60289905D01*
X143120662Y-60283386D01*
X143110743Y-60187794D01*
X143107851Y-60174400D01*
X143056412Y-60020216D01*
X143050239Y-60007038D01*
X142964937Y-59869193D01*
X142955901Y-59857792D01*
X142841171Y-59743261D01*
X142829760Y-59734249D01*
X142691757Y-59649184D01*
X142678576Y-59643037D01*
X142524290Y-59591862D01*
X142510914Y-59588995D01*
X142416562Y-59579328D01*
X142410145Y-59579000D01*
X142385115Y-59579000D01*
X142369876Y-59583475D01*
X142368671Y-59584865D01*
X142367000Y-59592548D01*
X142367000Y-60814885D01*
X141859000Y-60814885D01*
X141859000Y-59597116D01*
X141854525Y-59581877D01*
X141848438Y-59576602D01*
X141795405Y-59547644D01*
X141761380Y-59485332D01*
X141758500Y-59458548D01*
X141758500Y-55281817D01*
X141778502Y-55213696D01*
X141832158Y-55167203D01*
X141902432Y-55157099D01*
X141967012Y-55186593D01*
G37*
%TD.AperFunction*%
%TA.AperFunction,Conductor*%
G36*
X145139591Y-108402302D02*
G01*
X145160565Y-108419205D01*
X145267837Y-108526477D01*
X145275414Y-108534803D01*
X145279539Y-108541303D01*
X145285317Y-108546729D01*
X145285318Y-108546730D01*
X145318946Y-108578309D01*
X145354912Y-108639522D01*
X145352073Y-108710462D01*
X145311333Y-108768606D01*
X145245624Y-108795494D01*
X145236662Y-108796096D01*
X145195948Y-108797376D01*
X145193969Y-108797438D01*
X145190012Y-108797500D01*
X145162017Y-108797500D01*
X145158083Y-108797997D01*
X145158081Y-108797997D01*
X145157994Y-108798008D01*
X145146160Y-108798940D01*
X145101795Y-108800335D01*
X145094182Y-108802547D01*
X145094181Y-108802547D01*
X145082252Y-108806013D01*
X145062888Y-108810023D01*
X145050560Y-108811580D01*
X145050558Y-108811580D01*
X145042701Y-108812573D01*
X145035337Y-108815489D01*
X145035332Y-108815490D01*
X145001444Y-108828907D01*
X144990215Y-108832752D01*
X144982471Y-108835002D01*
X144947607Y-108845131D01*
X144940780Y-108849169D01*
X144940777Y-108849170D01*
X144930094Y-108855488D01*
X144912336Y-108864188D01*
X144900785Y-108868761D01*
X144900779Y-108868765D01*
X144893412Y-108871681D01*
X144887001Y-108876339D01*
X144886999Y-108876340D01*
X144857512Y-108897764D01*
X144847590Y-108904281D01*
X144816232Y-108922826D01*
X144816228Y-108922829D01*
X144809402Y-108926866D01*
X144795018Y-108941250D01*
X144779984Y-108954091D01*
X144763513Y-108966058D01*
X144758460Y-108972166D01*
X144735223Y-109000255D01*
X144727233Y-109009035D01*
X143716672Y-110019595D01*
X143654360Y-110053621D01*
X143627577Y-110056500D01*
X135737616Y-110056500D01*
X135669495Y-110036498D01*
X135623002Y-109982842D01*
X135612898Y-109912568D01*
X135640532Y-109850184D01*
X135661574Y-109824749D01*
X135669563Y-109815969D01*
X136186990Y-109298543D01*
X136249302Y-109264518D01*
X136264665Y-109262158D01*
X136280279Y-109260737D01*
X136287300Y-109260098D01*
X136294002Y-109257920D01*
X136294004Y-109257920D01*
X136453109Y-109206224D01*
X136453112Y-109206223D01*
X136459808Y-109204047D01*
X136591535Y-109125522D01*
X136609560Y-109114777D01*
X136609562Y-109114776D01*
X136615612Y-109111169D01*
X136746966Y-108986082D01*
X136847343Y-108835002D01*
X136902554Y-108689660D01*
X136909255Y-108672020D01*
X136909256Y-108672018D01*
X136911755Y-108665438D01*
X136918450Y-108617798D01*
X136947738Y-108553125D01*
X137004289Y-108515501D01*
X137083006Y-108489925D01*
X137083009Y-108489924D01*
X137089708Y-108487747D01*
X137196785Y-108423916D01*
X137236786Y-108400071D01*
X137301303Y-108382300D01*
X145071470Y-108382300D01*
X145139591Y-108402302D01*
G37*
%TD.AperFunction*%
%TA.AperFunction,Conductor*%
G36*
X132924012Y-86071198D02*
G01*
X132930579Y-86077311D01*
X133542272Y-86689005D01*
X133576296Y-86751315D01*
X133571231Y-86822131D01*
X133528684Y-86878966D01*
X133493051Y-86897622D01*
X133421216Y-86921588D01*
X133408038Y-86927761D01*
X133270193Y-87013063D01*
X133258792Y-87022099D01*
X133144261Y-87136829D01*
X133135249Y-87148240D01*
X133050184Y-87286243D01*
X133044037Y-87299424D01*
X132992862Y-87453710D01*
X132989995Y-87467086D01*
X132980328Y-87561438D01*
X132980000Y-87567855D01*
X132980000Y-87992885D01*
X132984475Y-88008124D01*
X132985865Y-88009329D01*
X132993548Y-88011000D01*
X135127884Y-88011000D01*
X135143123Y-88006525D01*
X135144328Y-88005135D01*
X135145999Y-87997452D01*
X135145999Y-87567905D01*
X135145662Y-87561386D01*
X135135743Y-87465794D01*
X135132851Y-87452400D01*
X135120499Y-87415376D01*
X135117915Y-87344426D01*
X135154099Y-87283343D01*
X135217563Y-87251518D01*
X135240023Y-87249500D01*
X136271500Y-87249500D01*
X136339621Y-87269502D01*
X136386114Y-87323158D01*
X136397500Y-87375500D01*
X136397500Y-93612972D01*
X136377498Y-93681093D01*
X136323842Y-93727586D01*
X136253568Y-93737690D01*
X136188988Y-93708196D01*
X136182405Y-93702067D01*
X132041518Y-89561180D01*
X132007492Y-89498868D01*
X132012557Y-89428053D01*
X132031732Y-89393992D01*
X132032134Y-89393483D01*
X132037305Y-89388303D01*
X132130115Y-89237738D01*
X132185797Y-89069861D01*
X132196500Y-88965400D01*
X132196500Y-88962095D01*
X132980001Y-88962095D01*
X132980338Y-88968614D01*
X132990257Y-89064206D01*
X132993149Y-89077600D01*
X133044588Y-89231784D01*
X133050761Y-89244962D01*
X133136063Y-89382807D01*
X133145099Y-89394208D01*
X133259829Y-89508739D01*
X133271240Y-89517751D01*
X133409243Y-89602816D01*
X133422424Y-89608963D01*
X133576710Y-89660138D01*
X133590086Y-89663005D01*
X133684438Y-89672672D01*
X133690854Y-89673000D01*
X133790885Y-89673000D01*
X133806124Y-89668525D01*
X133807329Y-89667135D01*
X133809000Y-89659452D01*
X133809000Y-89654884D01*
X134317000Y-89654884D01*
X134321475Y-89670123D01*
X134322865Y-89671328D01*
X134330548Y-89672999D01*
X134435095Y-89672999D01*
X134441614Y-89672662D01*
X134537206Y-89662743D01*
X134550600Y-89659851D01*
X134704784Y-89608412D01*
X134717962Y-89602239D01*
X134855807Y-89516937D01*
X134867208Y-89507901D01*
X134981739Y-89393171D01*
X134990751Y-89381760D01*
X135075816Y-89243757D01*
X135081963Y-89230576D01*
X135133138Y-89076290D01*
X135136005Y-89062914D01*
X135145672Y-88968562D01*
X135146000Y-88962146D01*
X135146000Y-88537115D01*
X135141525Y-88521876D01*
X135140135Y-88520671D01*
X135132452Y-88519000D01*
X134335115Y-88519000D01*
X134319876Y-88523475D01*
X134318671Y-88524865D01*
X134317000Y-88532548D01*
X134317000Y-89654884D01*
X133809000Y-89654884D01*
X133809000Y-88537115D01*
X133804525Y-88521876D01*
X133803135Y-88520671D01*
X133795452Y-88519000D01*
X132998116Y-88519000D01*
X132982877Y-88523475D01*
X132981672Y-88524865D01*
X132980001Y-88532548D01*
X132980001Y-88962095D01*
X132196500Y-88962095D01*
X132196500Y-87564600D01*
X132196163Y-87561350D01*
X132186238Y-87465692D01*
X132186237Y-87465688D01*
X132185526Y-87458834D01*
X132183346Y-87452301D01*
X132183344Y-87452290D01*
X132146881Y-87343001D01*
X132144295Y-87272051D01*
X132177309Y-87214029D01*
X132444528Y-86946810D01*
X132458941Y-86934423D01*
X132476564Y-86921454D01*
X132510979Y-86880945D01*
X132517909Y-86873429D01*
X132523653Y-86867685D01*
X132525927Y-86864811D01*
X132525933Y-86864804D01*
X132541372Y-86845289D01*
X132544163Y-86841885D01*
X132586945Y-86791528D01*
X132586948Y-86791524D01*
X132591684Y-86785949D01*
X132595011Y-86779434D01*
X132598392Y-86774364D01*
X132601617Y-86769142D01*
X132606160Y-86763400D01*
X132637246Y-86696888D01*
X132639152Y-86692988D01*
X132669213Y-86634117D01*
X132672543Y-86627596D01*
X132674284Y-86620479D01*
X132676411Y-86614761D01*
X132678342Y-86608955D01*
X132681443Y-86602321D01*
X132696391Y-86530461D01*
X132697359Y-86526181D01*
X132713469Y-86460343D01*
X132714804Y-86454888D01*
X132715500Y-86443670D01*
X132715539Y-86443672D01*
X132715772Y-86439771D01*
X132716161Y-86435412D01*
X132717652Y-86428244D01*
X132715546Y-86350423D01*
X132715500Y-86347014D01*
X132715500Y-86166422D01*
X132735502Y-86098301D01*
X132789158Y-86051808D01*
X132859432Y-86041704D01*
X132924012Y-86071198D01*
G37*
%TD.AperFunction*%
%TD*%
M02*
