M48
; DRILL file {KiCad (6.0.9)} date Fri Dec  9 22:04:47 2022
; FORMAT={-:-/ absolute / metric / decimal}
; #@! TF.CreationDate,2022-12-09T22:04:47+01:00
; #@! TF.GenerationSoftware,Kicad,Pcbnew,(6.0.9)
; #@! TF.FileFunction,Plated,1,2,PTH
FMAT,2
METRIC
; #@! TA.AperFunction,Plated,PTH,ViaDrill
T1C0.300
%
G90
G05
T1
X107.188Y-138.43
X115.443Y-139.065
X115.57Y-107.442
X116.332Y-137.414
X116.332Y-140.081
X117.919Y-78.994
X118.872Y-137.414
X118.872Y-140.081
X121.666Y-140.081
X121.793Y-135.763
X122.682Y-85.598
X122.682Y-88.138
X122.682Y-90.678
X122.682Y-93.218
X122.682Y-95.758
X122.682Y-98.298
X122.682Y-100.838
X122.682Y-103.378
X123.429Y-108.059
X123.444Y-111.252
X123.444Y-113.792
X123.444Y-116.332
X123.444Y-118.872
X123.444Y-121.412
X123.444Y-123.952
X123.444Y-126.492
X123.444Y-129.032
X123.444Y-131.572
X123.444Y-134.112
X123.825Y-137.541
X123.952Y-81.566
X125.73Y-83.058
X125.73Y-85.598
X125.73Y-88.138
X125.984Y-113.792
X125.984Y-116.332
X125.984Y-118.872
X125.984Y-121.412
X125.984Y-123.952
X125.984Y-126.492
X125.984Y-129.032
X125.984Y-131.572
X125.984Y-134.112
X126.873Y-90.678
X126.873Y-93.218
X126.873Y-95.758
X126.873Y-98.298
X126.873Y-100.838
X126.873Y-103.378
X126.873Y-111.506
X127.254Y-112.776
X128.27Y-83.947
X128.571Y-111.299
X129.032Y-108.966
X129.794Y-140.462
X130.048Y-137.922
X131.064Y-135.382
X131.191Y-84.963
X132.406Y-114.427
X132.715Y-84.963
X132.994Y-104.394
X133.096Y-132.842
X133.676Y-115.697
X133.909Y-104.394
X133.96Y-105.918
X134.087Y-108.092
X134.772Y-103.988
X135.382Y-88.265
X135.382Y-131.064
X135.451Y-80.632
X135.611Y-103.302
X136.124Y-108.463
X136.129Y-107.071
X136.754Y-107.747
X137.033Y-114.554
X137.033Y-117.094
X137.033Y-119.634
X137.033Y-122.174
X137.033Y-124.714
X137.389Y-106.172
X137.922Y-61.087
X137.922Y-64.897
X137.922Y-68.707
X138.024Y-83.972
X138.938Y-73.914
X138.938Y-77.724
X138.938Y-81.534
X138.938Y-86.36
X138.938Y-90.17
X138.938Y-93.98
X138.938Y-97.79
X143.129Y-61.087
X143.129Y-68.707
X143.129Y-76.327
X143.129Y-83.947
X144.526Y-114.3
X144.526Y-116.84
X144.526Y-119.38
X144.526Y-121.92
X144.526Y-124.46
X144.78Y-108.783
X145.542Y-131.064
X145.669Y-103.759
X145.669Y-110.109
X145.796Y-93.116
X145.796Y-95.656
X145.796Y-98.196
X147.193Y-101.473
X147.193Y-102.362
X147.193Y-103.251
X147.828Y-132.842
X148.437Y-106.833
X148.463Y-110.744
X149.225Y-82.931
X149.225Y-85.471
X149.225Y-88.011
X149.225Y-90.551
X149.225Y-93.091
X149.86Y-135.382
X150.495Y-101.473
X150.495Y-102.362
X150.495Y-103.251
X150.749Y-79.883
X150.876Y-137.922
X151.13Y-140.462
X151.337Y-114.093
X151.765Y-82.931
X151.765Y-85.471
X151.765Y-88.011
X151.765Y-90.551
X152.4Y-93.091
X152.4Y-104.394
X152.85Y-105.478
X153.162Y-93.98
X153.543Y-79.629
X153.797Y-80.772
X155.956Y-93.98
X156.464Y-93.091
X156.464Y-110.744
X156.464Y-113.284
X156.464Y-115.824
X156.464Y-118.364
X156.464Y-120.904
X156.464Y-123.444
X156.464Y-125.984
X156.464Y-128.524
X156.464Y-131.064
X156.812Y-102.997
X157.231Y-106.833
X157.48Y-88.646
X158.877Y-133.604
X159.004Y-110.744
X159.004Y-113.284
X159.004Y-115.824
X159.004Y-118.364
X159.004Y-120.904
X159.004Y-123.444
X159.004Y-125.984
X159.004Y-128.524
X160.274Y-131.064
X160.622Y-95.25
X161.417Y-136.144
X162.941Y-133.604
X163.005Y-78.994
X163.83Y-138.684
X165.227Y-137.541
X165.354Y-107.442
X165.481Y-136.144
X173.736Y-138.43
T0
M30
